<?xml version="1.0" encoding="UTF-8" standalone="no"?>
<!-- Generator: Adobe Illustrator 24.1.1, SVG Export Plug-In . SVG Version: 6.00 Build 0)  -->

<svg
   xmlns:dc="http://purl.org/dc/elements/1.1/"
   xmlns:cc="http://creativecommons.org/ns#"
   xmlns:rdf="http://www.w3.org/1999/02/22-rdf-syntax-ns#"
   xmlns:svg="http://www.w3.org/2000/svg"
   xmlns="http://www.w3.org/2000/svg"
   xmlns:xlink="http://www.w3.org/1999/xlink"
   xmlns:sodipodi="http://sodipodi.sourceforge.net/DTD/sodipodi-0.dtd"
   xmlns:inkscape="http://www.inkscape.org/namespaces/inkscape"
   version="1.1"
   id="Capa_1"
   x="0px"
   y="0px"
   viewBox="0 0 589.15002 669.47498"
   xml:space="preserve"
   sodipodi:docname="logo2_final_animated (copia).svg"
   width="589.15002"
   height="669.47498"
   inkscape:version="0.92.4 (5da689c313, 2019-01-14)"><metadata
   id="metadata433"><rdf:RDF><cc:Work
       rdf:about=""><dc:format>image/svg+xml</dc:format><dc:type
         rdf:resource="http://purl.org/dc/dcmitype/StillImage" /><dc:title></dc:title></cc:Work></rdf:RDF></metadata><defs
   id="defs431" /><sodipodi:namedview
   pagecolor="#ffffff"
   bordercolor="#666666"
   borderopacity="1"
   objecttolerance="10"
   gridtolerance="10"
   guidetolerance="10"
   inkscape:pageopacity="0"
   inkscape:pageshadow="2"
   inkscape:window-width="1920"
   inkscape:window-height="1016"
   id="namedview429"
   showgrid="false"
   fit-margin-top="0"
   fit-margin-left="-2.4980018e-16"
   fit-margin-right="0"
   fit-margin-bottom="0"
   inkscape:zoom="0.6180637"
   inkscape:cx="159.83652"
   inkscape:cy="439.36584"
   inkscape:window-x="0"
   inkscape:window-y="27"
   inkscape:window-maximized="1"
   inkscape:current-layer="Capa_1" />
<style
   type="text/css"
   id="style2">
	.st0{clip-path:url(#SVGID_5_);fill:#875151;stroke:#629274;stroke-width:1.298;stroke-miterlimit:10;}
	.st1{clip-path:url(#SVGID_5_);fill:#709985;}
	.st2{clip-path:url(#SVGID_5_);fill:none;stroke:#F7F7F7;stroke-width:58.2265;stroke-miterlimit:10;}
	.st3{clip-path:url(#SVGID_5_);fill:#F7F7F7;}
	.st4{clip-path:url(#SVGID_5_);fill:none;stroke:#F7F7F7;stroke-width:46.5812;stroke-miterlimit:10;}
	.st5{clip-path:url(#SVGID_5_);}
	.st6{fill:none;stroke:#A3A3A3;stroke-width:8.734;stroke-miterlimit:10;}
	.st7{fill:none;stroke:#A3A3A3;stroke-width:8.734;stroke-miterlimit:10;stroke-dasharray:26.8447,22.3706;}
	
		.st8{clip-path:url(#SVGID_5_);fill:none;stroke:#A3A3A3;stroke-width:11.6453;stroke-miterlimit:10;stroke-dasharray:29.1132,23.2906;}
	.st9{fill:#EF5261;}
	.st10{fill:#EEEFEE;}
	.st11{clip-path:url(#SVGID_6_);}
	.st12{fill:#FEFEFE;}
	.st13{fill:#FECB66;}
	.st14{fill:#F6CB5F;}
	.st15{fill:#AAACAB;}
	.st16{fill:#F5B541;}
	.st17{fill:#DCDCDA;}
	.st18{fill:#9FA09F;}
	.st19{fill:#C6C9CC;}
	.st20{fill:#8D8D8D;}
	.st21{fill:#FBB843;}
	.st22{fill:#F7C943;}
	.st23{fill:#797C7C;}
	.st24{fill:#3E3F40;}
	.st25{fill:#434344;}
	.st26{fill:#FD9F1A;}
	.st27{fill:#F0F3F3;}
	.st28{clip-path:url(#SVGID_7_);}
	.st29{fill:#D5AB90;}
	.st30{fill:#D4AB90;}
	.st31{fill:#D2A07C;}
	.st32{fill:#D2A17C;}
	.st33{fill:#D3A17C;}
	.st34{fill:#DABA9C;}
	.st35{fill:#DBB899;}
	.st36{fill:#DCB99A;}
	.st37{fill:#FDCB6A;}
	.st38{fill:#DAB89A;}
	.st39{fill:#D3A88C;}
	.st40{fill:#F4C963;}
	.st41{fill:#E1BA7D;}
	.st42{fill:#EACE8A;}
	.st43{fill:#DCB593;}
	.st44{clip-path:url(#SVGID_8_);}
	.st45{fill:#E4AF35;}
	.st46{fill:#A7A7A7;}
	.st47{fill:#EAC858;}
	.st48{fill:#F4C12E;}
	.st49{fill:#F7BF20;}
	.st50{fill:#444343;}
	.st51{fill:#9F9E9D;}
	.st52{fill:#8C8B8A;}
	.st53{fill:#3F3E3D;}
	.st54{fill:#4F5155;}
	.st55{fill:#FEC75B;}
	.st56{fill:#494B50;}
	.st57{fill:#ACACAC;}
	.st58{fill:#1D1D1E;}
	.st59{fill:#DCDDDD;}
	.st60{clip-path:url(#SVGID_5_);fill:none;}
</style>
<g
   id="g426"
   transform="translate(-245.85,-190.7725)">
	<defs
   id="defs5">
		<path
   id="SVGID_1_"
   d="M 835,675.38 V 375.63 c 0,-12.5 -6.67,-24.05 -17.49,-30.3 L 557.92,195.46 c -10.82,-6.25 -24.16,-6.25 -34.98,0 l -259.6,149.88 c -10.82,6.25 -17.49,17.8 -17.49,30.3 v 299.75 c 0,12.5 6.67,24.05 17.49,30.3 l 259.59,149.87 c 10.82,6.25 24.16,6.25 34.98,0 L 817.5,705.69 c 10.83,-6.26 17.5,-17.81 17.5,-30.31 z"
   inkscape:connector-curvature="0" />
	</defs>
	<clipPath
   id="SVGID_5_">
		<use
   xlink:href="#SVGID_1_"
   style="overflow:visible"
   id="use7"
   x="0"
   y="0"
   width="100%"
   height="100%" />
	</clipPath>
	<rect
   x="192.46001"
   y="164.60001"
   class="st0"
   width="699.07001"
   height="699.07001"
   clip-path="url(#SVGID_5_)"
   id="rect10"
   style="fill:#875151;stroke:#629274;stroke-width:1.29799998;stroke-miterlimit:10" />
	<polyline
   class="st1"
   points="847.58,346.89 673.38,369.66 892.49,519.81 928.05,441.2  "
   clip-path="url(#SVGID_5_)"
   id="polyline12"
   style="fill:#709985" />
	<polygon
   class="st1"
   points="200.94,358.24 351.58,239.49 392.54,228.69 562.76,345.72 446.25,404.55 319.76,487.44 "
   clip-path="url(#SVGID_5_)"
   id="polygon14"
   style="fill:#709985" />
	<path
   class="st2"
   d="m 134.19,609.25 c 149.11,-74.09 250.5,-136.62 317.3,-181.66 18.07,-12.19 38.2,-26.19 69.47,-40.79 61.88,-28.9 95.76,-26.71 260.4,-45.35 99.86,-11.31 128.07,-16.72 181.6,-10.23 40.27,4.88 73,13.85 95.33,21.11"
   clip-path="url(#SVGID_5_)"
   id="path16"
   inkscape:connector-curvature="0"
   style="fill:none;stroke:#f7f7f7;stroke-width:58.22650146;stroke-miterlimit:10" />
	<polygon
   class="st3"
   points="254,205.61 1010.35,681.01 1012.24,572.74 268.75,121.27 "
   clip-path="url(#SVGID_5_)"
   id="polygon18"
   style="fill:#f7f7f7" />
	<path
   class="st3"
   d="M 199.14,800.56 421.25,679.14 c 0,0 23.16,-29.73 72.14,-25.4 4.24,0.37 6.94,0.46 13.47,1.14 18.82,1.95 45.82,4.15 80.4,5.03 27.44,-12.82 54.87,-25.65 82.31,-38.47 l 397.15,-207.9 15.03,85.3 -795.34,457.5 z"
   clip-path="url(#SVGID_5_)"
   id="path20"
   inkscape:connector-curvature="0"
   style="fill:#f7f7f7" />
	<line
   class="st4"
   x1="-209.97"
   y1="92.860001"
   x2="338.01999"
   y2="484.26999"
   clip-path="url(#SVGID_5_)"
   id="line22"
   style="fill:none;stroke:#f7f7f7;stroke-width:46.58119965;stroke-miterlimit:10" />
	<g
   class="st5"
   clip-path="url(#SVGID_5_)"
   id="g32">
		<g
   id="g30">
			<line
   class="st6"
   x1="300.89001"
   y1="181.91"
   x2="311.98999"
   y2="188.87"
   id="line24"
   style="fill:none;stroke:#a3a3a3;stroke-width:8.73400021;stroke-miterlimit:10" />
			<polyline
   class="st7"
   points="330.94,200.76 1049.79,651.89 1067.97,670.48    "
   id="polyline26"
   style="fill:none;stroke:#a3a3a3;stroke-width:8.73400021;stroke-miterlimit:10;stroke-dasharray:26.8447, 22.3706" />
			<line
   class="st6"
   x1="1075.8"
   y1="678.47998"
   x2="1084.96"
   y2="687.84003"
   id="line28"
   style="fill:none;stroke:#a3a3a3;stroke-width:8.73400021;stroke-miterlimit:10" />
		</g>
	</g>
	<path
   class="st8"
   d="m 232.86,917.82 c 7.59,-3.53 171.29,-96.15 171.29,-96.15 l 715.86,-409.93"
   clip-path="url(#SVGID_5_)"
   id="path34"
   inkscape:connector-curvature="0"
   style="fill:none;stroke:#a3a3a3;stroke-width:11.64529991;stroke-miterlimit:10;stroke-dasharray:29.1132, 23.2906" />
	<g
   class="st5"
   clip-path="url(#SVGID_5_)"
   id="g42">
		<g
   id="g40">
			<path
   class="st9"
   d="m 490.81,638.32 c 0,43.52 -50.93,101.86 -50.93,101.86 0,0 -50.93,-57.39 -50.93,-101.86 0,-28.13 22.8,-50.93 50.93,-50.93 28.13,0 50.94,22.81 50.93,50.93 z"
   id="path36"
   inkscape:connector-curvature="0"
   style="fill:#ef5261" />
				<circle
   class="st10"
   cx="439.88"
   cy="637.33002"
   r="33.540001"
   id="circle38"
   style="fill:#eeefee" />
				<animateTransform
   id="anim1"
   attributeName="transform"
   type="scale"
   from="1 1"
   to="1 0.955"
   begin="0s; anim2.end"
   dur="0.5s" />
				
			      </g>
			      <animateTransform
   id="anim2"
   attributeName="transform"
   type="scale"
   from="1 0.955"
   to="1 1"
   begin="anim1.end"
   dur="0.52s" />
	</g>
	<g
   class="st5"
   clip-path="url(#SVGID_5_)"
   id="g50">
		<g
   id="g48">
			<path
   class="st9"
   d="m 452.89,327.62 c 0,22 -25.74,51.49 -25.74,51.49 0,0 -25.74,-29.01 -25.74,-51.49 0,-14.22 11.53,-25.75 25.75,-25.75 14.2,0.01 25.73,11.54 25.73,25.75 z"
   id="path44"
   inkscape:connector-curvature="0"
   style="fill:#ef5261" />
			<circle
   class="st10"
   cx="427.14001"
   cy="327.12"
   r="16.950001"
   id="circle46"
   style="fill:#eeefee" />
		</g>
	</g>
	<g
   class="st5"
   clip-path="url(#SVGID_5_)"
   id="g216">
		<defs
   id="defs53">
			<path
   id="SVGID_4_"
   d="m 552.66,249.72 9.03,-4.87 c 0,0 1.6,-0.84 2.39,-0.94 0.79,-0.1 1.48,0.06 1.48,0.06 l 0.74,0.25 1.28,0.79 2.31,1.73 2.09,1.22 5.68,3.26 6.42,3.76 8.08,4.71 9.01,5.26 5.03,2.98 2,1.14 6.46,3.82 30.14,17.99 c 0,0 0.22,0.34 0.26,0.39 0.04,0.05 0.22,0.21 0.27,0.63 0.05,0.42 0.02,4.65 0.02,4.65 L 645.23,316 c 0,0 20.64,11.6 21.39,12.45 0.75,0.84 1.89,3.65 1.89,3.65 l 1.05,3.47 11.27,22 c 0,0 0.64,2.08 0.5,2.88 -0.14,0.8 -0.14,1.02 -0.14,1.02 l 0.07,4.33 0.19,17.06 c 0,0 0.2,1.13 -0.21,2.58 -0.42,1.46 -1.58,3.76 -1.58,3.76 0,0 -0.14,-0.8 0.05,0.61 0.19,1.41 0.11,3.38 -0.36,3.94 -0.47,0.57 -1.16,2.12 -1.68,2.49 -0.51,0.38 -12.63,7.8 -12.63,7.8 l -21.85,13.29 c 0,0 -4.45,2.27 -8.39,2.99 -3.94,0.72 -7.98,-0.57 -7.98,-0.57 0,0 -5.31,-2.18 -7.62,-3.81 -2.31,-1.63 -15.39,-9.22 -15.39,-9.22 l -26.77,-15.88 -31.85,-18.86 -17.36,-10.34 c 0,0 -2.64,-2.1 -3.82,-3.64 -1.18,-1.54 -2.22,-2.71 -3.69,-7.07 -1.47,-4.36 -0.52,-10.18 -0.52,-10.18 0,0 -3.48,-1.91 -3.91,-2.7 -0.43,-0.8 -0.71,-1.78 -0.71,-1.78 l -0.26,-4.74 0.03,-58.51 c 0,0 0,-0.88 0.81,-1.44 0.81,-0.57 4.43,-2.77 4.43,-2.77 z"
   inkscape:connector-curvature="0" />
		</defs>
		<clipPath
   id="SVGID_6_">
			<use
   xlink:href="#SVGID_4_"
   style="overflow:visible"
   id="use55"
   x="0"
   y="0"
   width="100%"
   height="100%" />
		</clipPath>
		<g
   class="st11"
   clip-path="url(#SVGID_6_)"
   id="g214">
			<g
   id="g212">
				<path
   class="st12"
   d="m 502.57,334.71 c 0,-31.33 0.04,-62.67 -0.07,-94 -0.01,-2.62 0.53,-3.15 3.15,-3.15 61.79,0.09 123.59,0.09 185.38,0 2.62,0 3.15,0.53 3.15,3.15 -0.09,62.67 -0.09,125.34 0,188.01 0,2.62 -0.53,3.15 -3.15,3.15 -61.79,-0.09 -123.59,-0.09 -185.38,0 -2.62,0 -3.16,-0.53 -3.15,-3.15 0.11,-31.34 0.07,-62.68 0.07,-94.01 z m 107.22,0.3 c 0.26,-0.2 0.53,-0.4 0.79,-0.6 10.04,-5.89 20.08,-11.79 30.12,-17.67 0.98,-0.58 2,-1.43 3.22,-0.78 2.95,1.56 3.56,-0.95 3.53,-2.54 -0.11,-7.11 0.72,-14.28 -0.79,-21.34 0.28,-1.75 -1.09,-2.16 -2.23,-2.78 -2.51,-1.37 -5.01,-2.74 -7.51,-4.12 -0.84,-0.37 -1.68,-0.74 -2.52,-1.11 l 0.04,0.05 c -0.97,-1.74 -2.82,-2.2 -4.42,-3.04 -0.27,-0.15 -0.53,-0.3 -0.8,-0.45 -0.44,-0.69 -1.04,-1.07 -1.89,-0.95 l 0.07,0.04 c -0.34,-0.83 -0.98,-1.07 -1.82,-0.91 l 0.06,0.02 c -1.35,-1.81 -3.35,-2.64 -5.32,-3.51 l 0.04,0.04 c -1.17,-1.41 -2.8,-2.08 -4.42,-2.78 -0.3,-0.65 -0.87,-0.77 -1.5,-0.77 -6.81,-4.12 -13.62,-8.23 -20.43,-12.35 l 0.01,0.06 c -5.14,-4.39 -11.35,-6.65 -17.59,-8.85 l 0.05,0.04 c -0.94,-3.11 -3.82,-3.32 -6.25,-4.22 -2.4,-1.72 -4.83,-2.72 -7.4,-0.3 -1.06,-0.28 -1.89,0 -2.4,1.02 l 0.02,-0.06 c -3.83,1.65 -7.47,3.63 -10.77,6.21 -0.22,-0.05 -0.42,-0.01 -0.6,0.14 -0.31,0.26 -0.63,0.53 -0.94,0.79 l 0.02,-0.09 c -1.65,0.61 -3.31,1.18 -4.4,2.69 v -0.05 c -6.67,3.44 -13.54,6.55 -19.35,11.44 l 0.07,-0.01 c -0.85,-0.14 -1.47,0.24 -1.95,0.9 -0.81,0.6 -1.62,1.19 -2.43,1.79 -1.05,0.01 -1.97,0.3 -2.6,1.21 -3.45,1.5 -1.13,4.47 -1.7,6.7 0,0.61 0,1.21 0,1.82 -0.03,1.46 -0.07,2.92 -0.07,4.38 -0.01,13.6 0.1,27.21 -0.06,40.81 -0.07,5.72 -1.61,11.73 4.91,15.26 -1.33,9.89 2.49,17.7 10.59,21.66 2.81,2.07 5.49,4.36 8.47,6.16 16.99,10.31 34.02,20.55 51.1,30.71 11.41,6.78 22.5,14.12 34.75,19.45 4.55,1.98 8.85,2.76 13.46,0.57 2.9,-1.38 5.99,-2.4 8.74,-4.02 9.69,-5.71 19.25,-11.64 28.91,-17.41 3.37,-2.01 5.2,-4.62 4.32,-8.67 1.1,-1.54 1.84,-3.11 1.8,-5.16 -0.16,-7.66 -0.12,-15.33 -0.15,-23 0.53,-2 -0.1,-3.88 -1.12,-5.45 -3.85,-5.89 -6.23,-12.53 -9.77,-18.56 -0.49,-0.75 -0.15,-1.91 -1.18,-2.4 -2.08,-7.14 -3.2,-7.45 -8.77,-2.51 -0.5,0.45 -1.23,0.64 -1.86,0.95 -6.03,2.35 -11.31,6.03 -16.77,9.4 -2.46,1.41 -5.21,2.35 -7.19,4.52 -0.26,-0.04 -0.5,0.01 -0.72,0.14 -0.35,0.25 -0.7,0.5 -1.05,0.75 -0.25,-0.05 -0.49,0 -0.71,0.13 -0.33,0.25 -0.66,0.51 -0.99,0.76 -1.69,0.9 -3.38,1.8 -5.06,2.71 -5.07,-3.36 -10.34,-6.47 -15.96,-8.72 -3.1,-1.24 -4.89,-2.85 -5.21,-6.11 l 0.25,-0.13 c 0.66,-0.02 1.21,-0.21 1.42,-0.93 0.18,-0.2 0.4,-0.3 0.66,-0.32 0.52,0.13 0.89,-0.05 1.07,-0.57 z"
   id="path58"
   inkscape:connector-curvature="0"
   style="fill:#fefefe" />
				<path
   class="st13"
   d="m 515.83,280.69 c 0,-0.61 0,-1.21 0,-1.82 0.56,-1.44 1.13,-2.89 1.69,-4.33 5.03,0.79 9.09,3.77 13.45,6.05 6.01,3.13 11.73,6.95 17.99,9.42 8.32,3.29 16.02,7.77 23.5,12.36 8.77,5.38 18.23,9.45 26.73,15.22 1.14,1.7 0.9,3.63 0.9,5.52 0.02,20.45 0.04,40.89 0.06,61.34 -1.1,1.19 -2.44,0.96 -3.6,0.33 -5.31,-2.93 -10.64,-5.85 -15.84,-8.97 -10.89,-6.52 -21.26,-13.97 -33.16,-18.7 -2.33,-2.5 -5.16,-3.88 -8.62,-3.83 -0.62,-1.23 -1.41,-2.24 -2.96,-2.26 -1.4,-2.84 -4.39,-3.08 -6.85,-4.17 -0.35,-0.63 -0.69,-1.27 -1.04,-1.9 0.98,-2.56 -1.49,-2.73 -2.67,-3.62 -3.79,-2.85 -8.2,-5.96 -7.65,-10.93 0.8,-7.18 -0.72,-14.17 -0.36,-21.27 0.42,-8.16 0.13,-16.35 0.05,-24.52 0,-1.45 0.81,-3.42 -1.62,-3.92 z"
   id="path60"
   inkscape:connector-curvature="0"
   style="fill:#fecb66" />
				<path
   class="st14"
   d="m 614.45,271.82 c 0.63,-0.01 1.2,0.12 1.5,0.77 0.32,2.76 2.42,2.69 4.42,2.78 0,0 -0.04,-0.04 -0.04,-0.04 0.44,3.19 2.82,3.44 5.32,3.51 0,0 -0.06,-0.02 -0.06,-0.02 0.33,0.85 1.04,0.95 1.81,0.91 0,0 -0.07,-0.04 -0.06,-0.04 0.35,0.87 1.09,0.97 1.89,0.95 0.27,0.15 0.53,0.3 0.8,0.46 0.12,2.98 2.26,3.02 4.41,3.04 0,0 -0.04,-0.05 -0.04,-0.05 0.16,1.91 0.94,2.43 2.52,1.11 2.5,1.37 5,2.75 7.51,4.12 1.14,0.62 2.51,1.03 2.23,2.78 -1.83,0.47 -3.57,1.05 -5.24,2.04 -5.08,3.02 -10.27,5.87 -15.44,8.74 -5.56,3.1 -11.11,6.21 -16.72,9.2 -2.92,1.56 -5.59,3.82 -9.18,3.77 -1.52,-0.81 -3.15,-1.47 -4.53,-2.47 -10.97,-8.01 -23.08,-14.2 -35.15,-20.14 -11.56,-5.69 -22.65,-12.22 -34.27,-17.78 -2.12,-1.01 -5.28,-1.34 -6.02,-4.49 0.81,-0.6 1.62,-1.19 2.43,-1.79 0.81,0.04 1.57,-0.01 1.95,-0.9 0,0 -0.07,0.01 -0.06,0.01 6.73,-0.5 10.95,-5.92 16.58,-8.6 0.97,-0.46 3.06,-0.75 2.77,-2.84 0,0 0,0.05 0,0.05 2.01,-0.01 4.03,0 4.4,-2.69 0,0 -0.02,0.09 -0.02,0.09 0.31,-0.26 0.63,-0.53 0.94,-0.79 0.18,-0.14 0.38,-0.19 0.6,-0.14 4.58,-0.34 8.53,-1.79 10.77,-6.21 0,0 -0.02,0.06 -0.02,0.06 1.02,0.19 1.78,-0.25 2.4,-1.02 2.57,-2.42 5,-1.41 7.4,0.3 1.5,2.27 3.04,4.49 6.25,4.22 0,0 -0.05,-0.04 -0.06,-0.04 -0.1,1.55 0.92,2.06 2.09,2.86 2.22,1.5 5.25,0.92 7.09,2.73 2.42,2.38 5.43,2.65 8.41,3.26 0,0 -0.01,-0.06 -0.01,-0.06 0.25,1.28 -1.48,2.09 -0.91,3.54 2.83,-0.11 4.98,1.37 7.29,2.58 4.54,2.39 8.85,5.33 14.05,6.23 z"
   id="path62"
   inkscape:connector-curvature="0"
   style="fill:#f6cb5f" />
				<path
   class="st15"
   d="m 547.55,357.1 c 11.9,4.74 22.26,12.18 33.16,18.7 5.21,3.12 10.53,6.04 15.84,8.97 1.16,0.64 2.5,0.87 3.6,-0.33 0.28,-0.06 0.56,-0.13 0.83,-0.23 0.32,-0.27 0.63,-0.54 0.95,-0.81 0.55,-0.23 1.1,-0.45 1.65,-0.68 0.08,1.44 1.32,2.15 1.97,3.23 1.68,2.79 3.08,3.8 5.7,0.6 1.73,-2.11 4.68,-2.68 7.57,-1.9 -0.84,0.56 -1.65,1.16 -2.51,1.67 -5.37,3.15 -6.47,6.18 -4.91,12.25 0.92,3.6 2.58,6.75 4.7,9.71 4.29,5.99 9.37,7.33 15.91,4.25 1.95,-0.92 3.91,-1.8 5.86,-2.7 0.98,1.09 2.23,0.65 3.42,0.62 0.86,0.02 2.21,0.39 2.5,-0.01 2.34,-3.25 6.34,-3.72 9.31,-5.84 1.22,-0.87 3.12,-1.18 3.18,-3.23 0.31,-0.12 0.62,-0.23 0.94,-0.35 0.71,-0.08 1.43,-0.14 1.74,-0.95 l -0.06,0.07 c 0.29,-0.23 0.57,-0.45 0.86,-0.68 0.2,-0.2 0.45,-0.28 0.73,-0.23 0.36,-0.26 0.73,-0.53 1.09,-0.79 l 0.17,-0.17 0.23,0.08 c 2.12,-0.01 4.31,0.12 4.83,-2.72 l -0.01,0.07 c 1.03,0.07 2.09,0.24 2.7,-0.92 l -0.16,-0.01 c 4.47,-0.37 7.22,-4.62 11.61,-5.18 0.88,4.05 -0.95,6.66 -4.32,8.67 -9.66,5.77 -19.22,11.7 -28.91,17.41 -2.75,1.62 -5.84,2.64 -8.74,4.02 -4.61,2.19 -8.92,1.41 -13.46,-0.57 -12.25,-5.33 -23.34,-12.66 -34.75,-19.45 -17.08,-10.16 -34.11,-20.4 -51.1,-30.71 -2.97,-1.8 -5.65,-4.1 -8.46,-6.16 0.16,-0.18 0.31,-0.36 0.47,-0.55 5.71,1.92 10.59,0.17 15.3,-3.13 1.11,-0.78 0.49,-1.32 0.57,-2.02 z"
   id="path64"
   inkscape:connector-curvature="0"
   style="fill:#aaacab" />
				<path
   class="st16"
   d="m 600.97,384.22 c -0.27,0.09 -0.55,0.17 -0.83,0.23 -0.02,-20.45 -0.04,-40.89 -0.06,-61.34 0,-1.89 0.24,-3.82 -0.9,-5.52 0.71,-0.37 0.88,-1.02 0.9,-1.75 3.59,0.05 6.26,-2.21 9.18,-3.77 5.61,-3 11.16,-6.11 16.72,-9.2 5.17,-2.88 10.36,-5.72 15.44,-8.74 1.67,-0.99 3.41,-1.57 5.24,-2.04 1.5,7.06 0.67,14.23 0.79,21.34 0.03,1.59 -0.58,4.1 -3.53,2.54 -1.22,-0.65 -2.24,0.2 -3.22,0.78 -10.05,5.88 -20.08,11.78 -30.12,17.67 -0.26,0.2 -0.53,0.4 -0.79,0.6 0,0 -0.18,0.1 -0.17,0.1 -0.36,0.19 -0.71,0.38 -1.07,0.57 -0.26,0.02 -0.48,0.12 -0.66,0.32 -0.65,0.03 -1.19,0.24 -1.42,0.93 0,0 -0.25,0.13 -0.25,0.13 -2.56,0.44 -1.55,2.51 -1.57,3.86 -0.1,10.95 0,21.9 -0.13,32.84 -0.03,2.71 0.65,5.55 -0.79,8.14 -0.05,-3.48 -0.07,-6.96 -0.17,-10.44 -0.08,-2.55 -1.02,-0.43 -1.6,-0.26 -2.22,4.19 -0.4,8.69 -0.99,13.01 z"
   id="path66"
   inkscape:connector-curvature="0"
   style="fill:#f5b541" />
				<path
   class="st17"
   d="m 603.74,381.89 c 1.44,-2.59 0.76,-5.43 0.79,-8.14 0.13,-10.95 0.02,-21.9 0.13,-32.84 0.01,-1.34 -0.99,-3.42 1.57,-3.86 0.31,3.26 2.1,4.87 5.21,6.11 5.63,2.25 10.89,5.36 15.96,8.72 3.74,7.03 6.17,14.69 10.42,21.47 -0.09,0.15 -0.08,0.29 0.02,0.43 0.14,1.19 0.54,2.21 1.75,2.72 l -0.02,-0.04 c -0.1,1.52 0.26,2.82 1.78,3.54 0,0 -0.01,-0.02 -0.01,-0.01 -0.22,1.8 -0.01,3.42 1.81,4.39 0.01,5.9 -0.69,11.92 0.27,17.67 0.6,3.6 0.88,6.15 -2.11,8.42 -1.18,0.04 -2.44,0.48 -3.42,-0.61 2.02,-2.51 -1.88,-2.46 -1.87,-4.47 0.02,-4.79 -2.46,-8.88 -5.21,-12.57 -2.99,-4 -6.4,-7.75 -11.97,-8.13 -2.89,-0.79 -5.83,-0.22 -7.57,1.9 -2.63,3.2 -4.02,2.19 -5.7,-0.6 -0.65,-1.08 -1.89,-1.79 -1.97,-3.23 0.09,-0.3 0.14,-0.58 0.14,-0.87 z m 11.15,-14.94 c -0.26,1.47 0.98,1.5 1.83,1.9 1.18,0.79 2.55,1.11 3.78,1.94 4.65,3.18 9.52,6.05 14.34,8.97 0.66,0.4 1.45,1.15 2.35,0.39 0.84,-0.71 0.54,-1.51 0.13,-2.34 -3.6,-7.23 -7.18,-14.48 -10.77,-21.72 -0.52,-1.86 -1.66,-3.08 -3.58,-3.51 -4.86,-2.9 -9.75,-5.76 -14.57,-8.71 -2.18,-1.33 -2.12,0.16 -2.13,1.55 -0.03,5.25 -0.31,10.52 0.08,15.74 0.25,3.27 2.44,5.43 6.07,5.49 0.84,0.07 1.68,0.14 2.52,0.2 z"
   id="path68"
   inkscape:connector-curvature="0"
   style="fill:#dcdcda" />
				<path
   class="st18"
   d="m 637.83,373.78 c -0.1,-0.14 -0.11,-0.28 -0.02,-0.43 2.02,-9.43 4.29,-18.81 4.46,-28.53 0.75,-0.44 0.85,-1.17 0.84,-1.94 5.45,-3.37 10.74,-7.05 16.77,-9.4 1.1,1.71 1.01,3.64 0.74,5.49 -0.43,2.99 -1.18,5.93 -1.64,8.92 -1.51,9.81 -2.95,19.63 -4.41,29.45 -2.07,2.51 -4.8,4.05 -7.74,5.28 -2.62,0.77 -3.74,-1.61 -5.5,-2.64 0,0 0.01,0.02 0.01,0.02 0.17,-1.56 -0.06,-2.92 -1.78,-3.54 0,0 0.02,0.04 0.02,0.04 0.11,-1.35 0.07,-2.61 -1.75,-2.72 z"
   id="path70"
   inkscape:connector-curvature="0"
   style="fill:#9fa09f" />
				<path
   class="st19"
   d="m 646.82,382.62 c 2.95,-1.23 5.67,-2.77 7.74,-5.28 2.2,-0.51 3.93,-1.72 5.26,-3.54 3.69,-0.46 6.32,-2.74 8.86,-5.19 5.41,-0.89 9.08,-5.14 13.91,-7.17 0.03,7.67 -0.01,15.34 0.15,23 0.04,2.05 -0.69,3.62 -1.8,5.16 -4.39,0.56 -7.13,4.81 -11.61,5.18 2.38,-2.45 3.82,-5.09 2.03,-8.68 -4.46,2.49 -8.59,4.94 -12.84,7.14 -3.81,1.97 -3.95,4.75 -2.25,8.14 -0.06,2.05 -1.96,2.36 -3.18,3.23 -2.97,2.12 -6.97,2.59 -9.31,5.84 -0.29,0.4 -1.64,0.03 -2.5,0.01 2.99,-2.27 2.71,-4.82 2.11,-8.42 -0.96,-5.74 -0.27,-11.76 -0.27,-17.67 1.48,-0.07 2.69,-0.7 3.7,-1.75 z m 28.83,-3.54 c 1.26,-0.03 2.13,-0.64 2.62,-1.8 4.91,-1.66 1.8,-5.27 2.53,-8.27 -1.98,0.49 -3.33,0.95 -4.27,2.16 -0.72,0.03 -1.39,0.14 -1.75,0.88 -3.1,2.08 -1.93,5.24 -1.38,7.76 0.34,1.64 1.63,0.14 2.25,-0.73 z m -4.96,-4.34 c -4.74,0.97 -8.54,4.01 -12.75,6.17 -2.87,1.47 -5.23,7.72 -3.19,9.85 2.21,2.3 3.99,-1.29 6.09,-1.94 1.49,-0.46 2.73,-1.66 4.2,-2.23 5.49,-2.14 7.46,-5.98 5.65,-11.85 z m -18.03,10.91 c -1.93,0.68 -3.44,1.19 -4.93,1.73 -2.71,0.97 -1.87,3.31 -1.9,5.24 -0.01,0.83 -0.74,2.34 0.9,2.4 1.75,0.07 3.39,-0.36 4.74,-1.81 2.02,-2.16 1.26,-4.61 1.19,-7.56 z m 27.44,-1.05 c -0.37,-1.31 -0.95,-2.29 -2.15,-1.92 -2.2,0.7 -4.28,1.81 -4.69,4.37 -0.13,0.83 0.86,1.8 1.72,1.46 2.08,-0.81 4.13,-1.83 5.12,-3.91 z m -33.41,16.17 c -0.1,2.05 0.98,2.23 2,2.01 1.83,-0.38 3.76,-0.88 3.96,-3.25 0.14,-1.6 -0.93,-2.08 -2.24,-1.81 -1.93,0.41 -3.5,1.34 -3.72,3.05 z"
   id="path72"
   inkscape:connector-curvature="0"
   style="fill:#c6c9cc" />
				<path
   class="st20"
   d="m 682.59,361.44 c -4.82,2.03 -8.5,6.28 -13.91,7.17 -1.71,-2.26 -0.84,-4.69 -0.51,-7.11 1.06,-7.9 2.07,-15.82 3.09,-23.73 0.14,-0.12 0.29,-0.24 0.44,-0.35 3.54,6.04 5.92,12.68 9.77,18.57 1.01,1.57 1.65,3.45 1.12,5.45 z"
   id="path74"
   inkscape:connector-curvature="0"
   style="fill:#8d8d8d" />
				<path
   class="st21"
   d="m 600.09,315.84 c -0.02,0.73 -0.19,1.38 -0.9,1.75 -8.51,-5.77 -17.97,-9.84 -26.73,-15.22 -7.48,-4.59 -15.18,-9.07 -23.5,-12.36 -6.26,-2.48 -11.98,-6.29 -17.99,-9.42 -4.36,-2.28 -8.41,-5.26 -13.45,-6.05 0,-0.79 0.01,-1.58 0.01,-2.37 0.63,-0.91 1.55,-1.2 2.6,-1.21 0.74,3.15 3.9,3.47 6.02,4.49 11.61,5.56 22.71,12.09 34.27,17.78 12.07,5.94 24.18,12.13 35.15,20.14 1.37,1 3,1.65 4.52,2.47 z"
   id="path76"
   inkscape:connector-curvature="0"
   style="fill:#fbb843" />
				<path
   class="st20"
   d="m 642.27,344.82 c -0.17,9.71 -2.44,19.1 -4.46,28.53 -4.25,-6.78 -6.68,-14.44 -10.42,-21.47 1.69,-0.9 3.38,-1.8 5.06,-2.71 0.33,-0.25 0.66,-0.51 0.99,-0.76 0.22,-0.13 0.46,-0.17 0.71,-0.13 0.35,-0.25 0.7,-0.5 1.05,-0.75 0.22,-0.13 0.46,-0.18 0.72,-0.14 2.63,0.41 4.36,-1.4 6.35,-2.57 z"
   id="path78"
   inkscape:connector-curvature="0"
   style="fill:#8d8d8d" />
				<path
   class="st20"
   d="m 659.82,373.8 c -1.32,1.82 -3.05,3.03 -5.26,3.54 1.46,-9.82 2.9,-19.64 4.41,-29.45 0.46,-2.99 1.22,-5.93 1.64,-8.92 0.26,-1.85 0.36,-3.78 -0.74,-5.49 0.62,-0.31 1.35,-0.5 1.86,-0.95 5.57,-4.94 6.69,-4.63 8.77,2.51 l -0.13,0.11 c -0.87,0 -1.84,0.11 -2.37,-0.76 -0.56,-0.92 -0.55,-2.69 -2.12,-2.19 -1.38,0.43 -0.62,2.04 -0.81,3.12 -1.42,8.15 -3.19,16.26 -4.07,24.46 -0.49,4.63 -2.08,9.24 -1.18,14.02 z"
   id="path80"
   inkscape:connector-curvature="0"
   style="fill:#8d8d8d" />
				<path
   class="st16"
   d="m 515.83,280.69 c 2.43,0.5 1.62,2.46 1.63,3.9 0.07,8.18 0.37,16.37 -0.05,24.52 -0.37,7.11 1.16,14.09 0.36,21.27 -0.55,4.97 3.85,8.08 7.65,10.93 1.18,0.88 3.65,1.06 2.67,3.62 -0.58,0.03 -1.15,0.06 -1.73,0.1 -1.42,-0.97 -2.83,-1.95 -4.25,-2.92 -0.25,-0.7 -0.8,-0.94 -1.49,-0.97 -6.52,-3.52 -4.97,-9.54 -4.91,-15.26 0.16,-13.6 0.05,-27.21 0.06,-40.81 -0.02,-1.45 0.03,-2.91 0.06,-4.38 z"
   id="path82"
   inkscape:connector-curvature="0"
   style="fill:#f5b541" />
				<path
   class="st15"
   d="m 520.6,341.15 c 0.69,0.03 1.24,0.27 1.49,0.97 -0.61,8.52 3.76,14.68 9.57,20.15 -0.15,0.18 -0.31,0.36 -0.47,0.55 -8.1,-3.97 -11.92,-11.78 -10.59,-21.67 z"
   id="path84"
   inkscape:connector-curvature="0"
   style="fill:#aaacab" />
				<path
   class="st22"
   d="m 614.45,271.82 c -5.2,-0.9 -9.51,-3.84 -14.05,-6.22 -2.31,-1.21 -4.46,-2.7 -7.29,-2.58 -0.57,-1.46 1.16,-2.26 0.91,-3.54 6.82,4.1 13.63,8.22 20.43,12.34 z"
   id="path86"
   inkscape:connector-curvature="0"
   style="fill:#f7c943" />
				<path
   class="st22"
   d="m 594.04,259.52 c -2.98,-0.61 -5.99,-0.88 -8.41,-3.26 -1.84,-1.81 -4.87,-1.23 -7.09,-2.73 -1.17,-0.79 -2.19,-1.3 -2.09,-2.86 6.24,2.21 12.45,4.46 17.59,8.85 z"
   id="path88"
   inkscape:connector-curvature="0"
   style="fill:#f7c943" />
				<path
   class="st22"
   d="m 543.79,256.84 c 0.29,2.09 -1.8,2.38 -2.77,2.84 -5.63,2.68 -9.84,8.11 -16.58,8.6 5.81,-4.89 12.68,-7.99 19.35,-11.44 z"
   id="path90"
   inkscape:connector-curvature="0"
   style="fill:#f7c943" />
				<path
   class="st22"
   d="m 560.47,247.16 c -2.24,4.41 -6.19,5.86 -10.77,6.21 3.3,-2.58 6.95,-4.56 10.77,-6.21 z"
   id="path92"
   inkscape:connector-curvature="0"
   style="fill:#f7c943" />
				<path
   class="st22"
   d="m 576.5,250.72 c -3.21,0.26 -4.75,-1.96 -6.25,-4.22 2.43,0.9 5.32,1.11 6.25,4.22 z"
   id="path94"
   inkscape:connector-curvature="0"
   style="fill:#f7c943" />
				<path
   class="st23"
   d="m 642.27,344.82 c -1.99,1.17 -3.72,2.98 -6.35,2.58 1.98,-2.17 4.73,-3.11 7.19,-4.52 0.01,0.77 -0.09,1.49 -0.84,1.94 z"
   id="path96"
   inkscape:connector-curvature="0"
   style="fill:#797c7c" />
				<path
   class="st22"
   d="m 625.66,278.83 c -2.5,-0.07 -4.88,-0.32 -5.32,-3.51 1.97,0.87 3.97,1.7 5.32,3.51 z"
   id="path98"
   inkscape:connector-curvature="0"
   style="fill:#f7c943" />
				<path
   class="st16"
   d="m 517.53,272.17 c 0,0.79 -0.01,1.58 -0.01,2.37 -0.56,1.44 -1.13,2.89 -1.69,4.33 0.57,-2.23 -1.75,-5.19 1.7,-6.7 z"
   id="path100"
   inkscape:connector-curvature="0"
   style="fill:#f5b541" />
				<path
   class="st22"
   d="m 548.19,254.2 c -0.37,2.69 -2.39,2.69 -4.4,2.69 1.09,-1.51 2.75,-2.09 4.4,-2.69 z"
   id="path102"
   inkscape:connector-curvature="0"
   style="fill:#f7c943" />
				<path
   class="st22"
   d="m 620.37,275.37 c -2,-0.09 -4.1,-0.02 -4.42,-2.78 1.62,0.69 3.26,1.36 4.42,2.78 z"
   id="path104"
   inkscape:connector-curvature="0"
   style="fill:#f7c943" />
				<path
   class="st22"
   d="m 634.45,284.13 c -2.16,-0.02 -4.3,-0.06 -4.41,-3.04 1.59,0.84 3.44,1.3 4.41,3.04 z"
   id="path106"
   inkscape:connector-curvature="0"
   style="fill:#f7c943" />
				<path
   class="st22"
   d="m 636.94,285.18 c -1.59,1.32 -2.36,0.8 -2.52,-1.11 0.84,0.37 1.68,0.74 2.52,1.11 z"
   id="path108"
   inkscape:connector-curvature="0"
   style="fill:#f7c943" />
				<path
   class="st22"
   d="m 562.85,246.2 c -0.62,0.77 -1.37,1.21 -2.4,1.02 0.51,-1.02 1.33,-1.31 2.4,-1.02 z"
   id="path110"
   inkscape:connector-curvature="0"
   style="fill:#f7c943" />
				<path
   class="st20"
   d="m 670.51,335.03 c 1.03,0.49 0.7,1.65 1.18,2.4 -0.15,0.11 -0.29,0.23 -0.43,0.35 -1.07,-0.62 -0.9,-1.65 -0.88,-2.64 z"
   id="path112"
   inkscape:connector-curvature="0"
   style="fill:#8d8d8d" />
				<path
   class="st22"
   d="m 629.24,280.63 c -0.8,0.02 -1.53,-0.08 -1.89,-0.95 0.85,-0.11 1.45,0.26 1.89,0.95 z"
   id="path114"
   inkscape:connector-curvature="0"
   style="fill:#f7c943" />
				<path
   class="st22"
   d="m 627.42,279.72 c -0.78,0.04 -1.48,-0.06 -1.81,-0.91 0.83,-0.16 1.46,0.09 1.81,0.91 z"
   id="path116"
   inkscape:connector-curvature="0"
   style="fill:#f7c943" />
				<path
   class="st17"
   d="m 606.47,336.92 c 0.23,-0.69 0.76,-0.9 1.42,-0.93 -0.2,0.73 -0.75,0.92 -1.42,0.93 z"
   id="path118"
   inkscape:connector-curvature="0"
   style="fill:#dcdcda" />
				<path
   class="st22"
   d="m 524.51,268.28 c -0.38,0.89 -1.15,0.94 -1.95,0.9 0.48,-0.67 1.09,-1.04 1.95,-0.9 z"
   id="path120"
   inkscape:connector-curvature="0"
   style="fill:#f7c943" />
				<path
   class="st23"
   d="m 633.45,348.41 c -0.33,0.25 -0.66,0.51 -0.99,0.76 0.33,-0.25 0.66,-0.51 0.99,-0.76 z"
   id="path122"
   inkscape:connector-curvature="0"
   style="fill:#797c7c" />
				<path
   class="st22"
   d="m 549.1,253.5 c -0.31,0.26 -0.63,0.53 -0.94,0.79 0.32,-0.26 0.63,-0.53 0.94,-0.79 z"
   id="path124"
   inkscape:connector-curvature="0"
   style="fill:#f7c943" />
				<path
   class="st23"
   d="m 635.2,347.53 c -0.35,0.25 -0.7,0.5 -1.05,0.75 0.35,-0.25 0.7,-0.5 1.05,-0.75 z"
   id="path126"
   inkscape:connector-curvature="0"
   style="fill:#797c7c" />
				<path
   class="st17"
   d="m 608.55,335.68 c 0.36,-0.19 0.72,-0.38 1.07,-0.57 -0.19,0.52 -0.55,0.69 -1.07,0.57 z"
   id="path128"
   inkscape:connector-curvature="0"
   style="fill:#dcdcda" />
				<path
   class="st17"
   d="m 609.79,335.01 c 0.27,-0.2 0.53,-0.4 0.79,-0.6 -0.26,0.2 -0.52,0.4 -0.79,0.6 z"
   id="path130"
   inkscape:connector-curvature="0"
   style="fill:#dcdcda" />
				<path
   class="st24"
   d="m 531.66,362.26 c -5.81,-5.47 -10.17,-11.63 -9.57,-20.15 1.42,0.97 2.84,1.95 4.25,2.92 -0.04,0.91 -0.26,1.87 0.69,2.52 0.12,0.48 0.23,0.96 0.35,1.43 -0.07,0.76 -0.14,1.51 0.58,2.04 0.3,0.28 0.61,0.56 0.91,0.84 0,0 0.02,0.02 0.02,0.02 0.17,0.32 0.28,0.85 0.51,0.91 0.68,0.18 0.78,-0.41 0.87,-0.91 l 0.01,0.11 c 1.48,0.23 1.04,2.83 3.02,2.44 2.41,0.35 1.03,3.22 3.74,5.04 -2.56,-4.11 1.01,-4.41 1.88,-6.21 3.46,-0.04 6.29,1.33 8.62,3.84 -0.07,0.69 0.55,1.23 -0.59,2.03 -4.7,3.3 -9.58,5.05 -15.29,3.13 z m -1.41,-8.56 -0.15,0.32 0.28,0.01 z"
   id="path132"
   inkscape:connector-curvature="0"
   style="fill:#3e3f40" />
				<path
   class="st17"
   d="m 533.31,354.43 c -1.98,0.39 -1.54,-2.21 -3.02,-2.44 0.67,-1.84 -0.34,-3.17 -1.36,-4.5 0.1,-0.21 0.16,-0.43 0.19,-0.65 2.47,1.09 5.45,1.33 6.85,4.17 0.48,2.2 -1.34,2.62 -2.66,3.42 z"
   id="path134"
   inkscape:connector-curvature="0"
   style="fill:#dcdcda" />
				<path
   class="st15"
   d="m 533.31,354.43 c 1.32,-0.81 3.14,-1.23 2.66,-3.43 1.55,0.02 2.34,1.03 2.96,2.26 -0.87,1.8 -4.43,2.09 -1.88,6.2 -2.71,-1.8 -1.33,-4.68 -3.74,-5.03 z"
   id="path136"
   inkscape:connector-curvature="0"
   style="fill:#aaacab" />
				<path
   class="st18"
   d="m 529.12,346.84 c -0.02,0.23 -0.08,0.45 -0.19,0.65 l 0.05,-0.06 c -0.65,0.04 -1.3,0.08 -1.94,0.11 -0.94,-0.64 -0.73,-1.61 -0.69,-2.52 0.58,-0.03 1.15,-0.06 1.73,-0.1 0.34,0.65 0.69,1.28 1.04,1.92 z"
   id="path138"
   inkscape:connector-curvature="0"
   style="fill:#9fa09f" />
				<path
   class="st24"
   d="m 618.82,384.67 c 5.57,0.37 8.98,4.13 11.97,8.13 2.76,3.69 5.24,7.78 5.21,12.57 -0.01,2.01 3.89,1.96 1.87,4.47 -1.96,0.9 -3.92,1.78 -5.86,2.7 -6.54,3.08 -11.62,1.75 -15.91,-4.25 -2.12,-2.96 -3.78,-6.11 -4.7,-9.71 -1.56,-6.07 -0.46,-9.1 4.91,-12.25 0.86,-0.5 1.67,-1.1 2.51,-1.66 z m 1,7.57 c -0.55,-0.93 -1.47,-1.21 -1.97,-0.27 -0.79,1.48 0.74,1.83 1.61,2.44 0,0 -0.05,0.42 -0.05,0.42 -0.07,0.42 -0.09,0.87 -0.22,1.27 -2.36,7.19 -1.34,9.47 4.82,10.72 0.25,0.05 0.45,0.35 0.68,0.53 0.16,0.66 0.3,1.32 0.51,1.96 0.02,0.06 0.59,0.07 0.7,-0.06 0.7,-0.89 -0.27,-1.51 -0.42,-2.27 0.68,-0.89 3.4,0.78 2.59,-1.76 -1.22,-3.85 -2.12,-7.98 -5.93,-10.39 0.14,-1.51 0.08,-2.87 -2.04,-2.63 z"
   id="path140"
   inkscape:connector-curvature="0"
   style="fill:#3e3f40" />
				<path
   class="st25"
   d="m 656.27,401.38 c -1.7,-3.39 -1.56,-6.16 2.25,-8.14 4.25,-2.2 8.38,-4.65 12.84,-7.14 1.79,3.59 0.35,6.23 -2.03,8.68 0,0 0.16,0.01 0.16,0.01 -1.3,-0.88 -1.99,0.04 -2.7,0.92 0,0 0.01,-0.07 0.01,-0.07 -1.9,0.39 -3.39,1.51 -4.83,2.72 l -0.23,-0.08 c 0,0 -0.17,0.17 -0.17,0.17 -0.36,0.26 -0.73,0.53 -1.09,0.79 -0.28,-0.05 -0.52,0.03 -0.73,0.23 -0.29,0.23 -0.57,0.45 -0.86,0.68 0,0 0.06,-0.07 0.06,-0.07 -0.58,0.32 -1.16,0.63 -1.74,0.95 -0.31,0.12 -0.63,0.23 -0.94,0.35 z"
   id="path142"
   inkscape:connector-curvature="0"
   style="fill:#434344" />
				<path
   class="st26"
   d="m 603.74,381.89 c 0.01,0.29 -0.05,0.57 -0.16,0.84 -0.55,0.23 -1.1,0.46 -1.66,0.68 0.01,-4.07 0.03,-8.14 0.05,-12.22 0.58,-0.17 1.52,-2.29 1.6,0.26 0.1,3.49 0.11,6.97 0.17,10.44 z"
   id="path144"
   inkscape:connector-curvature="0"
   style="fill:#fd9f1a" />
				<path
   class="st21"
   d="m 601.96,371.2 c -0.02,4.07 -0.03,8.14 -0.05,12.22 -0.32,0.27 -0.63,0.54 -0.95,0.81 0.6,-4.33 -1.22,-8.83 1,-13.03 z"
   id="path146"
   inkscape:connector-curvature="0"
   style="fill:#fbb843" />
				<path
   class="st19"
   d="m 661.97,398.36 c 1.44,-1.21 2.93,-2.33 4.83,-2.72 -0.53,2.84 -2.72,2.71 -4.83,2.72 z"
   id="path148"
   inkscape:connector-curvature="0"
   style="fill:#c6c9cc" />
				<path
   class="st19"
   d="m 666.79,395.71 c 0.7,-0.88 1.4,-1.79 2.7,-0.92 -0.61,1.17 -1.67,1 -2.7,0.92 z"
   id="path150"
   inkscape:connector-curvature="0"
   style="fill:#c6c9cc" />
				<path
   class="st19"
   d="m 657.21,401.03 c 0.58,-0.32 1.16,-0.63 1.74,-0.95 -0.31,0.81 -1.03,0.87 -1.74,0.95 z"
   id="path152"
   inkscape:connector-curvature="0"
   style="fill:#c6c9cc" />
				<path
   class="st19"
   d="m 660.47,399.24 c 0.36,-0.26 0.73,-0.53 1.09,-0.79 -0.36,0.26 -0.72,0.53 -1.09,0.79 z"
   id="path154"
   inkscape:connector-curvature="0"
   style="fill:#c6c9cc" />
				<path
   class="st19"
   d="m 658.89,400.15 c 0.29,-0.23 0.57,-0.45 0.86,-0.68 -0.29,0.23 -0.58,0.45 -0.86,0.68 z"
   id="path156"
   inkscape:connector-curvature="0"
   style="fill:#c6c9cc" />
				<path
   class="st20"
   d="m 626.54,356.1 c 3.59,7.24 7.17,14.48 10.77,21.72 0.41,0.83 0.72,1.63 -0.13,2.34 -0.9,0.75 -1.69,0 -2.35,-0.39 -4.83,-2.92 -9.69,-5.79 -14.34,-8.97 -1.23,-0.84 -2.6,-1.16 -3.78,-1.95 -0.17,-1.06 0.86,-3.26 -1.83,-1.9 0,0 0.04,-0.06 0.05,-0.06 -0.42,-3.98 -0.83,-7.95 -1.25,-11.93 -0.41,0.02 -0.81,0.04 -1.22,0.06 0.57,3.92 -2.11,7.66 -0.06,11.67 -3.63,-0.06 -5.82,-2.22 -6.07,-5.49 -0.39,-5.22 -0.11,-10.49 -0.08,-15.74 0.01,-1.39 -0.05,-2.88 2.13,-1.55 4.83,2.95 9.71,5.81 14.57,8.71 -0.27,2.42 -0.54,4.85 -0.81,7.27 v -0.12 c -1.53,2.3 -1.37,4.64 -0.16,7 0.27,0.58 0.72,0.89 1.35,0.67 3.36,-1.13 4.05,-3.89 2.2,-8.73 0.35,-0.89 0.68,-1.75 1.01,-2.61 z"
   id="path158"
   inkscape:connector-curvature="0"
   style="fill:#8d8d8d" />
				<path
   class="st23"
   d="m 612.41,366.68 c -2.05,-4.01 0.62,-7.74 0.06,-11.67 0.41,-0.02 0.81,-0.04 1.22,-0.06 0.42,3.98 0.83,7.95 1.25,11.93 -0.85,-0.06 -1.69,-0.13 -2.53,-0.2 z"
   id="path160"
   inkscape:connector-curvature="0"
   style="fill:#797c7c" />
				<path
   class="st23"
   d="m 626.54,356.1 c -0.33,0.86 -0.66,1.72 -0.99,2.58 -1.13,0.39 -2.26,0.79 -3.4,1.18 0.27,-2.42 0.54,-4.85 0.81,-7.27 1.92,0.43 3.06,1.66 3.58,3.51 z"
   id="path162"
   inkscape:connector-curvature="0"
   style="fill:#797c7c" />
				<path
   class="st20"
   d="m 646.82,382.62 c -1.01,1.06 -2.22,1.68 -3.7,1.76 -1.81,-0.97 -2.03,-2.59 -1.81,-4.39 1.77,1.02 2.89,3.4 5.51,2.63 z"
   id="path164"
   inkscape:connector-curvature="0"
   style="fill:#8d8d8d" />
				<path
   class="st20"
   d="m 639.55,376.46 c 1.72,0.61 1.95,1.97 1.78,3.54 -1.52,-0.72 -1.87,-2.01 -1.78,-3.54 z"
   id="path166"
   inkscape:connector-curvature="0"
   style="fill:#8d8d8d" />
				<path
   class="st20"
   d="m 637.83,373.78 c 1.82,0.11 1.86,1.36 1.75,2.72 -1.21,-0.51 -1.61,-1.53 -1.75,-2.72 z"
   id="path168"
   inkscape:connector-curvature="0"
   style="fill:#8d8d8d" />
				<path
   class="st23"
   d="m 614.89,366.95 c 2.68,-1.36 1.66,0.84 1.83,1.9 -0.85,-0.41 -2.09,-0.43 -1.83,-1.9 z"
   id="path170"
   inkscape:connector-curvature="0"
   style="fill:#797c7c" />
				<path
   class="st18"
   d="m 670.38,335.14 c -0.02,0.98 -0.19,2.02 0.88,2.64 -1.03,7.91 -2.03,15.82 -3.09,23.73 -0.32,2.42 -1.2,4.85 0.51,7.11 -2.53,2.44 -5.16,4.72 -8.86,5.19 -0.91,-4.77 0.69,-9.38 1.19,-14.02 0.88,-8.21 2.64,-16.32 4.07,-24.46 0.19,-1.08 -0.57,-2.69 0.81,-3.12 1.58,-0.49 1.56,1.27 2.12,2.19 0.53,0.86 1.49,0.74 2.37,0.74 z"
   id="path172"
   inkscape:connector-curvature="0"
   style="fill:#9fa09f" />
				<path
   class="st25"
   d="m 670.69,374.74 c 1.81,5.88 -0.16,9.72 -5.64,11.85 -1.47,0.57 -2.72,1.77 -4.2,2.23 -2.1,0.64 -3.88,4.24 -6.09,1.94 -2.04,-2.13 0.32,-8.37 3.19,-9.85 4.2,-2.16 8,-5.21 12.74,-6.17 z"
   id="path174"
   inkscape:connector-curvature="0"
   style="fill:#434344" />
				<path
   class="st27"
   d="m 652.66,385.65 c 0.07,2.95 0.83,5.4 -1.19,7.56 -1.35,1.44 -2.99,1.88 -4.74,1.81 -1.64,-0.07 -0.91,-1.57 -0.9,-2.4 0.03,-1.92 -0.82,-4.26 1.9,-5.24 1.49,-0.54 3,-1.06 4.93,-1.73 z"
   id="path176"
   inkscape:connector-curvature="0"
   style="fill:#f0f3f3" />
				<path
   class="st12"
   d="m 674.78,372.06 c 0.36,-0.74 1.04,-0.85 1.75,-0.88 3.1,1.32 3.84,3.31 1.74,6.11 -0.49,1.16 -1.35,1.77 -2.62,1.8 -1.35,-2.22 -0.75,-4.67 -0.87,-7.03 z"
   id="path178"
   inkscape:connector-curvature="0"
   style="fill:#fefefe" />
				<path
   class="st26"
   d="m 680.1,384.6 c -0.99,2.08 -3.04,3.1 -5.12,3.92 -0.85,0.34 -1.85,-0.63 -1.72,-1.46 0.41,-2.56 2.49,-3.67 4.69,-4.37 1.2,-0.39 1.78,0.6 2.15,1.91 z"
   id="path180"
   inkscape:connector-curvature="0"
   style="fill:#fd9f1a" />
				<path
   class="st26"
   d="m 646.69,400.77 c 0.22,-1.7 1.79,-2.64 3.72,-3.04 1.31,-0.27 2.38,0.21 2.24,1.81 -0.21,2.37 -2.13,2.87 -3.96,3.25 -1.02,0.2 -2.11,0.03 -2,-2.02 z"
   id="path182"
   inkscape:connector-curvature="0"
   style="fill:#fd9f1a" />
				<path
   class="st27"
   d="m 678.27,377.29 c 2.1,-2.8 1.36,-4.79 -1.74,-6.11 0.94,-1.21 2.29,-1.67 4.27,-2.16 -0.73,2.99 2.38,6.61 -2.53,8.27 z"
   id="path184"
   inkscape:connector-curvature="0"
   style="fill:#f0f3f3" />
				<path
   class="st27"
   d="m 674.78,372.06 c 0.13,2.36 -0.47,4.81 0.87,7.02 -0.62,0.87 -1.91,2.37 -2.26,0.74 -0.54,-2.52 -1.72,-5.68 1.39,-7.76 z"
   id="path186"
   inkscape:connector-curvature="0"
   style="fill:#f0f3f3" />
				<path
   class="st23"
   d="m 528.93,347.49 c 1.02,1.33 2.03,2.66 1.36,4.5 0,0 -0.01,-0.11 -0.02,-0.11 -0.46,0 -0.93,0 -1.39,0.01 0,0 -0.02,-0.02 -0.02,-0.02 -0.07,-0.39 -0.14,-0.77 -0.21,-1.16 -0.24,0.1 -0.47,0.21 -0.71,0.31 -0.72,-0.53 -0.65,-1.29 -0.58,-2.04 0.53,-0.52 1.06,-1.03 1.6,-1.55 z"
   id="path188"
   inkscape:connector-curvature="0"
   style="fill:#797c7c" />
				<path
   class="st17"
   d="m 528.98,347.44 c -0.53,0.52 -1.06,1.03 -1.6,1.55 -0.12,-0.48 -0.23,-0.96 -0.35,-1.43 0.65,-0.05 1.3,-0.09 1.95,-0.12 z"
   id="path190"
   inkscape:connector-curvature="0"
   style="fill:#dcdcda" />
				<path
   class="st15"
   d="m 527.96,351.03 c 0.24,-0.1 0.47,-0.21 0.71,-0.31 0.07,0.39 0.14,0.77 0.21,1.16 -0.31,-0.29 -0.62,-0.57 -0.92,-0.85 z"
   id="path192"
   inkscape:connector-curvature="0"
   style="fill:#aaacab" />
				<path
   class="st15"
   d="m 528.89,351.89 c 0.46,0 0.93,0 1.39,-0.01 -0.09,0.51 -0.2,1.09 -0.87,0.91 -0.24,-0.05 -0.35,-0.58 -0.52,-0.9 z"
   id="path194"
   inkscape:connector-curvature="0"
   style="fill:#aaacab" />
				<polygon
   class="st15"
   points="530.37,354.04 530.09,354.02 530.25,353.7 "
   id="polygon196"
   style="fill:#aaacab" />
				<path
   class="st19"
   d="m 624.69,407.36 c -0.22,-0.18 -0.43,-0.48 -0.68,-0.53 -6.16,-1.25 -7.19,-3.53 -4.82,-10.72 0.13,-0.4 0.15,-0.85 0.22,-1.27 0.57,0 1.14,0 1.71,0 0.34,0 0.68,0 1.02,-0.01 3.81,2.41 4.71,6.55 5.93,10.39 0.81,2.55 -1.91,0.87 -2.59,1.76 -0.29,0.1 -0.55,0.22 -0.79,0.38 z"
   id="path198"
   inkscape:connector-curvature="0"
   style="fill:#c6c9cc" />
				<path
   class="st25"
   d="m 621.12,394.84 c -0.57,0 -1.14,0 -1.71,0 0,0 0.05,-0.42 0.05,-0.43 0.12,-0.73 0.24,-1.45 0.36,-2.17 0,0 0.28,-0.03 0.28,-0.03 0.63,0.77 1.28,1.52 1.02,2.63 z"
   id="path200"
   inkscape:connector-curvature="0"
   style="fill:#434344" />
				<path
   class="st15"
   d="m 619.82,392.24 c -0.12,0.72 -0.24,1.45 -0.36,2.17 -0.87,-0.61 -2.41,-0.96 -1.61,-2.44 0.5,-0.93 1.41,-0.66 1.97,0.27 z"
   id="path202"
   inkscape:connector-curvature="0"
   style="fill:#aaacab" />
				<path
   class="st25"
   d="m 624.69,407.36 c 0.24,-0.16 0.51,-0.28 0.79,-0.37 0.15,0.76 1.12,1.39 0.42,2.27 -0.1,0.13 -0.68,0.12 -0.7,0.06 -0.21,-0.64 -0.35,-1.3 -0.51,-1.96 z"
   id="path204"
   inkscape:connector-curvature="0"
   style="fill:#434344" />
				<path
   class="st15"
   d="m 621.12,394.84 c 0.26,-1.11 -0.39,-1.87 -1.02,-2.63 2.12,-0.24 2.17,1.12 2.04,2.63 -0.35,0 -0.69,0 -1.02,0 z"
   id="path206"
   inkscape:connector-curvature="0"
   style="fill:#aaacab" />
				<path
   class="st27"
   d="m 622.15,359.87 c 1.13,-0.39 2.26,-0.79 3.4,-1.18 1.85,4.84 1.16,7.6 -2.2,8.73 -0.63,0.21 -1.08,-0.1 -1.35,-0.67 0.05,-2.33 0.1,-4.66 0.16,-7 z"
   id="path208"
   inkscape:connector-curvature="0"
   style="fill:#f0f3f3" />
					<path
   class="st23"
   d="m 622.15,359.75 c -0.05,2.33 -0.1,4.66 -0.16,7 -1.21,-2.37 -1.37,-4.7 0.16,-7 z"
   id="path210"
   inkscape:connector-curvature="0"
   style="fill:#797c7c" />
					
					<animateTransform
   attributeName="transform"
   type="scale"
   from="1 1"
   to="1.002 1.002"
   begin="0s"
   dur="0.1s"
   repeatCount="indefinite" />

				      </g>
				      <animateTransform
   attributeName="transform"
   type="translate"
   from="-280 -175"
   to="730 490"
   begin="0s"
   dur="6.668s"
   repeatCount="indefinite" />

		</g>
	</g>
	<g
   class="st5"
   clip-path="url(#SVGID_5_)"
   id="g284">
		<defs
   id="defs219">
			<path
   id="SVGID_3_"
   d="m 313.43,573.87 v -4.57 l 0.16,-30.93 c 0,0 -0.03,-1.45 1.2,-2.07 1.24,-0.62 10.88,-6.55 10.88,-6.55 l 0.12,-26.45 v -10.38 c 0,0 0.12,-0.62 1.48,-1.61 1.36,-0.99 25.71,-14.71 25.71,-14.71 0,0 0.37,-0.74 3.21,0.74 2.84,1.48 27.93,16.93 27.93,16.93 0,0 0.49,-0.12 0.62,2.47 0.12,2.6 0.37,12.98 0.37,12.98 l 17.92,12.11 c 0,0 0.76,-0.32 0.8,0.79 0.04,1.11 0.19,34.34 0.19,34.34 0,0 -1.02,1.02 -1.58,1.21 -0.56,0.19 -56.55,32.26 -56.55,32.26 0,0 -0.74,1.21 -3.06,-0.09 -2.32,-1.3 -17.06,-9.83 -17.06,-9.83 z"
   inkscape:connector-curvature="0" />
		</defs>
		<clipPath
   id="SVGID_7_">
			<use
   xlink:href="#SVGID_3_"
   style="overflow:visible"
   id="use221"
   x="0"
   y="0"
   width="100%"
   height="100%" />
		</clipPath>
		<g
   class="st28"
   clip-path="url(#SVGID_7_)"
   id="g282">
			<g
   id="g280">
				<path
   class="st12"
   d="m 301.48,533.16 c 0,-20.48 0.04,-40.96 -0.05,-61.44 -0.01,-2.08 0.47,-2.55 2.54,-2.54 35.38,0.07 70.77,0.07 106.16,0 2.07,0 2.54,0.47 2.54,2.54 -0.07,41.24 -0.07,82.48 0,123.71 0,2.08 -0.47,2.55 -2.54,2.54 -35.38,-0.07 -70.77,-0.07 -106.16,0 -2.07,0 -2.55,-0.47 -2.54,-2.54 0.08,-20.76 0.05,-41.52 0.05,-62.27 z m 102.25,-11.68 0.09,-0.23 -0.16,-0.19 c -5.61,-4.8 -12.18,-8.14 -18.36,-12.07 -0.14,-4.91 -0.27,-9.83 -0.41,-14.74 -0.19,-0.33 -0.3,-0.81 -0.59,-0.98 -9.78,-5.82 -19.58,-11.59 -29.35,-17.42 -0.95,-0.57 -1.73,-0.6 -2.65,-0.04 -4.19,2.55 -8.4,5.08 -12.61,7.62 -0.54,0.28 -1.08,0.56 -1.62,0.84 -1.79,0.96 -3.78,1.67 -5.31,2.93 -2.31,1.9 -6.03,1.85 -7.21,5.25 0.03,12.18 0.05,24.35 0.08,36.53 -3.37,2.07 -6.71,4.19 -10.11,6.2 -1.39,0.82 -2.37,1.67 -2.35,3.49 0.11,10.86 0.15,21.71 0.22,32.57 -0.47,2.28 1.48,2.75 2.81,3.49 8.82,4.97 17.68,9.87 26.55,14.76 1.14,0.63 2.37,1.67 3.65,0.17 9.07,-5.09 18.14,-10.19 27.22,-15.28 1.17,-0.7 2.35,-1.39 3.52,-2.09 8.78,-5.07 17.56,-10.13 26.33,-15.2 1.54,-1.12 0.87,-2.77 0.88,-4.18 0.07,-8.35 0.09,-16.7 0,-25.05 -0.06,-2.11 0.61,-4.34 -0.62,-6.38 z"
   id="path224"
   inkscape:connector-curvature="0"
   style="fill:#fefefe" />
				<path
   class="st29"
   d="m 325.61,528.99 c -0.03,-12.18 -0.05,-24.35 -0.08,-36.53 0.67,0.09 1.46,-0.02 2,0.3 7.86,4.63 15.68,9.33 23.51,13.99 1.87,1.11 3.68,2.42 6.02,2.35 -0.28,1.48 -0.8,2.96 -0.81,4.44 -0.07,9.67 -0.04,19.35 -0.03,29.02 0,1.08 -0.21,2.25 0.83,3.05 -0.47,1.11 -1.36,1.57 -2.51,1.65 l 0.02,0.02 c -0.02,-1.78 -1.26,-1.73 -2.5,-1.68 l 0.02,0.01 c -0.02,-1.78 -1.27,-1.72 -2.5,-1.68 l 0.02,0.01 c 0.05,-1.17 -0.58,-1.65 -1.67,-1.68 l 0.03,0.02 c -0.3,-0.82 -0.87,-1.38 -1.69,-1.68 l 0.02,0.02 c -2.71,-2.29 -6.11,-3.29 -9.14,-5 l 0.02,0.02 c -0.84,-1.12 -2.01,-1.57 -3.35,-1.68 -2.96,-1.3 -4.48,-4.95 -8.21,-4.97 z m 20.27,0.47 c -1.33,4.24 -0.33,7.12 3.94,8.39 1.19,0.35 2.51,1.98 3.57,0.3 0.77,-1.23 0.67,-2.95 -0.31,-4.26 -1.79,-2.42 -4.48,-3.37 -7.2,-4.43 z"
   id="path226"
   inkscape:connector-curvature="0"
   style="fill:#d5ab90" />
				<path
   class="st30"
   d="m 346.37,589.67 c -1.28,1.51 -2.51,0.46 -3.65,-0.17 -8.87,-4.89 -17.73,-9.79 -26.55,-14.76 -1.32,-0.75 -3.28,-1.21 -2.81,-3.49 0.95,-1.22 0.54,-2.65 0.55,-3.99 0.04,-8.82 0.11,-17.64 -0.03,-26.45 -0.04,-2.74 0.73,-3.67 3.18,-2.24 9.21,5.35 18.37,10.78 27.55,16.18 0,10.32 -0.03,20.64 0.02,30.96 0.01,1.49 -0.76,3.49 1.74,3.96 z m -4.27,-8.47 c 0.01,-2.16 -5.03,-6.72 -7.02,-6.38 -1.07,0.18 -1.09,0.98 -1.26,1.8 -0.89,4.38 2.59,5.12 5.32,6.52 2.17,1.11 3.07,0.38 2.96,-1.94 z"
   id="path228"
   inkscape:connector-curvature="0"
   style="fill:#d4ab90" />
				<path
   class="st31"
   d="m 357.06,545.61 c -1.05,-0.81 -0.83,-1.97 -0.83,-3.05 -0.01,-9.67 -0.04,-19.35 0.03,-29.02 0.01,-1.48 0.53,-2.96 0.81,-4.44 3.93,-0.93 6.98,-3.36 9.99,-5.87 0.26,0.01 0.52,0.02 0.78,0.04 0,1.64 -0.01,3.29 -0.01,4.93 0,2.32 0.71,2.9 2.99,1.73 4.04,-2.08 3.73,-5.63 3.62,-9.21 2.77,-3.32 6.47,-5.13 10.46,-6.47 0.14,4.91 0.27,9.83 0.41,14.74 0,5.02 0,10.03 0,15.05 -0.01,1.1 -0.02,2.2 -0.03,3.3 0,0.28 0.01,0.56 0.01,0.85 -0.01,0.54 -0.02,1.09 -0.03,1.63 -3.34,2.2 -7.68,2.9 -10,6.65 -0.9,0.02 -1.87,-0.13 -2.44,0.85 -5.02,1.38 -8.78,5.04 -13.25,7.4 -0.85,0.29 -1.68,0.59 -2.51,0.89 z"
   id="path230"
   inkscape:connector-curvature="0"
   style="fill:#d2a07c" />
				<path
   class="st32"
   d="m 346.37,589.67 c -2.5,-0.47 -1.73,-2.47 -1.74,-3.97 -0.05,-10.32 -0.03,-20.64 -0.02,-30.96 4.35,-0.94 7.09,-5.05 11.52,-5.85 0.03,1.66 -0.03,3.32 0.12,4.97 0.17,1.86 1.34,2.07 2.53,0.98 2.71,-2.47 4.96,-5.21 3.26,-9.27 3.19,-2.85 7.22,-4.32 10.75,-6.61 1.35,1.21 0.8,2.82 0.81,4.26 0.03,10.39 -0.01,20.78 -0.02,31.16 -9.07,5.11 -18.14,10.2 -27.21,15.29 z"
   id="path232"
   inkscape:connector-curvature="0"
   style="fill:#d2a17c" />
				<path
   class="st33"
   d="m 403.44,557.1 c -8.78,5.07 -17.56,10.13 -26.33,15.2 -1.47,-1.13 -0.97,-2.75 -0.97,-4.19 -0.03,-10.54 0,-21.07 0.01,-31.61 4.04,-1.08 7.2,-3.78 10.72,-5.84 h 0.05 c 0,1.11 -0.05,2.21 0.01,3.32 0.06,1.05 -0.41,2.34 0.77,3.02 1.3,0.75 2.25,-0.29 3.37,-0.82 3.87,-1.82 2.03,-5.24 2.42,-8.03 2.51,-3.63 6.9,-4.56 10.17,-7.1 l 0.16,0.19 c 0,0 -0.09,0.23 -0.1,0.23 -0.09,11.89 -0.19,23.76 -0.28,35.63 z"
   id="path234"
   inkscape:connector-curvature="0"
   style="fill:#d3a17c" />
				<path
   class="st34"
   d="m 356.13,548.9 c -4.42,0.79 -7.17,4.91 -11.52,5.85 -9.18,-5.4 -18.34,-10.83 -27.55,-16.18 -2.45,-1.43 -3.22,-0.49 -3.18,2.24 0.14,8.81 0.07,17.63 0.03,26.45 -0.01,1.34 0.4,2.77 -0.55,3.99 -0.06,-10.86 -0.1,-21.71 -0.21,-32.57 -0.02,-1.82 0.97,-2.67 2.35,-3.49 3.4,-2.01 6.75,-4.13 10.11,-6.2 3.73,0.02 5.25,3.66 8.19,4.98 0.63,1.53 1.88,1.82 3.35,1.68 0,0 -0.02,-0.02 -0.02,-0.02 2.07,3.45 5.61,4.22 9.14,5 0,0 -0.02,-0.02 -0.02,-0.02 -0.05,1.18 0.59,1.65 1.69,1.68 0,0 -0.03,-0.02 -0.03,-0.02 0.3,0.82 0.86,1.38 1.67,1.68 0,0 -0.02,-0.01 -0.02,-0.01 0.83,0.56 1.67,1.12 2.5,1.68 0,0 -0.02,-0.01 -0.02,-0.01 0.83,0.56 1.67,1.12 2.5,1.68 0,0 -0.02,-0.02 -0.02,-0.02 0.55,0.54 1.08,1.09 1.61,1.63 z"
   id="path236"
   inkscape:connector-curvature="0"
   style="fill:#daba9c" />
				<path
   class="st35"
   d="m 367.05,503.24 c -3.01,2.51 -6.06,4.94 -9.99,5.87 -2.34,0.07 -4.15,-1.24 -6.02,-2.35 -7.84,-4.67 -15.66,-9.36 -23.51,-13.99 -0.54,-0.32 -1.33,-0.21 -2,-0.3 1.18,-3.4 4.91,-3.35 7.21,-5.25 1.53,-1.26 3.52,-1.97 5.31,-2.93 0.11,2.67 2.58,3.02 4.19,4.02 8.22,5.06 16.53,9.97 24.81,14.93 z"
   id="path238"
   inkscape:connector-curvature="0"
   style="fill:#dbb899" />
				<path
   class="st36"
   d="m 384.88,494.26 c -3.99,1.34 -7.69,3.15 -10.46,6.47 -0.8,-0.47 -1.6,-0.48 -2.4,0 0.4,-2.74 -1.9,-3.47 -3.55,-4.46 -4.66,-2.79 -9.59,-5.16 -14.13,-8.13 -4.52,-2.97 -8.85,-5.99 -14.67,-4.7 4.2,-2.54 8.41,-5.06 12.61,-7.62 0.92,-0.56 1.7,-0.53 2.65,0.04 9.77,5.82 19.57,11.6 29.35,17.42 0.3,0.17 0.41,0.64 0.6,0.98 z"
   id="path240"
   inkscape:connector-curvature="0"
   style="fill:#dcb99a" />
				<path
   class="st37"
   d="m 339.68,483.44 c 5.81,-1.29 10.14,1.73 14.67,4.7 4.53,2.98 9.46,5.34 14.13,8.13 1.66,0.99 3.96,1.72 3.55,4.46 -1.4,0.85 -2.8,1.7 -4.2,2.55 -0.26,-0.02 -0.52,-0.03 -0.78,-0.04 -8.28,-4.96 -16.59,-9.87 -24.8,-14.94 -1.61,-1 -4.08,-1.35 -4.19,-4.02 0.54,-0.28 1.08,-0.56 1.62,-0.84 z"
   id="path242"
   inkscape:connector-curvature="0"
   style="fill:#fdcb6a" />
				<path
   class="st38"
   d="m 403.66,521.07 c -3.27,2.54 -7.66,3.47 -10.17,7.1 -0.27,-0.27 -0.54,-0.54 -0.8,-0.81 -1.82,-2.55 -4.27,-3.69 -7.39,-3.32 0,-5.02 0,-10.03 0,-15.05 6.17,3.94 12.75,7.28 18.36,12.08 z"
   id="path244"
   inkscape:connector-curvature="0"
   style="fill:#dab89a" />
				<path
   class="st39"
   d="m 376.14,536.51 c -0.01,10.54 -0.03,21.07 -0.01,31.61 0,1.44 -0.5,3.06 0.97,4.19 -1.17,0.7 -2.35,1.39 -3.52,2.09 0.02,-10.39 0.05,-20.78 0.02,-31.17 0,-1.44 0.54,-3.05 -0.81,-4.26 0,-0.55 0,-1.1 0,-1.65 0.58,-0.97 1.54,-0.82 2.45,-0.85 0.3,0.01 0.6,0.02 0.9,0.04 z"
   id="path246"
   inkscape:connector-curvature="0"
   style="fill:#d3a88c" />
				<path
   class="st38"
   d="m 403.44,557.1 c 0.09,-11.87 0.19,-23.75 0.29,-35.62 1.23,2.03 0.56,4.27 0.59,6.39 0.09,8.35 0.07,16.7 0,25.05 -0.02,1.42 0.66,3.06 -0.88,4.18 z"
   id="path248"
   inkscape:connector-curvature="0"
   style="fill:#dab89a" />
				<path
   class="st40"
   d="m 356.13,548.9 c -0.53,-0.55 -1.05,-1.09 -1.58,-1.64 1.15,-0.08 2.04,-0.55 2.51,-1.65 0.83,-0.3 1.66,-0.6 2.49,-0.9 0.83,0.29 1.66,0.58 2.5,0.86 1.69,4.07 -0.55,6.8 -3.26,9.27 -1.2,1.09 -2.37,0.88 -2.53,-0.98 -0.16,-1.64 -0.1,-3.3 -0.13,-4.96 z"
   id="path250"
   inkscape:connector-curvature="0"
   style="fill:#f4c963" />
				<path
   class="st41"
   d="m 345.88,529.46 c 2.72,1.06 5.41,2.01 7.2,4.43 0.97,1.32 1.08,3.03 0.31,4.26 -1.05,1.68 -2.38,0.05 -3.57,-0.3 -4.27,-1.28 -5.27,-4.15 -3.94,-8.39 z"
   id="path252"
   inkscape:connector-curvature="0"
   style="fill:#e1ba7d" />
				<path
   class="st37"
   d="m 346.27,540.64 c -3.53,-0.78 -7.07,-1.55 -9.14,-5 3.03,1.7 6.43,2.71 9.14,5 z"
   id="path254"
   inkscape:connector-curvature="0"
   style="fill:#fdcb6a" />
				<path
   class="st37"
   d="m 337.15,535.65 c -1.47,0.15 -2.72,-0.15 -3.35,-1.68 1.34,0.12 2.51,0.57 3.35,1.68 z"
   id="path256"
   inkscape:connector-curvature="0"
   style="fill:#fdcb6a" />
				<path
   class="st40"
   d="m 352.07,545.62 c -0.83,-0.56 -1.67,-1.12 -2.5,-1.68 1.24,-0.04 2.48,-0.1 2.5,1.68 z"
   id="path258"
   inkscape:connector-curvature="0"
   style="fill:#f4c963" />
				<path
   class="st40"
   d="m 354.56,547.28 c -0.83,-0.56 -1.67,-1.12 -2.5,-1.68 1.24,-0.05 2.48,-0.1 2.5,1.68 z"
   id="path260"
   inkscape:connector-curvature="0"
   style="fill:#f4c963" />
				<path
   class="st37"
   d="m 347.94,542.3 c -1.09,-0.02 -1.74,-0.5 -1.69,-1.68 0.82,0.3 1.38,0.86 1.69,1.68 z"
   id="path262"
   inkscape:connector-curvature="0"
   style="fill:#fdcb6a" />
				<path
   class="st40"
   d="m 349.59,543.96 c -0.82,-0.3 -1.38,-0.86 -1.67,-1.68 1.08,0.02 1.72,0.51 1.67,1.68 z"
   id="path264"
   inkscape:connector-curvature="0"
   style="fill:#f4c963" />
				<path
   class="st41"
   d="m 342.1,581.2 c 0.11,2.32 -0.79,3.06 -2.96,1.94 -2.73,-1.4 -6.2,-2.14 -5.32,-6.52 0.17,-0.83 0.19,-1.62 1.26,-1.8 1.99,-0.34 7.03,4.22 7.02,6.38 z"
   id="path266"
   inkscape:connector-curvature="0"
   style="fill:#e1ba7d" />
				<path
   class="st40"
   d="m 367.83,503.28 c 1.4,-0.85 2.8,-1.7 4.2,-2.55 0.8,-0.49 1.6,-0.47 2.4,0 0.12,3.58 0.42,7.13 -3.62,9.21 -2.28,1.18 -2.99,0.59 -2.99,-1.73 0,-1.64 0,-3.29 0.01,-4.93 z"
   id="path268"
   inkscape:connector-curvature="0"
   style="fill:#f4c963" />
				<path
   class="st42"
   d="m 385.29,524.04 c 3.13,-0.37 5.57,0.77 7.39,3.32 -1.93,1.1 -3.85,2.21 -5.78,3.31 0,0 -0.05,0 -0.05,0 -0.32,-0.69 -0.94,-0.82 -1.61,-0.85 0.01,-0.54 0.02,-1.09 0.03,-1.63 0.1,-0.08 0.31,-0.2 0.29,-0.24 -0.07,-0.21 -0.2,-0.4 -0.3,-0.6 0.01,-1.11 0.02,-2.21 0.03,-3.31 z"
   id="path270"
   inkscape:connector-curvature="0"
   style="fill:#eace8a" />
				<path
   class="st43"
   d="m 362.04,545.58 c -0.83,-0.29 -1.66,-0.57 -2.5,-0.86 4.48,-2.36 8.23,-6.03 13.25,-7.4 0,0.55 0,1.1 0,1.65 -3.52,2.29 -7.56,3.76 -10.75,6.61 z"
   id="path272"
   inkscape:connector-curvature="0"
   style="fill:#dcb593" />
				<path
   class="st43"
   d="m 385.24,529.82 c 0.67,0.03 1.29,0.16 1.61,0.85 -3.51,2.05 -6.68,4.75 -10.72,5.84 -0.3,-0.01 -0.6,-0.03 -0.9,-0.04 2.33,-3.75 6.67,-4.45 10.01,-6.65 z"
   id="path274"
   inkscape:connector-curvature="0"
   style="fill:#dcb593" />
				<path
   class="st43"
   d="m 385.26,527.34 c 0.11,0.2 0.24,0.39 0.3,0.6 0.01,0.04 -0.19,0.16 -0.29,0.24 0,-0.27 0,-0.56 -0.01,-0.84 z"
   id="path276"
   inkscape:connector-curvature="0"
   style="fill:#dcb593" />
				<path
   class="st40"
   d="m 386.91,530.67 c 1.93,-1.1 3.85,-2.21 5.78,-3.31 0.27,0.27 0.54,0.54 0.8,0.81 -0.39,2.79 1.45,6.21 -2.42,8.03 -1.12,0.53 -2.07,1.56 -3.37,0.82 -1.18,-0.68 -0.71,-1.97 -0.77,-3.02 -0.07,-1.11 -0.02,-2.22 -0.02,-3.33 z"
   id="path278"
   inkscape:connector-curvature="0"
   style="fill:#f4c963" />
			</g>
		</g>
	</g>
	<g
   class="st5"
   clip-path="url(#SVGID_5_)"
   id="g422">
		<defs
   id="defs287">
			<path
   id="SVGID_2_"
   d="m 554.05,636.84 c 0.83,-1.44 5.23,-6.61 5.23,-6.61 0,0 10.29,-8.29 14.66,-10.87 4.37,-2.58 7.83,-8.56 7.83,-8.56 0,0 2.76,-4.66 3.93,-5.58 1.17,-0.92 3.25,-2.53 3.25,-2.53 l 2.3,-5.18 12.04,-20.69 c 0,0 3.36,-4.38 4.51,-4.93 1.15,-0.55 21.48,-13.05 23.54,-14.41 2.06,-1.36 54.8,-29.47 54.8,-29.47 l 58.06,-32.24 c 0,0 0.58,-1.33 3.29,-1.16 2.71,0.17 6.92,2.28 6.92,2.28 l 37.51,20.49 3.64,3.32 c 0,0 7.13,0.81 9.44,3.55 2.31,2.74 3.71,8.28 3.71,8.28 l 4.66,47.46 c 0,0 -0.75,8.25 0.09,10.65 0.84,2.4 0.26,3.85 0.52,5.6 0.26,1.75 -0.95,11.46 -0.95,11.46 0,0 9.38,6.64 11.01,8.35 1.63,1.71 4.14,3.1 4.02,5.2 -0.13,2.1 0.75,4.01 -1.95,5.58 -2.7,1.57 -43.22,26.46 -43.22,26.46 l -99.6,57.51 -20.42,11.94 -11.95,7.07 c 0,0 -5.19,2.84 -6.48,2.76 -1.3,-0.08 -7.18,1.98 -13.43,0.85 -6.25,-1.12 -14.32,-2.73 -15.87,-4.68 -1.55,-1.95 -10.92,-6.8 -10.92,-6.8 l -20.63,-12.03 c 0,0 -22.04,-13.23 -23.42,-14.99 -1.38,-1.76 -3.83,-4.13 -4.3,-5.65 -0.46,-1.51 0.13,-5.19 0.13,-5.19 0,0 -1.2,-1.56 -2.32,-4.6 -1.11,-3.04 -2.47,-6.84 -2.14,-12.95 0.33,-6.11 1.57,-25.72 1.57,-25.72 z"
   inkscape:connector-curvature="0" />
		</defs>
		<clipPath
   id="SVGID_8_">
			<use
   xlink:href="#SVGID_2_"
   style="overflow:visible"
   id="use289"
   x="0"
   y="0"
   width="100%"
   height="100%" />
		</clipPath>
		<g
   class="st44"
   clip-path="url(#SVGID_8_)"
   id="g420">
			<g
   id="g418">
				<path
   class="st12"
   d="m 690.45,754.03 c -49.5,0 -98.99,-0.05 -148.49,0.1 -3.47,0.01 -4.18,-0.7 -4.17,-4.17 0.12,-89.19 0.12,-178.39 0,-267.58 0,-3.47 0.7,-4.17 4.17,-4.17 98.99,0.12 197.99,0.12 296.98,0 3.47,0 4.18,0.7 4.17,4.17 -0.12,89.19 -0.12,178.39 0,267.58 0,3.47 -0.7,4.18 -4.17,4.17 -49.5,-0.14 -98.99,-0.1 -148.49,-0.1 z M 591.47,598.1 c -1.19,0.39 -1.15,1.41 -1.22,2.38 l 0.04,-0.05 c -3.53,2.18 -4.99,5.94 -7.03,9.26 -5.44,7.98 -13.84,12.37 -21.44,17.75 -8.58,6.07 -10.53,16.42 -4.53,23.62 0.07,5.13 0.13,10.26 0.2,15.38 -4.18,0.14 -2.93,-4.63 -5.53,-6.11 0.13,7.92 -1.47,16.07 4.74,22.61 -0.68,5.89 1.06,10.4 6.56,13.51 5.67,3.2 11.29,6.62 16.44,10.58 12.24,9.4 25.8,16.6 39.32,23.83 3.88,2.07 8.46,3.44 13.23,3.43 11.6,-0.02 21.19,-5.82 31,-10.75 15.03,-7.54 28.23,-18.11 43.21,-25.93 21.52,-11.23 42.34,-23.84 63.26,-36.18 18.3,-10.79 37.63,-19.87 54.58,-32.94 5.92,-4.57 6.42,-9.95 0.28,-13.88 -3.9,-2.5 -7.28,-5.54 -10.82,-8.44 2.24,-5.18 1.93,-10.55 1.13,-15.95 0.61,-10.59 -0.6,-21.05 -1.91,-31.55 -0.8,-6.44 -2.56,-12.9 -2.35,-19.29 0.44,-13.37 -0.81,-15.82 -14.19,-20.38 -3.54,-3.61 -8.15,-5.27 -12.73,-6.99 -8.2,-6.36 -17.86,-10.15 -26.84,-15.14 -5.24,-2.91 -10,-2.97 -15.07,0.54 -3.78,2.61 -7.92,4.82 -12.13,6.68 -18.84,8.32 -35.71,20.29 -54.38,28.99 -14.38,6.7 -27.23,16.3 -41.51,23.38 -8.32,4.12 -17.02,8.07 -23.76,14.9 -3.75,2.92 -7.36,5.97 -9.05,10.64 -1.11,1.76 -2.4,3.42 -2.62,5.6 -0.76,1.17 -1.52,2.34 -2.28,3.51 -3.63,0.99 -3.52,4.43 -4.65,7.06 z"
   id="path292"
   inkscape:connector-curvature="0"
   style="fill:#fefefe" />
				<path
   class="st45"
   d="m 796.45,518.99 c 13.39,4.56 14.64,7.01 14.19,20.38 -0.21,6.39 1.54,12.85 2.35,19.29 1.31,10.5 2.52,20.95 1.91,31.55 -9.48,5.16 -19.52,9.33 -28.16,15.97 -3.71,1.36 -6.93,3.55 -10.06,5.9 -0.45,0.14 -0.59,0.42 -0.41,0.86 v -0.03 c -5.94,1.6 -10.34,6.25 -16.12,8.17 -0.72,0.42 -1.43,0.83 -2.15,1.25 -15.41,7.96 -29.68,17.89 -45.22,25.66 -9.48,4.74 -18.37,10.68 -27.4,16.3 -7.98,4.96 -17.22,7.71 -24.42,14 -7.55,1.08 -12.29,6.92 -18.22,10.72 -5.57,3.28 -11.71,5.41 -17.18,8.94 -6.14,3.96 -12.6,4.02 -18.91,0.03 -0.03,-0.29 -0.08,-0.57 -0.15,-0.85 6.17,-2.57 9.92,-13.1 6.68,-18.82 -0.68,-1.2 -1.97,-0.93 -3.08,-1.05 -0.5,-5.42 2.73,-9.04 6.15,-12.51 5.59,-5.66 11.21,-11.28 16.88,-16.86 2.64,-2.59 4.33,-5.45 3.58,-9.3 1.22,-2.64 2.44,-5.29 3.66,-7.93 6.13,-7.75 9.38,-17.08 14.14,-25.59 0.99,0.37 1.21,2.66 3.05,0.98 4.68,-4.27 9.49,-8.41 14.24,-12.6 0,0 -0.01,0.02 -0.01,0.02 1.3,-0.02 2.7,0.26 3.52,-1.18 l -0.03,0.01 c 2.52,0.11 5.1,0.32 4.68,-3.49 v 0.01 c 3.08,0.28 6.01,0.27 7.02,-3.54 -0.2,-3.36 3.36,-2.84 4.74,-4.57 0.36,0 0.72,0 1.08,0 1.49,-0.05 2.28,-0.81 2.41,-2.29 5.6,-1.09 11.17,-2.25 15.07,-6.99 3.03,-1.01 6.23,-1.74 8.12,-4.72 v 0.01 c 2.56,-0.13 5.22,-0.12 5.83,-3.5 l -0.01,0.01 c 5.36,-1.01 10.07,-3.04 12.82,-8.15 l -0.01,0.01 c 2.7,-0.45 5.08,-1.51 7,-3.51 h -0.02 c 4.29,-0.75 7.18,-3.37 9.34,-6.97 v 0 c 2.85,-0.86 6.57,0.29 8.15,-3.5 v 0.01 c 3.88,-0.71 8.02,-1 9.33,-5.82 l -0.01,0.01 c 5.74,-0.48 10.2,-4.02 15.03,-6.56 1.94,-1.02 4.89,-1.83 4.77,-5.09 v 0 c 3.3,0.18 5.34,-1.28 5.83,-4.67 z M 647.28,638.4 c -2.77,-0.87 -4.87,0.21 -5.2,2.91 -0.51,4.18 -0.85,8.65 3.33,11.51 3.04,2.08 5,1.32 5.49,-2.55 0.33,-2.55 -1.06,-5.48 1.55,-7.57 5.55,0.44 7.61,-5.38 12.32,-6.73 7.33,-2.1 13.17,-7.25 19.91,-10.61 1.3,-0.65 2.22,-1.44 2.22,-3.05 -0.01,-7.17 0.02,-14.33 0.03,-21.5 0,-2.09 -0.71,-2.67 -2.86,-1.83 -8.56,3.35 -16.22,7.73 -22.25,15.04 -6.14,7.45 -9.58,16.33 -14.54,24.38 z m 28.25,2.52 c 3.77,-1.12 7.44,-2.42 9.45,-6.04 -3.98,0.78 -7.4,2.36 -9.45,6.04 z"
   id="path294"
   inkscape:connector-curvature="0"
   style="fill:#e4af35" />
				<path
   class="st46"
   d="m 813.76,606.15 c 3.54,2.9 6.92,5.94 10.82,8.44 6.14,3.93 5.64,9.3 -0.28,13.88 -16.94,13.07 -36.28,22.15 -54.58,32.94 -20.93,12.34 -41.74,24.95 -63.26,36.18 -14.98,7.82 -28.18,18.39 -43.21,25.93 -9.81,4.92 -19.4,10.72 -31,10.75 -4.77,0.01 -9.35,-1.36 -13.23,-3.43 -13.51,-7.22 -27.07,-14.43 -39.32,-23.83 -5.15,-3.96 -10.77,-7.37 -16.44,-10.58 -5.49,-3.1 -7.24,-7.62 -6.56,-13.51 4.92,-0.16 6.36,6.34 11.41,5.95 5.6,2.23 10.6,5.44 15.19,9.33 7.13,5.7 15.5,9.31 23.33,13.82 8.55,7.31 10.1,7.39 20.23,2.19 2.6,-1.34 4.94,-3.88 8.4,-2.77 3.01,3.25 6.78,5.24 10.9,6.66 1.11,0.74 2.21,1.48 3.32,2.22 5.67,3.82 12.97,1.05 15.21,-5.77 2.91,-1.39 3.18,-4.58 4.74,-6.89 1.22,-0.45 1.25,-1.48 1.23,-2.53 l -0.06,0.08 c 1.62,-4.08 6.81,-7.12 3.68,-12.59 1.26,-1.06 1.09,-2.33 0.52,-3.66 0.04,-0.44 0.09,-0.88 0.13,-1.31 0.57,-0.61 1.14,-1.22 1.71,-1.83 3.2,-0.06 4.91,-2.85 7.49,-4.08 17.43,-8.33 32.72,-20.34 49.98,-29.02 8.36,-4.2 16.07,-9.69 24.08,-14.6 1.24,-0.25 2.52,-0.4 3.39,-1.5 0.76,0.29 1.52,0.59 2.28,0.88 2.62,2.77 5.28,5.46 9.2,6.34 1.67,2.26 4.46,2.72 6.78,3.58 2.12,0.79 5.26,1.12 5.9,-2.66 1.66,-0.43 3.36,-0.76 4.97,-1.33 2.63,-0.93 6.07,-7.7 4.44,-8.91 -5.27,-3.89 2.5,-1.17 1.34,-2.82 3.06,0.42 2.89,-2.42 3.17,-3.87 0.36,-1.9 1.23,-3.05 2.57,-4.12 2.26,-2.45 1,-5.3 0.89,-8.01 0.63,-1.49 1.26,-2.99 1.89,-4.48 2.92,-1.69 5.84,-3.38 8.75,-5.07 z"
   id="path296"
   inkscape:connector-curvature="0"
   style="fill:#a7a7a7" />
				<path
   class="st47"
   d="m 636.7,638.58 c 0.74,3.85 -0.95,6.71 -3.58,9.3 -5.67,5.57 -11.3,11.2 -16.88,16.86 -3.43,3.47 -6.65,7.09 -6.15,12.51 l 0.01,-0.01 c -1.5,0.16 -3.48,-0.38 -3.23,2.26 l -0.48,0.15 c -4.23,-2.3 -8.45,-4.61 -12.68,-6.91 -11.66,-8.03 -23.8,-15.27 -36.41,-21.7 -6,-7.19 -4.05,-17.55 4.53,-23.62 7.6,-5.37 16,-9.77 21.44,-17.75 0.58,3.73 1.64,-0.44 2.41,0.14 4.16,5.42 10.7,7.15 16.21,10.49 3.42,2.03 6.34,4.95 10.4,5.86 2.38,1.47 4.77,2.95 7.15,4.42 2.29,1.61 4.53,3.3 6.9,4.8 3.14,2.01 6.11,4.72 10.36,3.2 z"
   id="path298"
   inkscape:connector-curvature="0"
   style="fill:#eac858" />
				<path
   class="st48"
   d="m 610.01,571.35 c 6.74,-6.83 15.44,-10.78 23.76,-14.9 14.28,-7.08 27.13,-16.68 41.51,-23.38 18.67,-8.7 35.54,-20.66 54.38,-28.99 4.21,-1.86 8.35,-4.07 12.13,-6.68 5.08,-3.51 9.83,-3.46 15.07,-0.54 8.98,4.99 18.63,8.78 26.84,15.14 -0.82,0.02 -1.64,0.03 -2.46,0.05 -6.93,-1.35 -12.38,-5.79 -18.54,-8.76 -4.7,-2.26 -9,-7.3 -14.75,-4.59 -6.93,3.26 -13.78,6.77 -20.57,10.29 -21.19,11 -41.78,23.14 -63.05,34.04 -14.82,7.59 -29.05,16.34 -43.47,24.7 -1.16,0.67 -2.73,1.66 -2.54,3.58 -2.77,-3.04 -5.52,1.45 -8.31,0.04 z"
   id="path300"
   inkscape:connector-curvature="0"
   style="fill:#f4c12e" />
				<path
   class="st49"
   d="m 610.01,571.35 c 2.78,1.41 5.54,-3.08 8.33,-0.04 10.27,5.95 20.8,11.51 30.73,17.99 7.24,4.72 13.95,9.18 22.72,4.14 -4.75,4.19 -9.56,8.33 -14.24,12.6 -1.84,1.68 -2.06,-0.61 -3.05,-0.98 -6.25,-3.5 -12.5,-7 -18.75,-10.5 -7.75,-4.65 -15.51,-9.29 -23.26,-13.94 -1.23,-1.55 -2.85,-2.49 -4.75,-2.97 -2.95,0.36 -3.22,4.91 -6.77,4.34 1.68,-4.67 5.29,-7.72 9.04,-10.64 z"
   id="path302"
   inkscape:connector-curvature="0"
   style="fill:#f7bf20" />
				<path
   class="st50"
   d="m 557.3,651.04 c 12.62,6.43 24.75,13.67 36.41,21.7 -1.84,2.95 -0.19,6 -0.24,9 -1.4,0.48 -2.69,-1.53 -4.21,-0.22 0.92,1.7 2.56,2.25 4.13,2.9 0.01,1.48 0.02,2.96 0.03,4.44 -3.71,0.68 -5.89,-4.88 -10.03,-2.48 -0.24,0.04 -0.41,-0.04 -0.52,-0.25 0.49,-1.64 0.38,-3.17 -1.51,-3.68 -1.33,-0.36 -1.35,0.94 -1.56,1.84 -2.16,-0.78 -4.18,-1.81 -5.86,-3.41 -0.22,-3.38 -3.06,-4.47 -5.21,-6.34 -3.52,-3.05 -8.66,-3.82 -11.22,-8.12 -0.08,-5.12 -0.14,-10.25 -0.21,-15.38 z m 29.18,28.87 c 0.4,0.13 0.8,0.27 1.21,0.4 -0.21,-0.33 -0.41,-0.67 -0.62,-1 -0.5,-0.66 -1.44,-1.21 -1.84,-0.53 -0.56,0.97 0.7,0.85 1.25,1.13 z"
   id="path304"
   inkscape:connector-curvature="0"
   style="fill:#444343" />
				<path
   class="st51"
   d="m 600.97,581.99 c 3.55,0.57 3.82,-3.97 6.77,-4.34 -0.6,10.42 1.41,20.53 3.13,30.74 0.98,5.82 2.93,11.71 1.42,17.79 -4.06,-0.91 -6.98,-3.83 -10.4,-5.86 2.02,-6.47 -0.74,-12.68 -1.68,-18.83 -0.7,-4.61 1.09,-9.63 -1.86,-13.9 0.22,-2.17 1.51,-3.84 2.62,-5.6 z"
   id="path306"
   inkscape:connector-curvature="0"
   style="fill:#9f9e9d" />
				<path
   class="st52"
   d="m 598.35,587.59 c 2.95,4.27 1.16,9.29 1.86,13.9 0.93,6.15 3.69,12.36 1.68,18.83 -5.51,-3.34 -12.05,-5.07 -16.21,-10.49 2.04,-2.89 4.75,-5.45 4.62,-9.4 0,0 -0.04,0.05 -0.04,0.05 1.4,-0.28 1.32,-1.33 1.22,-2.38 0,0 -0.05,0.06 -0.05,0.06 2.68,-1.61 5.05,-3.42 4.65,-7.06 0.75,-1.17 1.51,-2.34 2.27,-3.51 z"
   id="path308"
   inkscape:connector-curvature="0"
   style="fill:#8c8b8a" />
				<path
   class="st53"
   d="m 813.76,606.15 c -2.92,1.69 -5.83,3.38 -8.75,5.07 -5.02,-5.58 -11.08,-7.37 -18.28,-5.05 8.64,-6.64 18.68,-10.81 28.16,-15.97 0.81,5.41 1.11,10.77 -1.13,15.95 z"
   id="path310"
   inkscape:connector-curvature="0"
   style="fill:#3f3e3d" />
				<path
   class="st54"
   d="m 557.5,666.43 c 2.57,4.3 7.7,5.07 11.22,8.12 2.15,1.87 4.99,2.96 5.21,6.34 -4.35,-3.52 -5.66,-1.84 -6.27,3.07 -0.23,1.87 0.9,3.26 0.45,4.92 -5.04,0.39 -6.49,-6.1 -11.41,-5.95 -6.21,-6.53 -4.61,-14.68 -4.74,-22.61 2.62,1.48 1.37,6.25 5.54,6.11 z m 5.78,12.69 c -0.84,-2.97 -3.72,-3.56 -6.04,-4.77 -1.22,-0.64 -1.99,0.27 -1.76,1.32 0.65,3.07 3.38,3.97 5.86,4.96 1.06,0.43 1.8,-0.22 1.94,-1.51 z"
   id="path312"
   inkscape:connector-curvature="0"
   style="fill:#4f5155" />
				<path
   class="st49"
   d="m 781.25,512.05 c 0.82,-0.02 1.64,-0.03 2.46,-0.05 4.58,1.72 9.2,3.37 12.73,6.99 -0.49,3.39 -2.52,4.85 -5.86,4.66 3.93,-3.06 0.63,-4.73 -1.39,-6.37 -2.45,-1.99 -6.15,-2.15 -7.94,-5.23 z"
   id="path314"
   inkscape:connector-curvature="0"
   style="fill:#f7bf20" />
				<path
   class="st45"
   d="m 590.29,600.42 c 0.13,3.95 -2.58,6.51 -4.62,9.4 -0.77,-0.59 -1.83,3.59 -2.41,-0.14 2.05,-3.31 3.5,-7.07 7.03,-9.26 z"
   id="path316"
   inkscape:connector-curvature="0"
   style="fill:#e4af35" />
				<path
   class="st45"
   d="m 596.07,591.1 c 0.41,3.64 -1.97,5.45 -4.65,7.06 1.13,-2.63 1.02,-6.07 4.65,-7.06 z"
   id="path318"
   inkscape:connector-curvature="0"
   style="fill:#e4af35" />
				<path
   class="st45"
   d="m 591.47,598.1 c 0.1,1.05 0.18,2.09 -1.22,2.38 0.07,-0.97 0.04,-1.99 1.22,-2.38 z"
   id="path320"
   inkscape:connector-curvature="0"
   style="fill:#e4af35" />
				<path
   class="st55"
   d="m 781.25,512.05 c 1.78,3.07 5.49,3.24 7.95,5.23 2.02,1.64 5.32,3.31 1.39,6.37 0,0 0,0 0,0 -7.14,2.97 -13.75,6.83 -19.8,11.65 0,0 0.01,-0.01 0.01,-0.01 -4.02,0.49 -6.41,3.57 -9.33,5.82 0,0 0,-0.01 0,-0.01 -3.22,0.01 -5.84,1.39 -8.15,3.5 0,0 0,0 0,0 -3.65,1.61 -7.64,2.76 -9.34,6.97 0,0 0.02,0 0.02,0 -2.75,0.35 -5.81,0.08 -7,3.51 0,0 0.01,-0.01 0.01,-0.01 -4.61,2.19 -10.03,3.11 -12.82,8.15 0,0 0.01,-0.01 0.01,-0.01 -2.9,-0.43 -4.14,1.91 -5.83,3.5 0,0 0,-0.01 0,-0.01 -3.06,-0.41 -5.78,0.37 -8.12,2.4 -5.02,3.1 -10.05,6.21 -15.07,9.31 -0.12,1.47 -0.92,2.24 -2.41,2.29 -0.33,-0.61 -0.69,-1.16 -1.53,-0.76 0.15,0.25 0.3,0.51 0.45,0.76 -1.38,1.73 -4.93,1.21 -4.74,4.57 -2.9,0.08 -5.43,0.88 -7.02,3.54 0,0 0,-0.01 0,-0.01 -2.49,-0.07 -4.43,0.58 -4.68,3.49 0,0 0.03,-0.01 0.03,-0.01 -1.3,0.01 -2.7,-0.25 -3.52,1.18 0,0 0.01,-0.02 0.01,-0.02 -8.77,5.04 -15.49,0.58 -22.72,-4.14 -9.93,-6.48 -20.46,-12.04 -30.73,-17.99 -0.19,-1.92 1.38,-2.91 2.54,-3.58 14.42,-8.36 28.65,-17.11 43.47,-24.7 21.28,-10.9 41.86,-23.04 63.05,-34.04 6.78,-3.52 13.64,-7.03 20.57,-10.29 5.75,-2.71 10.05,2.33 14.75,4.59 6.17,2.97 11.63,7.41 18.55,8.76 z"
   id="path322"
   inkscape:connector-curvature="0"
   style="fill:#fec75b" />
				<path
   class="st53"
   d="m 758.22,638.12 c -8.01,4.91 -15.72,10.39 -24.08,14.59 -17.27,8.68 -32.55,20.69 -49.98,29.02 -2.59,1.24 -4.3,4.02 -7.5,4.08 -3.1,-6.95 -9.31,-7.44 -15.71,-7.54 7.2,-6.29 16.44,-9.04 24.42,-14 9.02,-5.62 17.92,-11.56 27.4,-16.3 15.54,-7.77 29.81,-17.7 45.22,-25.66 0.07,5.28 0.15,10.55 0.23,15.81 z"
   id="path324"
   inkscape:connector-curvature="0"
   style="fill:#3f3e3d" />
				<path
   class="st51"
   d="m 612.49,580.62 c 7.75,4.65 15.51,9.29 23.26,13.94 1.53,12.03 3.07,24.06 4.6,36.09 -1.22,2.64 -2.44,5.29 -3.66,7.93 -4.25,1.52 -7.22,-1.19 -10.36,-3.19 -2.36,-1.5 -4.6,-3.19 -6.9,-4.8 -1.02,-6.26 -2.33,-12.48 -2.98,-18.78 -1.07,-10.43 -4.72,-20.53 -3.96,-31.19 z"
   id="path326"
   inkscape:connector-curvature="0"
   style="fill:#9f9e9d" />
				<path
   class="st52"
   d="m 647.28,638.4 c 4.96,-8.05 8.4,-16.92 14.53,-24.37 6.04,-7.32 13.69,-11.69 22.25,-15.04 2.14,-0.84 2.86,-0.26 2.86,1.83 -0.01,7.17 -0.04,14.33 -0.03,21.5 0,1.6 -0.91,2.4 -2.22,3.05 -6.74,3.35 -12.58,8.5 -19.91,10.61 -4.71,1.35 -6.78,7.17 -12.31,6.73 -1.71,-1.44 -3.44,-2.88 -5.17,-4.31 z"
   id="path328"
   inkscape:connector-curvature="0"
   style="fill:#8c8b8a" />
				<path
   class="st53"
   d="m 635.27,711.44 c -3.46,-1.11 -5.81,1.43 -8.4,2.77 -10.13,5.21 -11.69,5.12 -20.23,-2.18 0,-4.68 0,-9.37 0,-14.06 6.31,4 12.77,3.93 18.91,-0.03 5.47,-3.53 11.62,-5.66 17.18,-8.94 -0.55,2.39 -0.43,5.29 -1.8,7.06 -2.97,3.87 -4.23,7.97 -4.05,12.69 -0.54,0.9 -1.07,1.79 -1.61,2.69 z"
   id="path330"
   inkscape:connector-curvature="0"
   style="fill:#3f3e3d" />
				<path
   class="st52"
   d="m 640.35,630.65 c -1.53,-12.03 -3.07,-24.06 -4.6,-36.09 6.25,3.5 12.5,7 18.75,10.5 -4.76,8.5 -8.01,17.84 -14.15,25.59 z"
   id="path332"
   inkscape:connector-curvature="0"
   style="fill:#8c8b8a" />
				<path
   class="st54"
   d="m 606.63,697.97 c 0,4.69 0,9.37 0,14.06 -7.83,-4.52 -16.2,-8.12 -23.33,-13.82 3.85,-3.63 3.87,-6.92 0.08,-11.81 4.14,-2.4 6.31,3.15 10.03,2.48 3.67,3.63 8.38,5.58 12.8,8 l 0.27,0.25 c 0.07,0.27 0.12,0.55 0.15,0.84 z m -6.41,6.16 c 1.5,0.24 1.95,-0.51 1.72,-1.61 -0.66,-3.09 -3.56,-3.75 -5.82,-5.02 -1.09,-0.61 -2.09,0.33 -1.92,1.29 0.6,3.35 3.74,3.99 6.02,5.34 z"
   id="path334"
   inkscape:connector-curvature="0"
   style="fill:#4f5155" />
				<path
   class="st56"
   d="m 636.88,708.75 c -0.18,-4.72 1.08,-8.83 4.05,-12.69 1.36,-1.77 1.24,-4.67 1.8,-7.06 5.94,-3.81 10.68,-9.65 18.22,-10.72 6.4,0.1 12.6,0.59 15.71,7.54 -0.57,0.61 -1.14,1.22 -1.71,1.83 -1.01,0.01 -2.03,0.03 -3.04,0.04 -0.42,0 -0.84,0.01 -1.26,0.01 l 0.03,0.02 c -3.17,-5.94 -10.36,-6.45 -16.95,-0.99 -5.64,4.67 -9.1,10.87 -11.28,17.76 -0.92,2.91 -2.14,4.88 -5.57,4.26 z"
   id="path336"
   inkscape:connector-curvature="0"
   style="fill:#494b50" />
				<path
   class="st56"
   d="m 786.74,606.17 c 7.2,-2.32 13.26,-0.53 18.28,5.05 -0.63,1.5 -1.26,2.99 -1.89,4.49 -0.7,-0.27 -1.55,-0.38 -2.09,-0.85 -5.77,-4.99 -9.02,-5.14 -15.63,-1.37 -5.92,3.38 -8.47,9.03 -11.18,14.76 -1.17,2.48 -1.22,6.51 -5.74,5.93 -0.55,-4.39 1.15,-8.07 3.08,-11.93 1.56,-3.11 4.82,-5.43 4.7,-9.36 0,0 0,0.03 0.01,0.04 0.3,-0.04 0.59,-0.08 0.88,-0.13 -0.16,-0.25 -0.32,-0.49 -0.47,-0.74 3.12,-2.33 6.34,-4.52 10.05,-5.89 z"
   id="path338"
   inkscape:connector-curvature="0"
   style="fill:#494b50" />
				<path
   class="st53"
   d="m 776.26,612.89 c 0.12,3.93 -3.14,6.25 -4.7,9.36 -1.93,3.86 -3.63,7.54 -3.08,11.93 -2.05,0.4 -4.16,0.7 -4.6,3.32 -0.76,-0.29 -1.52,-0.59 -2.28,-0.88 -2.78,-4.97 -0.46,-10.42 -1.47,-15.56 5.79,-1.92 10.19,-6.56 16.13,-8.17 z"
   id="path340"
   inkscape:connector-curvature="0"
   style="fill:#3f3e3d" />
				<path
   class="st54"
   d="m 647.28,638.4 c 1.73,1.43 3.46,2.87 5.18,4.3 -2.62,2.08 -1.23,5.01 -1.55,7.56 -0.5,3.87 -2.45,4.63 -5.49,2.55 -4.18,-2.86 -3.84,-7.33 -3.33,-11.51 0.32,-2.7 2.42,-3.77 5.19,-2.9 z"
   id="path342"
   inkscape:connector-curvature="0"
   style="fill:#4f5155" />
				<path
   class="st48"
   d="m 610.08,677.25 c 1.11,0.11 2.4,-0.15 3.08,1.05 3.24,5.72 -0.51,16.26 -6.68,18.82 0,0 -0.27,-0.25 -0.27,-0.25 0.06,-5.74 0.12,-11.48 0.17,-17.22 0,0 0.48,-0.15 0.47,-0.15 1.6,-0.01 2.63,-0.83 3.23,-2.26 z"
   id="path344"
   inkscape:connector-curvature="0"
   style="fill:#f4c12e" />
				<path
   class="st49"
   d="m 770.79,535.3 c 6.05,-4.82 12.66,-8.68 19.8,-11.65 0.12,3.26 -2.83,4.07 -4.77,5.09 -4.83,2.53 -9.29,6.07 -15.03,6.56 z"
   id="path346"
   inkscape:connector-curvature="0"
   style="fill:#f7bf20" />
				<path
   class="st48"
   d="m 695.19,578.4 c 5.02,-3.1 10.05,-6.21 15.07,-9.31 0,0.77 0,1.55 0,2.32 -3.9,4.75 -9.47,5.9 -15.07,6.99 z"
   id="path348"
   inkscape:connector-curvature="0"
   style="fill:#f4c12e" />
				<path
   class="st56"
   d="m 760.14,621.07 c 1.01,5.14 -1.32,10.59 1.47,15.56 -0.86,1.1 -2.15,1.25 -3.39,1.5 -0.08,-5.27 -0.15,-10.54 -0.23,-15.81 0.71,-0.42 1.43,-0.84 2.15,-1.25 z"
   id="path350"
   inkscape:connector-curvature="0"
   style="fill:#494b50" />
				<path
   class="st49"
   d="m 724.2,563.21 c 2.79,-5.04 8.21,-5.96 12.82,-8.15 -2.75,5.11 -7.46,7.14 -12.82,8.15 z"
   id="path352"
   inkscape:connector-curvature="0"
   style="fill:#f7bf20" />
				<path
   class="st50"
   d="m 675.53,640.92 c 2.06,-3.68 5.48,-5.26 9.45,-6.04 -2.02,3.62 -5.68,4.92 -9.45,6.04 z"
   id="path354"
   inkscape:connector-curvature="0"
   style="fill:#444343" />
				<path
   class="st49"
   d="m 743.98,551.56 c 1.7,-4.21 5.69,-5.36 9.34,-6.97 -2.16,3.6 -5.04,6.23 -9.34,6.97 z"
   id="path356"
   inkscape:connector-curvature="0"
   style="fill:#f7bf20" />
				<path
   class="st49"
   d="m 761.47,541.11 c 2.91,-2.26 5.31,-5.33 9.33,-5.82 -1.31,4.82 -5.45,5.11 -9.33,5.82 z"
   id="path358"
   inkscape:connector-curvature="0"
   style="fill:#f7bf20" />
				<path
   class="st49"
   d="m 710.26,571.41 c 0,-0.77 0,-1.55 0,-2.32 2.34,-2.03 5.06,-2.81 8.12,-2.4 -1.89,2.98 -5.08,3.71 -8.12,4.72 z"
   id="path360"
   inkscape:connector-curvature="0"
   style="fill:#f7bf20" />
				<path
   class="st49"
   d="m 679.95,588.81 c 1.59,-2.66 4.12,-3.46 7.02,-3.54 -1.01,3.81 -3.94,3.82 -7.02,3.54 z"
   id="path362"
   inkscape:connector-curvature="0"
   style="fill:#f7bf20" />
				<path
   class="st49"
   d="m 753.32,544.6 c 2.31,-2.11 4.94,-3.49 8.15,-3.5 -1.58,3.79 -5.3,2.64 -8.15,3.5 z"
   id="path364"
   inkscape:connector-curvature="0"
   style="fill:#f7bf20" />
				<path
   class="st49"
   d="m 675.27,592.29 c 0.25,-2.92 2.19,-3.57 4.68,-3.49 0.42,3.82 -2.16,3.61 -4.68,3.49 z"
   id="path366"
   inkscape:connector-curvature="0"
   style="fill:#f7bf20" />
				<path
   class="st49"
   d="m 737.01,555.08 c 1.19,-3.44 4.25,-3.17 7,-3.51 -1.92,1.99 -4.3,3.06 -7,3.51 z"
   id="path368"
   inkscape:connector-curvature="0"
   style="fill:#f7bf20" />
				<path
   class="st49"
   d="m 718.38,566.71 c 1.69,-1.59 2.92,-3.93 5.83,-3.5 -0.61,3.38 -3.27,3.36 -5.83,3.5 z"
   id="path370"
   inkscape:connector-curvature="0"
   style="fill:#f7bf20" />
				<path
   class="st49"
   d="m 671.78,593.47 c 0.82,-1.43 2.22,-1.18 3.52,-1.18 -0.81,1.44 -2.22,1.15 -3.52,1.18 z"
   id="path372"
   inkscape:connector-curvature="0"
   style="fill:#f7bf20" />
				<path
   class="st48"
   d="m 691.7,580.69 c -0.15,-0.25 -0.3,-0.51 -0.45,-0.76 0.84,-0.4 1.2,0.15 1.53,0.76 -0.36,0 -0.72,0 -1.08,0 z"
   id="path374"
   inkscape:connector-curvature="0"
   style="fill:#f4c12e" />
				<path
   class="st53"
   d="m 776.68,612.07 c 0.16,0.25 0.32,0.49 0.47,0.74 -0.29,0.04 -0.59,0.09 -0.88,0.13 -0.18,-0.45 -0.04,-0.73 0.41,-0.87 z"
   id="path376"
   inkscape:connector-curvature="0"
   style="fill:#3f3e3d" />
				<path
   class="st57"
   d="m 669.45,707.65 c -1.57,2.31 -1.84,5.51 -4.74,6.89 -1.97,1.06 -3.84,2.41 -5.94,3.12 -4.26,1.45 -8.77,-1.53 -9.18,-5.8 -0.52,-5.56 5.32,-16.23 10.29,-18.84 2.75,-1.45 4.63,-1.2 7.55,0.87 4.68,3.32 2.74,7.42 3.18,11.31 0,0 0.06,-0.08 0.06,-0.08 -1.42,0.35 -1.17,1.51 -1.22,2.53 z"
   id="path378"
   inkscape:connector-curvature="0"
   style="fill:#acacac" />
				<path
   class="st57"
   d="m 796.5,631.71 c 1.16,1.65 -6.61,-1.08 -1.34,2.82 1.63,1.21 -1.8,7.97 -4.44,8.91 -1.61,0.57 -3.31,0.89 -4.97,1.33 -7.89,-0.23 -10.78,-5.94 -7.57,-13.3 2.06,-4.74 6.94,-6.79 9.01,-11.26 3.73,-0.29 7.21,0.04 9.4,3.68 -0.03,2.6 -0.06,5.21 -0.09,7.82 z"
   id="path380"
   inkscape:connector-curvature="0"
   style="fill:#acacac" />
				<path
   class="st50"
   d="m 670.62,705.2 c -0.44,-3.9 1.49,-7.99 -3.18,-11.31 -2.93,-2.08 -4.8,-2.32 -7.55,-0.87 -4.98,2.62 -10.81,13.28 -10.29,18.84 0.4,4.27 4.91,7.26 9.18,5.8 2.09,-0.71 3.96,-2.06 5.94,-3.12 -2.24,6.82 -9.55,9.59 -15.21,5.77 -1.1,-0.74 -2.21,-1.48 -3.32,-2.22 0,-1.93 -0.01,-3.85 0,-5.78 0.06,-13.86 10.81,-24.65 24.5,-24.6 0,0 -0.03,-0.02 -0.03,-0.02 0.43,1.04 0.85,0.77 1.26,-0.01 1.01,-0.01 2.03,-0.03 3.04,-0.04 -0.04,0.44 -0.09,0.88 -0.13,1.31 -1.76,0.99 -1.3,2.3 -0.52,3.66 3.12,5.48 -2.07,8.51 -3.69,12.59 z"
   id="path382"
   inkscape:connector-curvature="0"
   style="fill:#444343" />
				<path
   class="st58"
   d="m 670.68,687.71 c -13.69,-0.05 -24.44,10.74 -24.5,24.6 -0.01,1.93 0,3.85 0,5.78 -4.13,-1.41 -7.9,-3.41 -10.9,-6.66 0.54,-0.89 1.07,-1.79 1.61,-2.68 3.43,0.61 4.65,-1.36 5.57,-4.27 2.17,-6.89 5.63,-13.09 11.28,-17.76 6.58,-5.46 13.76,-4.95 16.94,0.99 z"
   id="path384"
   inkscape:connector-curvature="0"
   style="fill:#1d1d1e" />
				<path
   class="st50"
   d="m 796.5,631.71 c 0.03,-2.61 0.06,-5.22 0.09,-7.83 2.03,-2.78 -0.29,-4.23 -2.03,-5.27 -2.71,-1.62 -5.28,-0.64 -7.37,1.59 -2.07,4.47 -6.94,6.52 -9.01,11.26 -3.21,7.37 -0.32,13.07 7.57,13.3 -0.64,3.78 -3.77,3.45 -5.9,2.66 -2.31,-0.86 -5.11,-1.31 -6.78,-3.58 -0.84,-9.8 3.82,-17.67 9.89,-24.39 8.68,-9.62 14.62,-8.11 18.83,3.9 0.05,0.15 0.29,0.24 0.44,0.36 -1.34,1.07 -2.21,2.22 -2.57,4.12 -0.27,1.45 -0.09,4.29 -3.16,3.88 z"
   id="path386"
   inkscape:connector-curvature="0"
   style="fill:#444343" />
				<path
   class="st58"
   d="m 802.24,623.72 c -0.15,-0.12 -0.39,-0.21 -0.44,-0.36 -4.21,-12.01 -10.14,-13.52 -18.83,-3.9 -6.07,6.72 -10.73,14.59 -9.89,24.39 -3.92,-0.87 -6.58,-3.57 -9.2,-6.34 0.44,-2.62 2.55,-2.93 4.6,-3.32 4.52,0.58 4.57,-3.45 5.74,-5.93 2.72,-5.74 5.26,-11.38 11.18,-14.76 6.62,-3.77 9.86,-3.62 15.63,1.37 0.54,0.46 1.38,0.57 2.09,0.85 0.12,2.7 1.38,5.55 -0.88,8 z"
   id="path388"
   inkscape:connector-curvature="0"
   style="fill:#1d1d1e" />
				<path
   class="st59"
   d="m 583.38,686.38 c 3.8,4.89 3.77,8.19 -0.08,11.81 -4.59,-3.88 -9.59,-7.09 -15.19,-9.33 0.44,-1.66 -0.69,-3.05 -0.45,-4.92 0.61,-4.91 1.92,-6.58 6.27,-3.07 1.69,1.59 3.7,2.62 5.86,3.41 0.68,1.18 1.91,1.46 3.07,1.84 0.12,0.23 0.29,0.31 0.52,0.26 z"
   id="path390"
   inkscape:connector-curvature="0"
   style="fill:#dcdddd" />
				<path
   class="st56"
   d="m 674.3,692.62 c -0.78,-1.36 -1.24,-2.67 0.52,-3.66 0.57,1.32 0.74,2.59 -0.52,3.66 z"
   id="path392"
   inkscape:connector-curvature="0"
   style="fill:#494b50" />
				<path
   class="st50"
   d="m 669.45,707.65 c 0.06,-1.01 -0.2,-2.18 1.23,-2.53 0.01,1.05 -0.01,2.08 -1.23,2.53 z"
   id="path394"
   inkscape:connector-curvature="0"
   style="fill:#444343" />
				<path
   class="st52"
   d="m 612.49,580.62 c -0.76,10.66 2.89,20.76 3.97,31.2 0.65,6.29 1.96,12.52 2.98,18.78 -2.38,-1.47 -4.77,-2.95 -7.15,-4.42 1.51,-6.08 -0.44,-11.96 -1.42,-17.79 -1.71,-10.2 -3.73,-20.32 -3.13,-30.74 1.9,0.49 3.52,1.42 4.75,2.97 z"
   id="path396"
   inkscape:connector-curvature="0"
   style="fill:#8c8b8a" />
				<path
   class="st12"
   d="m 606.39,679.65 c -0.06,5.74 -0.12,11.48 -0.17,17.22 -4.42,-2.42 -9.13,-4.38 -12.8,-8 -0.01,-1.48 -0.02,-2.96 -0.03,-4.44 0.03,-0.9 0.06,-1.79 0.08,-2.69 0.05,-3 -1.6,-6.04 0.24,-9 4.23,2.3 8.45,4.61 12.68,6.91 z"
   id="path398"
   inkscape:connector-curvature="0"
   style="fill:#fefefe" />
				<path
   class="st45"
   d="m 610.09,677.24 c -0.6,1.43 -1.64,2.25 -3.23,2.26 -0.24,-2.65 1.74,-2.11 3.23,-2.26 z"
   id="path400"
   inkscape:connector-curvature="0"
   style="fill:#e4af35" />
				<path
   class="st54"
   d="m 582.86,686.13 c -1.16,-0.39 -2.39,-0.66 -3.07,-1.84 0.2,-0.9 0.23,-2.2 1.56,-1.84 1.89,0.51 2,2.05 1.51,3.68 z"
   id="path402"
   inkscape:connector-curvature="0"
   style="fill:#4f5155" />
				<path
   class="st52"
   d="m 593.47,681.74 c -0.03,0.9 -0.06,1.79 -0.08,2.69 -1.57,-0.65 -3.21,-1.2 -4.13,-2.9 1.52,-1.33 2.81,0.69 4.21,0.21 z"
   id="path404"
   inkscape:connector-curvature="0"
   style="fill:#8c8b8a" />
				<path
   class="st52"
   d="m 586.47,679.92 c -0.54,-0.28 -1.8,-0.16 -1.24,-1.13 0.39,-0.68 1.34,-0.13 1.84,0.53 -0.21,0.2 -0.4,0.4 -0.6,0.6 z"
   id="path406"
   inkscape:connector-curvature="0"
   style="fill:#8c8b8a" />
				<path
   class="st52"
   d="m 587.06,679.32 c 0.21,0.33 0.41,0.67 0.62,1 -0.4,-0.13 -0.8,-0.27 -1.21,-0.4 0.2,-0.2 0.39,-0.4 0.59,-0.6 z"
   id="path408"
   inkscape:connector-curvature="0"
   style="fill:#8c8b8a" />
				<path
   class="st45"
   d="m 563.28,679.12 c -0.13,1.29 -0.87,1.94 -1.94,1.51 -2.48,-0.99 -5.21,-1.9 -5.86,-4.96 -0.22,-1.05 0.54,-1.96 1.76,-1.32 2.31,1.21 5.19,1.8 6.04,4.77 z"
   id="path410"
   inkscape:connector-curvature="0"
   style="fill:#e4af35" />
				<path
   class="st45"
   d="m 600.22,704.13 c -2.28,-1.34 -5.43,-1.99 -6.02,-5.34 -0.17,-0.96 0.82,-1.9 1.92,-1.29 2.27,1.26 5.16,1.92 5.82,5.02 0.23,1.09 -0.22,1.85 -1.72,1.61 z"
   id="path412"
   inkscape:connector-curvature="0"
   style="fill:#e4af35" />
				<path
   class="st58"
   d="m 671.91,687.69 c -0.42,0.78 -0.84,1.05 -1.26,0.01 0.42,-0.01 0.84,-0.01 1.26,-0.01 z"
   id="path414"
   inkscape:connector-curvature="0"
   style="fill:#1d1d1e" />
				<path
   class="st59"
   d="m 787.19,620.2 c 2.09,-2.24 4.66,-3.21 7.37,-1.59 1.74,1.04 4.06,2.5 2.03,5.27 -2.19,-3.64 -5.67,-3.97 -9.4,-3.68 z"
   id="path416"
   inkscape:connector-curvature="0"
   style="fill:#dcdddd" />
						      <animateTransform
   attributeName="transform"
   type="scale"
   from="1 1"
   to="1.000 1.000"
   begin="0s"
   dur="0.1s"
   repeatCount="indefinite" />

						    </g>
						    

		</g>
	</g>
	<circle
   class="st60"
   cx="557.20001"
   cy="544.21997"
   r="323.31"
   clip-path="url(#SVGID_5_)"
   id="circle424"
   style="fill:none" />
</g>
</svg>