<?xml version="1.0" encoding="UTF-8" standalone="no"?>
<!-- Created with Inkscape (http://www.inkscape.org/) -->

<svg
   xmlns:dc="http://purl.org/dc/elements/1.1/"
   xmlns:cc="http://creativecommons.org/ns#"
   xmlns:rdf="http://www.w3.org/1999/02/22-rdf-syntax-ns#"
   xmlns:svg="http://www.w3.org/2000/svg"
   xmlns="http://www.w3.org/2000/svg"
   xmlns:sodipodi="http://sodipodi.sourceforge.net/DTD/sodipodi-0.dtd"
   xmlns:inkscape="http://www.inkscape.org/namespaces/inkscape"
   width="116.41666mm"
   height="23.8125mm"
   viewBox="0 0 116.41666 23.8125"
   version="1.1"
   id="svg4364"
   inkscape:version="0.92.4 (5da689c313, 2019-01-14)"
   sodipodi:docname="fb_btn.svg">
  <defs
     id="defs4358" />
  <sodipodi:namedview
     id="base"
     pagecolor="#ffffff"
     bordercolor="#666666"
     borderopacity="1.0"
     inkscape:pageopacity="0.0"
     inkscape:pageshadow="2"
     inkscape:zoom="0.35"
     inkscape:cx="1.0050711"
     inkscape:cy="-11.18782"
     inkscape:document-units="mm"
     inkscape:current-layer="layer1"
     showgrid="false"
     fit-margin-top="0"
     fit-margin-left="0"
     fit-margin-right="0"
     fit-margin-bottom="0"
     inkscape:window-width="683"
     inkscape:window-height="704"
     inkscape:window-x="0"
     inkscape:window-y="27"
     inkscape:window-maximized="0" />
  <metadata
     id="metadata4361">
    <rdf:RDF>
      <cc:Work
         rdf:about="">
        <dc:format>image/svg+xml</dc:format>
        <dc:type
           rdf:resource="http://purl.org/dc/dcmitype/StillImage" />
        <dc:title></dc:title>
      </cc:Work>
    </rdf:RDF>
  </metadata>
  <g
     inkscape:label="Layer 1"
     inkscape:groupmode="layer"
     id="layer1"
     transform="translate(-73.062799,-122.63958)">
    <g
       id="g5964">
      <g
         id="g4954"
         transform="matrix(0.26458333,0,0,0.26458333,-11.680596,-188.86496)">
        <g
           id="bg_22_">
          <g
             id="g5049">
            <path
               style="fill:#3b5994"
               inkscape:connector-curvature="0"
               class="st150"
               d="m 715.29,1267.34 h -350 c -24.85,0 -45,-20.15 -45,-45 v 0 c 0,-24.85 20.15,-45 45,-45 h 350 c 24.85,0 45,20.15 45,45 v 0 c 0,24.85 -20.15,45 -45,45 z"
               id="path177" />
          </g>
        </g>
      </g>
      <text
         style="font-size:6.3499999px;font-family:OpenSans-Regular;fill:#ffffff;stroke-width:0.26458332"
         class="st0 st154 st164"
         id="text182"
         x="99.174828"
         y="136.83754">Continuar con Facebook</text>
      <g
         style="opacity:0.98000004;fill:#f2f2f2;fill-opacity:0.94901961"
         id="g632"
         transform="matrix(0.26458333,0,0,0.26458333,-12.406878,-188.6308)">
        <g
           style="fill:#f2f2f2;fill-opacity:0.94901961"
           id="g630">
          <g
             style="fill:#f2f2f2;fill-opacity:0.94901961"
             id="g628">
            <path
               style="fill:#f2f2f2;fill-opacity:0.94901961"
               id="path626"
               d="m 396.75,1203.77 -4.52,-0.01 c -5.08,0 -8.36,3.42 -8.36,8.71 v 4.02 h -4.55 c -0.39,0 -0.71,0.32 -0.71,0.72 v 5.82 c 0,0.4 0.32,0.72 0.71,0.72 h 4.55 v 14.68 c 0,0.4 0.32,0.72 0.71,0.72 h 5.93 c 0.39,0 0.71,-0.32 0.71,-0.72 v -14.68 h 5.32 c 0.39,0 0.71,-0.32 0.71,-0.72 v -5.82 c 0,-0.19 -0.08,-0.37 -0.21,-0.51 -0.13,-0.14 -0.31,-0.21 -0.5,-0.21 h -5.32 v -3.4 c 0,-1.64 0.38,-2.47 2.48,-2.47 h 3.05 c 0.39,0 0.71,-0.32 0.71,-0.72 v -5.4 c 0,-0.4 -0.32,-0.73 -0.71,-0.73 z"
               class="st230"
               inkscape:connector-curvature="0" />
          </g>
        </g>
      </g>
    </g>
  </g>
</svg>
