<?xml version="1.0" encoding="UTF-8" standalone="no"?>
<!-- Generator: Adobe Illustrator 24.1.1, SVG Export Plug-In . SVG Version: 6.00 Build 0)  -->

<svg
   xmlns:dc="http://purl.org/dc/elements/1.1/"
   xmlns:cc="http://creativecommons.org/ns#"
   xmlns:rdf="http://www.w3.org/1999/02/22-rdf-syntax-ns#"
   xmlns:svg="http://www.w3.org/2000/svg"
   xmlns="http://www.w3.org/2000/svg"
   xmlns:xlink="http://www.w3.org/1999/xlink"
   xmlns:sodipodi="http://sodipodi.sourceforge.net/DTD/sodipodi-0.dtd"
   xmlns:inkscape="http://www.inkscape.org/namespaces/inkscape"
   version="1.1"
   x="0px"
   y="0px"
   viewBox="0 0 1080 1920"
   style="enable-background:new 0 0 1080 1920;"
   xml:space="preserve"
   id="svg474"
   sodipodi:docname="landing.svg"
   inkscape:version="0.92.4 (5da689c313, 2019-01-14)"><metadata
   id="metadata480"><rdf:RDF><cc:Work
       rdf:about=""><dc:format>image/svg+xml</dc:format><dc:type
         rdf:resource="http://purl.org/dc/dcmitype/StillImage" /><dc:title></dc:title></cc:Work></rdf:RDF></metadata><defs
   id="defs478" /><sodipodi:namedview
   pagecolor="#ffffff"
   bordercolor="#666666"
   borderopacity="1"
   objecttolerance="10"
   gridtolerance="10"
   guidetolerance="10"
   inkscape:pageopacity="0"
   inkscape:pageshadow="2"
   inkscape:window-width="100%"
   inkscape:window-height="100%"
   id="namedview476"
   showgrid="false"
   inkscape:zoom="0.49166667"
   inkscape:cx="468.51097"
   inkscape:cy="692.74663"
   inkscape:window-x="0"
   inkscape:window-y="27"
   inkscape:window-maximized="1"
   inkscape:current-layer="svg474" />
<style
   type="text/css"
   id="style2">
	.st0{fill:#FFFFFF;}
	.st1{clip-path:url(#SVGID_21_);fill:#875151;stroke:#629274;stroke-width:1.1252;stroke-miterlimit:10;}
	.st2{clip-path:url(#SVGID_21_);fill:#709985;}
	.st3{clip-path:url(#SVGID_21_);fill:none;stroke:#F7F7F7;stroke-width:50.4744;stroke-miterlimit:10;}
	.st4{clip-path:url(#SVGID_21_);fill:#F7F7F7;}
	.st5{clip-path:url(#SVGID_21_);fill:none;stroke:#F7F7F7;stroke-width:40.3795;stroke-miterlimit:10;}
	.st6{clip-path:url(#SVGID_21_);}
	.st7{fill:none;stroke:#A3A3A3;stroke-width:7.5712;stroke-miterlimit:10;}
	.st8{fill:none;stroke:#A3A3A3;stroke-width:7.5712;stroke-miterlimit:10;stroke-dasharray:23.2707,19.3922;}
	
		.st9{clip-path:url(#SVGID_21_);fill:none;stroke:#A3A3A3;stroke-width:10.0949;stroke-miterlimit:10;stroke-dasharray:25.2372,20.1897;}
	.st10{fill:#EF5261;}
	.st11{fill:#EEEFEE;}
	.st12{clip-path:url(#SVGID_22_);}
	.st13{fill:#FEFEFD;}
	.st14{fill:#FECB66;}
	.st15{fill:#F6CB5F;}
	.st16{fill:#AAACAB;}
	.st17{fill:#F5B541;}
	.st18{fill:#DCDCDA;}
	.st19{fill:#9FA09F;}
	.st20{fill:#C6C9CC;}
	.st21{fill:#FBB843;}
	.st22{fill:#8D8D8E;}
	.st23{fill:#808384;}
	.st24{fill:#F7C942;}
	.st25{fill:#3D3F40;}
	.st26{fill:#434344;}
	.st27{fill:#FD9F1A;}
	.st28{fill:#F0F3F3;}
	.st29{clip-path:url(#SVGID_23_);}
	.st30{fill:#FDFEFE;}
	.st31{fill:#D4AB90;}
	.st32{fill:#D5AB90;}
	.st33{fill:#D2A17C;}
	.st34{fill:#D3A17C;}
	.st35{fill:#DABA9C;}
	.st36{fill:#DCB99A;}
	.st37{fill:#DBB899;}
	.st38{fill:#DAB89A;}
	.st39{fill:#FDCB6B;}
	.st40{fill:#D3A88C;}
	.st41{fill:#E1BA7D;}
	.st42{fill:#F3CA63;}
	.st43{fill:#EACE8A;}
	.st44{fill:#D9B290;}
	.st45{clip-path:url(#SVGID_24_);}
	.st46{fill:#FEFEFE;}
	.st47{fill:#E4AF35;}
	.st48{fill:#A7A7A7;}
	.st49{fill:#EBC858;}
	.st50{fill:#F8BF20;}
	.st51{fill:#F3C12F;}
	.st52{fill:#444444;}
	.st53{fill:#3F3E3D;}
	.st54{fill:#8C8C8B;}
	.st55{fill:#4F5156;}
	.st56{fill:#FEC75B;}
	.st57{fill:#9F9E9D;}
	.st58{fill:#494B4F;}
	.st59{fill:#ABABAB;}
	.st60{fill:#1E1E1E;}
	.st61{fill:#DBDCDC;}
	.st62{clip-path:url(#SVGID_21_);fill:none;}
	.st63{clip-path:url(#SVGID_25_);fill:#875151;stroke:#629274;stroke-width:1.1252;stroke-miterlimit:10;}
	.st64{clip-path:url(#SVGID_25_);fill:#709985;}
	.st65{clip-path:url(#SVGID_25_);fill:none;stroke:#F7F7F7;stroke-width:50.4744;stroke-miterlimit:10;}
	.st66{clip-path:url(#SVGID_25_);fill:#F7F7F7;}
	.st67{clip-path:url(#SVGID_25_);fill:none;stroke:#F7F7F7;stroke-width:40.3795;stroke-miterlimit:10;}
	.st68{clip-path:url(#SVGID_25_);}
	
		.st69{clip-path:url(#SVGID_25_);fill:none;stroke:#A3A3A3;stroke-width:10.0949;stroke-miterlimit:10;stroke-dasharray:25.2372,20.1897;}
	.st70{clip-path:url(#SVGID_26_);}
	.st71{fill:#8D8D8D;}
	.st72{fill:#797C7C;}
	.st73{clip-path:url(#SVGID_27_);}
	.st74{fill:#D2A07C;}
	.st75{fill:#FDCB6A;}
	.st76{fill:#F4C963;}
	.st77{fill:#DCB593;}
	.st78{clip-path:url(#SVGID_28_);}
	.st79{fill:#E4AE35;}
	.st80{fill:#EAC858;}
	.st81{fill:#F7BF20;}
	.st82{fill:#F4C22E;}
	.st83{fill:#8C8B8A;}
	.st84{fill:#494B50;}
	.st85{fill:#AEAEAE;}
	.st86{fill:#1D1D1E;}
	.st87{fill:#DCDDDD;}
	.st88{clip-path:url(#SVGID_25_);fill:none;}
	.st89{display:none;}
	.st90{display:inline;fill:none;stroke:#875151;stroke-width:0.9716;stroke-miterlimit:10;}
	.st91{display:inline;fill:none;stroke:#875151;stroke-width:1.042;stroke-miterlimit:10;}
	.st92{display:inline;fill:none;stroke:#875151;stroke-width:1.3458;stroke-miterlimit:10;}
	.st93{display:inline;fill:none;stroke:#875151;stroke-width:1.3757;stroke-miterlimit:10;}
	.st94{display:inline;fill:none;stroke:#875151;stroke-width:0.9688;stroke-miterlimit:10;}
	.st95{display:inline;opacity:0.8;fill:none;stroke:#875151;stroke-width:1.3458;stroke-miterlimit:10;}
	.st96{display:inline;fill:none;stroke:#000000;stroke-miterlimit:10;}
	.st97{fill:#FFC85C;stroke:#629274;stroke-width:2;stroke-miterlimit:10;}
	.st98{fill:#7EBDB4;}
	.st99{fill:none;stroke:#875151;stroke-width:4;stroke-miterlimit:10;}
	.st100{fill:none;stroke:#629274;stroke-width:2;stroke-miterlimit:10;}
	.st101{fill:none;stroke:#89C2B9;stroke-width:1.8522;stroke-miterlimit:10;}
	.st102{fill:none;stroke:#709985;stroke-width:3.7045;stroke-miterlimit:10;}
	.st103{fill:none;stroke:#875151;stroke-width:1.8522;stroke-miterlimit:10;}
	.st104{fill:none;stroke:#89C2B9;stroke-width:2.7784;stroke-miterlimit:10;}
	.st105{fill:none;stroke:#875151;stroke-width:0.9261;stroke-miterlimit:10;}
	.st106{fill:none;stroke:#89C2B9;stroke-width:3.7045;stroke-miterlimit:10;}
	.st107{fill:none;stroke:#709985;stroke-width:1.8522;stroke-miterlimit:10;}
	.st108{fill:none;stroke:#709985;stroke-width:0.9261;stroke-miterlimit:10;}
	.st109{fill:none;stroke:#875151;stroke-width:2.7784;stroke-miterlimit:10;}
	.st110{opacity:0.8;fill:#FECB66;}
	.st111{fill:#BDBDBD;}
	.st112{clip-path:url(#Mask_2_);}
	.st113{fill-rule:evenodd;clip-rule:evenodd;fill:#D9D9D9;}
	.st114{fill-rule:evenodd;clip-rule:evenodd;fill:#777777;}
	.st115{fill:#CFD8DC;}
	.st116{fill-rule:evenodd;clip-rule:evenodd;fill:#FFFFFF;}
	.st117{fill:none;stroke:#BDBDBD;stroke-linecap:round;stroke-linejoin:round;}
	.st118{fill:none;stroke:#171616;stroke-width:2;stroke-linecap:round;stroke-linejoin:round;stroke-miterlimit:10;}
	.st119{fill:#ECEFF1;}
	.st120{fill:none;stroke:#171616;stroke-width:3;stroke-linecap:round;stroke-linejoin:round;stroke-miterlimit:10;}
	.st121{fill:none;stroke:#171616;stroke-width:4;stroke-linecap:round;stroke-linejoin:round;stroke-miterlimit:10;}
	.st122{fill:#171616;}
	.st123{fill:none;stroke:#FFFFFF;stroke-width:2;stroke-linecap:round;stroke-linejoin:round;stroke-miterlimit:10;}
	.st124{fill:none;stroke:#FFFFFF;}
	.st125{opacity:0.45;fill:#ECEFF1;enable-background:new    ;}
	.st126{clip-path:url(#Mask_3_);}
	.st127{fill:none;stroke:#FFFFFF;stroke-width:2.88;stroke-linecap:round;stroke-linejoin:round;stroke-miterlimit:10;}
	.st128{fill:none;stroke:#FFFFFF;stroke-width:1.44;}
	.st129{opacity:0.8;}
	.st130{fill:none;stroke:#000000;stroke-width:1.4172;}
	.st131{font-family:'OpenSans-Regular';}
	.st132{font-size:25px;}
	.st133{letter-spacing:1;}
	.st134{opacity:0.45;fill:#171616;enable-background:new    ;}
	.st135{fill:none;stroke:#171616;stroke-width:2.8343;stroke-linecap:round;stroke-linejoin:round;stroke-miterlimit:10;}
	.st136{fill:none;stroke:#BDBDBD;stroke-linecap:round;stroke-linejoin:round;stroke-miterlimit:10;}
	.st137{fill:none;stroke:#CFD8DC;stroke-width:6;stroke-miterlimit:10;}
	.st138{fill:none;stroke:#CFD8DC;stroke-width:6;stroke-linecap:round;stroke-linejoin:round;stroke-miterlimit:10;}
	.st139{fill:none;stroke:#000000;}
	.st140{fill:#3B5994;}
	.st141{fill:#FBC02D;}
	.st142{opacity:0.45;fill:#FFFFFF;enable-background:new    ;}
	.st143{fill:none;stroke:#7A7A7A;stroke-width:1.5;stroke-linecap:round;stroke-linejoin:round;stroke-miterlimit:10;}
	.st144{fill:#DD4B39;}
	.st145{fill:none;stroke:#BFDEDA;stroke-width:2;stroke-miterlimit:10;}
	.st146{clip-path:url(#SVGID_29_);fill:#875151;stroke:#629274;stroke-width:1.0795;stroke-miterlimit:10;}
	.st147{clip-path:url(#SVGID_29_);fill:#709985;}
	.st148{clip-path:url(#SVGID_29_);fill:none;stroke:#F7F7F7;stroke-width:48.4273;stroke-miterlimit:10;}
	.st149{clip-path:url(#SVGID_29_);fill:#F7F7F7;}
	.st150{clip-path:url(#SVGID_29_);fill:none;stroke:#F7F7F7;stroke-width:38.7418;stroke-miterlimit:10;}
	.st151{clip-path:url(#SVGID_29_);}
	.st152{fill:none;stroke:#A3A3A3;stroke-width:7.2641;stroke-miterlimit:10;}
	.st153{fill:none;stroke:#A3A3A3;stroke-width:7.2641;stroke-miterlimit:10;stroke-dasharray:22.3269,18.6058;}
	
		.st154{clip-path:url(#SVGID_29_);fill:none;stroke:#A3A3A3;stroke-width:9.6855;stroke-miterlimit:10;stroke-dasharray:24.2136,19.3709;}
	.st155{clip-path:url(#SVGID_30_);}
	.st156{fill:#F7C943;}
	.st157{fill:#3E3F40;}
	.st158{clip-path:url(#SVGID_31_);}
	.st159{fill:#DAB490;}
	.st160{clip-path:url(#SVGID_32_);}
	.st161{fill:#F4C12E;}
	.st162{fill:#444343;}
	.st163{fill:#4F5155;}
	.st164{fill:#ACACAC;}
	.st165{clip-path:url(#SVGID_29_);fill:none;}
	.st166{clip-path:url(#SVGID_33_);fill:#875151;stroke:#629274;stroke-width:0.6875;stroke-miterlimit:10;}
	.st167{clip-path:url(#SVGID_33_);fill:#709985;}
	.st168{clip-path:url(#SVGID_33_);fill:none;stroke:#F7F7F7;stroke-width:30.8416;stroke-miterlimit:10;}
	.st169{clip-path:url(#SVGID_33_);fill:#F7F7F7;}
	.st170{clip-path:url(#SVGID_33_);fill:none;stroke:#F7F7F7;stroke-width:24.6732;stroke-miterlimit:10;}
	.st171{clip-path:url(#SVGID_33_);}
	.st172{fill:none;stroke:#A3A3A3;stroke-width:4.6262;stroke-miterlimit:10;}
	.st173{fill:none;stroke:#A3A3A3;stroke-width:4.6262;stroke-miterlimit:10;stroke-dasharray:14.2192,11.8493;}
	
		.st174{clip-path:url(#SVGID_33_);fill:none;stroke:#A3A3A3;stroke-width:6.1683;stroke-miterlimit:10;stroke-dasharray:15.4208,12.3366;}
	.st175{clip-path:url(#SVGID_34_);}
	.st176{clip-path:url(#SVGID_35_);}
	.st177{clip-path:url(#SVGID_36_);}
	.st178{clip-path:url(#SVGID_33_);fill:none;}
	.st179{fill:#875151;stroke:#875151;stroke-width:1.1252;stroke-miterlimit:10;}
	.st180{font-family:'Bakersfield-Bold';}
	.st181{font-size:75px;}
	.st182{fill:#333333;}
	.st183{font-family:'Ubuntu-Regular';}
	.st184{font-size:30px;}
	.st185{font-family:'Ubuntu-Light';}
	.st186{clip-path:url(#SVGID_37_);fill:#875151;stroke:#629274;stroke-width:1.1243;stroke-miterlimit:10;}
	.st187{clip-path:url(#SVGID_37_);fill:#709985;}
	.st188{clip-path:url(#SVGID_37_);fill:none;stroke:#F7F7F7;stroke-width:50.4338;stroke-miterlimit:10;}
	.st189{clip-path:url(#SVGID_37_);fill:#F7F7F7;}
	.st190{clip-path:url(#SVGID_37_);fill:none;stroke:#F7F7F7;stroke-width:40.3471;stroke-miterlimit:10;}
	.st191{clip-path:url(#SVGID_37_);}
	.st192{fill:none;stroke:#A3A3A3;stroke-width:7.5651;stroke-miterlimit:10;}
	.st193{fill:none;stroke:#A3A3A3;stroke-width:7.5651;stroke-miterlimit:10;stroke-dasharray:23.252,19.3767;}
	
		.st194{clip-path:url(#SVGID_37_);fill:none;stroke:#A3A3A3;stroke-width:10.0868;stroke-miterlimit:10;stroke-dasharray:25.2169,20.1735;}
	.st195{clip-path:url(#SVGID_38_);}
	.st196{clip-path:url(#SVGID_39_);}
	.st197{clip-path:url(#SVGID_40_);}
	.st198{fill:#8C8C8A;}
	.st199{clip-path:url(#SVGID_37_);fill:none;}
	.st200{fill:#F2F2F2;}
	.st201{fill:#F2F2F2;stroke:#F2F2F2;stroke-width:1.75;stroke-miterlimit:10;}
</style>

<g
   id="otro">
</g>
<g
   id="cuadricula"
   class="st89">
</g>
<g
   id="colmena">
</g>
<g
   id="colmena_2">
</g>
<g
   id="texto">
</g>

<g
   id="logo">
	<g
   id="g460">
		<defs
   id="defs39">
			<path
   id="SVGID_17_"
   d="M 785,936.07 V 699.43 c 0,-14.31 -7.64,-27.54 -20.03,-34.7 L 560.03,546.42 c -12.4,-7.16 -27.67,-7.16 -40.07,0 L 315.04,664.73 c -12.4,7.16 -20.03,20.38 -20.03,34.7 v 236.63 c 0,14.31 7.64,27.54 20.03,34.7 l 204.93,118.32 c 12.4,7.16 27.67,7.16 40.07,0 L 764.97,970.76 C 777.36,963.61 785,950.38 785,936.07 Z"
   inkscape:connector-curvature="0" />
		</defs>
		<clipPath
   id="SVGID_21_">
			<use
   xlink:href="#SVGID_17_"
   style="overflow:visible"
   id="use41"
   x="0"
   y="0"
   width="100%"
   height="100%" />
		</clipPath>
		
			<rect
   x="250.59"
   y="517.58002"
   style="fill:#875151;stroke:#629274;stroke-width:1.07949996;stroke-miterlimit:10"
   width="581.41998"
   height="581.41998"
   clip-path="url(#SVGID_21_)"
   id="rect44" />
		<polyline
   class="st2"
   points="795.46,669.19 650.58,688.14 832.82,813.01 862.39,747.63   "
   clip-path="url(#SVGID_21_)"
   id="polyline46"
   style="fill:#709985" />
		<polygon
   class="st2"
   points="417,570.88 558.57,668.22 461.67,717.15 356.47,786.09 257.65,678.63 382.93,579.87 "
   clip-path="url(#SVGID_21_)"
   id="polygon48"
   style="fill:#709985" />
		<path
   style="fill:none;stroke:#f7f7f7;stroke-width:48.4272995;stroke-miterlimit:10"
   d="m 202.13,887.4 c 124.02,-61.62 208.34,-113.63 263.9,-151.09 15.03,-10.13 31.77,-21.78 57.78,-33.93 51.47,-24.04 79.65,-22.22 216.58,-37.72 83.05,-9.4 106.52,-13.9 151.04,-8.51 33.49,4.06 60.71,11.52 79.29,17.56"
   clip-path="url(#SVGID_21_)"
   id="path50"
   inkscape:connector-curvature="0" />
		<polygon
   class="st4"
   points="932.41,857.03 314.04,481.54 301.78,551.69 930.84,947.09 "
   clip-path="url(#SVGID_21_)"
   id="polygon52"
   style="fill:#f7f7f7" />
		<path
   class="st4"
   d="M 256.15,1046.51 440.88,945.52 c 0,0 19.26,-24.72 60,-21.13 3.53,0.31 5.77,0.38 11.2,0.95 15.66,1.62 38.11,3.45 66.87,4.18 22.82,-10.66 45.64,-21.33 68.46,-31.99 l 330.31,-172.91 12.5,70.94 -661.49,380.51 z"
   clip-path="url(#SVGID_21_)"
   id="path54"
   inkscape:connector-curvature="0"
   style="fill:#f7f7f7" />
		
			<line
   style="fill:none;stroke:#f7f7f7;stroke-width:38.7417984;stroke-miterlimit:10"
   x1="-84.110001"
   y1="457.92001"
   x2="371.66"
   y2="783.46002"
   clip-path="url(#SVGID_21_)"
   id="line56" />
		<g
   class="st6"
   clip-path="url(#SVGID_21_)"
   id="g66">
			<g
   id="g64">
				<line
   class="st152"
   x1="340.78"
   y1="531.96997"
   x2="350.01001"
   y2="537.77002"
   id="line58"
   style="fill:none;stroke:#a3a3a3;stroke-width:7.26410007;stroke-miterlimit:10" />
				<polyline
   class="st153"
   points="365.77,547.66 963.64,922.87 978.76,938.33     "
   id="polyline60"
   style="fill:none;stroke:#a3a3a3;stroke-width:7.26410007;stroke-miterlimit:10;stroke-dasharray:22.3269, 18.6058" />
				<line
   class="st152"
   x1="985.27002"
   y1="944.97998"
   x2="992.89001"
   y2="952.77002"
   id="line62"
   style="fill:none;stroke:#a3a3a3;stroke-width:7.26410007;stroke-miterlimit:10" />
			</g>
		</g>
		
			<path
   style="fill:none;stroke:#a3a3a3;stroke-width:9.68550014;stroke-miterlimit:10;stroke-dasharray:24.2136, 19.3709"
   d="m 284.19,1144.04 c 6.31,-2.93 142.47,-79.97 142.47,-79.97 l 595.39,-340.94"
   clip-path="url(#SVGID_21_)"
   id="path68"
   inkscape:connector-curvature="0" />
		<g
   class="st6"
   clip-path="url(#SVGID_21_)"
   id="g76">
			<g
   id="g74">
				<path
   class="st10"
   d="m 498.74,911.58 c 0,36.2 -42.36,84.72 -42.36,84.72 0,0 -42.36,-47.73 -42.36,-84.72 0,-23.39 18.96,-42.36 42.36,-42.36 23.39,0 42.36,18.97 42.36,42.36 z"
   id="path70"
   inkscape:connector-curvature="0"
   style="fill:#ef5261" />
				<circle
   class="st11"
   cx="456.38"
   cy="910.75"
   r="27.889999"
   id="circle72"
   style="fill:#eeefee" />
<animateTransform
   id="anim1"
   attributeName="transform"
   type="scale"
   from="1 1"
   to="1 0.955"
   begin="0s; anim2.end"
   dur="0.5s" />
				
			      </g>
			      <animateTransform
   id="anim2"
   attributeName="transform"
   type="scale"
   from="1 0.955"
   to="1 1"
   begin="anim1.end"
   dur="0.52s" />
		</g>
		<g
   class="st6"
   clip-path="url(#SVGID_21_)"
   id="g84">
			<g
   id="g82">
				<path
   class="st10"
   d="m 467.19,653.17 c 0,18.3 -21.41,42.83 -21.41,42.83 0,0 -21.41,-24.13 -21.41,-42.83 0,-11.83 9.59,-21.41 21.41,-21.41 11.82,0 21.41,9.58 21.41,21.41 z"
   id="path78"
   inkscape:connector-curvature="0"
   style="fill:#ef5261" />
				<circle
   class="st11"
   cx="445.78"
   cy="652.75"
   r="14.1"
   id="circle80"
   style="fill:#eeefee" />
			</g>
		</g>
		<g
   class="st6"
   clip-path="url(#SVGID_21_)"
   id="g250">
			<defs
   id="defs87">
				<path
   id="SVGID_20_"
   d="m 550.18,588.38 7.51,-4.05 c 0,0 1.33,-0.7 1.99,-0.78 0.66,-0.08 1.23,0.05 1.23,0.05 l 0.62,0.21 1.07,0.66 1.92,1.44 1.74,1.01 4.72,2.71 5.34,3.13 6.72,3.92 7.49,4.38 4.19,2.48 1.66,0.95 5.37,3.18 25.06,14.96 c 0,0 0.19,0.28 0.22,0.32 0.03,0.04 0.19,0.17 0.23,0.53 0.04,0.35 0.02,3.86 0.02,3.86 l -0.11,16.18 c 0,0 17.16,9.65 17.79,10.35 0.63,0.7 1.58,3.04 1.58,3.04 l 0.87,2.88 9.37,18.3 c 0,0 0.53,1.73 0.41,2.39 -0.12,0.66 -0.11,0.85 -0.11,0.85 l 0.06,3.6 0.16,14.19 c 0,0 0.17,0.94 -0.18,2.15 -0.35,1.21 -1.31,3.13 -1.31,3.13 0,0 -0.12,-0.66 0.04,0.51 0.16,1.17 0.09,2.81 -0.3,3.28 -0.39,0.47 -0.97,1.76 -1.4,2.07 -0.43,0.31 -10.51,6.49 -10.51,6.49 l -18.17,11.05 c 0,0 -3.7,1.89 -6.97,2.49 -3.28,0.6 -6.64,-0.48 -6.64,-0.48 0,0 -4.42,-1.81 -6.34,-3.17 -1.92,-1.36 -12.8,-7.67 -12.8,-7.67 l -22.27,-13.21 -26.49,-15.68 -14.44,-8.6 c 0,0 -2.19,-1.75 -3.17,-3.03 -0.98,-1.28 -1.84,-2.26 -3.07,-5.88 -1.23,-3.62 -0.43,-8.47 -0.43,-8.47 0,0 -2.9,-1.59 -3.25,-2.25 -0.35,-0.66 -0.59,-1.48 -0.59,-1.48 l -0.21,-3.94 0.02,-48.67 c 0,0 0,-0.73 0.67,-1.2 0.67,-0.47 3.68,-2.31 3.68,-2.31 z"
   inkscape:connector-curvature="0" />
			</defs>
			<clipPath
   id="SVGID_22_">
				<use
   xlink:href="#SVGID_20_"
   style="overflow:visible"
   id="use89"
   x="0"
   y="0"
   width="100%"
   height="100%" />
			</clipPath>
			<g
   class="st12"
   clip-path="url(#SVGID_22_)"
   id="g248">
				<g
   id="g246">
					<path
   class="st46"
   d="m 508.51,659.06 c 0,-26.06 0.03,-52.12 -0.06,-78.18 -0.01,-2.18 0.44,-2.62 2.62,-2.62 51.39,0.08 102.79,0.08 154.18,0 2.18,0 2.62,0.44 2.62,2.62 -0.08,52.12 -0.08,104.24 0,156.37 0,2.18 -0.44,2.62 -2.62,2.62 -51.39,-0.08 -102.79,-0.08 -154.18,0 -2.18,0 -2.63,-0.44 -2.62,-2.62 0.1,-26.07 0.06,-52.13 0.06,-78.19 z m 89.18,0.25 c 0.22,-0.17 0.44,-0.33 0.66,-0.5 8.35,-4.9 16.7,-9.8 25.05,-14.7 0.82,-0.48 1.66,-1.19 2.68,-0.65 2.45,1.3 2.96,-0.79 2.94,-2.11 -0.09,-5.92 0.6,-11.87 -0.65,-17.75 0.23,-1.45 -0.91,-1.8 -1.85,-2.31 -2.09,-1.14 -4.16,-2.28 -6.24,-3.43 -0.7,-0.31 -1.4,-0.62 -2.1,-0.92 l 0.03,0.05 c -0.81,-1.44 -2.35,-1.83 -3.67,-2.53 -0.22,-0.13 -0.44,-0.25 -0.66,-0.38 -0.37,-0.58 -0.87,-0.89 -1.57,-0.79 l 0.05,0.03 c -0.29,-0.69 -0.81,-0.89 -1.51,-0.76 l 0.05,0.01 c -1.12,-1.51 -2.78,-2.2 -4.43,-2.92 l 0.03,0.04 c -0.97,-1.18 -2.33,-1.73 -3.68,-2.32 -0.25,-0.54 -0.72,-0.64 -1.25,-0.64 -5.66,-3.42 -11.33,-6.85 -16.99,-10.27 l 0.01,0.05 c -4.27,-3.65 -9.44,-5.53 -14.63,-7.36 l 0.05,0.04 c -0.78,-2.58 -3.18,-2.76 -5.2,-3.51 -2,-1.43 -4.02,-2.26 -6.16,-0.25 -0.88,-0.23 -1.57,0 -1.99,0.85 l 0.02,-0.05 c -3.18,1.38 -6.22,3.02 -8.96,5.16 -0.18,-0.04 -0.35,0 -0.5,0.12 -0.26,0.22 -0.52,0.44 -0.78,0.66 l 0.02,-0.08 c -1.37,0.5 -2.75,0.98 -3.66,2.24 v -0.04 c -5.55,2.86 -11.26,5.44 -16.09,9.52 l 0.05,-0.01 c -0.71,-0.12 -1.22,0.2 -1.63,0.75 -0.67,0.5 -1.35,0.99 -2.02,1.49 -0.87,0.01 -1.64,0.25 -2.16,1.01 -2.87,1.25 -0.94,3.72 -1.42,5.57 0,0.5 0,1.01 0,1.51 -0.02,1.22 -0.06,2.43 -0.06,3.65 -0.01,11.31 0.08,22.63 -0.05,33.94 -0.05,4.76 -1.34,9.76 4.08,12.69 -1.11,8.23 2.07,14.72 8.81,18.02 2.34,1.72 4.57,3.62 7.04,5.12 14.13,8.57 28.29,17.09 42.5,25.54 9.49,5.64 18.72,11.74 28.9,16.17 3.78,1.65 7.36,2.3 11.2,0.48 2.41,-1.15 4.98,-2 7.27,-3.34 8.06,-4.75 16.01,-9.68 24.05,-14.48 2.8,-1.67 4.33,-3.84 3.59,-7.21 0.92,-1.28 1.53,-2.59 1.49,-4.29 -0.13,-6.37 -0.1,-12.75 -0.12,-19.13 0.44,-1.66 -0.08,-3.23 -0.93,-4.53 -3.2,-4.9 -5.18,-10.42 -8.13,-15.44 -0.4,-0.63 -0.12,-1.59 -0.98,-2 -1.73,-5.94 -2.66,-6.2 -7.3,-2.09 -0.42,0.37 -1.03,0.53 -1.55,0.79 -5.01,1.95 -9.41,5.01 -13.94,7.82 -2.04,1.17 -4.33,1.95 -5.98,3.76 -0.21,-0.03 -0.41,0.01 -0.6,0.11 -0.29,0.21 -0.58,0.42 -0.87,0.63 -0.21,-0.04 -0.41,0 -0.59,0.11 -0.27,0.21 -0.55,0.42 -0.82,0.64 -1.4,0.75 -2.81,1.5 -4.21,2.25 -4.22,-2.8 -8.6,-5.38 -13.28,-7.25 -2.58,-1.03 -4.07,-2.37 -4.33,-5.08 l 0.21,-0.11 c 0.55,-0.02 1.01,-0.17 1.18,-0.77 0.15,-0.16 0.33,-0.25 0.55,-0.27 0.44,0.11 0.74,-0.04 0.89,-0.47 z"
   id="path92"
   inkscape:connector-curvature="0"
   style="fill:#fefefe" />
					<path
   class="st14"
   d="m 519.54,614.14 c 0,-0.5 0,-1.01 0,-1.51 0.47,-1.2 0.94,-2.4 1.41,-3.6 4.19,0.65 7.56,3.14 11.18,5.03 4.99,2.61 9.76,5.78 14.96,7.84 6.92,2.74 13.32,6.46 19.54,10.28 7.29,4.47 15.16,7.86 22.24,12.66 0.95,1.42 0.75,3.02 0.75,4.59 0.02,17.01 0.03,34.01 0.05,51.02 -0.91,0.99 -2.03,0.8 -2.99,0.27 -4.42,-2.44 -8.85,-4.87 -13.18,-7.46 -9.06,-5.43 -17.68,-11.62 -27.58,-15.56 -1.94,-2.08 -4.29,-3.23 -7.17,-3.19 -0.52,-1.02 -1.17,-1.87 -2.46,-1.88 -1.17,-2.36 -3.65,-2.56 -5.7,-3.47 -0.29,-0.53 -0.58,-1.05 -0.87,-1.58 0.82,-2.13 -1.24,-2.27 -2.22,-3.01 -3.16,-2.37 -6.82,-4.96 -6.36,-9.09 0.67,-5.97 -0.6,-11.78 -0.3,-17.69 0.35,-6.78 0.1,-13.6 0.04,-20.4 0.01,-1.2 0.68,-2.84 -1.34,-3.25 z"
   id="path94"
   inkscape:connector-curvature="0"
   style="fill:#fecb66" />
					<path
   class="st15"
   d="m 601.57,606.75 c 0.53,0 1,0.1 1.25,0.64 0.27,2.3 2.01,2.24 3.68,2.32 0,0 -0.03,-0.04 -0.03,-0.04 0.37,2.65 2.35,2.86 4.43,2.92 0,0 -0.05,-0.01 -0.05,-0.01 0.28,0.71 0.86,0.79 1.51,0.76 0,0 -0.05,-0.03 -0.05,-0.03 0.29,0.72 0.91,0.81 1.57,0.79 0.22,0.13 0.44,0.25 0.66,0.38 0.1,2.48 1.88,2.51 3.67,2.53 0,0 -0.03,-0.05 -0.03,-0.05 0.13,1.59 0.78,2.02 2.1,0.92 2.08,1.14 4.16,2.29 6.24,3.43 0.95,0.51 2.09,0.86 1.85,2.31 -1.52,0.39 -2.97,0.87 -4.36,1.7 -4.23,2.51 -8.54,4.88 -12.84,7.27 -4.62,2.58 -9.24,5.16 -13.91,7.65 -2.43,1.3 -4.65,3.17 -7.63,3.13 -1.26,-0.68 -2.62,-1.22 -3.77,-2.05 -9.13,-6.66 -19.19,-11.81 -29.23,-16.75 -9.61,-4.73 -18.84,-10.16 -28.5,-14.78 -1.76,-0.84 -4.39,-1.11 -5.01,-3.73 0.67,-0.5 1.35,-0.99 2.02,-1.49 0.67,0.03 1.31,-0.01 1.62,-0.75 0,0 -0.05,0.01 -0.05,0.01 5.6,-0.41 9.11,-4.93 13.79,-7.16 0.81,-0.38 2.55,-0.62 2.3,-2.36 0,0 0,0.04 0,0.04 1.67,-0.01 3.35,0 3.66,-2.24 0,0 -0.02,0.08 -0.02,0.08 0.26,-0.22 0.52,-0.44 0.78,-0.66 0.15,-0.12 0.31,-0.16 0.5,-0.12 3.81,-0.29 7.1,-1.49 8.96,-5.16 0,0 -0.02,0.05 -0.02,0.05 0.85,0.15 1.48,-0.21 1.99,-0.85 2.14,-2.01 4.16,-1.18 6.16,0.25 1.25,1.88 2.53,3.73 5.2,3.51 0,0 -0.05,-0.04 -0.05,-0.04 -0.08,1.29 0.77,1.72 1.74,2.38 1.84,1.25 4.36,0.77 5.9,2.27 2.01,1.98 4.52,2.2 7,2.71 0,0 -0.01,-0.05 -0.01,-0.05 0.21,1.06 -1.23,1.74 -0.75,2.95 2.35,-0.09 4.14,1.14 6.06,2.15 3.76,1.98 7.34,4.43 11.67,5.17 z"
   id="path96"
   inkscape:connector-curvature="0"
   style="fill:#f6cb5f" />
					<path
   class="st16"
   d="m 545.92,677.69 c 9.9,3.94 18.52,10.13 27.58,15.56 4.33,2.59 8.76,5.02 13.18,7.46 0.96,0.53 2.08,0.72 2.99,-0.27 0.23,-0.05 0.46,-0.11 0.69,-0.19 0.26,-0.22 0.53,-0.45 0.79,-0.67 0.46,-0.19 0.92,-0.38 1.38,-0.57 0.06,1.2 1.1,1.79 1.64,2.69 1.4,2.32 2.56,3.16 4.74,0.5 1.44,-1.76 3.89,-2.23 6.29,-1.58 -0.7,0.46 -1.37,0.97 -2.09,1.39 -4.47,2.62 -5.38,5.14 -4.08,10.19 0.77,2.99 2.15,5.61 3.91,8.07 3.57,4.99 7.79,6.1 13.23,3.53 1.62,-0.76 3.25,-1.5 4.88,-2.25 0.81,0.91 1.86,0.54 2.84,0.51 0.72,0.01 1.84,0.32 2.08,-0.01 1.94,-2.71 5.27,-3.09 7.74,-4.86 1.01,-0.72 2.6,-0.98 2.64,-2.69 0.26,-0.1 0.52,-0.19 0.78,-0.29 0.59,-0.07 1.19,-0.12 1.45,-0.79 l -0.05,0.05 c 0.24,-0.19 0.48,-0.38 0.71,-0.57 0.17,-0.17 0.37,-0.23 0.61,-0.19 0.3,-0.22 0.61,-0.44 0.91,-0.66 l 0.14,-0.14 0.19,0.07 c 1.76,-0.01 3.58,0.1 4.02,-2.26 l -0.01,0.06 c 0.85,0.06 1.74,0.2 2.24,-0.76 l -0.13,-0.01 c 3.72,-0.31 6,-3.84 9.65,-4.31 0.74,3.37 -0.79,5.54 -3.59,7.21 -8.03,4.8 -15.99,9.73 -24.05,14.48 -2.29,1.35 -4.86,2.2 -7.27,3.34 -3.83,1.82 -7.42,1.17 -11.2,-0.48 -10.19,-4.43 -19.41,-10.53 -28.9,-16.17 -14.2,-8.45 -28.37,-16.97 -42.5,-25.54 -2.47,-1.5 -4.7,-3.41 -7.04,-5.13 0.13,-0.15 0.26,-0.3 0.39,-0.45 4.75,1.6 8.81,0.14 12.72,-2.61 0.95,-0.64 0.44,-1.09 0.5,-1.66 z"
   id="path98"
   inkscape:connector-curvature="0"
   style="fill:#aaacab" />
					<path
   class="st17"
   d="m 590.35,700.24 c -0.23,0.08 -0.45,0.14 -0.69,0.19 -0.02,-17.01 -0.03,-34.01 -0.05,-51.02 0,-1.57 0.2,-3.17 -0.75,-4.59 0.59,-0.31 0.74,-0.85 0.75,-1.46 2.99,0.04 5.2,-1.84 7.63,-3.13 4.67,-2.49 9.28,-5.08 13.91,-7.65 4.3,-2.39 8.61,-4.76 12.84,-7.27 1.39,-0.83 2.84,-1.31 4.36,-1.7 1.25,5.87 0.56,11.83 0.65,17.75 0.02,1.32 -0.49,3.41 -2.94,2.11 -1.02,-0.54 -1.86,0.17 -2.68,0.65 -8.35,4.89 -16.7,9.79 -25.05,14.69 -0.22,0.17 -0.44,0.33 -0.66,0.5 0,0 -0.15,0.08 -0.15,0.08 -0.3,0.16 -0.59,0.31 -0.89,0.47 -0.22,0.02 -0.4,0.1 -0.55,0.27 -0.54,0.02 -0.99,0.2 -1.18,0.77 0,0 -0.21,0.11 -0.21,0.11 -2.13,0.36 -1.29,2.09 -1.3,3.21 -0.09,9.1 0,18.21 -0.11,27.32 -0.03,2.25 0.54,4.61 -0.66,6.77 -0.04,-2.89 -0.06,-5.79 -0.14,-8.68 -0.06,-2.12 -0.85,-0.36 -1.33,-0.21 -1.82,3.48 -0.31,7.23 -0.8,10.82 z"
   id="path100"
   inkscape:connector-curvature="0"
   style="fill:#f5b541" />
					<path
   class="st18"
   d="m 592.65,698.31 c 1.2,-2.16 0.63,-4.52 0.66,-6.77 0.11,-9.1 0.02,-18.21 0.11,-27.32 0.01,-1.12 -0.83,-2.85 1.3,-3.21 0.26,2.71 1.75,4.05 4.33,5.08 4.68,1.87 9.06,4.46 13.28,7.25 3.11,5.85 5.13,12.22 8.66,17.85 -0.07,0.12 -0.07,0.24 0.02,0.36 0.12,0.99 0.45,1.84 1.45,2.26 l -0.02,-0.03 c -0.08,1.27 0.22,2.35 1.48,2.94 0,0 -0.01,-0.01 -0.01,-0.01 -0.19,1.5 0,2.85 1.5,3.65 0.01,4.91 -0.57,9.92 0.23,14.69 0.5,2.99 0.73,5.12 -1.76,7 -0.98,0.03 -2.03,0.4 -2.84,-0.51 1.68,-2.09 -1.57,-2.05 -1.56,-3.72 0.02,-3.99 -2.04,-7.39 -4.34,-10.46 -2.49,-3.33 -5.32,-6.45 -9.96,-6.76 -2.4,-0.65 -4.85,-0.18 -6.29,1.58 -2.19,2.66 -3.34,1.82 -4.74,-0.5 -0.54,-0.9 -1.58,-1.49 -1.64,-2.69 0.11,-0.21 0.15,-0.44 0.14,-0.68 z m 9.28,-12.43 c -0.22,1.22 0.82,1.24 1.52,1.58 0.98,0.66 2.12,0.92 3.14,1.62 3.87,2.64 7.91,5.03 11.93,7.46 0.55,0.33 1.21,0.95 1.95,0.33 0.7,-0.59 0.45,-1.25 0.1,-1.94 -2.99,-6.02 -5.97,-12.04 -8.96,-18.06 -0.43,-1.55 -1.38,-2.56 -2.98,-2.92 -4.04,-2.41 -8.11,-4.79 -12.12,-7.24 -1.81,-1.11 -1.76,0.13 -1.77,1.29 -0.02,4.37 -0.26,8.75 0.07,13.1 0.2,2.72 2.03,4.52 5.05,4.57 0.7,0.06 1.4,0.11 2.1,0.17 z"
   id="path102"
   inkscape:connector-curvature="0"
   style="fill:#dcdcda" />
					<path
   class="st19"
   d="m 621.01,691.56 c -0.08,-0.12 -0.09,-0.24 -0.02,-0.36 1.68,-7.84 3.57,-15.65 3.71,-23.73 0.62,-0.37 0.71,-0.97 0.7,-1.62 4.54,-2.8 8.93,-5.86 13.94,-7.82 0.91,1.42 0.84,3.03 0.62,4.57 -0.35,2.49 -0.98,4.93 -1.37,7.42 -1.25,8.16 -2.45,16.33 -3.67,24.49 -1.72,2.09 -3.99,3.37 -6.44,4.39 -2.18,0.64 -3.11,-1.34 -4.58,-2.19 0,0 0.01,0.01 0.01,0.01 0.15,-1.3 -0.05,-2.43 -1.48,-2.94 l 0.02,0.03 c 0.11,-1.12 0.08,-2.16 -1.44,-2.25 z"
   id="path104"
   inkscape:connector-curvature="0"
   style="fill:#9fa09f" />
					<path
   class="st20"
   d="m 628.49,698.91 c 2.45,-1.02 4.72,-2.31 6.44,-4.39 1.83,-0.42 3.27,-1.43 4.37,-2.94 3.07,-0.38 5.26,-2.28 7.37,-4.31 4.5,-0.74 7.56,-4.28 11.57,-5.96 0.03,6.38 -0.01,12.76 0.12,19.13 0.04,1.71 -0.58,3.01 -1.49,4.29 -3.65,0.47 -5.93,4 -9.65,4.31 1.98,-2.04 3.18,-4.23 1.69,-7.22 -3.71,2.07 -7.14,4.11 -10.68,5.94 -3.17,1.64 -3.29,3.95 -1.87,6.77 -0.05,1.7 -1.63,1.96 -2.64,2.69 -2.47,1.77 -5.8,2.15 -7.74,4.86 -0.24,0.33 -1.36,0.02 -2.08,0.01 2.49,-1.89 2.26,-4.01 1.76,-7 -0.8,-4.78 -0.22,-9.78 -0.23,-14.69 1.21,-0.1 2.22,-0.61 3.06,-1.49 z m 23.98,-2.94 c 1.05,-0.02 1.77,-0.53 2.18,-1.49 4.08,-1.38 1.49,-4.39 2.11,-6.88 -1.65,0.41 -2.77,0.79 -3.55,1.8 -0.6,0.03 -1.16,0.12 -1.46,0.73 -2.58,1.73 -1.6,4.36 -1.15,6.46 0.28,1.34 1.35,0.1 1.87,-0.62 z m -4.13,-3.62 c -3.95,0.8 -7.1,3.34 -10.6,5.14 -2.39,1.23 -4.35,6.42 -2.65,8.19 1.84,1.91 3.32,-1.08 5.06,-1.61 1.24,-0.38 2.27,-1.38 3.5,-1.86 4.56,-1.78 6.2,-4.97 4.69,-9.86 z m -15,9.08 c -1.61,0.56 -2.86,0.99 -4.1,1.44 -2.26,0.81 -1.55,2.76 -1.58,4.35 -0.01,0.69 -0.61,1.94 0.75,2 1.45,0.06 2.82,-0.3 3.94,-1.5 1.69,-1.8 1.06,-3.84 0.99,-6.29 z m 22.83,-0.87 c -0.31,-1.09 -0.79,-1.91 -1.79,-1.59 -1.83,0.58 -3.56,1.5 -3.9,3.64 -0.11,0.69 0.72,1.5 1.43,1.22 1.73,-0.7 3.43,-1.55 4.26,-3.27 z M 628.38,714 c -0.09,1.71 0.82,1.85 1.66,1.67 1.52,-0.32 3.12,-0.73 3.29,-2.7 0.12,-1.33 -0.77,-1.73 -1.86,-1.5 -1.6,0.34 -2.91,1.12 -3.09,2.53 z"
   id="path106"
   inkscape:connector-curvature="0"
   style="fill:#c6c9cc" />
					<path
   class="st71"
   d="m 658.23,681.3 c -4.01,1.69 -7.07,5.22 -11.57,5.96 -1.42,-1.88 -0.7,-3.9 -0.43,-5.91 0.88,-6.57 1.72,-13.15 2.57,-19.73 0.12,-0.1 0.24,-0.2 0.36,-0.29 2.95,5.02 4.93,10.54 8.13,15.44 0.86,1.3 1.39,2.86 0.94,4.53 z"
   id="path108"
   inkscape:connector-curvature="0"
   style="fill:#8d8d8d" />
					<path
   class="st21"
   d="m 589.62,643.37 c -0.01,0.61 -0.16,1.15 -0.75,1.46 -7.08,-4.8 -14.95,-8.19 -22.24,-12.66 -6.22,-3.82 -12.63,-7.54 -19.54,-10.28 -5.21,-2.06 -9.97,-5.23 -14.96,-7.84 -3.63,-1.89 -7,-4.38 -11.18,-5.03 0,-0.66 0,-1.31 0.01,-1.97 0.52,-0.76 1.29,-1 2.16,-1.01 0.61,2.62 3.24,2.89 5.01,3.73 9.66,4.62 18.89,10.05 28.5,14.78 10.04,4.94 20.11,10.09 29.23,16.75 1.14,0.85 2.5,1.39 3.76,2.07 z"
   id="path110"
   inkscape:connector-curvature="0"
   style="fill:#fbb843" />
					<path
   class="st71"
   d="m 624.71,667.47 c -0.15,8.08 -2.03,15.89 -3.71,23.73 -3.53,-5.64 -5.56,-12.01 -8.66,-17.85 1.4,-0.75 2.81,-1.5 4.21,-2.25 0.27,-0.21 0.55,-0.42 0.82,-0.64 0.18,-0.11 0.38,-0.14 0.59,-0.11 0.29,-0.21 0.58,-0.42 0.87,-0.63 0.19,-0.11 0.39,-0.15 0.6,-0.11 2.18,0.34 3.62,-1.16 5.28,-2.14 z"
   id="path112"
   inkscape:connector-curvature="0"
   style="fill:#8d8d8d" />
					<path
   class="st71"
   d="m 639.3,691.57 c -1.1,1.51 -2.54,2.52 -4.37,2.94 1.22,-8.17 2.41,-16.33 3.67,-24.49 0.38,-2.48 1.01,-4.93 1.37,-7.42 0.22,-1.54 0.3,-3.14 -0.62,-4.57 0.52,-0.26 1.13,-0.42 1.55,-0.79 4.63,-4.11 5.57,-3.85 7.3,2.09 l -0.11,0.09 c -0.73,0 -1.53,0.1 -1.97,-0.63 -0.47,-0.77 -0.45,-2.24 -1.76,-1.83 -1.15,0.36 -0.52,1.7 -0.67,2.59 -1.18,6.78 -2.65,13.52 -3.38,20.35 -0.44,3.87 -1.76,7.7 -1.01,11.67 z"
   id="path114"
   inkscape:connector-curvature="0"
   style="fill:#8d8d8d" />
					<path
   class="st17"
   d="m 519.54,614.14 c 2.02,0.41 1.35,2.05 1.36,3.24 0.06,6.8 0.3,13.61 -0.04,20.4 -0.3,5.91 0.96,11.72 0.3,17.69 -0.46,4.13 3.2,6.72 6.36,9.09 0.98,0.73 3.03,0.88 2.22,3.01 -0.48,0.03 -0.96,0.05 -1.44,0.08 -1.18,-0.81 -2.36,-1.62 -3.54,-2.43 -0.21,-0.58 -0.67,-0.78 -1.24,-0.81 -5.42,-2.93 -4.14,-7.93 -4.08,-12.69 0.13,-11.31 0.04,-22.63 0.05,-33.94 -0.01,-1.21 0.03,-2.43 0.05,-3.64 z"
   id="path116"
   inkscape:connector-curvature="0"
   style="fill:#f5b541" />
					<path
   class="st16"
   d="m 523.51,664.42 c 0.57,0.02 1.03,0.22 1.24,0.81 -0.51,7.09 3.13,12.21 7.96,16.76 -0.13,0.15 -0.26,0.3 -0.39,0.45 -6.74,-3.3 -9.92,-9.8 -8.81,-18.02 z"
   id="path118"
   inkscape:connector-curvature="0"
   style="fill:#aaacab" />
					<path
   class="st156"
   d="m 601.57,606.75 c -4.33,-0.75 -7.91,-3.19 -11.69,-5.17 -1.92,-1.01 -3.71,-2.24 -6.06,-2.15 -0.48,-1.21 0.96,-1.88 0.75,-2.95 5.67,3.43 11.34,6.85 17,10.27 z"
   id="path120"
   inkscape:connector-curvature="0"
   style="fill:#f7c943" />
					<path
   class="st156"
   d="m 584.59,596.53 c -2.48,-0.51 -4.98,-0.73 -7,-2.71 -1.53,-1.51 -4.05,-1.02 -5.9,-2.27 -0.97,-0.66 -1.82,-1.08 -1.74,-2.38 5.2,1.83 10.37,3.71 14.64,7.36 z"
   id="path122"
   inkscape:connector-curvature="0"
   style="fill:#f7c943" />
					<path
   class="st156"
   d="m 542.8,594.3 c 0.24,1.73 -1.5,1.98 -2.3,2.36 -4.68,2.23 -8.19,6.74 -13.79,7.16 4.83,-4.07 10.54,-6.65 16.09,-9.52 z"
   id="path124"
   inkscape:connector-curvature="0"
   style="fill:#f7c943" />
					<path
   class="st156"
   d="m 556.67,586.24 c -1.86,3.67 -5.15,4.88 -8.96,5.16 2.75,-2.14 5.78,-3.78 8.96,-5.16 z"
   id="path126"
   inkscape:connector-curvature="0"
   style="fill:#f7c943" />
					<path
   class="st156"
   d="m 570,589.21 c -2.67,0.22 -3.95,-1.63 -5.2,-3.51 2.02,0.75 4.42,0.93 5.2,3.51 z"
   id="path128"
   inkscape:connector-curvature="0"
   style="fill:#f7c943" />
					<path
   class="st72"
   d="m 624.71,667.47 c -1.65,0.98 -3.1,2.48 -5.28,2.14 1.64,-1.81 3.94,-2.59 5.98,-3.76 0,0.65 -0.08,1.25 -0.7,1.62 z"
   id="path130"
   inkscape:connector-curvature="0"
   style="fill:#797c7c" />
					<path
   class="st156"
   d="m 610.89,612.59 c -2.08,-0.06 -4.06,-0.26 -4.43,-2.92 1.64,0.72 3.31,1.41 4.43,2.92 z"
   id="path132"
   inkscape:connector-curvature="0"
   style="fill:#f7c943" />
					<path
   class="st17"
   d="m 520.95,607.05 c 0,0.66 0,1.31 -0.01,1.97 -0.47,1.2 -0.94,2.4 -1.41,3.6 0.49,-1.85 -1.45,-4.32 1.42,-5.57 z"
   id="path134"
   inkscape:connector-curvature="0"
   style="fill:#f5b541" />
					<path
   class="st156"
   d="m 546.45,592.1 c -0.31,2.24 -1.99,2.23 -3.66,2.24 0.91,-1.26 2.3,-1.74 3.66,-2.24 z"
   id="path136"
   inkscape:connector-curvature="0"
   style="fill:#f7c943" />
					<path
   class="st156"
   d="m 606.49,609.71 c -1.66,-0.07 -3.41,-0.02 -3.68,-2.32 1.35,0.58 2.71,1.14 3.68,2.32 z"
   id="path138"
   inkscape:connector-curvature="0"
   style="fill:#f7c943" />
					<path
   class="st156"
   d="m 618.2,616.99 c -1.79,-0.01 -3.57,-0.05 -3.67,-2.53 1.32,0.7 2.86,1.09 3.67,2.53 z"
   id="path140"
   inkscape:connector-curvature="0"
   style="fill:#f7c943" />
					<path
   class="st156"
   d="m 620.27,617.87 c -1.32,1.1 -1.96,0.67 -2.1,-0.92 0.7,0.31 1.4,0.61 2.1,0.92 z"
   id="path142"
   inkscape:connector-curvature="0"
   style="fill:#f7c943" />
					<path
   class="st156"
   d="m 558.65,585.44 c -0.51,0.64 -1.14,1 -1.99,0.85 0.42,-0.84 1.1,-1.08 1.99,-0.85 z"
   id="path144"
   inkscape:connector-curvature="0"
   style="fill:#f7c943" />
					<path
   class="st71"
   d="m 648.19,659.33 c 0.86,0.4 0.58,1.37 0.98,1.99 -0.12,0.09 -0.24,0.19 -0.36,0.29 -0.89,-0.52 -0.74,-1.38 -0.73,-2.19 z"
   id="path146"
   inkscape:connector-curvature="0"
   style="fill:#8d8d8d" />
					<path
   class="st156"
   d="m 613.87,614.09 c -0.67,0.02 -1.28,-0.07 -1.57,-0.79 0.7,-0.1 1.2,0.21 1.57,0.79 z"
   id="path148"
   inkscape:connector-curvature="0"
   style="fill:#f7c943" />
					<path
   class="st156"
   d="m 612.35,613.33 c -0.65,0.03 -1.23,-0.05 -1.51,-0.76 0.7,-0.13 1.23,0.07 1.51,0.76 z"
   id="path150"
   inkscape:connector-curvature="0"
   style="fill:#f7c943" />
					<path
   class="st18"
   d="m 594.93,660.9 c 0.19,-0.57 0.63,-0.75 1.18,-0.77 -0.17,0.6 -0.63,0.76 -1.18,0.77 z"
   id="path152"
   inkscape:connector-curvature="0"
   style="fill:#dcdcda" />
					<path
   class="st156"
   d="m 526.76,603.81 c -0.32,0.74 -0.95,0.78 -1.62,0.75 0.4,-0.56 0.91,-0.87 1.62,-0.75 z"
   id="path154"
   inkscape:connector-curvature="0"
   style="fill:#f7c943" />
					<path
   class="st72"
   d="m 617.36,670.46 c -0.27,0.21 -0.55,0.42 -0.82,0.64 0.28,-0.22 0.55,-0.43 0.82,-0.64 z"
   id="path156"
   inkscape:connector-curvature="0"
   style="fill:#797c7c" />
					<path
   class="st156"
   d="m 547.22,591.52 c -0.26,0.22 -0.52,0.44 -0.78,0.66 0.26,-0.22 0.52,-0.44 0.78,-0.66 z"
   id="path158"
   inkscape:connector-curvature="0"
   style="fill:#f7c943" />
					<path
   class="st72"
   d="m 618.83,669.73 c -0.29,0.21 -0.58,0.42 -0.87,0.63 0.28,-0.22 0.57,-0.43 0.87,-0.63 z"
   id="path160"
   inkscape:connector-curvature="0"
   style="fill:#797c7c" />
					<path
   class="st18"
   d="m 596.66,659.87 c 0.3,-0.16 0.59,-0.31 0.89,-0.47 -0.16,0.42 -0.46,0.57 -0.89,0.47 z"
   id="path162"
   inkscape:connector-curvature="0"
   style="fill:#dcdcda" />
					<path
   class="st18"
   d="m 597.69,659.31 c 0.22,-0.17 0.44,-0.34 0.66,-0.5 -0.22,0.17 -0.44,0.34 -0.66,0.5 z"
   id="path164"
   inkscape:connector-curvature="0"
   style="fill:#dcdcda" />
					<path
   class="st157"
   d="m 532.71,681.98 c -4.83,-4.55 -8.46,-9.67 -7.96,-16.76 1.18,0.81 2.36,1.62 3.54,2.43 -0.03,0.76 -0.21,1.56 0.57,2.09 0.1,0.4 0.19,0.79 0.29,1.19 -0.06,0.63 -0.11,1.26 0.48,1.7 0.25,0.23 0.51,0.47 0.76,0.7 l 0.02,0.02 c 0.14,0.26 0.23,0.7 0.43,0.76 0.56,0.15 0.65,-0.34 0.73,-0.76 l 0.01,0.09 c 1.23,0.19 0.86,2.36 2.51,2.03 2.01,0.29 0.85,2.68 3.11,4.19 -2.13,-3.42 0.84,-3.67 1.56,-5.16 2.88,-0.04 5.23,1.11 7.17,3.19 -0.06,0.58 0.45,1.03 -0.49,1.69 -3.92,2.74 -7.98,4.19 -12.73,2.6 z m -1.18,-7.12 -0.13,0.27 0.23,0.01 z"
   id="path166"
   inkscape:connector-curvature="0"
   style="fill:#3e3f40" />
					<path
   class="st18"
   d="m 534.08,675.47 c -1.65,0.33 -1.28,-1.84 -2.51,-2.03 0.55,-1.53 -0.28,-2.64 -1.13,-3.74 0.08,-0.17 0.14,-0.35 0.15,-0.54 2.05,0.91 4.53,1.11 5.7,3.47 0.4,1.82 -1.11,2.17 -2.21,2.84 z"
   id="path168"
   inkscape:connector-curvature="0"
   style="fill:#dcdcda" />
					<path
   class="st16"
   d="m 534.08,675.47 c 1.1,-0.67 2.61,-1.02 2.21,-2.85 1.29,0.01 1.94,0.86 2.46,1.88 -0.72,1.49 -3.69,1.74 -1.56,5.16 -2.25,-1.51 -1.1,-3.9 -3.11,-4.19 z"
   id="path170"
   inkscape:connector-curvature="0"
   style="fill:#aaacab" />
					<path
   class="st19"
   d="m 530.59,669.15 c -0.02,0.19 -0.07,0.37 -0.15,0.54 l 0.04,-0.05 c -0.54,0.03 -1.08,0.06 -1.62,0.09 -0.78,-0.54 -0.61,-1.33 -0.57,-2.09 0.48,-0.03 0.96,-0.05 1.44,-0.08 0.29,0.54 0.57,1.06 0.86,1.59 z"
   id="path172"
   inkscape:connector-curvature="0"
   style="fill:#9fa09f" />
					<path
   class="st157"
   d="m 605.2,700.61 c 4.63,0.31 7.47,3.43 9.96,6.76 2.29,3.07 4.36,6.47 4.34,10.46 -0.01,1.67 3.24,1.63 1.56,3.72 -1.63,0.75 -3.26,1.48 -4.88,2.25 -5.44,2.56 -9.66,1.45 -13.23,-3.53 -1.76,-2.46 -3.14,-5.08 -3.91,-8.07 -1.3,-5.05 -0.38,-7.57 4.08,-10.19 0.71,-0.43 1.38,-0.93 2.08,-1.4 z m 0.83,6.3 c -0.46,-0.78 -1.22,-1 -1.64,-0.22 -0.66,1.23 0.62,1.52 1.34,2.03 l -0.04,0.35 c -0.06,0.35 -0.07,0.72 -0.18,1.06 -1.97,5.98 -1.11,7.88 4.01,8.92 0.21,0.04 0.38,0.29 0.56,0.44 0.13,0.55 0.25,1.1 0.43,1.63 0.02,0.05 0.49,0.06 0.58,-0.05 0.58,-0.74 -0.22,-1.26 -0.35,-1.89 0.57,-0.74 2.83,0.65 2.15,-1.47 -1.02,-3.2 -1.76,-6.64 -4.93,-8.64 0.11,-1.26 0.07,-2.38 -1.69,-2.18 z"
   id="path174"
   inkscape:connector-curvature="0"
   style="fill:#3e3f40" />
					<path
   class="st26"
   d="m 636.35,714.51 c -1.41,-2.82 -1.3,-5.12 1.87,-6.77 3.54,-1.83 6.97,-3.86 10.68,-5.94 1.49,2.99 0.29,5.18 -1.69,7.22 0,0 0.13,0.01 0.13,0.01 -1.08,-0.73 -1.66,0.03 -2.24,0.76 0,0 0.01,-0.06 0.01,-0.06 -1.58,0.32 -2.82,1.25 -4.02,2.26 l -0.19,-0.07 c 0,0 -0.14,0.14 -0.14,0.14 -0.3,0.22 -0.61,0.44 -0.91,0.66 -0.23,-0.04 -0.44,0.02 -0.61,0.19 -0.24,0.19 -0.48,0.38 -0.71,0.57 0,0 0.05,-0.05 0.05,-0.05 -0.48,0.26 -0.96,0.53 -1.45,0.79 -0.26,0.1 -0.52,0.2 -0.78,0.29 z"
   id="path176"
   inkscape:connector-curvature="0"
   style="fill:#434344" />
					<path
   class="st27"
   d="m 592.65,698.31 c 0.01,0.24 -0.04,0.47 -0.13,0.7 -0.46,0.19 -0.92,0.38 -1.38,0.57 0.01,-3.39 0.02,-6.77 0.04,-10.16 0.48,-0.14 1.26,-1.91 1.33,0.21 0.09,2.89 0.1,5.78 0.14,8.68 z"
   id="path178"
   inkscape:connector-curvature="0"
   style="fill:#fd9f1a" />
					<path
   class="st21"
   d="m 591.18,689.41 c -0.01,3.39 -0.03,6.77 -0.04,10.16 -0.26,0.22 -0.53,0.45 -0.79,0.67 0.49,-3.59 -1.02,-7.34 0.83,-10.83 z"
   id="path180"
   inkscape:connector-curvature="0"
   style="fill:#fbb843" />
					<path
   class="st20"
   d="m 641.09,712 c 1.2,-1 2.44,-1.94 4.02,-2.26 -0.44,2.36 -2.26,2.25 -4.02,2.26 z"
   id="path182"
   inkscape:connector-curvature="0"
   style="fill:#c6c9cc" />
					<path
   class="st20"
   d="m 645.1,709.8 c 0.59,-0.73 1.16,-1.49 2.24,-0.76 -0.5,0.96 -1.39,0.82 -2.24,0.76 z"
   id="path184"
   inkscape:connector-curvature="0"
   style="fill:#c6c9cc" />
					<path
   class="st20"
   d="m 637.13,714.22 c 0.48,-0.26 0.96,-0.53 1.45,-0.79 -0.26,0.68 -0.86,0.72 -1.45,0.79 z"
   id="path186"
   inkscape:connector-curvature="0"
   style="fill:#c6c9cc" />
					<path
   class="st20"
   d="m 639.84,712.73 c 0.3,-0.22 0.61,-0.44 0.91,-0.66 -0.3,0.22 -0.6,0.44 -0.91,0.66 z"
   id="path188"
   inkscape:connector-curvature="0"
   style="fill:#c6c9cc" />
					<path
   class="st20"
   d="m 638.52,713.49 c 0.24,-0.19 0.48,-0.38 0.71,-0.57 -0.23,0.19 -0.47,0.38 -0.71,0.57 z"
   id="path190"
   inkscape:connector-curvature="0"
   style="fill:#c6c9cc" />
					<path
   class="st71"
   d="m 611.62,676.86 c 2.98,6.02 5.96,12.05 8.96,18.06 0.34,0.69 0.6,1.35 -0.1,1.94 -0.75,0.63 -1.41,0 -1.95,-0.33 -4.01,-2.43 -8.06,-4.81 -11.93,-7.46 -1.02,-0.7 -2.16,-0.96 -3.14,-1.62 -0.14,-0.88 0.71,-2.71 -1.52,-1.58 0,0 0.04,-0.05 0.04,-0.05 -0.35,-3.31 -0.69,-6.62 -1.04,-9.92 -0.34,0.02 -0.68,0.03 -1.01,0.05 0.47,3.26 -1.75,6.37 -0.05,9.7 -3.02,-0.05 -4.84,-1.85 -5.05,-4.57 -0.33,-4.34 -0.09,-8.73 -0.07,-13.1 0.01,-1.16 -0.04,-2.4 1.77,-1.29 4.02,2.46 8.08,4.83 12.12,7.24 -0.22,2.02 -0.45,4.03 -0.67,6.05 v -0.1 c -1.27,1.91 -1.14,3.86 -0.13,5.82 0.23,0.48 0.6,0.74 1.12,0.56 2.79,-0.94 3.37,-3.24 1.83,-7.26 0.27,-0.71 0.55,-1.43 0.82,-2.14 z"
   id="path192"
   inkscape:connector-curvature="0"
   style="fill:#8d8d8d" />
					<path
   class="st72"
   d="m 599.87,685.65 c -1.71,-3.33 0.52,-6.44 0.05,-9.7 0.34,-0.02 0.68,-0.03 1.01,-0.05 0.35,3.31 0.69,6.61 1.04,9.92 -0.7,-0.05 -1.4,-0.11 -2.1,-0.17 z"
   id="path194"
   inkscape:connector-curvature="0"
   style="fill:#797c7c" />
					<path
   class="st72"
   d="m 611.62,676.86 c -0.28,0.72 -0.55,1.43 -0.83,2.15 -0.94,0.33 -1.88,0.66 -2.83,0.98 0.22,-2.02 0.45,-4.03 0.67,-6.05 1.61,0.36 2.56,1.37 2.99,2.92 z"
   id="path196"
   inkscape:connector-curvature="0"
   style="fill:#797c7c" />
					<path
   class="st71"
   d="m 628.49,698.91 c -0.84,0.88 -1.85,1.4 -3.07,1.46 -1.51,-0.8 -1.69,-2.15 -1.5,-3.65 1.46,0.85 2.39,2.83 4.57,2.19 z"
   id="path198"
   inkscape:connector-curvature="0"
   style="fill:#8d8d8d" />
					<path
   class="st71"
   d="m 622.44,693.79 c 1.43,0.51 1.62,1.64 1.48,2.94 -1.26,-0.6 -1.56,-1.67 -1.48,-2.94 z"
   id="path200"
   inkscape:connector-curvature="0"
   style="fill:#8d8d8d" />
					<path
   class="st71"
   d="m 621.01,691.56 c 1.52,0.09 1.55,1.13 1.45,2.26 -1,-0.42 -1.33,-1.27 -1.45,-2.26 z"
   id="path202"
   inkscape:connector-curvature="0"
   style="fill:#8d8d8d" />
					<path
   class="st72"
   d="m 601.93,685.88 c 2.23,-1.13 1.38,0.7 1.52,1.58 -0.7,-0.34 -1.74,-0.36 -1.52,-1.58 z"
   id="path204"
   inkscape:connector-curvature="0"
   style="fill:#797c7c" />
					<path
   class="st19"
   d="m 648.08,659.42 c -0.01,0.82 -0.16,1.68 0.73,2.19 -0.85,6.58 -1.69,13.16 -2.57,19.73 -0.27,2.01 -1,4.03 0.43,5.91 -2.11,2.03 -4.29,3.93 -7.37,4.31 -0.75,-3.97 0.57,-7.8 0.99,-11.66 0.74,-6.83 2.2,-13.57 3.38,-20.35 0.16,-0.9 -0.47,-2.24 0.67,-2.59 1.31,-0.41 1.3,1.06 1.76,1.83 0.45,0.73 1.25,0.63 1.98,0.63 z"
   id="path206"
   inkscape:connector-curvature="0"
   style="fill:#9fa09f" />
					<path
   class="st26"
   d="m 648.34,692.35 c 1.5,4.89 -0.13,8.08 -4.69,9.86 -1.22,0.48 -2.26,1.48 -3.5,1.86 -1.74,0.54 -3.23,3.53 -5.06,1.61 -1.7,-1.77 0.27,-6.96 2.65,-8.19 3.5,-1.8 6.66,-4.33 10.6,-5.14 z"
   id="path208"
   inkscape:connector-curvature="0"
   style="fill:#434344" />
					<path
   class="st28"
   d="m 633.34,701.43 c 0.06,2.45 0.69,4.49 -0.99,6.29 -1.12,1.2 -2.49,1.56 -3.94,1.5 -1.36,-0.05 -0.76,-1.31 -0.75,-2 0.02,-1.6 -0.68,-3.55 1.58,-4.35 1.25,-0.45 2.5,-0.88 4.1,-1.44 z"
   id="path210"
   inkscape:connector-curvature="0"
   style="fill:#f0f3f3" />
					<path
   class="st46"
   d="m 651.74,690.13 c 0.3,-0.61 0.86,-0.71 1.46,-0.73 2.58,1.1 3.19,2.75 1.45,5.08 -0.41,0.96 -1.13,1.47 -2.18,1.49 -1.12,-1.84 -0.62,-3.88 -0.73,-5.84 z"
   id="path212"
   inkscape:connector-curvature="0"
   style="fill:#fefefe" />
					<path
   class="st27"
   d="m 656.17,700.56 c -0.82,1.73 -2.53,2.58 -4.26,3.26 -0.71,0.28 -1.54,-0.53 -1.43,-1.22 0.34,-2.13 2.07,-3.06 3.9,-3.64 1,-0.31 1.48,0.51 1.79,1.6 z"
   id="path214"
   inkscape:connector-curvature="0"
   style="fill:#fd9f1a" />
					<path
   class="st27"
   d="m 628.38,714 c 0.18,-1.42 1.49,-2.2 3.1,-2.53 1.09,-0.23 1.98,0.17 1.86,1.5 -0.17,1.97 -1.77,2.39 -3.29,2.7 -0.86,0.18 -1.76,0.04 -1.67,-1.67 z"
   id="path216"
   inkscape:connector-curvature="0"
   style="fill:#fd9f1a" />
					<path
   class="st28"
   d="m 654.65,694.47 c 1.75,-2.33 1.13,-3.98 -1.45,-5.08 0.78,-1.01 1.9,-1.39 3.55,-1.8 -0.61,2.5 1.98,5.5 -2.1,6.88 z"
   id="path218"
   inkscape:connector-curvature="0"
   style="fill:#f0f3f3" />
					<path
   class="st28"
   d="m 651.74,690.13 c 0.11,1.96 -0.39,4 0.73,5.84 -0.52,0.72 -1.59,1.97 -1.88,0.61 -0.45,-2.09 -1.43,-4.72 1.15,-6.45 z"
   id="path220"
   inkscape:connector-curvature="0"
   style="fill:#f0f3f3" />
					<path
   class="st72"
   d="m 530.44,669.69 c 0.85,1.1 1.69,2.21 1.13,3.74 0,0 -0.01,-0.09 -0.01,-0.09 -0.39,0 -0.77,0 -1.16,0 0,0 -0.02,-0.02 -0.02,-0.02 -0.06,-0.32 -0.11,-0.64 -0.17,-0.96 -0.2,0.09 -0.39,0.17 -0.59,0.26 -0.6,-0.44 -0.54,-1.07 -0.48,-1.7 0.44,-0.43 0.88,-0.86 1.33,-1.29 z"
   id="path222"
   inkscape:connector-curvature="0"
   style="fill:#797c7c" />
					<path
   class="st18"
   d="m 530.48,669.65 c -0.44,0.43 -0.88,0.86 -1.33,1.29 -0.1,-0.4 -0.19,-0.8 -0.29,-1.19 0.54,-0.04 1.08,-0.07 1.62,-0.1 z"
   id="path224"
   inkscape:connector-curvature="0"
   style="fill:#dcdcda" />
					<path
   class="st16"
   d="m 529.63,672.63 c 0.2,-0.09 0.39,-0.17 0.59,-0.26 0.06,0.32 0.11,0.64 0.17,0.96 -0.25,-0.23 -0.51,-0.46 -0.76,-0.7 z"
   id="path226"
   inkscape:connector-curvature="0"
   style="fill:#aaacab" />
					<path
   class="st16"
   d="m 530.41,673.35 c 0.39,0 0.77,0 1.16,0 -0.08,0.42 -0.16,0.91 -0.73,0.76 -0.2,-0.05 -0.29,-0.49 -0.43,-0.76 z"
   id="path228"
   inkscape:connector-curvature="0"
   style="fill:#aaacab" />
					<polygon
   class="st16"
   points="531.53,674.86 531.63,675.14 531.4,675.12 "
   id="polygon230"
   style="fill:#aaacab" />
					<path
   class="st20"
   d="m 610.08,719.49 c -0.19,-0.15 -0.35,-0.4 -0.56,-0.44 -5.12,-1.04 -5.98,-2.93 -4.01,-8.92 0.11,-0.34 0.12,-0.7 0.18,-1.06 0.47,0 0.95,0 1.42,0 0.28,0 0.56,0 0.84,0 3.17,2 3.92,5.44 4.93,8.64 0.67,2.12 -1.59,0.73 -2.15,1.47 -0.23,0.07 -0.45,0.17 -0.65,0.31 z"
   id="path232"
   inkscape:connector-curvature="0"
   style="fill:#c6c9cc" />
					<path
   class="st26"
   d="m 607.11,709.08 c -0.47,0 -0.95,0 -1.42,0 0,0 0.04,-0.35 0.04,-0.35 0.1,-0.6 0.2,-1.21 0.3,-1.81 0,0 0.23,-0.03 0.23,-0.03 0.53,0.63 1.07,1.26 0.85,2.19 z"
   id="path234"
   inkscape:connector-curvature="0"
   style="fill:#434344" />
					<path
   class="st16"
   d="m 606.03,706.91 c -0.1,0.6 -0.2,1.2 -0.3,1.81 -0.73,-0.5 -2,-0.8 -1.34,-2.03 0.42,-0.78 1.18,-0.55 1.64,0.22 z"
   id="path236"
   inkscape:connector-curvature="0"
   style="fill:#aaacab" />
					<path
   class="st26"
   d="m 610.08,719.49 c 0.2,-0.13 0.42,-0.24 0.65,-0.31 0.13,0.63 0.93,1.15 0.35,1.89 -0.09,0.11 -0.56,0.1 -0.58,0.05 -0.17,-0.53 -0.29,-1.09 -0.42,-1.63 z"
   id="path238"
   inkscape:connector-curvature="0"
   style="fill:#434344" />
					<path
   class="st16"
   d="m 607.11,709.08 c 0.22,-0.92 -0.33,-1.55 -0.85,-2.19 1.76,-0.2 1.81,0.93 1.69,2.18 -0.28,0 -0.56,0 -0.84,0.01 z"
   id="path240"
   inkscape:connector-curvature="0"
   style="fill:#aaacab" />
					<path
   class="st28"
   d="m 607.97,679.99 c 0.94,-0.33 1.88,-0.66 2.83,-0.98 1.54,4.03 0.96,6.32 -1.83,7.26 -0.52,0.18 -0.89,-0.08 -1.12,-0.56 0.04,-1.94 0.09,-3.88 0.13,-5.82 z"
   id="path242"
   inkscape:connector-curvature="0"
   style="fill:#f0f3f3" />
					<path
   class="st72"
   d="m 607.97,679.89 c -0.04,1.94 -0.09,3.88 -0.13,5.82 -1.01,-1.97 -1.14,-3.91 0.13,-5.82 z"
   id="path244"
   inkscape:connector-curvature="0"
   style="fill:#797c7c" />
					<animateTransform
   attributeName="transform"
   type="scale"
   from="1 1"
   to="1.002 1.002"
   begin="0s"
   dur="0.1s"
   repeatCount="indefinite" />

				      </g>
				      <animateTransform
   attributeName="transform"
   type="translate"
   from="-280 -175"
   to="730 490"
   begin="0s"
   dur="6.668s"
   repeatCount="indefinite" />

			</g>
		</g>
		<g
   class="st6"
   clip-path="url(#SVGID_21_)"
   id="g318">
			<defs
   id="defs253">
				<path
   id="SVGID_19_"
   d="m 351.2,857.97 v -3.8 l 0.13,-25.72 c 0,0 -0.03,-1.21 1,-1.72 1.03,-0.51 9.05,-5.45 9.05,-5.45 l 0.1,-22 v -8.63 c 0,0 0.1,-0.51 1.23,-1.34 1.13,-0.82 21.38,-12.23 21.38,-12.23 0,0 0.31,-0.62 2.67,0.62 2.36,1.23 23.23,14.08 23.23,14.08 0,0 0.41,-0.1 0.51,2.06 0.1,2.16 0.31,10.79 0.31,10.79 l 14.91,10.07 c 0,0 0.63,-0.27 0.67,0.66 0.04,0.93 0.15,28.56 0.15,28.56 0,0 -0.85,0.85 -1.31,1 -0.46,0.15 -47.03,26.83 -47.03,26.83 0,0 -0.62,1 -2.54,-0.08 -1.93,-1.08 -14.19,-8.17 -14.19,-8.17 z"
   inkscape:connector-curvature="0" />
			</defs>
			<clipPath
   id="SVGID_23_">
				<use
   xlink:href="#SVGID_19_"
   style="overflow:visible"
   id="use255"
   x="0"
   y="0"
   width="100%"
   height="100%" />
			</clipPath>
			<g
   class="st29"
   clip-path="url(#SVGID_23_)"
   id="g316">
				<g
   id="g314">
					<path
   class="st46"
   d="m 433.7,824.44 c 0,17.13 -0.02,34.26 0.03,51.39 0,1.59 -0.18,2.19 -2.04,2.18 -29.52,-0.08 -59.03,-0.08 -88.55,0 -1.72,0 -1.9,-0.46 -1.9,-1.99 0.05,-34.38 0.06,-68.76 -0.03,-103.13 -0.01,-2.01 0.8,-1.98 2.25,-1.97 29.4,0.03 58.8,0.04 88.2,-0.03 1.81,0 2.08,0.52 2.07,2.16 -0.06,17.13 -0.03,34.26 -0.03,51.39 z m -6.7,-9.35 0.08,-0.19 -0.13,-0.16 c -4.67,-3.99 -10.13,-6.77 -15.27,-10.04 -0.11,-4.09 -0.23,-8.17 -0.34,-12.26 -0.16,-0.28 -0.25,-0.67 -0.49,-0.82 -8.13,-4.84 -16.28,-9.64 -24.4,-14.48 -0.79,-0.47 -1.44,-0.5 -2.21,-0.03 -3.49,2.12 -6.99,4.23 -10.48,6.34 -0.45,0.23 -0.9,0.47 -1.35,0.7 -1.49,0.8 -3.14,1.39 -4.42,2.44 -1.92,1.58 -5.02,1.54 -6,4.37 0.02,10.12 0.04,20.25 0.07,30.37 -2.8,1.72 -5.58,3.48 -8.41,5.16 -1.15,0.68 -1.97,1.39 -1.96,2.9 0.09,9.03 0.13,18.06 0.18,27.08 -0.39,1.9 1.23,2.28 2.33,2.9 7.34,4.14 14.7,8.21 22.08,12.28 0.95,0.52 1.97,1.39 3.04,0.14 7.54,-4.24 15.09,-8.47 22.63,-12.71 0.98,-0.58 1.95,-1.16 2.93,-1.74 7.3,-4.21 14.6,-8.43 21.9,-12.64 1.28,-0.93 0.72,-2.3 0.73,-3.47 0.06,-6.94 0.07,-13.89 0,-20.83 -0.04,-1.76 0.51,-3.62 -0.51,-5.31 z"
   id="path258"
   inkscape:connector-curvature="0"
   style="fill:#fefefe" />
					<path
   class="st32"
   d="m 362.04,821.34 c -0.02,-10.12 -0.04,-20.25 -0.07,-30.37 0.56,0.07 1.22,-0.02 1.66,0.25 6.53,3.85 13.04,7.76 19.55,11.64 1.56,0.93 3.06,2.01 5.01,1.95 -0.24,1.23 -0.66,2.46 -0.67,3.69 -0.06,8.04 -0.04,16.09 -0.03,24.13 0,0.9 -0.18,1.87 0.69,2.54 -0.39,0.92 -1.13,1.31 -2.09,1.37 l 0.01,0.01 c -0.02,-1.48 -1.05,-1.44 -2.08,-1.39 l 0.01,0.01 c -0.02,-1.48 -1.05,-1.43 -2.08,-1.39 l 0.01,0.01 c 0.04,-0.97 -0.48,-1.38 -1.39,-1.4 l 0.02,0.02 c -0.25,-0.68 -0.72,-1.14 -1.4,-1.4 l 0.02,0.01 c -2.25,-1.9 -5.09,-2.74 -7.6,-4.16 l 0.02,0.01 c -0.7,-0.93 -1.67,-1.3 -2.79,-1.4 -2.43,-1.08 -3.7,-4.12 -6.8,-4.13 z m 16.78,0.43 c -0.85,3.3 -0.37,5.78 3.14,6.82 1.02,0.3 2.14,1.68 3.02,0.53 0.91,-1.18 0.73,-2.81 -0.37,-4.07 -1.54,-1.77 -3.61,-2.58 -5.79,-3.28 z"
   id="path260"
   inkscape:connector-curvature="0"
   style="fill:#d5ab90" />
					<path
   class="st31"
   d="m 379.3,871.8 c -1.07,1.25 -2.09,0.38 -3.04,-0.14 -7.37,-4.07 -14.74,-8.14 -22.08,-12.28 -1.1,-0.62 -2.72,-1 -2.33,-2.9 0.79,-1.02 0.45,-2.21 0.46,-3.32 0.03,-7.33 0.09,-14.66 -0.03,-22 -0.04,-2.27 0.61,-3.05 2.65,-1.86 7.66,4.45 15.28,8.97 22.91,13.46 0,8.58 -0.02,17.16 0.02,25.74 0.01,1.24 -0.64,2.91 1.44,3.3 z m -3.55,-7.08 c -0.01,-1.74 -3.7,-5.23 -5.54,-5.27 -1.11,-0.02 -1.19,0.68 -1.36,1.53 -0.71,3.66 2.22,4.23 4.46,5.4 1.87,0.96 2.53,0.2 2.44,-1.66 z"
   id="path262"
   inkscape:connector-curvature="0"
   style="fill:#d4ab90" />
					<path
   class="st74"
   d="m 388.19,835.16 c -0.87,-0.67 -0.69,-1.64 -0.69,-2.54 -0.01,-8.04 -0.03,-16.09 0.03,-24.13 0.01,-1.23 0.44,-2.46 0.67,-3.69 3.27,-0.77 5.8,-2.79 8.3,-4.88 0.21,0.01 0.43,0.02 0.64,0.03 0,1.37 0,2.73 -0.01,4.1 0,1.93 0.59,2.41 2.49,1.43 3.36,-1.73 3.1,-4.68 3.01,-7.66 2.3,-2.76 5.38,-4.27 8.7,-5.38 0.11,4.09 0.23,8.17 0.34,12.26 0,4.17 0,8.34 0,12.51 -0.01,0.91 -0.02,1.83 -0.03,2.74 0,0.24 0.01,0.47 0.01,0.71 -0.01,0.45 -0.02,0.9 -0.02,1.36 -2.78,1.83 -6.38,2.41 -8.31,5.52 -0.75,0.02 -1.55,-0.1 -2.03,0.7 -4.18,1.15 -7.3,4.19 -11.02,6.16 -0.7,0.26 -1.39,0.51 -2.08,0.76 z"
   id="path264"
   inkscape:connector-curvature="0"
   style="fill:#d2a07c" />
					<path
   class="st33"
   d="m 379.3,871.8 c -2.08,-0.39 -1.44,-2.06 -1.44,-3.3 -0.04,-8.58 -0.02,-17.16 -0.02,-25.74 3.62,-0.78 5.9,-4.2 9.58,-4.86 0.03,1.38 -0.02,2.76 0.1,4.13 0.14,1.55 1.11,1.72 2.11,0.82 2.26,-2.05 4.12,-4.33 2.71,-7.71 2.62,-2.43 6.06,-3.51 8.95,-5.49 1.12,1.01 0.66,2.35 0.66,3.54 0.03,8.63 0,17.27 -0.02,25.91 -7.54,4.23 -15.08,8.46 -22.63,12.7 z"
   id="path266"
   inkscape:connector-curvature="0"
   style="fill:#d2a17c" />
					<path
   class="st34"
   d="m 426.76,844.71 c -7.3,4.21 -14.6,8.43 -21.9,12.64 -1.22,-0.94 -0.8,-2.29 -0.81,-3.48 -0.02,-8.76 0,-17.52 0.01,-26.29 3.36,-0.9 5.99,-3.15 8.91,-4.85 h 0.04 c 0,0.92 -0.04,1.84 0.01,2.76 0.05,0.87 -0.34,1.95 0.64,2.51 1.08,0.62 1.88,-0.24 2.81,-0.68 3.22,-1.51 1.69,-4.35 2.01,-6.68 2.09,-3.02 5.74,-3.79 8.46,-5.9 l 0.13,0.16 c 0,0 -0.08,0.19 -0.08,0.19 -0.07,9.88 -0.15,19.75 -0.23,29.62 z"
   id="path268"
   inkscape:connector-curvature="0"
   style="fill:#d3a17c" />
					<path
   class="st35"
   d="m 387.42,837.89 c -3.68,0.66 -5.96,4.08 -9.58,4.86 -7.63,-4.49 -15.25,-9.01 -22.91,-13.46 -2.04,-1.19 -2.68,-0.41 -2.65,1.86 0.11,7.33 0.06,14.66 0.03,22 0,1.11 0.33,2.3 -0.46,3.32 -0.05,-9.03 -0.08,-18.06 -0.18,-27.08 -0.02,-1.51 0.81,-2.22 1.96,-2.9 2.83,-1.67 5.61,-3.43 8.41,-5.16 3.1,0.02 4.36,3.05 6.81,4.14 0.53,1.27 1.56,1.52 2.79,1.4 l -0.02,-0.01 c 1.73,2.87 4.66,3.51 7.6,4.16 l -0.02,-0.01 c -0.04,0.98 0.49,1.38 1.4,1.4 0,0 -0.02,-0.02 -0.02,-0.02 0.25,0.68 0.71,1.15 1.39,1.4 0,0 -0.01,-0.01 -0.01,-0.01 0.69,0.46 1.39,0.93 2.08,1.39 l -0.01,-0.01 c 0.69,0.46 1.39,0.93 2.08,1.39 l -0.01,-0.01 c 0.44,0.45 0.88,0.9 1.32,1.35 z"
   id="path270"
   inkscape:connector-curvature="0"
   style="fill:#daba9c" />
					<path
   class="st37"
   d="m 396.5,799.92 c -2.5,2.08 -5.04,4.1 -8.3,4.88 -1.94,0.05 -3.45,-1.03 -5.01,-1.95 -6.52,-3.88 -13.02,-7.78 -19.55,-11.64 -0.45,-0.26 -1.1,-0.17 -1.66,-0.25 0.98,-2.83 4.08,-2.79 6,-4.37 1.28,-1.05 2.93,-1.64 4.42,-2.44 0.09,2.22 2.15,2.51 3.48,3.34 6.82,4.23 13.74,8.31 20.62,12.43 z"
   id="path272"
   inkscape:connector-curvature="0"
   style="fill:#dbb899" />
					<path
   class="st36"
   d="m 411.33,792.45 c -3.32,1.11 -6.39,2.62 -8.7,5.38 -0.66,-0.39 -1.33,-0.4 -1.99,0 0.33,-2.28 -1.58,-2.88 -2.96,-3.71 -3.88,-2.32 -7.98,-4.29 -11.75,-6.76 -3.76,-2.47 -7.36,-4.98 -12.2,-3.91 3.5,-2.11 7,-4.21 10.48,-6.34 0.77,-0.47 1.41,-0.44 2.21,0.03 8.13,4.84 16.28,9.65 24.4,14.48 0.26,0.16 0.35,0.55 0.51,0.83 z"
   id="path274"
   inkscape:connector-curvature="0"
   style="fill:#dcb99a" />
					<path
   class="st75"
   d="m 373.74,783.45 c 4.83,-1.07 8.43,1.44 12.2,3.91 3.77,2.47 7.87,4.44 11.75,6.76 1.38,0.82 3.29,1.43 2.96,3.71 -1.17,0.71 -2.33,1.41 -3.49,2.12 -0.21,-0.01 -0.43,-0.02 -0.64,-0.03 -6.88,-4.13 -13.8,-8.21 -20.63,-12.43 -1.34,-0.83 -3.4,-1.12 -3.48,-3.34 0.43,-0.23 0.88,-0.46 1.33,-0.7 z"
   id="path276"
   inkscape:connector-curvature="0"
   style="fill:#fdcb6a" />
					<path
   class="st38"
   d="m 426.94,814.75 c -2.72,2.11 -6.37,2.88 -8.46,5.9 -0.22,-0.22 -0.45,-0.45 -0.67,-0.67 -1.51,-2.12 -3.55,-3.07 -6.15,-2.76 0,-4.17 0,-8.34 0,-12.51 5.15,3.27 10.62,6.05 15.28,10.04 z"
   id="path278"
   inkscape:connector-curvature="0"
   style="fill:#dab89a" />
					<path
   class="st40"
   d="m 404.06,827.59 c -0.01,8.76 -0.03,17.52 -0.01,26.29 0,1.2 -0.42,2.55 0.81,3.48 -0.98,0.58 -1.95,1.16 -2.93,1.74 0.01,-8.64 0.04,-17.27 0.02,-25.91 0,-1.2 0.45,-2.53 -0.66,-3.54 0,-0.46 0,-0.93 -0.01,-1.39 0.48,-0.81 1.28,-0.68 2.03,-0.7 0.26,0 0.5,0.02 0.75,0.03 z"
   id="path280"
   inkscape:connector-curvature="0"
   style="fill:#d3a88c" />
					<path
   class="st38"
   d="m 426.76,844.71 c 0.08,-9.87 0.16,-19.75 0.24,-29.62 1.02,1.69 0.47,3.55 0.49,5.32 0.07,6.94 0.06,13.89 0,20.83 -0.01,1.17 0.55,2.54 -0.73,3.47 z"
   id="path282"
   inkscape:connector-curvature="0"
   style="fill:#dab89a" />
					<path
   class="st76"
   d="m 387.42,837.89 c -0.44,-0.45 -0.88,-0.91 -1.32,-1.36 0.95,-0.06 1.69,-0.45 2.09,-1.37 0.69,-0.25 1.38,-0.5 2.07,-0.75 0.69,0.24 1.39,0.48 2.08,0.72 1.41,3.38 -0.46,5.66 -2.71,7.71 -1,0.91 -1.97,0.73 -2.11,-0.82 -0.12,-1.36 -0.08,-2.75 -0.1,-4.13 z"
   id="path284"
   inkscape:connector-curvature="0"
   style="fill:#f4c963" />
					<path
   class="st41"
   d="m 378.82,821.77 c 2.18,0.71 4.25,1.52 5.79,3.29 1.1,1.26 1.28,2.88 0.37,4.07 -0.88,1.15 -2.01,-0.23 -3.02,-0.53 -3.51,-1.05 -3.99,-3.54 -3.14,-6.83 z"
   id="path286"
   inkscape:connector-curvature="0"
   style="fill:#e1ba7d" />
					<path
   class="st75"
   d="m 379.22,831.02 c -2.94,-0.65 -5.88,-1.29 -7.6,-4.16 2.52,1.42 5.35,2.26 7.6,4.16 z"
   id="path288"
   inkscape:connector-curvature="0"
   style="fill:#fdcb6a" />
					<path
   class="st75"
   d="m 371.64,826.88 c -1.22,0.12 -2.26,-0.12 -2.79,-1.4 1.11,0.1 2.09,0.47 2.79,1.4 z"
   id="path290"
   inkscape:connector-curvature="0"
   style="fill:#fdcb6a" />
					<path
   class="st76"
   d="m 384.05,835.16 c -0.69,-0.46 -1.39,-0.93 -2.08,-1.39 1.02,-0.04 2.06,-0.08 2.08,1.39 z"
   id="path292"
   inkscape:connector-curvature="0"
   style="fill:#f4c963" />
					<path
   class="st76"
   d="m 386.12,836.55 c -0.69,-0.46 -1.39,-0.93 -2.08,-1.39 1.03,-0.05 2.06,-0.09 2.08,1.39 z"
   id="path294"
   inkscape:connector-curvature="0"
   style="fill:#f4c963" />
					<path
   class="st75"
   d="m 380.61,832.4 c -0.91,-0.02 -1.44,-0.42 -1.4,-1.4 0.68,0.26 1.15,0.72 1.4,1.4 z"
   id="path296"
   inkscape:connector-curvature="0"
   style="fill:#fdcb6a" />
					<path
   class="st76"
   d="m 381.98,833.78 c -0.68,-0.25 -1.14,-0.72 -1.39,-1.4 0.91,0.03 1.43,0.43 1.39,1.4 z"
   id="path298"
   inkscape:connector-curvature="0"
   style="fill:#f4c963" />
					<path
   class="st41"
   d="m 375.75,864.71 c 0.09,1.87 -0.57,2.63 -2.43,1.66 -2.25,-1.17 -5.18,-1.74 -4.46,-5.4 0.17,-0.85 0.25,-1.56 1.36,-1.53 1.84,0.05 5.53,3.53 5.53,5.27 z"
   id="path300"
   inkscape:connector-curvature="0"
   style="fill:#e1ba7d" />
					<path
   class="st76"
   d="m 397.15,799.96 c 1.16,-0.71 2.33,-1.41 3.49,-2.12 0.66,-0.4 1.33,-0.39 1.99,0 0.1,2.98 0.35,5.93 -3.01,7.66 -1.9,0.98 -2.49,0.49 -2.49,-1.43 0.01,-1.38 0.02,-2.75 0.02,-4.11 z"
   id="path302"
   inkscape:connector-curvature="0"
   style="fill:#f4c963" />
					<path
   class="st43"
   d="m 411.67,817.22 c 2.6,-0.31 4.63,0.64 6.15,2.76 -1.6,0.92 -3.2,1.84 -4.8,2.76 0,0 -0.04,0 -0.04,0 -0.27,-0.58 -0.79,-0.68 -1.35,-0.71 0.01,-0.45 0.02,-0.9 0.02,-1.36 0.09,-0.07 0.26,-0.17 0.25,-0.2 -0.06,-0.18 -0.16,-0.34 -0.25,-0.51 0,-0.91 0.01,-1.82 0.02,-2.74 z"
   id="path304"
   inkscape:connector-curvature="0"
   style="fill:#eace8a" />
					<path
   class="st159"
   d="m 392.34,835.13 c -0.69,-0.24 -1.39,-0.48 -2.08,-0.72 3.72,-1.97 6.85,-5.01 11.02,-6.16 0,0.46 0,0.93 0.01,1.39 -2.89,1.98 -6.34,3.06 -8.95,5.49 z"
   id="path306"
   inkscape:connector-curvature="0"
   style="fill:#dab490" />
					<path
   class="st159"
   d="m 411.63,822.03 c 0.56,0.03 1.08,0.13 1.35,0.71 -2.92,1.7 -5.55,3.95 -8.91,4.85 -0.25,-0.01 -0.5,-0.02 -0.75,-0.04 1.92,-3.11 5.53,-3.69 8.31,-5.52 z"
   id="path308"
   inkscape:connector-curvature="0"
   style="fill:#dab490" />
					<path
   class="st159"
   d="m 411.64,819.96 c 0.09,0.17 0.2,0.33 0.25,0.51 0.01,0.04 -0.16,0.13 -0.25,0.2 0.01,-0.23 0.01,-0.47 0,-0.71 z"
   id="path310"
   inkscape:connector-curvature="0"
   style="fill:#dab490" />
					<path
   class="st76"
   d="m 413.02,822.74 c 1.6,-0.92 3.2,-1.84 4.8,-2.76 0.22,0.22 0.45,0.45 0.67,0.67 -0.32,2.32 1.2,5.16 -2.01,6.68 -0.93,0.44 -1.72,1.3 -2.81,0.68 -0.98,-0.56 -0.59,-1.64 -0.64,-2.51 -0.06,-0.92 -0.01,-1.84 -0.01,-2.76 z"
   id="path312"
   inkscape:connector-curvature="0"
   style="fill:#f4c963" />
				</g>
			</g>
		</g>
		<g
   class="st6"
   clip-path="url(#SVGID_21_)"
   id="g456">
			<defs
   id="defs321">
				<path
   id="SVGID_18_"
   d="m 551.33,910.34 c 0.69,-1.19 4.35,-5.5 4.35,-5.5 0,0 8.56,-6.89 12.19,-9.04 3.63,-2.15 6.51,-7.12 6.51,-7.12 0,0 2.3,-3.88 3.27,-4.64 0.97,-0.76 2.7,-2.1 2.7,-2.1 l 1.91,-4.31 10.01,-17.21 c 0,0 2.8,-3.64 3.75,-4.1 0.95,-0.46 17.86,-10.86 19.58,-11.99 1.72,-1.13 45.58,-24.51 45.58,-24.51 L 709.47,793 c 0,0 0.48,-1.1 2.74,-0.97 2.26,0.14 5.75,1.9 5.75,1.9 l 31.2,17.04 3.02,2.76 c 0,0 5.93,0.67 7.85,2.95 1.92,2.28 3.08,6.88 3.08,6.88 l 3.87,39.48 c 0,0 -0.62,6.86 0.08,8.86 0.7,2 0.22,3.21 0.44,4.66 0.22,1.46 -0.79,9.53 -0.79,9.53 0,0 7.8,5.52 9.15,6.94 1.36,1.42 3.45,2.58 3.34,4.32 -0.11,1.74 0.62,3.33 -1.62,4.64 -2.24,1.3 -35.95,22.01 -35.95,22.01 l -82.84,47.83 -16.98,9.93 -9.94,5.88 c 0,0 -4.32,2.36 -5.39,2.3 -1.08,-0.07 -5.97,1.64 -11.17,0.71 -5.2,-0.93 -11.91,-2.27 -13.2,-3.9 -1.29,-1.63 -9.08,-5.65 -9.08,-5.65 l -17.15,-10.01 c 0,0 -18.33,-11.01 -19.48,-12.47 -1.15,-1.46 -3.19,-3.44 -3.58,-4.7 -0.39,-1.26 0.11,-4.32 0.11,-4.32 0,0 -1,-1.3 -1.93,-3.83 -0.93,-2.53 -2.06,-5.69 -1.78,-10.77 0.28,-5.08 1.31,-21.39 1.31,-21.39 z"
   inkscape:connector-curvature="0" />
			</defs>
			<clipPath
   id="SVGID_24_">
				<use
   xlink:href="#SVGID_18_"
   style="overflow:visible"
   id="use323"
   x="0"
   y="0"
   width="100%"
   height="100%" />
			</clipPath>
			<g
   class="st45"
   clip-path="url(#SVGID_24_)"
   id="g454">
				<g
   id="g452">
					<path
   class="st46"
   d="m 664.78,1007.81 c -41.17,0 -82.33,-0.04 -123.5,0.08 -2.89,0.01 -3.47,-0.58 -3.47,-3.47 0.1,-74.18 0.1,-148.37 0,-222.55 0,-2.89 0.58,-3.47 3.47,-3.47 82.33,0.1 164.67,0.1 247,0 2.89,0 3.47,0.58 3.47,3.47 -0.1,74.18 -0.1,148.37 0,222.55 0,2.89 -0.58,3.48 -3.47,3.47 -41.17,-0.11 -82.34,-0.08 -123.5,-0.08 z M 582.46,878.12 c -0.99,0.33 -0.96,1.17 -1.01,1.98 l 0.03,-0.05 c -2.94,1.82 -4.15,4.94 -5.84,7.7 -4.52,6.63 -11.51,10.29 -17.83,14.76 -7.13,5.05 -8.76,13.66 -3.77,19.64 0.06,4.27 0.11,8.53 0.17,12.8 -3.47,0.12 -2.43,-3.85 -4.6,-5.08 0.11,6.59 -1.23,13.37 3.94,18.8 -0.57,4.9 0.89,8.65 5.45,11.24 4.71,2.66 9.39,5.51 13.68,8.8 10.18,7.82 21.46,13.81 32.7,19.82 3.22,1.72 7.03,2.86 11,2.85 9.65,-0.02 17.62,-4.84 25.78,-8.94 12.5,-6.27 23.48,-15.06 35.94,-21.56 17.9,-9.34 35.21,-19.83 52.62,-30.09 15.22,-8.98 31.3,-16.52 45.39,-27.4 4.93,-3.8 5.34,-8.27 0.23,-11.54 -3.24,-2.08 -6.06,-4.61 -9,-7.02 1.86,-4.31 1.61,-8.77 0.94,-13.26 0.51,-8.81 -0.5,-17.5 -1.59,-26.24 -0.67,-5.35 -2.13,-10.73 -1.95,-16.04 0.37,-11.12 -0.67,-13.16 -11.8,-16.95 -2.94,-3.01 -6.78,-4.38 -10.59,-5.81 -6.82,-5.29 -14.85,-8.44 -22.32,-12.59 -4.36,-2.42 -8.32,-2.47 -12.54,0.45 -3.14,2.17 -6.59,4.01 -10.09,5.55 -15.67,6.92 -29.7,16.87 -45.23,24.11 -11.96,5.57 -22.65,13.55 -34.53,19.44 -6.92,3.43 -14.16,6.71 -19.76,12.39 -3.12,2.43 -6.12,4.96 -7.52,8.85 -0.92,1.46 -2,2.85 -2.18,4.65 -0.63,0.97 -1.26,1.95 -1.9,2.92 -3.02,0.82 -2.93,3.68 -3.86,5.87 z"
   id="path326"
   inkscape:connector-curvature="0"
   style="fill:#fefefe" />
					<path
   class="st47"
   d="m 752.93,812.33 c 11.13,3.79 12.17,5.83 11.8,16.95 -0.18,5.31 1.28,10.69 1.95,16.04 1.09,8.73 2.1,17.43 1.59,26.24 -7.88,4.29 -16.24,7.76 -23.42,13.28 -3.08,1.13 -5.76,2.96 -8.37,4.9 -0.37,0.11 -0.49,0.35 -0.34,0.71 v -0.03 c -4.94,1.33 -8.6,5.2 -13.41,6.8 -0.6,0.35 -1.19,0.69 -1.79,1.04 -12.82,6.62 -24.68,14.88 -37.61,21.34 -7.89,3.94 -15.28,8.89 -22.79,13.56 -6.63,4.13 -14.32,6.41 -20.31,11.65 -6.28,0.89 -10.22,5.75 -15.16,8.92 -4.63,2.73 -9.74,4.5 -14.29,7.44 -5.11,3.29 -10.48,3.35 -15.73,0.02 -0.03,-0.24 -0.07,-0.47 -0.12,-0.71 5.13,-2.14 8.25,-10.9 5.55,-15.66 -0.57,-1 -1.64,-0.78 -2.56,-0.87 -0.42,-4.51 2.27,-7.52 5.12,-10.4 4.65,-4.71 9.32,-9.38 14.04,-14.02 2.19,-2.16 3.6,-4.54 2.98,-7.73 1.01,-2.2 2.03,-4.4 3.04,-6.6 5.1,-6.44 7.8,-14.21 11.76,-21.28 0.83,0.31 1.01,2.22 2.54,0.82 3.89,-3.55 7.89,-7 11.84,-10.48 0,0 -0.01,0.02 -0.01,0.02 1.08,-0.02 2.25,0.22 2.93,-0.99 l -0.03,0.01 c 2.09,0.09 4.24,0.27 3.89,-2.91 v 0.01 c 2.56,0.23 5,0.23 5.84,-2.94 -0.16,-2.79 2.79,-2.37 3.94,-3.8 0.3,0 0.6,0 0.9,0 1.24,-0.04 1.9,-0.68 2,-1.9 4.66,-0.91 9.29,-1.87 12.53,-5.81 2.52,-0.84 5.18,-1.45 6.75,-3.92 v 0.01 c 2.13,-0.11 4.34,-0.1 4.85,-2.91 v 0.01 c 4.46,-0.84 8.37,-2.53 10.66,-6.78 l -0.01,0.01 c 2.24,-0.37 4.23,-1.26 5.82,-2.92 h -0.02 c 3.57,-0.62 5.97,-2.8 7.77,-5.8 v 0 c 2.37,-0.71 5.46,0.24 6.78,-2.91 v 0.01 c 3.23,-0.59 6.67,-0.83 7.76,-4.84 l -0.01,0.01 c 4.78,-0.4 8.48,-3.35 12.5,-5.46 1.62,-0.85 4.07,-1.52 3.97,-4.23 v 0 c 2.79,0.13 4.48,-1.08 4.88,-3.9 z m -124.06,99.31 c -2.3,-0.72 -4.05,0.17 -4.32,2.42 -0.42,3.48 -0.71,7.19 2.77,9.57 2.53,1.73 4.16,1.09 4.57,-2.12 0.27,-2.12 -0.89,-4.56 1.29,-6.29 4.61,0.37 6.33,-4.47 10.25,-5.6 6.09,-1.75 10.95,-6.03 16.56,-8.82 1.08,-0.54 1.84,-1.2 1.84,-2.53 -0.01,-5.96 0.01,-11.92 0.02,-17.88 0,-1.74 -0.59,-2.22 -2.38,-1.52 -7.12,2.79 -13.49,6.42 -18.51,12.51 -5.1,6.18 -7.96,13.57 -12.09,20.26 z m 23.49,2.1 c 3.13,-0.93 6.18,-2.01 7.86,-5.03 -3.3,0.65 -6.15,1.97 -7.86,5.03 z"
   id="path328"
   inkscape:connector-curvature="0"
   style="fill:#e4af35" />
					<path
   class="st48"
   d="m 767.33,884.82 c 2.94,2.41 5.76,4.94 9,7.02 5.1,3.27 4.69,7.74 -0.23,11.54 -14.09,10.87 -30.17,18.42 -45.39,27.4 -17.4,10.27 -34.72,20.75 -52.62,30.09 -12.46,6.5 -23.44,15.29 -35.94,21.56 -8.16,4.09 -16.13,8.92 -25.78,8.94 -3.97,0.01 -7.78,-1.13 -11,-2.85 -11.24,-6.01 -22.52,-12 -32.7,-19.82 -4.29,-3.29 -8.96,-6.13 -13.68,-8.8 -4.57,-2.58 -6.02,-6.34 -5.45,-11.24 4.09,-0.13 5.29,5.27 9.49,4.95 4.66,1.86 8.82,4.53 12.63,7.76 5.93,4.74 12.89,7.74 19.4,11.5 7.11,6.08 8.4,6.15 16.83,1.82 2.16,-1.11 4.11,-3.23 6.99,-2.3 2.5,2.7 5.64,4.36 9.07,5.54 0.92,0.62 1.84,1.23 2.76,1.85 4.71,3.18 10.79,0.87 12.65,-4.8 2.42,-1.15 2.64,-3.81 3.95,-5.73 1.01,-0.37 1.04,-1.23 1.02,-2.1 l -0.05,0.07 c 1.35,-3.39 5.66,-5.92 3.06,-10.47 1.05,-0.89 0.91,-1.94 0.43,-3.04 0.04,-0.36 0.07,-0.73 0.11,-1.09 0.47,-0.51 0.95,-1.01 1.42,-1.52 2.66,-0.05 4.08,-2.37 6.23,-3.4 14.5,-6.93 27.21,-16.92 41.57,-24.14 6.95,-3.5 13.37,-8.06 20.03,-12.14 1.03,-0.21 2.1,-0.33 2.82,-1.25 0.63,0.24 1.26,0.49 1.9,0.73 2.18,2.3 4.39,4.55 7.65,5.27 1.39,1.88 3.71,2.26 5.64,2.97 1.77,0.65 4.38,0.93 4.91,-2.21 1.38,-0.36 2.79,-0.63 4.13,-1.11 2.19,-0.77 5.05,-6.4 3.69,-7.41 -4.38,-3.24 2.08,-0.97 1.12,-2.34 2.55,0.35 2.4,-2.02 2.63,-3.22 0.3,-1.58 1.02,-2.53 2.14,-3.43 1.88,-2.04 0.83,-4.41 0.74,-6.67 0.52,-1.24 1.05,-2.49 1.57,-3.73 2.42,-1.39 4.84,-2.79 7.26,-4.2 z"
   id="path330"
   inkscape:connector-curvature="0"
   style="fill:#a7a7a7" />
					<path
   class="st80"
   d="m 620.07,911.79 c 0.62,3.2 -0.79,5.58 -2.98,7.73 -4.72,4.64 -9.39,9.31 -14.04,14.02 -2.85,2.89 -5.53,5.9 -5.12,10.4 l 0.01,-0.01 c -1.24,0.13 -2.89,-0.32 -2.69,1.88 l -0.4,0.13 c -3.51,-1.92 -7.03,-3.83 -10.54,-5.75 -9.7,-6.68 -19.79,-12.7 -30.28,-18.05 -4.99,-5.98 -3.37,-14.6 3.77,-19.64 6.32,-4.47 13.31,-8.13 17.83,-14.76 0.48,3.1 1.36,-0.37 2,0.12 3.46,4.51 8.9,5.95 13.48,8.73 2.85,1.69 5.28,4.12 8.65,4.87 1.98,1.22 3.96,2.45 5.95,3.68 1.91,1.34 3.77,2.74 5.74,3.99 2.61,1.67 5.09,3.93 8.62,2.66 z"
   id="path332"
   inkscape:connector-curvature="0"
   style="fill:#eac858" />
					<path
   class="st161"
   d="m 597.88,855.88 c 5.6,-5.68 12.84,-8.96 19.76,-12.39 11.88,-5.89 22.57,-13.87 34.53,-19.44 15.53,-7.24 29.56,-17.19 45.23,-24.11 3.5,-1.55 6.95,-3.38 10.09,-5.55 4.22,-2.92 8.18,-2.87 12.54,-0.45 7.47,4.15 15.5,7.3 22.32,12.59 -0.68,0.01 -1.36,0.03 -2.05,0.04 -5.76,-1.12 -10.3,-4.82 -15.42,-7.29 -3.91,-1.88 -7.49,-6.07 -12.26,-3.82 -5.76,2.71 -11.46,5.63 -17.1,8.56 -17.63,9.15 -34.75,19.25 -52.44,28.31 -12.33,6.31 -24.16,13.59 -36.15,20.54 -0.97,0.56 -2.27,1.38 -2.11,2.98 -2.34,-2.54 -4.63,1.2 -6.94,0.03 z"
   id="path334"
   inkscape:connector-curvature="0"
   style="fill:#f4c12e" />
					<path
   class="st81"
   d="m 597.88,855.88 c 2.31,1.17 4.6,-2.57 6.93,-0.04 8.54,4.95 17.3,9.57 25.56,14.96 6.02,3.93 11.61,7.64 18.9,3.45 -3.95,3.49 -7.95,6.93 -11.84,10.48 -1.53,1.4 -1.71,-0.51 -2.54,-0.82 -5.2,-2.91 -10.4,-5.82 -15.59,-8.73 -6.45,-3.86 -12.9,-7.73 -19.35,-11.59 -1.02,-1.29 -2.37,-2.07 -3.95,-2.47 -2.45,0.3 -2.68,4.08 -5.63,3.61 1.38,-3.89 4.38,-6.42 7.51,-8.85 z"
   id="path336"
   inkscape:connector-curvature="0"
   style="fill:#f7bf20" />
					<path
   class="st162"
   d="m 554.03,922.16 c 10.49,5.35 20.58,11.37 30.28,18.05 -1.53,2.45 -0.16,4.99 -0.2,7.48 -1.17,0.4 -2.24,-1.27 -3.5,-0.18 0.76,1.42 2.13,1.87 3.43,2.41 0.01,1.23 0.01,2.46 0.02,3.69 -3.09,0.56 -4.9,-4.05 -8.34,-2.06 -0.2,0.04 -0.34,-0.03 -0.43,-0.21 0.4,-1.36 0.32,-2.64 -1.25,-3.06 -1.11,-0.3 -1.13,0.78 -1.3,1.53 -1.8,-0.65 -3.47,-1.51 -4.88,-2.83 -0.19,-2.81 -2.54,-3.72 -4.33,-5.27 -2.93,-2.54 -7.2,-3.18 -9.33,-6.76 -0.05,-4.26 -0.11,-8.53 -0.17,-12.79 z m 24.27,24.01 c 0.33,0.11 0.67,0.22 1,0.34 -0.17,-0.28 -0.34,-0.55 -0.51,-0.83 -0.41,-0.55 -1.2,-1 -1.53,-0.44 -0.46,0.8 0.59,0.7 1.04,0.93 z"
   id="path338"
   inkscape:connector-curvature="0"
   style="fill:#444343" />
					<path
   class="st57"
   d="m 590.35,864.73 c 2.95,0.48 3.18,-3.3 5.63,-3.61 -0.5,8.66 1.17,17.08 2.6,25.56 0.81,4.84 2.44,9.74 1.18,14.79 -3.38,-0.75 -5.8,-3.19 -8.65,-4.88 1.68,-5.38 -0.62,-10.54 -1.39,-15.66 -0.58,-3.84 0.91,-8.01 -1.55,-11.56 0.18,-1.79 1.26,-3.18 2.18,-4.64 z"
   id="path340"
   inkscape:connector-curvature="0"
   style="fill:#9f9e9d" />
					<path
   class="st83"
   d="m 588.17,869.38 c 2.46,3.55 0.97,7.73 1.55,11.56 0.77,5.12 3.07,10.28 1.39,15.66 -4.58,-2.78 -10.02,-4.22 -13.48,-8.73 1.7,-2.4 3.95,-4.53 3.84,-7.82 0,0 -0.03,0.05 -0.03,0.05 1.17,-0.24 1.1,-1.1 1.01,-1.98 l -0.04,0.05 c 2.23,-1.34 4.2,-2.85 3.86,-5.87 0.64,-0.97 1.27,-1.94 1.9,-2.92 z"
   id="path342"
   inkscape:connector-curvature="0"
   style="fill:#8c8b8a" />
					<path
   class="st53"
   d="m 767.33,884.82 c -2.42,1.41 -4.85,2.81 -7.27,4.21 -4.17,-4.64 -9.21,-6.13 -15.2,-4.2 7.18,-5.52 15.54,-8.99 23.42,-13.28 0.66,4.5 0.92,8.96 -0.95,13.27 z"
   id="path344"
   inkscape:connector-curvature="0"
   style="fill:#3f3e3d" />
					<path
   class="st163"
   d="m 554.2,934.95 c 2.13,3.58 6.41,4.21 9.33,6.76 1.79,1.55 4.15,2.46 4.33,5.27 -3.61,-2.92 -4.71,-1.53 -5.22,2.55 -0.19,1.56 0.75,2.71 0.38,4.09 -4.19,0.33 -5.39,-5.08 -9.49,-4.95 -5.17,-5.43 -3.83,-12.21 -3.94,-18.8 2.18,1.23 1.14,5.2 4.61,5.08 z m 4.8,10.56 c -0.7,-2.47 -3.09,-2.96 -5.02,-3.97 -1.02,-0.53 -1.65,0.22 -1.46,1.1 0.54,2.55 2.81,3.3 4.88,4.13 0.88,0.35 1.49,-0.19 1.6,-1.26 z"
   id="path346"
   inkscape:connector-curvature="0"
   style="fill:#4f5155" />
					<path
   class="st81"
   d="m 740.3,806.56 c 0.68,-0.01 1.36,-0.03 2.05,-0.04 3.81,1.43 7.65,2.81 10.59,5.81 -0.41,2.82 -2.1,4.03 -4.88,3.88 3.27,-2.55 0.53,-3.94 -1.15,-5.3 -2.05,-1.66 -5.13,-1.79 -6.61,-4.35 z"
   id="path348"
   inkscape:connector-curvature="0"
   style="fill:#f7bf20" />
					<path
   class="st47"
   d="m 581.48,880.06 c 0.11,3.29 -2.15,5.42 -3.84,7.82 -0.64,-0.49 -1.52,2.98 -2,-0.12 1.69,-2.76 2.9,-5.89 5.84,-7.7 z"
   id="path350"
   inkscape:connector-curvature="0"
   style="fill:#e4af35" />
					<path
   class="st47"
   d="m 586.28,872.3 c 0.34,3.02 -1.63,4.53 -3.86,5.87 0.93,-2.18 0.84,-5.04 3.86,-5.87 z"
   id="path352"
   inkscape:connector-curvature="0"
   style="fill:#e4af35" />
					<path
   class="st47"
   d="m 582.46,878.12 c 0.09,0.88 0.15,1.74 -1.01,1.98 0.05,-0.8 0.02,-1.65 1.01,-1.98 z"
   id="path354"
   inkscape:connector-curvature="0"
   style="fill:#e4af35" />
					<path
   class="st56"
   d="m 740.3,806.56 c 1.48,2.56 4.56,2.69 6.61,4.35 1.68,1.36 4.43,2.75 1.15,5.3 0,0 0,0 0,0 -5.94,2.47 -11.44,5.68 -16.47,9.69 0,0 0.01,-0.01 0.01,-0.01 -3.34,0.41 -5.33,2.97 -7.76,4.84 0,0 0,-0.01 0,-0.01 -2.68,0.01 -4.86,1.15 -6.78,2.91 0,0 0,0 0,0 -3.03,1.34 -6.35,2.29 -7.77,5.8 0,0 0.02,0 0.02,0 -2.28,0.29 -4.83,0.06 -5.82,2.92 0,0 0.01,-0.01 0.01,-0.01 -3.83,1.82 -8.34,2.59 -10.66,6.78 0,0 0,-0.01 0,-0.01 -2.41,-0.35 -3.44,1.59 -4.85,2.91 0,0 0,-0.01 0,-0.01 -2.55,-0.34 -4.81,0.31 -6.75,2 -4.18,2.58 -8.36,5.16 -12.53,7.74 -0.1,1.23 -0.77,1.86 -2,1.9 -0.27,-0.51 -0.58,-0.97 -1.27,-0.63 0.12,0.21 0.25,0.42 0.37,0.63 -1.15,1.44 -4.1,1.01 -3.94,3.8 -2.41,0.07 -4.51,0.73 -5.84,2.94 0,0 0,-0.01 0,-0.01 -2.07,-0.06 -3.69,0.48 -3.89,2.91 0,0 0.03,-0.01 0.03,-0.01 -1.08,0.01 -2.24,-0.2 -2.93,0.99 0,0 0.01,-0.02 0.01,-0.02 -7.29,4.19 -12.88,0.48 -18.9,-3.45 -8.26,-5.39 -17.01,-10.01 -25.56,-14.96 -0.16,-1.59 1.14,-2.42 2.11,-2.98 11.99,-6.95 23.83,-14.23 36.15,-20.54 17.7,-9.06 34.82,-19.16 52.44,-28.31 5.64,-2.93 11.34,-5.85 17.1,-8.56 4.78,-2.25 8.36,1.94 12.26,3.82 5.15,2.47 9.69,6.17 15.45,7.29 z"
   id="path356"
   inkscape:connector-curvature="0"
   style="fill:#fec75b" />
					<path
   class="st53"
   d="m 721.14,911.41 c -6.66,4.08 -13.07,8.64 -20.03,12.14 -14.36,7.22 -27.07,17.21 -41.57,24.14 -2.15,1.03 -3.57,3.35 -6.23,3.4 -2.58,-5.78 -7.74,-6.19 -13.06,-6.27 5.99,-5.23 13.67,-7.52 20.31,-11.65 7.51,-4.67 14.9,-9.61 22.79,-13.56 12.93,-6.46 24.8,-14.72 37.61,-21.34 0.05,4.38 0.11,8.76 0.18,13.14 z"
   id="path358"
   inkscape:connector-curvature="0"
   style="fill:#3f3e3d" />
					<path
   class="st57"
   d="m 599.94,863.59 c 6.45,3.86 12.9,7.73 19.35,11.59 1.28,10.01 2.55,20.01 3.83,30.02 -1.01,2.2 -2.03,4.4 -3.04,6.6 -3.53,1.26 -6.01,-0.99 -8.62,-2.65 -1.96,-1.25 -3.83,-2.65 -5.74,-3.99 -0.84,-5.2 -1.94,-10.38 -2.48,-15.62 -0.9,-8.68 -3.93,-17.09 -3.3,-25.95 z"
   id="path360"
   inkscape:connector-curvature="0"
   style="fill:#9f9e9d" />
					<path
   class="st83"
   d="m 628.87,911.64 c 4.12,-6.69 6.98,-14.08 12.09,-20.27 5.02,-6.09 11.39,-9.72 18.51,-12.51 1.78,-0.7 2.38,-0.22 2.38,1.52 -0.01,5.96 -0.03,11.92 -0.02,17.88 0,1.33 -0.76,1.99 -1.84,2.53 -5.61,2.79 -10.47,7.07 -16.56,8.82 -3.92,1.12 -5.64,5.97 -10.24,5.6 -1.44,-1.18 -2.88,-2.38 -4.32,-3.57 z"
   id="path362"
   inkscape:connector-curvature="0"
   style="fill:#8c8b8a" />
					<path
   class="st53"
   d="m 618.88,972.39 c -2.88,-0.92 -4.83,1.19 -6.99,2.3 -8.42,4.33 -9.72,4.26 -16.83,-1.82 0,-3.9 0,-7.79 0,-11.69 5.25,3.32 10.62,3.27 15.73,-0.02 4.55,-2.94 9.66,-4.71 14.29,-7.44 -0.46,1.99 -0.36,4.4 -1.49,5.87 -2.47,3.21 -3.52,6.63 -3.37,10.55 -0.45,0.76 -0.89,1.5 -1.34,2.25 z"
   id="path364"
   inkscape:connector-curvature="0"
   style="fill:#3f3e3d" />
					<path
   class="st83"
   d="m 623.11,905.2 c -1.28,-10.01 -2.55,-20.01 -3.83,-30.02 5.2,2.91 10.39,5.82 15.59,8.73 -3.96,7.08 -6.66,14.84 -11.76,21.29 z"
   id="path366"
   inkscape:connector-curvature="0"
   style="fill:#8c8b8a" />
					<path
   class="st163"
   d="m 595.06,961.19 c 0,3.9 0,7.79 0,11.69 -6.51,-3.76 -13.47,-6.76 -19.4,-11.5 3.2,-3.02 3.22,-5.75 0.06,-9.83 3.44,-1.99 5.25,2.62 8.34,2.06 3.05,3.01 6.97,4.64 10.65,6.66 l 0.22,0.21 c 0.06,0.23 0.11,0.47 0.13,0.71 z m -5.33,5.12 c 1.25,0.2 1.62,-0.43 1.43,-1.34 -0.55,-2.57 -2.96,-3.12 -4.84,-4.17 -0.91,-0.51 -1.74,0.27 -1.59,1.07 0.49,2.79 3.11,3.32 5,4.44 z"
   id="path368"
   inkscape:connector-curvature="0"
   style="fill:#4f5155" />
					<path
   class="st84"
   d="m 620.22,970.16 c -0.15,-3.92 0.9,-7.34 3.37,-10.55 1.13,-1.47 1.03,-3.89 1.49,-5.87 4.94,-3.17 8.88,-8.02 15.16,-8.92 5.32,0.08 10.48,0.49 13.06,6.27 -0.47,0.51 -0.95,1.01 -1.42,1.52 -0.84,0.01 -1.68,0.02 -2.53,0.03 -0.35,0 -0.7,0 -1.05,0.01 l 0.02,0.02 c -2.64,-4.94 -8.61,-5.37 -14.1,-0.82 -4.69,3.89 -7.57,9.04 -9.38,14.77 -0.75,2.41 -1.77,4.05 -4.62,3.54 z"
   id="path370"
   inkscape:connector-curvature="0"
   style="fill:#494b50" />
					<path
   class="st84"
   d="m 744.86,884.84 c 5.99,-1.93 11.03,-0.44 15.2,4.2 -0.52,1.24 -1.05,2.49 -1.57,3.73 -0.58,-0.23 -1.29,-0.32 -1.74,-0.7 -4.8,-4.15 -7.5,-4.28 -13,-1.14 -4.93,2.81 -7.04,7.51 -9.3,12.28 -0.98,2.06 -1.02,5.41 -4.78,4.93 -0.46,-3.65 0.95,-6.71 2.56,-9.92 1.3,-2.59 4.01,-4.51 3.91,-7.78 0,0 0,0.03 0.01,0.03 0.25,-0.03 0.49,-0.07 0.73,-0.1 -0.13,-0.2 -0.26,-0.41 -0.39,-0.61 2.61,-1.96 5.28,-3.79 8.37,-4.92 z"
   id="path372"
   inkscape:connector-curvature="0"
   style="fill:#494b50" />
					<path
   class="st53"
   d="m 736.15,890.43 c 0.1,3.27 -2.61,5.2 -3.91,7.78 -1.61,3.21 -3.02,6.27 -2.56,9.92 -1.7,0.33 -3.46,0.58 -3.83,2.76 -0.63,-0.24 -1.26,-0.49 -1.9,-0.73 -2.32,-4.13 -0.38,-8.67 -1.22,-12.94 4.81,-1.59 8.47,-5.46 13.42,-6.79 z"
   id="path374"
   inkscape:connector-curvature="0"
   style="fill:#3f3e3d" />
					<path
   class="st163"
   d="m 628.87,911.64 c 1.44,1.19 2.87,2.39 4.31,3.58 -2.18,1.73 -1.02,4.17 -1.29,6.29 -0.41,3.22 -2.04,3.85 -4.57,2.12 -3.47,-2.38 -3.19,-6.09 -2.77,-9.57 0.27,-2.25 2.02,-3.14 4.32,-2.42 z"
   id="path376"
   inkscape:connector-curvature="0"
   style="fill:#4f5155" />
					<path
   class="st161"
   d="m 597.93,943.95 c 0.92,0.1 1.99,-0.13 2.56,0.87 2.7,4.76 -0.42,13.52 -5.55,15.66 0,0 -0.22,-0.21 -0.22,-0.21 0.05,-4.77 0.1,-9.55 0.14,-14.32 0,0 0.4,-0.13 0.39,-0.13 1.33,-0.01 2.19,-0.69 2.69,-1.88 z"
   id="path378"
   inkscape:connector-curvature="0"
   style="fill:#f4c12e" />
					<path
   class="st81"
   d="m 731.59,825.89 c 5.03,-4.01 10.53,-7.22 16.47,-9.69 0.1,2.71 -2.35,3.38 -3.97,4.23 -4.01,2.12 -7.72,5.06 -12.5,5.46 z"
   id="path380"
   inkscape:connector-curvature="0"
   style="fill:#f7bf20" />
					<path
   class="st161"
   d="m 668.72,861.74 c 4.18,-2.58 8.36,-5.16 12.53,-7.74 0,0.64 0,1.29 0,1.93 -3.24,3.94 -7.88,4.9 -12.53,5.81 z"
   id="path382"
   inkscape:connector-curvature="0"
   style="fill:#f4c12e" />
					<path
   class="st84"
   d="m 722.73,897.23 c 0.84,4.27 -1.1,8.81 1.22,12.94 -0.72,0.91 -1.79,1.04 -2.82,1.25 -0.06,-4.38 -0.13,-8.76 -0.19,-13.15 0.6,-0.35 1.2,-0.7 1.79,-1.04 z"
   id="path384"
   inkscape:connector-curvature="0"
   style="fill:#494b50" />
					<path
   class="st81"
   d="m 692.85,849.11 c 2.32,-4.19 6.83,-4.96 10.66,-6.78 -2.29,4.25 -6.2,5.94 -10.66,6.78 z"
   id="path386"
   inkscape:connector-curvature="0"
   style="fill:#f7bf20" />
					<path
   class="st162"
   d="m 652.36,913.74 c 1.71,-3.06 4.55,-4.38 7.86,-5.03 -1.67,3.01 -4.72,4.1 -7.86,5.03 z"
   id="path388"
   inkscape:connector-curvature="0"
   style="fill:#444343" />
					<path
   class="st81"
   d="m 709.3,839.42 c 1.41,-3.5 4.73,-4.46 7.77,-5.8 -1.8,3 -4.2,5.18 -7.77,5.8 z"
   id="path390"
   inkscape:connector-curvature="0"
   style="fill:#f7bf20" />
					<path
   class="st81"
   d="m 723.84,830.73 c 2.42,-1.88 4.42,-4.44 7.76,-4.84 -1.08,4.01 -4.53,4.25 -7.76,4.84 z"
   id="path392"
   inkscape:connector-curvature="0"
   style="fill:#f7bf20" />
					<path
   class="st81"
   d="m 681.25,855.93 c 0,-0.64 0,-1.29 0,-1.93 1.95,-1.69 4.21,-2.33 6.75,-2 -1.56,2.48 -4.22,3.09 -6.75,3.93 z"
   id="path394"
   inkscape:connector-curvature="0"
   style="fill:#f7bf20" />
					<path
   class="st81"
   d="m 656.04,870.4 c 1.32,-2.21 3.43,-2.88 5.84,-2.94 -0.84,3.16 -3.28,3.17 -5.84,2.94 z"
   id="path396"
   inkscape:connector-curvature="0"
   style="fill:#f7bf20" />
					<path
   class="st81"
   d="m 717.06,833.63 c 1.92,-1.76 4.11,-2.91 6.78,-2.91 -1.31,3.15 -4.4,2.2 -6.78,2.91 z"
   id="path398"
   inkscape:connector-curvature="0"
   style="fill:#f7bf20" />
					<path
   class="st81"
   d="m 652.15,873.3 c 0.2,-2.43 1.82,-2.97 3.89,-2.91 0.35,3.17 -1.8,3 -3.89,2.91 z"
   id="path400"
   inkscape:connector-curvature="0"
   style="fill:#f7bf20" />
					<path
   class="st81"
   d="m 703.5,842.34 c 0.99,-2.86 3.53,-2.63 5.82,-2.92 -1.59,1.67 -3.58,2.55 -5.82,2.92 z"
   id="path402"
   inkscape:connector-curvature="0"
   style="fill:#f7bf20" />
					<path
   class="st81"
   d="m 688.01,852.01 c 1.41,-1.32 2.43,-3.27 4.85,-2.91 -0.51,2.82 -2.72,2.8 -4.85,2.91 z"
   id="path404"
   inkscape:connector-curvature="0"
   style="fill:#f7bf20" />
					<path
   class="st81"
   d="m 649.25,874.27 c 0.69,-1.19 1.84,-0.98 2.93,-0.99 -0.68,1.21 -1.85,0.97 -2.93,0.99 z"
   id="path406"
   inkscape:connector-curvature="0"
   style="fill:#f7bf20" />
					<path
   class="st161"
   d="m 665.82,863.65 c -0.12,-0.21 -0.25,-0.42 -0.37,-0.63 0.69,-0.33 1,0.12 1.27,0.63 -0.3,0 -0.6,0 -0.9,0 z"
   id="path408"
   inkscape:connector-curvature="0"
   style="fill:#f4c12e" />
					<path
   class="st53"
   d="m 736.49,889.75 c 0.13,0.2 0.26,0.41 0.39,0.61 -0.24,0.04 -0.49,0.07 -0.73,0.1 -0.15,-0.36 -0.03,-0.6 0.34,-0.71 z"
   id="path410"
   inkscape:connector-curvature="0"
   style="fill:#3f3e3d" />
					<path
   class="st164"
   d="m 647.31,969.24 c -1.3,1.92 -1.53,4.58 -3.95,5.73 -1.64,0.88 -3.2,2 -4.94,2.6 -3.55,1.21 -7.3,-1.27 -7.63,-4.83 -0.44,-4.63 4.42,-13.49 8.56,-15.67 2.29,-1.2 3.85,-1 6.28,0.73 3.89,2.76 2.28,6.17 2.65,9.41 l 0.05,-0.07 c -1.19,0.28 -0.98,1.25 -1.02,2.1 z"
   id="path412"
   inkscape:connector-curvature="0"
   style="fill:#acacac" />
					<path
   class="st164"
   d="m 752.98,906.08 c 0.97,1.37 -5.5,-0.9 -1.12,2.34 1.36,1 -1.5,6.63 -3.69,7.41 -1.34,0.47 -2.75,0.74 -4.13,1.11 -6.56,-0.2 -8.97,-4.94 -6.29,-11.07 1.72,-3.94 5.77,-5.65 7.49,-9.36 3.1,-0.24 6,0.03 7.81,3.06 -0.02,2.17 -0.05,4.34 -0.07,6.51 z"
   id="path414"
   inkscape:connector-curvature="0"
   style="fill:#acacac" />
					<path
   class="st162"
   d="m 648.28,967.21 c -0.37,-3.24 1.24,-6.65 -2.65,-9.41 -2.43,-1.73 -3.99,-1.93 -6.28,-0.73 -4.14,2.18 -8.99,11.04 -8.56,15.67 0.33,3.55 4.09,6.03 7.63,4.83 1.74,-0.59 3.3,-1.71 4.94,-2.6 -1.86,5.67 -7.94,7.98 -12.65,4.8 -0.92,-0.62 -1.84,-1.23 -2.76,-1.85 0,-1.6 -0.01,-3.2 0,-4.8 0.05,-11.53 8.99,-20.5 20.38,-20.46 l -0.02,-0.02 c 0.36,0.87 0.71,0.64 1.05,-0.01 0.84,-0.01 1.69,-0.02 2.53,-0.03 -0.04,0.36 -0.07,0.73 -0.11,1.09 -1.46,0.83 -1.08,1.92 -0.43,3.04 2.59,4.55 -1.72,7.08 -3.07,10.48 z"
   id="path416"
   inkscape:connector-curvature="0"
   style="fill:#444343" />
					<path
   class="st86"
   d="m 648.33,952.66 c -11.39,-0.04 -20.33,8.93 -20.38,20.46 -0.01,1.6 0,3.2 0,4.8 -3.43,-1.18 -6.57,-2.84 -9.07,-5.54 0.45,-0.74 0.89,-1.49 1.34,-2.23 2.85,0.51 3.87,-1.13 4.63,-3.55 1.81,-5.73 4.69,-10.88 9.38,-14.77 5.49,-4.54 11.46,-4.11 14.1,0.83 z"
   id="path418"
   inkscape:connector-curvature="0"
   style="fill:#1d1d1e" />
					<path
   class="st162"
   d="m 752.98,906.08 c 0.02,-2.17 0.05,-4.34 0.07,-6.51 1.69,-2.31 -0.24,-3.52 -1.69,-4.38 -2.25,-1.35 -4.39,-0.54 -6.13,1.33 -1.72,3.71 -5.77,5.42 -7.49,9.36 -2.67,6.13 -0.27,10.87 6.29,11.07 -0.53,3.15 -3.14,2.87 -4.91,2.21 -1.92,-0.71 -4.25,-1.09 -5.64,-2.97 -0.7,-8.15 3.18,-14.69 8.22,-20.28 7.22,-8 12.16,-6.74 15.66,3.25 0.04,0.13 0.24,0.2 0.37,0.3 -1.11,0.89 -1.84,1.85 -2.14,3.43 -0.21,1.17 -0.06,3.53 -2.61,3.19 z"
   id="path420"
   inkscape:connector-curvature="0"
   style="fill:#444343" />
					<path
   class="st86"
   d="m 757.75,899.44 c -0.13,-0.1 -0.32,-0.17 -0.37,-0.3 -3.5,-9.99 -8.44,-11.25 -15.66,-3.25 -5.05,5.59 -8.93,12.14 -8.22,20.28 -3.26,-0.73 -5.47,-2.97 -7.65,-5.27 0.36,-2.18 2.12,-2.43 3.83,-2.76 3.76,0.48 3.8,-2.87 4.78,-4.93 2.26,-4.77 4.37,-9.47 9.3,-12.28 5.5,-3.14 8.2,-3.01 13,1.14 0.45,0.39 1.15,0.48 1.74,0.7 0.08,2.26 1.13,4.62 -0.75,6.67 z"
   id="path422"
   inkscape:connector-curvature="0"
   style="fill:#1d1d1e" />
					<path
   class="st87"
   d="m 575.73,951.55 c 3.16,4.07 3.14,6.81 -0.06,9.83 -3.82,-3.23 -7.97,-5.9 -12.63,-7.76 0.37,-1.38 -0.57,-2.54 -0.38,-4.09 0.51,-4.08 1.6,-5.48 5.22,-2.55 1.4,1.33 3.08,2.18 4.88,2.83 0.56,0.98 1.59,1.21 2.55,1.53 0.08,0.18 0.22,0.25 0.42,0.21 z"
   id="path424"
   inkscape:connector-curvature="0"
   style="fill:#dcdddd" />
					<path
   class="st84"
   d="m 651.34,956.74 c -0.65,-1.13 -1.03,-2.22 0.43,-3.04 0.48,1.1 0.62,2.15 -0.43,3.04 z"
   id="path426"
   inkscape:connector-curvature="0"
   style="fill:#494b50" />
					<path
   class="st162"
   d="m 647.31,969.24 c 0.05,-0.84 -0.17,-1.81 1.02,-2.1 0.01,0.87 -0.01,1.72 -1.02,2.1 z"
   id="path428"
   inkscape:connector-curvature="0"
   style="fill:#444343" />
					<path
   class="st83"
   d="m 599.94,863.59 c -0.63,8.86 2.4,17.27 3.3,25.95 0.54,5.24 1.63,10.41 2.48,15.62 -1.98,-1.23 -3.96,-2.45 -5.95,-3.68 1.26,-5.05 -0.37,-9.95 -1.18,-14.79 -1.43,-8.49 -3.1,-16.9 -2.6,-25.56 1.58,0.39 2.92,1.17 3.95,2.46 z"
   id="path430"
   inkscape:connector-curvature="0"
   style="fill:#8c8b8a" />
					<path
   class="st46"
   d="m 594.86,945.95 c -0.05,4.77 -0.1,9.55 -0.14,14.32 -3.68,-2.01 -7.6,-3.64 -10.65,-6.66 -0.01,-1.23 -0.01,-2.46 -0.02,-3.69 0.02,-0.74 0.05,-1.49 0.07,-2.23 0.04,-2.49 -1.33,-5.03 0.2,-7.48 3.51,1.91 7.03,3.83 10.54,5.74 z"
   id="path432"
   inkscape:connector-curvature="0"
   style="fill:#fefefe" />
					<path
   class="st47"
   d="m 597.94,943.94 c -0.5,1.19 -1.36,1.87 -2.69,1.88 -0.2,-2.19 1.45,-1.75 2.69,-1.88 z"
   id="path434"
   inkscape:connector-curvature="0"
   style="fill:#e4af35" />
					<path
   class="st163"
   d="m 575.3,951.34 c -0.96,-0.32 -1.99,-0.55 -2.55,-1.53 0.17,-0.74 0.19,-1.83 1.3,-1.53 1.56,0.43 1.65,1.7 1.25,3.06 z"
   id="path436"
   inkscape:connector-curvature="0"
   style="fill:#4f5155" />
					<path
   class="st83"
   d="m 584.12,947.69 c -0.02,0.74 -0.05,1.49 -0.07,2.23 -1.3,-0.54 -2.67,-1 -3.43,-2.41 1.26,-1.1 2.33,0.57 3.5,0.18 z"
   id="path438"
   inkscape:connector-curvature="0"
   style="fill:#8c8b8a" />
					<path
   class="st83"
   d="m 578.3,946.17 c -0.45,-0.24 -1.5,-0.14 -1.03,-0.94 0.33,-0.56 1.11,-0.11 1.53,0.44 -0.18,0.17 -0.34,0.34 -0.5,0.5 z"
   id="path440"
   inkscape:connector-curvature="0"
   style="fill:#8c8b8a" />
					<path
   class="st83"
   d="m 578.79,945.68 c 0.17,0.28 0.34,0.55 0.51,0.83 -0.33,-0.11 -0.67,-0.22 -1,-0.33 0.16,-0.17 0.32,-0.34 0.49,-0.5 z"
   id="path442"
   inkscape:connector-curvature="0"
   style="fill:#8c8b8a" />
					<path
   class="st47"
   d="m 559,945.51 c -0.11,1.07 -0.73,1.61 -1.61,1.26 -2.07,-0.82 -4.33,-1.58 -4.88,-4.13 -0.19,-0.88 0.45,-1.63 1.46,-1.1 1.94,1.01 4.33,1.5 5.03,3.97 z"
   id="path444"
   inkscape:connector-curvature="0"
   style="fill:#e4af35" />
					<path
   class="st47"
   d="m 589.73,966.31 c -1.9,-1.12 -4.51,-1.65 -5.01,-4.44 -0.14,-0.8 0.69,-1.58 1.59,-1.07 1.88,1.05 4.29,1.6 4.84,4.17 0.21,0.91 -0.17,1.54 -1.42,1.34 z"
   id="path446"
   inkscape:connector-curvature="0"
   style="fill:#e4af35" />
					<path
   class="st86"
   d="m 649.36,952.64 c -0.35,0.65 -0.7,0.87 -1.05,0.01 0.35,-0.01 0.7,-0.01 1.05,-0.01 z"
   id="path448"
   inkscape:connector-curvature="0"
   style="fill:#1d1d1e" />
					<path
   class="st87"
   d="m 745.24,896.51 c 1.74,-1.86 3.88,-2.67 6.13,-1.33 1.45,0.87 3.37,2.08 1.69,4.38 -1.83,-3.02 -4.72,-3.3 -7.82,-3.05 z"
   id="path450"
   inkscape:connector-curvature="0"
   style="fill:#dcdddd" />
				</g>
			</g>
		</g>
		<circle
   class="st62"
   cx="553.95001"
   cy="833.32001"
   r="268.89999"
   clip-path="url(#SVGID_21_)"
   id="circle458"
   style="fill:none" />
	</g>
	<text
   transform="translate(395.8916,1204.4553)"
   class="st179 st180 st181 st133"
   id="text462"
   style="font-size:75px;font-family:Bakersfield-Bold;letter-spacing:1;fill:#875151;stroke:#875151;stroke-width:1.12520003;stroke-miterlimit:10">Colmena</text>

	<g
   id="g470">
		<text
   transform="translate(505.8782,1813.884)"
   id="text468"><tspan
     x="0"
     y="0"
     class="st182 st183 st184"
     id="tspan464"
     style="font-size:30px;font-family:Ubuntu-Regular;fill:#333333">DUM </tspan><tspan
     x="-158.33"
     y="40"
     class="st182 st185 st132"
     id="tspan466"
     style="font-size:25px;font-family:Ubuntu-Light;fill:#333333">Distribucin Urbana de Mercncias</tspan></text>

	</g>
</g>
<g
   id="ruta">
</g>
</svg>
