<?xml version="1.0" encoding="UTF-8" standalone="no"?>
<!-- Generator: Adobe Illustrator 24.1.1, SVG Export Plug-In . SVG Version: 6.00 Build 0)  -->

<svg
   xmlns:dc="http://purl.org/dc/elements/1.1/"
   xmlns:cc="http://creativecommons.org/ns#"
   xmlns:rdf="http://www.w3.org/1999/02/22-rdf-syntax-ns#"
   xmlns:svg="http://www.w3.org/2000/svg"
   xmlns="http://www.w3.org/2000/svg"
   xmlns:xlink="http://www.w3.org/1999/xlink"
   xmlns:sodipodi="http://sodipodi.sourceforge.net/DTD/sodipodi-0.dtd"
   xmlns:inkscape="http://www.inkscape.org/namespaces/inkscape"
   version="1.1"
   id="Capa_1"
   x="0px"
   y="0px"
   viewBox="0 0 554.39001 627.75"
   xml:space="preserve"
   sodipodi:docname="logo2_final.svg"
   width="554.39001"
   height="627.75"
   inkscape:version="0.92.4 (5da689c313, 2019-01-14)"><metadata
   id="metadata433"><rdf:RDF><cc:Work
       rdf:about=""><dc:format>image/svg+xml</dc:format><dc:type
         rdf:resource="http://purl.org/dc/dcmitype/StillImage" /><dc:title></dc:title></cc:Work></rdf:RDF></metadata><defs
   id="defs431" /><sodipodi:namedview
   pagecolor="#ffffff"
   bordercolor="#666666"
   borderopacity="1"
   objecttolerance="10"
   gridtolerance="10"
   guidetolerance="10"
   inkscape:pageopacity="0"
   inkscape:pageshadow="2"
   inkscape:window-width="640"
   inkscape:window-height="480"
   id="namedview429"
   showgrid="false"
   fit-margin-top="0"
   fit-margin-left="0"
   fit-margin-right="0"
   fit-margin-bottom="0"
   inkscape:zoom="0.21851852"
   inkscape:cx="273.5"
   inkscape:cy="314.22"
   inkscape:window-x="0"
   inkscape:window-y="27"
   inkscape:window-maximized="0"
   inkscape:current-layer="Capa_1" />
<style
   type="text/css"
   id="style2">
	.st0{clip-path:url(#SVGID_5_);fill:#875151;stroke:#629274;stroke-width:1.2214;stroke-miterlimit:10;}
	.st1{clip-path:url(#SVGID_5_);fill:#709985;}
	.st2{clip-path:url(#SVGID_5_);fill:none;stroke:#F7F7F7;stroke-width:54.7912;stroke-miterlimit:10;}
	.st3{clip-path:url(#SVGID_5_);fill:#F7F7F7;}
	.st4{clip-path:url(#SVGID_5_);fill:none;stroke:#F7F7F7;stroke-width:43.833;stroke-miterlimit:10;}
	.st5{clip-path:url(#SVGID_5_);}
	.st6{fill:none;stroke:#A3A3A3;stroke-width:8.2187;stroke-miterlimit:10;}
	.st7{fill:none;stroke:#A3A3A3;stroke-width:8.2187;stroke-miterlimit:10;stroke-dasharray:25.2609,21.0508;}
	
		.st8{clip-path:url(#SVGID_5_);fill:none;stroke:#A3A3A3;stroke-width:10.9582;stroke-miterlimit:10;stroke-dasharray:27.3956,21.9165;}
	.st9{fill:#EF5261;}
	.st10{fill:#EEEFEE;}
	.st11{clip-path:url(#SVGID_6_);}
	.st12{fill:#FEFEFE;}
	.st13{fill:#FECB66;}
	.st14{fill:#F6CB5F;}
	.st15{fill:#AAACAB;}
	.st16{fill:#F5B541;}
	.st17{fill:#DCDCDA;}
	.st18{fill:#9FA09F;}
	.st19{fill:#C6C9CC;}
	.st20{fill:#8D8D8D;}
	.st21{fill:#FBB843;}
	.st22{fill:#F7C943;}
	.st23{fill:#797C7C;}
	.st24{fill:#3E3F40;}
	.st25{fill:#434344;}
	.st26{fill:#FD9F1A;}
	.st27{fill:#F0F3F3;}
	.st28{clip-path:url(#SVGID_7_);}
	.st29{fill:#D5AB90;}
	.st30{fill:#D4AB90;}
	.st31{fill:#D2A07C;}
	.st32{fill:#D2A17C;}
	.st33{fill:#D3A17C;}
	.st34{fill:#DABA9C;}
	.st35{fill:#DBB899;}
	.st36{fill:#DCB99A;}
	.st37{fill:#FDCB6A;}
	.st38{fill:#DAB89A;}
	.st39{fill:#D3A88C;}
	.st40{fill:#F4C963;}
	.st41{fill:#E1BA7D;}
	.st42{fill:#EACE8A;}
	.st43{fill:#DCB593;}
	.st44{clip-path:url(#SVGID_8_);}
	.st45{fill:#E4AF35;}
	.st46{fill:#A7A7A7;}
	.st47{fill:#EAC858;}
	.st48{fill:#F4C12E;}
	.st49{fill:#F7BF20;}
	.st50{fill:#444343;}
	.st51{fill:#9F9E9D;}
	.st52{fill:#8C8B8A;}
	.st53{fill:#3F3E3D;}
	.st54{fill:#4F5155;}
	.st55{fill:#FEC75B;}
	.st56{fill:#494B50;}
	.st57{fill:#ACACAC;}
	.st58{fill:#1D1D1E;}
	.st59{fill:#DCDDDD;}
	.st60{clip-path:url(#SVGID_5_);fill:none;}
</style>
<g
   id="g426"
   transform="translate(-266.5,-226.47)">
	<defs
   id="defs5">
		<path
   id="SVGID_1_"
   d="M 820.89,677.25 V 403.44 c 0,-14.31 -7.64,-27.54 -20.03,-34.7 L 563.73,231.84 c -12.4,-7.16 -27.67,-7.16 -40.07,0 l -237.13,136.9 c -12.4,7.16 -20.03,20.38 -20.03,34.7 v 273.81 c 0,14.31 7.64,27.54 20.03,34.7 l 237.13,136.9 c 12.4,7.16 27.67,7.16 40.07,0 l 237.13,-136.9 c 12.4,-7.16 20.03,-20.38 20.03,-34.7 z"
   inkscape:connector-curvature="0" />
	</defs>
	<clipPath
   id="SVGID_5_">
		<use
   xlink:href="#SVGID_1_"
   style="overflow:visible"
   id="use7"
   x="0"
   y="0"
   width="100%"
   height="100%" />
	</clipPath>
	<rect
   x="216.25999"
   y="200.74001"
   class="st0"
   width="657.83002"
   height="657.83002"
   clip-path="url(#SVGID_5_)"
   id="rect10"
   style="fill:#875151;stroke:#629274;stroke-width:1.22140002;stroke-miterlimit:10" />
	<polyline
   class="st1"
   points="832.73,372.27 668.81,393.7 875,534.98 908.46,461.01  "
   clip-path="url(#SVGID_5_)"
   id="polyline12"
   style="fill:#709985" />
	<polygon
   class="st1"
   points="455.08,426.52 336.05,504.53 224.25,382.95 365.99,271.21 404.54,261.04 564.71,371.16 "
   clip-path="url(#SVGID_5_)"
   id="polygon14"
   style="fill:#709985" />
	<path
   class="st2"
   d="M 161.43,619.15 C 301.74,549.43 397.15,490.59 460.01,448.2 c 17,-11.47 35.94,-24.64 65.38,-38.38 58.23,-27.19 90.11,-25.14 245.04,-42.68 93.97,-10.64 120.52,-15.73 170.89,-9.62 37.89,4.59 68.69,13.03 89.71,19.87"
   clip-path="url(#SVGID_5_)"
   id="path16"
   inkscape:connector-curvature="0"
   style="fill:none;stroke:#f7f7f7;stroke-width:54.79119873;stroke-miterlimit:10" />
	<polygon
   class="st3"
   points="987.68,584.79 288.05,159.96 274.17,239.33 985.9,686.68 "
   clip-path="url(#SVGID_5_)"
   id="polygon18"
   style="fill:#f7f7f7" />
	<path
   class="st3"
   d="m 222.55,799.17 209,-114.26 c 0,0 21.8,-27.97 67.88,-23.9 3.99,0.35 6.53,0.43 12.68,1.07 17.71,1.83 43.12,3.91 75.65,4.73 25.82,-12.07 51.64,-24.13 77.45,-36.2 l 373.72,-195.63 14.14,80.26 -748.4,430.52 z"
   clip-path="url(#SVGID_5_)"
   id="path20"
   inkscape:connector-curvature="0"
   style="fill:#f7f7f7" />
	<line
   class="st4"
   x1="-162.42999"
   y1="133.23"
   x2="353.23001"
   y2="501.54999"
   clip-path="url(#SVGID_5_)"
   id="line22"
   style="fill:none;stroke:#f7f7f7;stroke-width:43.83300018;stroke-miterlimit:10" />
	<g
   class="st5"
   clip-path="url(#SVGID_5_)"
   id="g32">
		<g
   id="g30">
			<line
   class="st6"
   x1="318.29999"
   y1="217.02"
   x2="328.73999"
   y2="223.57001"
   id="line24"
   style="fill:none;stroke:#a3a3a3;stroke-width:8.21870041;stroke-miterlimit:10" />
			<polyline
   class="st7"
   points="346.57,234.76 1023.01,659.28 1040.12,676.77    "
   id="polyline26"
   style="fill:none;stroke:#a3a3a3;stroke-width:8.21870041;stroke-miterlimit:10;stroke-dasharray:25.2609, 21.0508" />
			<line
   class="st6"
   x1="1047.48"
   y1="684.28998"
   x2="1056.1"
   y2="693.10999"
   id="line28"
   style="fill:none;stroke:#a3a3a3;stroke-width:8.21870041;stroke-miterlimit:10" />
		</g>
	</g>
	<path
   class="st8"
   d="m 254.28,909.51 c 7.14,-3.32 161.19,-90.48 161.19,-90.48 L 1089.1,433.29"
   clip-path="url(#SVGID_5_)"
   id="path34"
   inkscape:connector-curvature="0"
   style="fill:none;stroke:#a3a3a3;stroke-width:10.95820045;stroke-miterlimit:10;stroke-dasharray:27.3956, 21.9165" />
	<g
   class="st5"
   clip-path="url(#SVGID_5_)"
   id="g42">
		<g
   id="g40">
			<path
   class="st9"
   d="m 497.01,646.51 c 0,40.95 -47.92,95.85 -47.92,95.85 0,0 -47.92,-54 -47.92,-95.85 0,-26.47 21.46,-47.93 47.93,-47.93 26.47,0 47.92,21.46 47.91,47.93 z"
   id="path36"
   inkscape:connector-curvature="0"
   style="fill:#ef5261" />
			<circle
   class="st10"
   cx="449.09"
   cy="645.57001"
   r="31.559999"
   id="circle38"
   style="fill:#eeefee" />
		</g>
	</g>
	<g
   class="st5"
   clip-path="url(#SVGID_5_)"
   id="g50">
		<g
   id="g48">
			<path
   class="st9"
   d="m 461.32,354.14 c 0,20.7 -24.23,48.45 -24.23,48.45 0,0 -24.23,-27.3 -24.23,-48.45 0,-13.38 10.85,-24.23 24.23,-24.23 13.38,0 24.24,10.85 24.23,24.23 z"
   id="path44"
   inkscape:connector-curvature="0"
   style="fill:#ef5261" />
			<circle
   class="st10"
   cx="437.10001"
   cy="353.66"
   r="15.95"
   id="circle46"
   style="fill:#eeefee" />
		</g>
	</g>
	<g
   class="st5"
   clip-path="url(#SVGID_5_)"
   id="g216">
		<defs
   id="defs53">
			<path
   id="SVGID_4_"
   d="m 555.21,280.83 8.5,-4.59 c 0,0 1.51,-0.79 2.25,-0.88 0.74,-0.09 1.39,0.06 1.39,0.06 l 0.7,0.24 1.21,0.75 2.17,1.63 1.97,1.15 5.35,3.07 6.04,3.54 7.6,4.44 8.48,4.95 4.74,2.8 1.88,1.07 6.08,3.59 28.36,16.92 c 0,0 0.21,0.32 0.24,0.36 0.03,0.04 0.21,0.2 0.26,0.59 0.05,0.4 0.02,4.37 0.02,4.37 l -0.12,18.31 c 0,0 19.42,10.92 20.13,11.71 0.71,0.79 1.78,3.44 1.78,3.44 l 0.99,3.26 10.6,20.7 c 0,0 0.6,1.95 0.47,2.71 -0.13,0.75 -0.13,0.96 -0.13,0.96 l 0.06,4.08 0.18,16.06 c 0,0 0.19,1.06 -0.2,2.43 -0.39,1.37 -1.49,3.54 -1.49,3.54 0,0 -0.14,-0.75 0.05,0.57 0.18,1.32 0.1,3.18 -0.34,3.71 -0.44,0.53 -1.09,1.99 -1.58,2.35 -0.48,0.36 -11.89,7.34 -11.89,7.34 l -20.56,12.5 c 0,0 -4.18,2.14 -7.89,2.82 -3.71,0.68 -7.51,-0.54 -7.51,-0.54 0,0 -5,-2.05 -7.17,-3.59 -2.17,-1.54 -14.48,-8.68 -14.48,-8.68 l -25.19,-14.94 -29.97,-17.75 -16.34,-9.73 c 0,0 -2.48,-1.98 -3.59,-3.43 -1.11,-1.45 -2.09,-2.55 -3.47,-6.65 -1.39,-4.1 -0.49,-9.58 -0.49,-9.58 0,0 -3.28,-1.8 -3.68,-2.54 -0.4,-0.74 -0.67,-1.67 -0.67,-1.67 l -0.24,-4.46 0.03,-55.06 c 0,0 0,-0.82 0.76,-1.36 0.76,-0.53 4.17,-2.61 4.17,-2.61 z"
   inkscape:connector-curvature="0" />
		</defs>
		<clipPath
   id="SVGID_6_">
			<use
   xlink:href="#SVGID_4_"
   style="overflow:visible"
   id="use55"
   x="0"
   y="0"
   width="100%"
   height="100%" />
		</clipPath>
		<g
   class="st11"
   clip-path="url(#SVGID_6_)"
   id="g214">
			<g
   id="g212">
				<path
   class="st12"
   d="m 688.3,360.8 c 0,29.49 -0.04,58.97 0.07,88.46 0.01,2.47 -0.5,2.97 -2.96,2.96 -58.15,-0.09 -116.29,-0.09 -174.44,0 -2.47,0 -2.97,-0.5 -2.96,-2.96 0.09,-58.97 0.09,-117.94 0,-176.91 0,-2.47 0.5,-2.97 2.96,-2.96 58.15,0.09 116.29,0.09 174.44,0 2.47,0 2.97,0.5 2.96,2.96 -0.1,29.48 -0.07,58.97 -0.07,88.45 z m -80.15,-0.54 c 0.25,-0.19 0.5,-0.38 0.75,-0.57 9.45,-5.54 18.89,-11.09 28.34,-16.63 0.93,-0.54 1.88,-1.34 3.03,-0.73 2.77,1.47 3.35,-0.9 3.32,-2.39 -0.11,-6.69 0.67,-13.44 -0.74,-20.08 0.27,-1.65 -1.03,-2.03 -2.1,-2.62 -2.36,-1.28 -4.71,-2.58 -7.07,-3.88 -0.79,-0.35 -1.58,-0.7 -2.37,-1.05 l 0.03,0.05 c -0.92,-1.63 -2.66,-2.07 -4.15,-2.86 -0.25,-0.14 -0.5,-0.29 -0.75,-0.43 -0.42,-0.65 -0.98,-1 -1.78,-0.89 l 0.06,0.03 c -0.32,-0.78 -0.92,-1.01 -1.71,-0.86 l 0.05,0.02 c -1.27,-1.71 -3.15,-2.49 -5.01,-3.3 l 0.04,0.04 c -1.1,-1.33 -2.64,-1.96 -4.16,-2.62 -0.28,-0.61 -0.81,-0.73 -1.41,-0.72 -6.41,-3.87 -12.82,-7.75 -19.22,-11.62 l 0.01,0.05 c -4.83,-4.13 -10.68,-6.26 -16.55,-8.32 l 0.05,0.04 c -0.88,-2.92 -3.6,-3.13 -5.88,-3.97 -2.26,-1.62 -4.55,-2.56 -6.97,-0.29 -1,-0.27 -1.78,0 -2.26,0.96 l 0.02,-0.05 c -3.6,1.56 -7.03,3.42 -10.14,5.84 -0.21,-0.05 -0.4,0 -0.56,0.13 -0.29,0.25 -0.59,0.49 -0.88,0.74 l 0.02,-0.09 c -1.55,0.57 -3.12,1.11 -4.14,2.54 v -0.04 c -6.27,3.24 -12.74,6.16 -18.21,10.77 l 0.06,-0.01 c -0.8,-0.13 -1.38,0.22 -1.84,0.85 -0.76,0.56 -1.52,1.12 -2.28,1.68 -0.99,0.01 -1.85,0.28 -2.44,1.14 -3.25,1.41 -1.06,4.21 -1.6,6.31 0,0.57 0,1.14 0,1.71 -0.02,1.38 -0.07,2.75 -0.07,4.13 -0.01,12.8 0.09,25.6 -0.05,38.4 -0.06,5.38 -1.52,11.04 4.62,14.36 -1.25,9.31 2.34,16.66 9.96,20.39 2.65,1.94 5.17,4.1 7.97,5.8 15.99,9.7 32.01,19.34 48.08,28.9 10.74,6.38 21.17,13.29 32.7,18.3 4.28,1.86 8.33,2.6 12.67,0.54 2.73,-1.3 5.64,-2.26 8.23,-3.78 9.12,-5.37 18.12,-10.96 27.21,-16.38 3.17,-1.89 4.9,-4.35 4.06,-8.15 1.04,-1.45 1.73,-2.93 1.69,-4.86 -0.15,-7.21 -0.11,-14.43 -0.14,-21.64 0.5,-1.88 -0.1,-3.65 -1.06,-5.13 -3.62,-5.54 -5.86,-11.79 -9.2,-17.47 -0.46,-0.71 -0.14,-1.8 -1.11,-2.26 -1.96,-6.72 -3.01,-7.01 -8.25,-2.36 -0.47,0.42 -1.16,0.6 -1.75,0.9 -5.67,2.21 -10.64,5.67 -15.78,8.84 -2.31,1.33 -4.9,2.21 -6.77,4.25 -0.24,-0.04 -0.47,0.01 -0.68,0.13 -0.33,0.24 -0.66,0.47 -0.99,0.71 -0.24,-0.04 -0.46,0 -0.67,0.12 -0.31,0.24 -0.62,0.48 -0.93,0.72 -1.59,0.85 -3.18,1.7 -4.76,2.55 -4.78,-3.16 -9.73,-6.09 -15.02,-8.2 -2.92,-1.17 -4.61,-2.68 -4.9,-5.75 l 0.24,-0.12 c 0.62,-0.02 1.14,-0.2 1.33,-0.87 0.17,-0.18 0.37,-0.28 0.62,-0.3 0.49,0.12 0.83,-0.05 1.01,-0.53 0.01,-0.02 0.18,-0.12 0.18,-0.12 z"
   id="path58"
   inkscape:connector-curvature="0"
   style="fill:#fefefe" />
				<path
   class="st13"
   d="m 519.72,309.15 c 0,-0.57 0,-1.14 0,-1.71 0.53,-1.36 1.06,-2.72 1.59,-4.08 4.74,0.74 8.55,3.55 12.65,5.69 5.65,2.95 11.04,6.54 16.93,8.87 7.83,3.1 15.07,7.31 22.11,11.63 8.25,5.06 17.15,8.9 25.16,14.32 1.07,1.6 0.84,3.42 0.85,5.19 0.02,19.24 0.04,38.48 0.05,57.72 -1.03,1.12 -2.3,0.91 -3.39,0.31 -5,-2.76 -10.01,-5.51 -14.91,-8.44 -10.25,-6.14 -20,-13.14 -31.2,-17.6 -2.19,-2.36 -4.85,-3.65 -8.11,-3.61 -0.59,-1.16 -1.33,-2.11 -2.78,-2.13 -1.32,-2.67 -4.13,-2.9 -6.45,-3.92 -0.33,-0.6 -0.65,-1.19 -0.98,-1.79 0.92,-2.41 -1.4,-2.57 -2.51,-3.4 -3.57,-2.68 -7.72,-5.61 -7.19,-10.29 0.75,-6.76 -0.68,-13.33 -0.33,-20.02 0.39,-7.67 0.12,-15.38 0.05,-23.08 -0.01,-1.34 0.75,-3.19 -1.54,-3.66 z"
   id="path60"
   inkscape:connector-curvature="0"
   style="fill:#fecb66" />
				<path
   class="st14"
   d="m 551.04,283.56 c 0.17,-0.14 0.35,-0.18 0.56,-0.13 4.31,-0.32 8.03,-1.69 10.14,-5.84 0,0 -0.02,0.05 -0.02,0.06 0.96,0.18 1.68,-0.24 2.26,-0.96 2.42,-2.27 4.71,-1.33 6.97,0.29 1.42,2.13 2.86,4.22 5.88,3.97 0,0 -0.05,-0.04 -0.05,-0.04 -0.09,1.46 0.87,1.94 1.97,2.69 2.09,1.41 4.94,0.87 6.67,2.57 2.28,2.24 5.11,2.49 7.91,3.06 0,0 -0.01,-0.05 -0.01,-0.05 0.24,1.2 -1.39,1.96 -0.85,3.34 2.66,-0.11 4.68,1.29 6.86,2.43 4.27,2.24 8.33,5.01 13.22,5.85 0.6,-0.01 1.13,0.11 1.41,0.72 0.3,2.6 2.28,2.54 4.16,2.62 0,0 -0.04,-0.04 -0.04,-0.04 0.42,3 2.66,3.24 5.01,3.3 0,0 -0.05,-0.02 -0.05,-0.02 0.31,0.8 0.98,0.9 1.71,0.86 0,0 -0.06,-0.03 -0.06,-0.03 0.33,0.81 1.02,0.91 1.78,0.89 0.25,0.14 0.5,0.29 0.75,0.43 0.11,2.81 2.12,2.84 4.15,2.86 0,0 -0.03,-0.05 -0.03,-0.05 0.15,1.8 0.88,2.29 2.37,1.04 2.35,1.29 4.71,2.59 7.07,3.88 1.07,0.58 2.36,0.97 2.1,2.62 -1.72,0.44 -3.36,0.98 -4.94,1.92 -4.78,2.84 -9.67,5.52 -14.53,8.23 -5.23,2.91 -10.45,5.84 -15.74,8.66 -2.75,1.47 -5.26,3.59 -8.64,3.54 -1.43,-0.77 -2.97,-1.38 -4.26,-2.32 -10.32,-7.54 -21.72,-13.37 -33.07,-18.95 -10.87,-5.35 -21.32,-11.5 -32.25,-16.73 -1.99,-0.95 -4.97,-1.26 -5.67,-4.22 0.76,-0.56 1.52,-1.12 2.29,-1.68 0.76,0.03 1.48,-0.01 1.84,-0.85 0,0 -0.06,0.01 -0.06,0.01 6.34,-0.47 10.3,-5.58 15.6,-8.1 0.91,-0.43 2.88,-0.71 2.61,-2.67 0,0 0,0.04 0,0.04 1.89,-0.01 3.79,0 4.14,-2.54 0,0 -0.02,0.09 -0.02,0.09 0.27,-0.25 0.56,-0.5 0.86,-0.75 z"
   id="path62"
   inkscape:connector-curvature="0"
   style="fill:#f6cb5f" />
				<path
   class="st15"
   d="m 549.57,381.05 c 11.2,4.46 20.95,11.46 31.2,17.6 4.9,2.93 9.91,5.69 14.91,8.44 1.09,0.6 2.35,0.82 3.39,-0.31 0.26,-0.05 0.52,-0.13 0.78,-0.21 0.3,-0.25 0.6,-0.51 0.89,-0.76 0.52,-0.21 1.04,-0.43 1.56,-0.64 0.07,1.35 1.24,2.03 1.86,3.04 1.58,2.63 2.89,3.57 5.37,0.56 1.63,-1.99 4.4,-2.52 7.12,-1.78 -0.79,0.53 -1.55,1.09 -2.36,1.57 -5.05,2.96 -6.09,5.82 -4.62,11.53 0.87,3.39 2.43,6.35 4.42,9.14 4.04,5.64 8.82,6.9 14.97,4 1.83,-0.86 3.68,-1.7 5.52,-2.54 0.92,1.03 2.1,0.61 3.21,0.58 0.81,0.02 2.08,0.36 2.35,-0.01 2.2,-3.06 5.97,-3.5 8.76,-5.5 1.14,-0.82 2.94,-1.11 2.99,-3.04 0.29,-0.11 0.59,-0.22 0.88,-0.33 0.66,-0.08 1.34,-0.13 1.64,-0.89 0,0 -0.06,0.06 -0.06,0.06 0.27,-0.21 0.54,-0.43 0.81,-0.64 0.19,-0.19 0.42,-0.26 0.69,-0.21 0.34,-0.25 0.69,-0.5 1.03,-0.75 l 0.16,-0.16 0.22,0.08 c 1.99,-0.01 4.05,0.11 4.55,-2.56 l -0.01,0.07 c 0.97,0.07 1.97,0.23 2.54,-0.86 l -0.15,-0.01 c 4.21,-0.35 6.79,-4.35 10.92,-4.87 0.83,3.81 -0.89,6.26 -4.06,8.15 -9.09,5.43 -18.09,11.01 -27.21,16.38 -2.59,1.52 -5.5,2.49 -8.23,3.78 -4.34,2.06 -8.39,1.32 -12.67,-0.54 -11.52,-5.01 -21.96,-11.92 -32.7,-18.3 -16.07,-9.56 -32.09,-19.2 -48.08,-28.9 -2.8,-1.7 -5.32,-3.85 -7.97,-5.8 0.15,-0.17 0.3,-0.34 0.44,-0.51 5.37,1.81 9.96,0.16 14.4,-2.95 1.05,-0.75 0.47,-1.26 0.54,-1.91 z"
   id="path64"
   inkscape:connector-curvature="0"
   style="fill:#aaacab" />
				<path
   class="st16"
   d="m 599.84,406.57 c -0.25,0.09 -0.51,0.16 -0.78,0.21 -0.02,-19.24 -0.03,-38.48 -0.05,-57.72 0,-1.78 0.22,-3.59 -0.85,-5.19 0.67,-0.35 0.83,-0.96 0.85,-1.65 3.38,0.05 5.89,-2.08 8.64,-3.54 5.28,-2.82 10.5,-5.75 15.74,-8.66 4.86,-2.71 9.75,-5.39 14.53,-8.23 1.57,-0.94 3.21,-1.48 4.94,-1.92 1.41,6.65 0.63,13.39 0.74,20.08 0.02,1.49 -0.55,3.86 -3.32,2.39 -1.15,-0.61 -2.11,0.19 -3.03,0.73 -9.45,5.53 -18.9,11.08 -28.34,16.62 -0.25,0.19 -0.5,0.38 -0.75,0.57 0,0 -0.17,0.09 -0.16,0.09 -0.34,0.18 -0.67,0.36 -1.01,0.53 -0.25,0.02 -0.45,0.12 -0.62,0.3 -0.62,0.03 -1.12,0.23 -1.33,0.87 0,0 -0.24,0.12 -0.24,0.12 -2.41,0.41 -1.46,2.36 -1.48,3.63 -0.1,10.3 0,20.6 -0.12,30.91 -0.03,2.55 0.61,5.22 -0.74,7.66 -0.05,-3.27 -0.06,-6.55 -0.16,-9.82 -0.07,-2.4 -0.96,-0.4 -1.5,-0.24 -2.11,3.96 -0.4,8.2 -0.96,12.26 z"
   id="path66"
   inkscape:connector-curvature="0"
   style="fill:#f5b541" />
				<path
   class="st17"
   d="m 602.45,404.38 c 1.36,-2.44 0.72,-5.11 0.74,-7.66 0.12,-10.3 0.02,-20.6 0.12,-30.91 0.01,-1.27 -0.93,-3.22 1.48,-3.63 0.29,3.07 1.98,4.58 4.9,5.75 5.29,2.12 10.25,5.04 15.02,8.2 3.52,6.61 5.8,13.82 9.8,20.2 -0.08,0.14 -0.08,0.28 0.02,0.41 0.13,1.12 0.51,2.08 1.64,2.55 l -0.02,-0.03 c -0.09,1.43 0.25,2.65 1.67,3.33 0,0 -0.01,-0.01 -0.01,-0.01 -0.21,1.7 -0.01,3.22 1.7,4.13 0.01,5.56 -0.65,11.22 0.26,16.62 0.57,3.38 0.83,5.79 -1.99,7.92 -1.11,0.03 -2.29,0.45 -3.21,-0.58 1.9,-2.36 -1.77,-2.32 -1.76,-4.21 0.02,-4.51 -2.31,-8.36 -4.91,-11.83 -2.81,-3.77 -6.02,-7.3 -11.26,-7.65 -2.71,-0.74 -5.49,-0.2 -7.12,1.78 -2.47,3.01 -3.78,2.06 -5.37,-0.56 -0.61,-1.02 -1.78,-1.69 -1.85,-3.04 0.1,-0.24 0.15,-0.51 0.15,-0.78 z m 10.49,-14.06 c -0.24,1.38 0.92,1.41 1.72,1.79 1.11,0.74 2.4,1.04 3.55,1.83 4.38,2.99 8.95,5.69 13.5,8.44 0.62,0.37 1.37,1.08 2.21,0.37 0.79,-0.67 0.51,-1.42 0.12,-2.2 -3.39,-6.81 -6.76,-13.62 -10.13,-20.43 -0.49,-1.75 -1.56,-2.9 -3.37,-3.3 -4.57,-2.73 -9.17,-5.42 -13.71,-8.19 -2.05,-1.25 -1.99,0.15 -2,1.46 -0.03,4.94 -0.29,9.9 0.08,14.82 0.23,3.08 2.29,5.11 5.71,5.17 0.79,0.06 1.58,0.13 2.37,0.19 z"
   id="path68"
   inkscape:connector-curvature="0"
   style="fill:#dcdcda" />
				<path
   class="st18"
   d="m 634.53,396.75 c -0.1,-0.13 -0.1,-0.27 -0.02,-0.41 1.9,-8.87 4.04,-17.7 4.2,-26.84 0.71,-0.42 0.8,-1.1 0.79,-1.83 5.13,-3.17 10.1,-6.63 15.78,-8.84 1.03,1.61 0.95,3.43 0.7,5.17 -0.4,2.81 -1.11,5.58 -1.55,8.39 -1.42,9.23 -2.77,18.47 -4.15,27.71 -1.95,2.36 -4.52,3.81 -7.29,4.97 -2.47,0.72 -3.52,-1.51 -5.18,-2.48 0,0 0.01,0.01 0.01,0.01 0.16,-1.47 -0.06,-2.75 -1.67,-3.33 0,0 0.02,0.03 0.02,0.03 0.11,-1.27 0.07,-2.45 -1.64,-2.55 z"
   id="path70"
   inkscape:connector-curvature="0"
   style="fill:#9fa09f" />
				<path
   class="st19"
   d="m 642.99,405.06 c 2.77,-1.15 5.34,-2.61 7.29,-4.97 2.07,-0.48 3.7,-1.62 4.95,-3.33 3.48,-0.43 5.95,-2.58 8.33,-4.88 5.09,-0.84 8.55,-4.84 13.09,-6.74 0.03,7.22 -0.01,14.43 0.14,21.64 0.04,1.93 -0.65,3.4 -1.69,4.86 -4.13,0.53 -6.71,4.52 -10.92,4.87 2.24,-2.3 3.6,-4.79 1.91,-8.17 -4.19,2.35 -8.08,4.65 -12.08,6.72 -3.59,1.86 -3.72,4.47 -2.12,7.66 -0.05,1.93 -1.84,2.22 -2.99,3.04 -2.79,2 -6.56,2.43 -8.76,5.5 -0.27,0.37 -1.54,0.03 -2.35,0.01 2.82,-2.13 2.55,-4.54 1.99,-7.92 -0.91,-5.4 -0.25,-11.07 -0.26,-16.62 1.38,-0.09 2.52,-0.67 3.47,-1.67 z m 26.3,-9.93 c -2.92,1.96 -1.81,4.93 -1.3,7.31 0.33,1.53 1.54,0.12 2.13,-0.7 1.19,-0.03 2.01,-0.6 2.46,-1.69 4.62,-1.56 1.69,-4.96 2.38,-7.78 -1.87,0.46 -3.13,0.89 -4.02,2.03 -0.67,0.03 -1.31,0.13 -1.65,0.83 z m -18.46,18.82 c 3.15,-1.77 6.18,-3.87 9.51,-5.24 5.3,-2.17 6.56,-5.93 5.21,-11.02 -3.33,0.46 -5.98,2.84 -9.11,3.99 -5.82,2.15 -7.49,6.04 -5.61,12.27 z m -2.37,-6.04 c -1.84,0.65 -3.27,1.11 -4.67,1.65 -2.73,1.06 -1.57,3.46 -1.75,5.36 -0.06,0.67 -0.41,1.85 0.89,1.82 1.66,-0.03 3.19,-0.39 4.44,-1.75 1.9,-2.04 1.19,-4.33 1.09,-7.08 z m 21.05,2.8 c 1.73,-1.07 4.09,-1.57 4.65,-3.94 0.22,-0.94 -0.66,-1.94 -1.79,-1.65 -2.14,0.56 -3.98,1.71 -4.49,4.04 -0.19,0.82 0.64,1.4 1.63,1.55 z m -24.28,13.3 c 0.77,-0.67 2.91,-0.5 3.23,-2.8 0.19,-1.39 -0.51,-2.15 -1.87,-1.95 -1.85,0.26 -3.39,1.09 -3.74,3.16 -0.21,1.23 0.49,1.73 2.38,1.59 z"
   id="path72"
   inkscape:connector-curvature="0"
   style="fill:#c6c9cc" />
				<path
   class="st20"
   d="m 676.64,385.14 c -4.54,1.91 -8,5.91 -13.09,6.74 -1.61,-2.13 -0.79,-4.41 -0.48,-6.69 1,-7.44 1.94,-14.88 2.91,-22.33 0.14,-0.11 0.27,-0.22 0.41,-0.33 3.33,5.68 5.58,11.93 9.19,17.47 0.97,1.48 1.56,3.25 1.06,5.14 z"
   id="path74"
   inkscape:connector-curvature="0"
   style="fill:#8d8d8d" />
				<path
   class="st21"
   d="m 599.01,342.22 c -0.01,0.69 -0.18,1.3 -0.85,1.65 -8,-5.43 -16.91,-9.26 -25.16,-14.32 -7.04,-4.32 -14.29,-8.53 -22.11,-11.63 -5.89,-2.33 -11.28,-5.92 -16.93,-8.87 -4.1,-2.14 -7.92,-4.95 -12.65,-5.69 0,-0.74 0.01,-1.49 0.01,-2.23 0.59,-0.86 1.46,-1.13 2.44,-1.14 0.7,2.96 3.67,3.27 5.67,4.22 10.93,5.23 21.37,11.38 32.25,16.73 11.36,5.59 22.75,11.41 33.07,18.95 1.3,0.95 2.84,1.57 4.26,2.33 z"
   id="path76"
   inkscape:connector-curvature="0"
   style="fill:#fbb843" />
				<path
   class="st20"
   d="m 638.71,369.49 c -0.16,9.14 -2.3,17.97 -4.2,26.84 -4,-6.38 -6.29,-13.59 -9.8,-20.2 1.59,-0.85 3.18,-1.7 4.77,-2.55 0.31,-0.24 0.62,-0.48 0.93,-0.72 0.21,-0.12 0.43,-0.16 0.67,-0.12 0.33,-0.24 0.66,-0.47 0.99,-0.71 0.21,-0.12 0.44,-0.17 0.68,-0.13 2.46,0.4 4.09,-1.3 5.96,-2.41 z"
   id="path78"
   inkscape:connector-curvature="0"
   style="fill:#8d8d8d" />
				<path
   class="st20"
   d="m 655.22,396.76 c -1.24,1.71 -2.87,2.85 -4.95,3.33 1.38,-9.24 2.73,-18.48 4.15,-27.71 0.43,-2.81 1.15,-5.58 1.55,-8.39 0.25,-1.74 0.33,-3.56 -0.7,-5.17 0.59,-0.29 1.27,-0.47 1.75,-0.9 5.24,-4.65 6.3,-4.36 8.25,2.36 l -0.12,0.11 c -0.82,0 -1.73,0.11 -2.23,-0.72 -0.53,-0.87 -0.51,-2.53 -2,-2.07 -1.3,0.41 -0.58,1.92 -0.76,2.94 -1.34,7.67 -3,15.3 -3.83,23.02 -0.46,4.37 -1.96,8.71 -1.11,13.2 z"
   id="path80"
   inkscape:connector-curvature="0"
   style="fill:#8d8d8d" />
				<path
   class="st16"
   d="m 519.72,309.15 c 2.29,0.47 1.53,2.32 1.54,3.67 0.07,7.69 0.34,15.4 -0.05,23.08 -0.34,6.69 1.09,13.26 0.33,20.02 -0.52,4.68 3.62,7.61 7.19,10.29 1.11,0.83 3.43,0.99 2.51,3.4 -0.54,0.03 -1.08,0.06 -1.63,0.09 -1.33,-0.92 -2.67,-1.83 -4,-2.75 -0.24,-0.66 -0.76,-0.89 -1.41,-0.91 -6.14,-3.32 -4.68,-8.97 -4.62,-14.36 0.15,-12.8 0.05,-25.6 0.05,-38.4 0.02,-1.38 0.07,-2.75 0.09,-4.13 z"
   id="path82"
   inkscape:connector-curvature="0"
   style="fill:#f5b541" />
				<path
   class="st15"
   d="m 524.22,366.04 c 0.65,0.03 1.17,0.25 1.4,0.91 -0.57,8.02 3.54,13.81 9,18.96 -0.14,0.17 -0.29,0.34 -0.44,0.51 -7.62,-3.73 -11.22,-11.08 -9.96,-20.38 z"
   id="path84"
   inkscape:connector-curvature="0"
   style="fill:#aaacab" />
				<path
   class="st22"
   d="m 612.53,300.8 c -4.9,-0.84 -8.95,-3.61 -13.22,-5.85 -2.17,-1.14 -4.2,-2.54 -6.86,-2.43 -0.54,-1.37 1.09,-2.13 0.85,-3.34 6.42,3.87 12.82,7.74 19.23,11.62 z"
   id="path86"
   inkscape:connector-curvature="0"
   style="fill:#f7c943" />
				<path
   class="st22"
   d="m 593.32,289.23 c -2.8,-0.58 -5.64,-0.83 -7.91,-3.06 -1.73,-1.71 -4.58,-1.16 -6.67,-2.57 -1.1,-0.75 -2.06,-1.23 -1.97,-2.69 5.87,2.06 11.72,4.19 16.55,8.32 z"
   id="path88"
   inkscape:connector-curvature="0"
   style="fill:#f7c943" />
				<path
   class="st22"
   d="m 546.03,286.71 c 0.28,1.96 -1.7,2.24 -2.61,2.67 -5.3,2.52 -9.26,7.63 -15.6,8.1 5.47,-4.61 11.94,-7.53 18.21,-10.77 z"
   id="path90"
   inkscape:connector-curvature="0"
   style="fill:#f7c943" />
				<path
   class="st22"
   d="m 561.74,277.59 c -2.11,4.15 -5.82,5.52 -10.14,5.84 3.11,-2.42 6.53,-4.28 10.14,-5.84 z"
   id="path92"
   inkscape:connector-curvature="0"
   style="fill:#f7c943" />
				<path
   class="st22"
   d="m 576.82,280.95 c -3.02,0.25 -4.47,-1.84 -5.88,-3.97 2.28,0.84 5,1.04 5.88,3.97 z"
   id="path94"
   inkscape:connector-curvature="0"
   style="fill:#f7c943" />
				<path
   class="st23"
   d="m 638.71,369.49 c -1.87,1.1 -3.5,2.81 -5.98,2.42 1.86,-2.04 4.45,-2.93 6.77,-4.25 0.01,0.73 -0.08,1.41 -0.79,1.83 z"
   id="path96"
   inkscape:connector-curvature="0"
   style="fill:#797c7c" />
				<path
   class="st22"
   d="m 623.07,307.4 c -2.35,-0.06 -4.59,-0.3 -5.01,-3.3 1.86,0.81 3.74,1.59 5.01,3.3 z"
   id="path98"
   inkscape:connector-curvature="0"
   style="fill:#f7c943" />
				<path
   class="st16"
   d="m 521.32,301.13 c 0,0.74 -0.01,1.49 -0.01,2.23 -0.53,1.36 -1.06,2.72 -1.59,4.08 0.54,-2.1 -1.64,-4.89 1.6,-6.31 z"
   id="path100"
   inkscape:connector-curvature="0"
   style="fill:#f5b541" />
				<path
   class="st22"
   d="m 550.17,284.22 c -0.35,2.53 -2.25,2.53 -4.14,2.54 1.03,-1.43 2.6,-1.97 4.14,-2.54 z"
   id="path102"
   inkscape:connector-curvature="0"
   style="fill:#f7c943" />
				<path
   class="st22"
   d="m 618.1,304.14 c -1.88,-0.08 -3.86,-0.02 -4.16,-2.62 1.52,0.66 3.06,1.29 4.16,2.62 z"
   id="path104"
   inkscape:connector-curvature="0"
   style="fill:#f7c943" />
				<path
   class="st22"
   d="m 631.35,312.38 c -2.03,-0.02 -4.04,-0.05 -4.15,-2.86 1.49,0.79 3.23,1.23 4.15,2.86 z"
   id="path106"
   inkscape:connector-curvature="0"
   style="fill:#f7c943" />
				<path
   class="st22"
   d="m 633.69,313.38 c -1.49,1.24 -2.22,0.76 -2.37,-1.04 0.79,0.34 1.58,0.69 2.37,1.04 z"
   id="path108"
   inkscape:connector-curvature="0"
   style="fill:#f7c943" />
				<path
   class="st22"
   d="m 563.97,276.69 c -0.58,0.72 -1.29,1.14 -2.26,0.96 0.48,-0.96 1.26,-1.23 2.26,-0.96 z"
   id="path110"
   inkscape:connector-curvature="0"
   style="fill:#f7c943" />
				<path
   class="st20"
   d="m 665.28,360.28 c 0.97,0.46 0.65,1.55 1.11,2.26 -0.14,0.11 -0.27,0.22 -0.41,0.33 -1,-0.58 -0.84,-1.56 -0.83,-2.48 z"
   id="path112"
   inkscape:connector-curvature="0"
   style="fill:#8d8d8d" />
				<path
   class="st22"
   d="m 626.45,309.09 c -0.75,0.02 -1.44,-0.08 -1.78,-0.89 0.8,-0.11 1.36,0.24 1.78,0.89 z"
   id="path114"
   inkscape:connector-curvature="0"
   style="fill:#f7c943" />
				<path
   class="st22"
   d="m 624.73,308.24 c -0.73,0.04 -1.4,-0.06 -1.71,-0.86 0.79,-0.15 1.39,0.08 1.71,0.86 z"
   id="path116"
   inkscape:connector-curvature="0"
   style="fill:#f7c943" />
				<path
   class="st17"
   d="m 605.02,362.06 c 0.21,-0.65 0.72,-0.85 1.33,-0.87 -0.19,0.68 -0.71,0.86 -1.33,0.87 z"
   id="path118"
   inkscape:connector-curvature="0"
   style="fill:#dcdcda" />
				<path
   class="st22"
   d="m 527.89,297.47 c -0.36,0.83 -1.08,0.88 -1.84,0.85 0.46,-0.63 1.04,-0.99 1.84,-0.85 z"
   id="path120"
   inkscape:connector-curvature="0"
   style="fill:#f7c943" />
				<path
   class="st23"
   d="m 630.4,372.87 c -0.31,0.24 -0.62,0.48 -0.93,0.72 0.31,-0.24 0.62,-0.48 0.93,-0.72 z"
   id="path122"
   inkscape:connector-curvature="0"
   style="fill:#797c7c" />
				<path
   class="st22"
   d="m 551.04,283.56 c -0.29,0.25 -0.59,0.49 -0.88,0.74 0.29,-0.24 0.58,-0.49 0.88,-0.74 z"
   id="path124"
   inkscape:connector-curvature="0"
   style="fill:#f7c943" />
				<path
   class="st23"
   d="m 632.06,372.04 c -0.33,0.24 -0.66,0.47 -0.99,0.71 0.33,-0.23 0.66,-0.47 0.99,-0.71 z"
   id="path126"
   inkscape:connector-curvature="0"
   style="fill:#797c7c" />
				<path
   class="st17"
   d="m 606.97,360.89 c 0.34,-0.18 0.67,-0.36 1.01,-0.53 -0.17,0.48 -0.51,0.65 -1.01,0.53 z"
   id="path128"
   inkscape:connector-curvature="0"
   style="fill:#dcdcda" />
				<path
   class="st17"
   d="m 608.15,360.26 c 0.25,-0.19 0.5,-0.38 0.75,-0.57 -0.26,0.2 -0.51,0.39 -0.75,0.57 z"
   id="path130"
   inkscape:connector-curvature="0"
   style="fill:#dcdcda" />
				<path
   class="st24"
   d="m 534.62,385.91 c -5.47,-5.15 -9.57,-10.94 -9,-18.96 1.33,0.92 2.67,1.83 4,2.75 -0.04,0.86 -0.24,1.76 0.65,2.37 0.11,0.45 0.22,0.9 0.33,1.35 -0.06,0.71 -0.13,1.42 0.54,1.92 0.29,0.26 0.57,0.53 0.86,0.79 l 0.02,0.02 c 0.16,0.3 0.26,0.8 0.48,0.86 0.64,0.17 0.74,-0.38 0.82,-0.86 l 0.01,0.1 c 1.39,0.21 0.97,2.67 2.84,2.3 2.27,0.33 0.97,3.03 3.52,4.74 -2.4,-3.87 0.95,-4.15 1.77,-5.84 3.26,-0.04 5.92,1.25 8.11,3.61 -0.07,0.65 0.51,1.16 -0.55,1.91 -4.43,3.1 -9.02,4.74 -14.4,2.94 z m -1.33,-8.06 -0.14,0.3 0.26,0.01 z"
   id="path132"
   inkscape:connector-curvature="0"
   style="fill:#3e3f40" />
				<path
   class="st17"
   d="m 536.18,378.54 c -1.87,0.37 -1.45,-2.08 -2.84,-2.3 0.63,-1.73 -0.32,-2.99 -1.28,-4.24 0.1,-0.19 0.15,-0.4 0.17,-0.62 2.32,1.02 5.13,1.25 6.45,3.92 0.45,2.09 -1.26,2.48 -2.5,3.24 z"
   id="path134"
   inkscape:connector-curvature="0"
   style="fill:#dcdcda" />
				<path
   class="st15"
   d="m 536.18,378.54 c 1.24,-0.76 2.96,-1.15 2.5,-3.23 1.46,0.02 2.2,0.97 2.78,2.13 -0.82,1.69 -4.17,1.97 -1.77,5.84 -2.55,-1.71 -1.24,-4.41 -3.51,-4.74 z"
   id="path136"
   inkscape:connector-curvature="0"
   style="fill:#aaacab" />
				<path
   class="st18"
   d="m 532.23,371.39 c -0.02,0.22 -0.08,0.42 -0.17,0.62 l 0.04,-0.05 c -0.61,0.04 -1.22,0.07 -1.83,0.11 -0.89,-0.61 -0.68,-1.51 -0.65,-2.37 0.54,-0.03 1.08,-0.06 1.63,-0.09 0.33,0.59 0.65,1.19 0.98,1.78 z"
   id="path138"
   inkscape:connector-curvature="0"
   style="fill:#9fa09f" />
				<path
   class="st24"
   d="m 616.64,406.99 c 5.24,0.35 8.45,3.88 11.26,7.65 2.59,3.47 4.93,7.32 4.91,11.83 -0.01,1.89 3.66,1.85 1.76,4.21 -1.84,0.85 -3.69,1.68 -5.52,2.54 -6.16,2.9 -10.93,1.64 -14.97,-4 -2,-2.79 -3.55,-5.75 -4.42,-9.14 -1.47,-5.71 -0.43,-8.57 4.62,-11.53 0.81,-0.47 1.57,-1.03 2.36,-1.56 z m 0.94,7.13 c -0.52,-0.88 -1.38,-1.13 -1.85,-0.25 -0.75,1.39 0.7,1.72 1.52,2.3 0,0 -0.05,0.4 -0.05,0.4 -0.07,0.4 -0.08,0.82 -0.21,1.2 -2.23,6.77 -1.26,8.91 4.54,10.09 0.24,0.05 0.43,0.33 0.64,0.5 0.15,0.62 0.28,1.24 0.48,1.85 0.02,0.05 0.56,0.07 0.66,-0.05 0.66,-0.84 -0.25,-1.42 -0.4,-2.14 0.64,-0.84 3.2,0.74 2.44,-1.66 -1.15,-3.62 -1.99,-7.51 -5.58,-9.78 0.13,-1.42 0.08,-2.7 -1.92,-2.47 z"
   id="path140"
   inkscape:connector-curvature="0"
   style="fill:#3e3f40" />
				<path
   class="st25"
   d="m 651.88,422.72 c -1.6,-3.19 -1.47,-5.8 2.12,-7.66 4,-2.07 7.89,-4.37 12.08,-6.72 1.69,3.38 0.33,5.86 -1.91,8.17 0,0 0.15,0.01 0.15,0.01 -1.22,-0.83 -1.88,0.04 -2.54,0.86 0,0 0.01,-0.07 0.01,-0.07 -1.79,0.36 -3.19,1.42 -4.55,2.56 l -0.22,-0.08 c 0,0 -0.16,0.16 -0.16,0.16 -0.34,0.25 -0.69,0.5 -1.03,0.75 -0.27,-0.05 -0.49,0.03 -0.69,0.21 -0.27,0.21 -0.54,0.43 -0.81,0.64 0,0 0.06,-0.06 0.06,-0.06 -0.55,0.3 -1.09,0.6 -1.64,0.89 -0.28,0.12 -0.57,0.23 -0.87,0.34 z"
   id="path142"
   inkscape:connector-curvature="0"
   style="fill:#434344" />
				<path
   class="st26"
   d="m 602.45,404.38 c 0.01,0.27 -0.04,0.54 -0.15,0.79 -0.52,0.21 -1.04,0.43 -1.56,0.64 0.01,-3.83 0.03,-7.66 0.04,-11.49 0.54,-0.16 1.43,-2.16 1.5,0.24 0.1,3.27 0.12,6.55 0.17,9.82 z"
   id="path144"
   inkscape:connector-curvature="0"
   style="fill:#fd9f1a" />
				<path
   class="st21"
   d="m 600.78,394.32 c -0.01,3.83 -0.03,7.66 -0.04,11.49 -0.3,0.25 -0.59,0.51 -0.89,0.76 0.55,-4.06 -1.16,-8.3 0.93,-12.25 z"
   id="path146"
   inkscape:connector-curvature="0"
   style="fill:#fbb843" />
				<path
   class="st19"
   d="m 657.24,419.87 c 1.36,-1.14 2.76,-2.19 4.55,-2.56 -0.5,2.67 -2.56,2.56 -4.55,2.56 z"
   id="path148"
   inkscape:connector-curvature="0"
   style="fill:#c6c9cc" />
				<path
   class="st19"
   d="m 661.78,417.39 c 0.66,-0.83 1.31,-1.69 2.54,-0.86 -0.57,1.08 -1.57,0.92 -2.54,0.86 z"
   id="path150"
   inkscape:connector-curvature="0"
   style="fill:#c6c9cc" />
				<path
   class="st19"
   d="m 652.76,422.39 c 0.55,-0.3 1.09,-0.6 1.64,-0.89 -0.29,0.76 -0.97,0.81 -1.64,0.89 z"
   id="path152"
   inkscape:connector-curvature="0"
   style="fill:#c6c9cc" />
				<path
   class="st19"
   d="m 655.83,420.7 c 0.34,-0.25 0.69,-0.5 1.03,-0.75 -0.34,0.26 -0.68,0.51 -1.03,0.75 z"
   id="path154"
   inkscape:connector-curvature="0"
   style="fill:#c6c9cc" />
				<path
   class="st19"
   d="m 654.34,421.56 c 0.27,-0.21 0.54,-0.43 0.81,-0.64 -0.27,0.21 -0.54,0.43 -0.81,0.64 z"
   id="path156"
   inkscape:connector-curvature="0"
   style="fill:#c6c9cc" />
				<path
   class="st20"
   d="m 623.91,380.11 c 3.38,6.81 6.74,13.63 10.13,20.43 0.39,0.78 0.68,1.53 -0.12,2.2 -0.84,0.71 -1.59,0 -2.21,-0.37 -4.54,-2.75 -9.12,-5.45 -13.5,-8.44 -1.16,-0.79 -2.44,-1.09 -3.55,-1.83 -0.16,-0.99 0.81,-3.07 -1.72,-1.79 0,0 0.04,-0.06 0.04,-0.06 -0.39,-3.74 -0.78,-7.48 -1.17,-11.23 -0.98,3.73 -2.93,7.28 -1.2,11.04 -3.42,-0.06 -5.48,-2.09 -5.71,-5.17 -0.37,-4.91 -0.1,-9.87 -0.08,-14.82 0.01,-1.31 -0.05,-2.71 2,-1.46 4.54,2.78 9.14,5.47 13.71,8.19 -0.25,2.28 -0.51,4.56 -0.76,6.84 v -0.12 c -1.44,2.16 -1.28,4.36 -0.15,6.58 0.26,0.54 0.68,0.83 1.27,0.63 3.16,-1.06 3.81,-3.66 2.07,-8.22 0.32,-0.78 0.63,-1.59 0.95,-2.4 z"
   id="path158"
   inkscape:connector-curvature="0"
   style="fill:#8d8d8d" />
				<path
   class="st23"
   d="m 610.61,390.07 c -1.73,-3.76 0.22,-7.31 1.2,-11.04 0.39,3.74 0.78,7.48 1.17,11.23 -0.79,-0.07 -1.58,-0.13 -2.37,-0.19 z"
   id="path160"
   inkscape:connector-curvature="0"
   style="fill:#797c7c" />
				<path
   class="st23"
   d="m 623.91,380.11 c -0.31,0.81 -0.62,1.62 -0.94,2.43 -1.07,0.37 -2.13,0.74 -3.2,1.11 0.25,-2.28 0.51,-4.56 0.76,-6.84 1.81,0.4 2.89,1.55 3.38,3.3 z"
   id="path162"
   inkscape:connector-curvature="0"
   style="fill:#797c7c" />
				<path
   class="st20"
   d="m 642.99,405.06 c -0.95,1 -2.09,1.58 -3.48,1.65 -1.7,-0.91 -1.91,-2.44 -1.7,-4.13 1.66,0.97 2.71,3.21 5.18,2.48 z"
   id="path164"
   inkscape:connector-curvature="0"
   style="fill:#8d8d8d" />
				<path
   class="st20"
   d="m 636.15,399.27 c 1.62,0.58 1.84,1.86 1.67,3.33 -1.42,-0.68 -1.76,-1.9 -1.67,-3.33 z"
   id="path166"
   inkscape:connector-curvature="0"
   style="fill:#8d8d8d" />
				<path
   class="st20"
   d="m 634.53,396.75 c 1.72,0.1 1.75,1.28 1.64,2.55 -1.14,-0.47 -1.51,-1.43 -1.64,-2.55 z"
   id="path168"
   inkscape:connector-curvature="0"
   style="fill:#8d8d8d" />
				<path
   class="st23"
   d="m 612.94,390.32 c 2.52,-1.28 1.56,0.79 1.72,1.79 -0.8,-0.38 -1.96,-0.41 -1.72,-1.79 z"
   id="path170"
   inkscape:connector-curvature="0"
   style="fill:#797c7c" />
				<path
   class="st18"
   d="m 665.16,360.39 c -0.02,0.92 -0.18,1.9 0.83,2.48 -0.97,7.44 -1.91,14.89 -2.91,22.33 -0.3,2.28 -1.13,4.56 0.48,6.69 -2.38,2.3 -4.86,4.45 -8.33,4.88 -0.85,-4.49 0.64,-8.83 1.12,-13.2 0.83,-7.72 2.49,-15.36 3.83,-23.02 0.18,-1.01 -0.53,-2.53 0.76,-2.94 1.48,-0.47 1.47,1.2 2,2.07 0.49,0.82 1.39,0.7 2.22,0.71 z"
   id="path172"
   inkscape:connector-curvature="0"
   style="fill:#9fa09f" />
				<path
   class="st25"
   d="m 650.83,413.95 c -1.87,-6.23 -0.2,-10.12 5.62,-12.27 3.13,-1.16 5.78,-3.53 9.11,-3.99 1.35,5.1 0.09,8.85 -5.21,11.02 -3.34,1.36 -6.37,3.47 -9.52,5.24 z"
   id="path174"
   inkscape:connector-curvature="0"
   style="fill:#434344" />
				<path
   class="st27"
   d="m 648.46,407.91 c 0.1,2.74 0.81,5.04 -1.07,7.09 -1.25,1.36 -2.79,1.72 -4.44,1.75 -1.3,0.03 -0.96,-1.15 -0.89,-1.82 0.18,-1.9 -0.99,-4.3 1.75,-5.36 1.38,-0.54 2.81,-1.01 4.65,-1.66 z"
   id="path176"
   inkscape:connector-curvature="0"
   style="fill:#f0f3f3" />
				<path
   class="st12"
   d="m 672.58,400.04 c -0.46,1.09 -1.27,1.66 -2.47,1.69 -1.27,-2.08 -0.7,-4.39 -0.82,-6.61 0.34,-0.7 0.98,-0.8 1.65,-0.83 2.92,1.25 3.62,3.12 1.64,5.75 z"
   id="path178"
   inkscape:connector-curvature="0"
   style="fill:#fefefe" />
				<path
   class="st26"
   d="m 669.51,410.71 c -0.99,-0.15 -1.82,-0.73 -1.64,-1.55 0.52,-2.32 2.36,-3.48 4.49,-4.04 1.13,-0.29 2.02,0.71 1.79,1.65 -0.55,2.37 -2.91,2.87 -4.64,3.94 z"
   id="path180"
   inkscape:connector-curvature="0"
   style="fill:#fd9f1a" />
				<path
   class="st26"
   d="m 645.23,424.01 c -1.89,0.14 -2.59,-0.36 -2.38,-1.59 0.35,-2.06 1.9,-2.89 3.74,-3.16 1.35,-0.19 2.06,0.56 1.87,1.95 -0.31,2.29 -2.46,2.13 -3.23,2.8 z"
   id="path182"
   inkscape:connector-curvature="0"
   style="fill:#fd9f1a" />
				<path
   class="st27"
   d="m 672.58,400.04 c 1.98,-2.63 1.28,-4.51 -1.64,-5.75 0.89,-1.14 2.15,-1.57 4.02,-2.03 -0.69,2.82 2.24,6.22 -2.38,7.78 z"
   id="path184"
   inkscape:connector-curvature="0"
   style="fill:#f0f3f3" />
				<path
   class="st27"
   d="m 669.29,395.13 c 0.12,2.22 -0.45,4.53 0.82,6.61 -0.58,0.82 -1.8,2.23 -2.13,0.7 -0.5,-2.38 -1.6,-5.36 1.31,-7.31 z"
   id="path186"
   inkscape:connector-curvature="0"
   style="fill:#f0f3f3" />
				<path
   class="st23"
   d="m 532.05,372.01 c 0.96,1.25 1.91,2.5 1.28,4.24 0,0 -0.01,-0.1 -0.01,-0.1 -0.44,0 -0.87,0 -1.31,0.01 0,0 -0.02,-0.02 -0.02,-0.02 -0.06,-0.36 -0.13,-0.72 -0.19,-1.09 -0.22,0.1 -0.44,0.2 -0.66,0.29 -0.67,-0.5 -0.61,-1.21 -0.54,-1.92 0.5,-0.49 1,-0.97 1.5,-1.46 z"
   id="path188"
   inkscape:connector-curvature="0"
   style="fill:#797c7c" />
				<path
   class="st17"
   d="m 532.1,371.96 c -0.5,0.49 -1,0.97 -1.5,1.46 -0.11,-0.45 -0.22,-0.9 -0.33,-1.35 0.61,-0.04 1.22,-0.08 1.83,-0.11 z"
   id="path190"
   inkscape:connector-curvature="0"
   style="fill:#dcdcda" />
				<path
   class="st15"
   d="m 531.14,375.33 c 0.22,-0.1 0.44,-0.2 0.66,-0.29 0.06,0.36 0.13,0.72 0.19,1.09 -0.28,-0.27 -0.56,-0.53 -0.85,-0.8 z"
   id="path192"
   inkscape:connector-curvature="0"
   style="fill:#aaacab" />
				<path
   class="st15"
   d="m 532.02,376.15 c 0.44,0 0.87,0 1.31,-0.01 -0.09,0.48 -0.19,1.03 -0.82,0.86 -0.23,-0.05 -0.34,-0.55 -0.49,-0.85 z"
   id="path194"
   inkscape:connector-curvature="0"
   style="fill:#aaacab" />
				<polygon
   class="st15"
   points="533.15,378.15 533.29,377.85 533.41,378.17 "
   id="polygon196"
   style="fill:#aaacab" />
				<path
   class="st19"
   d="m 622.16,428.35 c -0.21,-0.17 -0.4,-0.45 -0.64,-0.5 -5.8,-1.17 -6.76,-3.32 -4.54,-10.09 0.13,-0.38 0.14,-0.8 0.21,-1.2 0.54,0 1.07,0 1.61,0 0.32,0 0.64,0 0.96,-0.01 3.59,2.27 4.43,6.16 5.58,9.78 0.76,2.4 -1.8,0.82 -2.44,1.66 -0.26,0.09 -0.51,0.2 -0.74,0.36 z"
   id="path198"
   inkscape:connector-curvature="0"
   style="fill:#c6c9cc" />
				<path
   class="st25"
   d="m 618.8,416.57 c -0.54,0 -1.07,0 -1.61,0 0,0 0.05,-0.4 0.05,-0.4 0.11,-0.68 0.22,-1.36 0.34,-2.04 0,0 0.26,-0.03 0.26,-0.03 0.59,0.71 1.21,1.42 0.96,2.47 z"
   id="path200"
   inkscape:connector-curvature="0"
   style="fill:#434344" />
				<path
   class="st15"
   d="m 617.58,414.12 c -0.11,0.68 -0.22,1.36 -0.34,2.04 -0.82,-0.57 -2.26,-0.9 -1.52,-2.29 0.48,-0.89 1.33,-0.63 1.86,0.25 z"
   id="path202"
   inkscape:connector-curvature="0"
   style="fill:#aaacab" />
				<path
   class="st25"
   d="m 622.16,428.35 c 0.23,-0.15 0.48,-0.27 0.74,-0.35 0.15,0.72 1.06,1.3 0.4,2.14 -0.1,0.12 -0.64,0.11 -0.66,0.05 -0.2,-0.6 -0.33,-1.22 -0.48,-1.84 z"
   id="path204"
   inkscape:connector-curvature="0"
   style="fill:#434344" />
				<path
   class="st15"
   d="m 618.8,416.57 c 0.24,-1.04 -0.37,-1.76 -0.96,-2.48 1.99,-0.23 2.05,1.05 1.92,2.47 -0.32,0 -0.64,0 -0.96,0.01 z"
   id="path206"
   inkscape:connector-curvature="0"
   style="fill:#aaacab" />
				<path
   class="st27"
   d="m 619.77,383.66 c 1.07,-0.37 2.13,-0.74 3.2,-1.11 1.74,4.55 1.09,7.15 -2.07,8.22 -0.59,0.2 -1.01,-0.09 -1.27,-0.63 0.05,-2.19 0.1,-4.39 0.15,-6.58 v 0.1 z"
   id="path208"
   inkscape:connector-curvature="0"
   style="fill:#f0f3f3" />
				<path
   class="st23"
   d="m 619.77,383.54 c -0.05,2.19 -0.1,4.39 -0.15,6.58 -1.13,-2.22 -1.29,-4.42 0.15,-6.58 z"
   id="path210"
   inkscape:connector-curvature="0"
   style="fill:#797c7c" />
			</g>
		</g>
	</g>
	<g
   class="st5"
   clip-path="url(#SVGID_5_)"
   id="g284">
		<defs
   id="defs219">
			<path
   id="SVGID_3_"
   d="m 330.09,585.85 v -4.3 l 0.15,-29.1 c 0,0 -0.03,-1.37 1.13,-1.95 1.16,-0.58 10.23,-6.16 10.23,-6.16 l 0.12,-24.89 v -9.77 c 0,0 0.12,-0.58 1.4,-1.51 1.28,-0.93 24.19,-13.84 24.19,-13.84 0,0 0.35,-0.7 3.02,0.7 2.68,1.4 26.29,15.93 26.29,15.93 0,0 0.47,-0.12 0.58,2.33 0.12,2.44 0.35,12.21 0.35,12.21 l 16.86,11.4 c 0,0 0.71,-0.31 0.76,0.74 0.05,1.05 0.17,32.32 0.17,32.32 0,0 -0.96,0.96 -1.48,1.13 -0.52,0.17 -53.21,30.36 -53.21,30.36 0,0 -0.7,1.13 -2.88,-0.09 -2.18,-1.22 -16.05,-9.25 -16.05,-9.25 z"
   inkscape:connector-curvature="0" />
		</defs>
		<clipPath
   id="SVGID_7_">
			<use
   xlink:href="#SVGID_3_"
   style="overflow:visible"
   id="use221"
   x="0"
   y="0"
   width="100%"
   height="100%" />
		</clipPath>
		<g
   class="st28"
   clip-path="url(#SVGID_7_)"
   id="g282">
			<g
   id="g280">
				<path
   class="st12"
   d="m 318.85,547.55 c 0,-19.27 0.03,-38.54 -0.05,-57.82 -0.01,-1.95 0.44,-2.4 2.39,-2.39 33.3,0.07 66.59,0.07 99.89,0 1.95,0 2.39,0.44 2.39,2.39 -0.07,38.81 -0.07,77.61 0,116.42 0,1.95 -0.44,2.4 -2.39,2.39 -33.3,-0.07 -66.59,-0.07 -99.89,0 -1.95,0 -2.4,-0.44 -2.39,-2.39 0.08,-19.54 0.05,-39.07 0.05,-58.6 z m 96.21,-10.99 0.09,-0.22 -0.15,-0.18 c -5.28,-4.52 -11.47,-7.66 -17.28,-11.36 -0.13,-4.62 -0.26,-9.25 -0.39,-13.87 -0.18,-0.31 -0.29,-0.76 -0.56,-0.92 -9.2,-5.47 -18.42,-10.91 -27.62,-16.39 -0.9,-0.53 -1.63,-0.57 -2.5,-0.04 -3.95,2.4 -7.91,4.78 -11.86,7.17 -0.51,0.26 -1.02,0.53 -1.53,0.79 -1.68,0.9 -3.55,1.57 -5,2.76 -2.17,1.79 -5.68,1.74 -6.79,4.94 0.03,11.46 0.05,22.91 0.08,34.37 -3.17,1.95 -6.31,3.94 -9.52,5.83 -1.3,0.77 -2.23,1.57 -2.22,3.28 0.11,10.22 0.14,20.43 0.2,30.65 -0.44,2.15 1.4,2.58 2.64,3.29 8.3,4.68 16.64,9.29 24.98,13.89 1.07,0.59 2.23,1.57 3.44,0.16 8.54,-4.79 17.07,-9.59 25.61,-14.38 1.1,-0.65 2.21,-1.31 3.31,-1.96 8.26,-4.77 16.52,-9.54 24.78,-14.31 1.45,-1.06 0.81,-2.61 0.82,-3.93 0.06,-7.86 0.08,-15.72 0,-23.57 0,-1.98 0.63,-4.09 -0.53,-6 z"
   id="path224"
   inkscape:connector-curvature="0"
   style="fill:#fefefe" />
				<path
   class="st29"
   d="m 341.56,543.63 c -0.03,-11.46 -0.05,-22.91 -0.08,-34.37 0.63,0.08 1.38,-0.02 1.88,0.28 7.39,4.36 14.75,8.78 22.13,13.17 1.76,1.05 3.47,2.27 5.66,2.21 -0.27,1.39 -0.75,2.78 -0.76,4.18 -0.07,9.1 -0.04,18.2 -0.03,27.31 0,1.02 -0.2,2.11 0.79,2.87 -0.45,1.04 -1.28,1.48 -2.36,1.55 l 0.02,0.01 c -0.02,-1.67 -1.19,-1.63 -2.36,-1.58 l 0.02,0.01 c -0.02,-1.67 -1.19,-1.62 -2.36,-1.58 l 0.01,0.01 c 0.05,-1.1 -0.55,-1.56 -1.58,-1.58 l 0.03,0.02 c -0.29,-0.77 -0.82,-1.3 -1.59,-1.58 l 0.02,0.02 c -2.55,-2.15 -5.75,-3.1 -8.6,-4.7 l 0.02,0.02 c -0.79,-1.05 -1.89,-1.47 -3.15,-1.58 -2.77,-1.24 -4.2,-4.67 -7.71,-4.69 z m 19.07,0.44 c -1.25,3.99 -0.31,6.7 3.71,7.89 1.12,0.33 2.36,1.87 3.35,0.29 0.73,-1.16 0.63,-2.77 -0.29,-4.01 -1.68,-2.29 -4.21,-3.18 -6.77,-4.17 z"
   id="path226"
   inkscape:connector-curvature="0"
   style="fill:#d5ab90" />
				<path
   class="st30"
   d="m 361.09,600.73 c -1.21,1.42 -2.36,0.43 -3.44,-0.16 -8.34,-4.6 -16.68,-9.21 -24.98,-13.89 -1.24,-0.7 -3.08,-1.14 -2.64,-3.28 0.89,-1.15 0.51,-2.5 0.52,-3.76 0.03,-8.3 0.1,-16.59 -0.03,-24.89 -0.04,-2.57 0.69,-3.45 2.99,-2.11 8.66,5.04 17.29,10.15 25.92,15.23 0,9.71 -0.03,19.42 0.02,29.13 0.01,1.4 -0.71,3.29 1.64,3.73 z m -4.01,-7.97 c 0.01,-2.03 -4.73,-6.32 -6.61,-6 -1.01,0.17 -1.02,0.92 -1.18,1.7 -0.84,4.12 2.43,4.82 5,6.13 2.04,1.04 2.88,0.35 2.79,-1.83 z"
   id="path228"
   inkscape:connector-curvature="0"
   style="fill:#d4ab90" />
				<path
   class="st31"
   d="m 371.15,559.27 c -0.99,-0.76 -0.78,-1.85 -0.79,-2.87 -0.01,-9.1 -0.04,-18.2 0.03,-27.31 0.01,-1.39 0.5,-2.78 0.76,-4.18 3.7,-0.88 6.57,-3.16 9.4,-5.52 0.24,0.01 0.49,0.02 0.73,0.04 0,1.55 -0.01,3.09 -0.01,4.64 0,2.18 0.67,2.73 2.81,1.62 3.8,-1.96 3.51,-5.3 3.4,-8.67 2.61,-3.12 6.09,-4.83 9.84,-6.09 0.13,4.62 0.26,9.25 0.39,13.87 0,4.72 0,9.44 0,14.16 -0.01,1.03 -0.02,2.07 -0.03,3.1 0,0.27 0.01,0.53 0.01,0.8 -0.01,0.51 -0.02,1.02 -0.03,1.54 -3.15,2.07 -7.23,2.73 -9.41,6.25 -0.85,0.02 -1.76,-0.12 -2.3,0.8 -4.73,1.3 -8.26,4.74 -12.47,6.97 -0.77,0.28 -1.55,0.57 -2.33,0.85 z"
   id="path230"
   inkscape:connector-curvature="0"
   style="fill:#d2a07c" />
				<path
   class="st32"
   d="m 361.09,600.73 c -2.35,-0.44 -1.63,-2.33 -1.63,-3.73 -0.05,-9.71 -0.02,-19.42 -0.02,-29.13 4.09,-0.89 6.68,-4.76 10.84,-5.5 0.03,1.56 -0.03,3.13 0.11,4.68 0.16,1.75 1.26,1.95 2.38,0.92 2.55,-2.32 4.66,-4.9 3.07,-8.73 3,-2.68 6.8,-4.06 10.12,-6.22 1.27,1.14 0.76,2.65 0.76,4.01 0.03,9.78 -0.01,19.55 -0.02,29.33 -8.54,4.78 -17.07,9.58 -25.61,14.37 z"
   id="path232"
   inkscape:connector-curvature="0"
   style="fill:#d2a17c" />
				<path
   class="st33"
   d="m 414.79,570.08 c -8.26,4.77 -16.52,9.54 -24.78,14.31 -1.39,-1.06 -0.91,-2.59 -0.91,-3.94 -0.03,-9.91 0,-19.83 0.01,-29.75 3.8,-1.02 6.78,-3.56 10.08,-5.49 h 0.05 c 0,1.04 -0.05,2.08 0.01,3.12 0.06,0.99 -0.39,2.2 0.73,2.84 1.23,0.7 2.12,-0.27 3.18,-0.77 3.64,-1.71 1.91,-4.93 2.28,-7.55 2.36,-3.42 6.49,-4.29 9.57,-6.68 l 0.15,0.18 c 0,0 -0.09,0.22 -0.09,0.22 -0.1,11.16 -0.19,22.34 -0.28,33.51 z"
   id="path234"
   inkscape:connector-curvature="0"
   style="fill:#d3a17c" />
				<path
   class="st34"
   d="m 370.27,562.36 c -4.16,0.75 -6.75,4.62 -10.84,5.5 -8.64,-5.08 -17.26,-10.19 -25.92,-15.23 -2.31,-1.34 -3.03,-0.46 -2.99,2.11 0.13,8.29 0.06,16.59 0.03,24.89 -0.01,1.26 0.37,2.61 -0.52,3.76 -0.06,-10.22 -0.09,-20.43 -0.2,-30.65 -0.02,-1.71 0.91,-2.51 2.22,-3.28 3.2,-1.89 6.35,-3.88 9.52,-5.83 3.51,0.02 4.94,3.45 7.7,4.69 0.59,1.44 1.77,1.72 3.15,1.58 0,0 -0.02,-0.02 -0.02,-0.02 1.95,3.24 5.28,3.97 8.6,4.7 0,0 -0.02,-0.02 -0.02,-0.02 -0.05,1.11 0.56,1.56 1.59,1.58 0,0 -0.03,-0.02 -0.03,-0.02 0.28,0.77 0.81,1.3 1.58,1.58 0,0 -0.01,-0.01 -0.01,-0.01 0.79,0.53 1.57,1.05 2.36,1.58 0,0 -0.02,-0.01 -0.02,-0.01 0.79,0.53 1.57,1.05 2.36,1.58 0,0 -0.02,-0.01 -0.02,-0.01 0.49,0.51 0.99,1.02 1.48,1.53 z"
   id="path236"
   inkscape:connector-curvature="0"
   style="fill:#daba9c" />
				<path
   class="st35"
   d="m 380.55,519.4 c -2.83,2.36 -5.7,4.64 -9.4,5.52 -2.2,0.06 -3.9,-1.16 -5.66,-2.21 -7.38,-4.39 -14.73,-8.81 -22.13,-13.17 -0.51,-0.3 -1.25,-0.2 -1.88,-0.28 1.11,-3.2 4.62,-3.15 6.79,-4.94 1.44,-1.19 3.32,-1.86 5,-2.76 0.1,2.51 2.43,2.84 3.94,3.78 7.73,4.77 15.55,9.38 23.34,14.06 z"
   id="path238"
   inkscape:connector-curvature="0"
   style="fill:#dbb899" />
				<path
   class="st36"
   d="m 397.33,510.94 c -3.76,1.26 -7.23,2.97 -9.84,6.09 -0.75,-0.44 -1.5,-0.45 -2.25,0 0.38,-2.58 -1.79,-3.26 -3.35,-4.19 -4.39,-2.63 -9.03,-4.85 -13.29,-7.65 -4.26,-2.79 -8.33,-5.64 -13.8,-4.43 3.96,-2.39 7.92,-4.77 11.86,-7.17 0.87,-0.53 1.6,-0.49 2.5,0.04 9.19,5.48 18.42,10.92 27.62,16.39 0.27,0.16 0.37,0.61 0.55,0.92 z"
   id="path240"
   inkscape:connector-curvature="0"
   style="fill:#dcb99a" />
				<path
   class="st37"
   d="m 354.8,500.76 c 5.47,-1.21 9.54,1.63 13.8,4.43 4.27,2.8 8.9,5.03 13.29,7.65 1.56,0.93 3.72,1.61 3.34,4.2 -1.32,0.8 -2.64,1.6 -3.95,2.4 -0.24,-0.02 -0.49,-0.03 -0.73,-0.04 -7.79,-4.67 -15.61,-9.29 -23.34,-14.06 -1.52,-0.94 -3.84,-1.27 -3.94,-3.78 0.51,-0.27 1.02,-0.54 1.53,-0.8 z"
   id="path242"
   inkscape:connector-curvature="0"
   style="fill:#fdcb6a" />
				<path
   class="st38"
   d="m 415,536.17 c -3.08,2.39 -7.21,3.26 -9.57,6.68 -0.25,-0.25 -0.5,-0.51 -0.76,-0.76 -1.71,-2.4 -4.01,-3.47 -6.96,-3.12 0,-4.72 0,-9.44 0,-14.16 5.82,3.7 12.01,6.84 17.29,11.36 z"
   id="path244"
   inkscape:connector-curvature="0"
   style="fill:#dab89a" />
				<path
   class="st39"
   d="m 389.11,550.7 c -0.01,9.91 -0.03,19.83 -0.01,29.74 0,1.35 -0.47,2.88 0.91,3.94 -1.1,0.66 -2.21,1.31 -3.31,1.96 0.01,-9.78 0.05,-19.55 0.02,-29.33 0,-1.36 0.51,-2.87 -0.76,-4.01 0,-0.52 0,-1.04 0,-1.56 0.54,-0.91 1.45,-0.78 2.3,-0.8 0.28,0.03 0.57,0.05 0.85,0.06 z"
   id="path246"
   inkscape:connector-curvature="0"
   style="fill:#d3a88c" />
				<path
   class="st38"
   d="m 414.79,570.08 c 0.09,-11.17 0.18,-22.35 0.27,-33.52 1.16,1.91 0.53,4.01 0.55,6.02 0.08,7.86 0.07,15.72 0,23.57 0,1.32 0.63,2.87 -0.82,3.93 z"
   id="path248"
   inkscape:connector-curvature="0"
   style="fill:#dab89a" />
				<path
   class="st40"
   d="m 370.27,562.36 c -0.5,-0.51 -0.99,-1.03 -1.49,-1.54 1.08,-0.07 1.92,-0.51 2.36,-1.55 0.78,-0.28 1.56,-0.56 2.34,-0.85 0.78,0.27 1.57,0.54 2.35,0.81 1.59,3.83 -0.52,6.4 -3.07,8.73 -1.13,1.03 -2.23,0.83 -2.38,-0.92 -0.13,-1.55 -0.08,-3.12 -0.11,-4.68 z"
   id="path250"
   inkscape:connector-curvature="0"
   style="fill:#f4c963" />
				<path
   class="st41"
   d="m 360.63,544.07 c 2.56,1 5.09,1.89 6.77,4.17 0.92,1.24 1.01,2.86 0.29,4.01 -0.99,1.58 -2.24,0.05 -3.35,-0.29 -4.02,-1.2 -4.96,-3.9 -3.71,-7.89 z"
   id="path252"
   inkscape:connector-curvature="0"
   style="fill:#e1ba7d" />
				<path
   class="st37"
   d="m 361,554.59 c -3.32,-0.73 -6.65,-1.46 -8.6,-4.7 2.84,1.6 6.05,2.54 8.6,4.7 z"
   id="path254"
   inkscape:connector-curvature="0"
   style="fill:#fdcb6a" />
				<path
   class="st37"
   d="m 352.42,549.9 c -1.38,0.14 -2.56,-0.14 -3.15,-1.58 1.25,0.1 2.36,0.53 3.15,1.58 z"
   id="path256"
   inkscape:connector-curvature="0"
   style="fill:#fdcb6a" />
				<path
   class="st40"
   d="m 366.46,559.27 c -0.79,-0.53 -1.57,-1.05 -2.36,-1.58 1.17,-0.04 2.34,-0.09 2.36,1.58 z"
   id="path258"
   inkscape:connector-curvature="0"
   style="fill:#f4c963" />
				<path
   class="st40"
   d="m 368.8,560.84 c -0.79,-0.53 -1.57,-1.05 -2.36,-1.58 1.17,-0.05 2.34,-0.1 2.36,1.58 z"
   id="path260"
   inkscape:connector-curvature="0"
   style="fill:#f4c963" />
				<path
   class="st37"
   d="m 362.57,556.15 c -1.03,-0.02 -1.64,-0.47 -1.59,-1.58 0.77,0.28 1.3,0.81 1.59,1.58 z"
   id="path262"
   inkscape:connector-curvature="0"
   style="fill:#fdcb6a" />
				<path
   class="st40"
   d="m 364.12,557.71 c -0.77,-0.29 -1.29,-0.81 -1.58,-1.58 1.03,0.02 1.63,0.48 1.58,1.58 z"
   id="path264"
   inkscape:connector-curvature="0"
   style="fill:#f4c963" />
				<path
   class="st41"
   d="m 357.07,592.75 c 0.1,2.18 -0.74,2.87 -2.79,1.83 -2.57,-1.32 -5.84,-2.02 -5,-6.13 0.16,-0.78 0.17,-1.53 1.18,-1.7 1.88,-0.32 6.62,3.97 6.61,6 z"
   id="path266"
   inkscape:connector-curvature="0"
   style="fill:#e1ba7d" />
				<path
   class="st40"
   d="m 381.28,519.43 c 1.32,-0.8 2.64,-1.6 3.95,-2.4 0.75,-0.46 1.5,-0.44 2.26,0 0.11,3.37 0.4,6.71 -3.4,8.67 -2.15,1.11 -2.82,0.56 -2.81,-1.62 0,-1.55 0,-3.1 0,-4.65 z"
   id="path268"
   inkscape:connector-curvature="0"
   style="fill:#f4c963" />
				<path
   class="st42"
   d="m 397.72,538.97 c 2.94,-0.35 5.24,0.73 6.96,3.12 -1.81,1.04 -3.62,2.08 -5.44,3.12 0,0 -0.05,0 -0.05,0 -0.3,-0.65 -0.89,-0.77 -1.52,-0.8 0.01,-0.51 0.02,-1.02 0.03,-1.54 0.1,-0.08 0.29,-0.19 0.28,-0.23 -0.06,-0.2 -0.19,-0.38 -0.29,-0.57 0.01,-1.03 0.02,-2.07 0.03,-3.1 z"
   id="path270"
   inkscape:connector-curvature="0"
   style="fill:#eace8a" />
				<path
   class="st43"
   d="m 375.84,559.23 c -0.78,-0.27 -1.57,-0.54 -2.35,-0.81 4.21,-2.22 7.74,-5.67 12.47,-6.97 0,0.52 0,1.04 0,1.56 -3.32,2.16 -7.12,3.55 -10.12,6.22 z"
   id="path272"
   inkscape:connector-curvature="0"
   style="fill:#dcb593" />
				<path
   class="st43"
   d="m 397.67,544.41 c 0.63,0.03 1.22,0.15 1.52,0.8 -3.31,1.93 -6.28,4.47 -10.08,5.49 -0.28,-0.01 -0.56,-0.02 -0.84,-0.04 2.18,-3.52 6.26,-4.18 9.4,-6.25 z"
   id="path274"
   inkscape:connector-curvature="0"
   style="fill:#dcb593" />
				<path
   class="st43"
   d="m 397.69,542.07 c 0.1,0.19 0.22,0.37 0.29,0.57 0.01,0.04 -0.18,0.15 -0.28,0.23 0,-0.27 -0.01,-0.53 -0.01,-0.8 z"
   id="path276"
   inkscape:connector-curvature="0"
   style="fill:#dcb593" />
				<path
   class="st40"
   d="m 399.24,545.21 c 1.81,-1.04 3.62,-2.08 5.44,-3.12 0.25,0.25 0.5,0.51 0.76,0.76 -0.36,2.63 1.36,5.84 -2.28,7.55 -1.05,0.5 -1.95,1.47 -3.18,0.77 -1.11,-0.64 -0.67,-1.85 -0.73,-2.84 -0.06,-1.04 -0.01,-2.08 -0.01,-3.12 z"
   id="path278"
   inkscape:connector-curvature="0"
   style="fill:#f4c963" />
			</g>
		</g>
	</g>
	<g
   class="st5"
   clip-path="url(#SVGID_5_)"
   id="g422">
		<defs
   id="defs287">
			<path
   id="SVGID_2_"
   d="m 556.52,645.11 c 0.78,-1.35 4.92,-6.22 4.92,-6.22 0,0 9.68,-7.8 13.79,-10.23 4.11,-2.43 7.37,-8.06 7.37,-8.06 0,0 2.6,-4.39 3.7,-5.25 1.1,-0.86 3.06,-2.38 3.06,-2.38 l 2.16,-4.88 11.33,-19.47 c 0,0 3.16,-4.12 4.24,-4.63 1.08,-0.52 20.21,-12.28 22.15,-13.56 1.94,-1.28 51.56,-27.73 51.56,-27.73 l 54.64,-30.34 c 0,0 0.54,-1.25 3.1,-1.09 2.55,0.16 6.51,2.15 6.51,2.15 l 35.29,19.28 3.42,3.12 c 0,0 6.71,0.76 8.88,3.34 2.17,2.58 3.49,7.79 3.49,7.79 l 4.38,44.66 c 0,0 -0.71,7.76 0.09,10.03 0.79,2.26 0.24,3.63 0.49,5.27 0.25,1.65 -0.89,10.78 -0.89,10.78 0,0 8.82,6.25 10.36,7.86 1.53,1.61 3.9,2.92 3.78,4.89 -0.12,1.97 0.7,3.77 -1.84,5.25 -2.54,1.48 -40.67,24.9 -40.67,24.9 l -93.72,54.11 -19.21,11.24 -11.24,6.65 c 0,0 -4.88,2.67 -6.1,2.6 -1.22,-0.07 -6.76,1.86 -12.63,0.8 -5.88,-1.06 -13.48,-2.57 -14.94,-4.41 -1.46,-1.84 -10.27,-6.39 -10.27,-6.39 l -19.41,-11.32 c 0,0 -20.74,-12.45 -22.04,-14.1 -1.3,-1.65 -3.61,-3.89 -4.05,-5.32 -0.44,-1.43 0.12,-4.89 0.12,-4.89 0,0 -1.13,-1.47 -2.18,-4.33 -1.05,-2.86 -2.33,-6.43 -2.01,-12.18 0.32,-5.75 1.48,-24.2 1.48,-24.2 z"
   inkscape:connector-curvature="0" />
		</defs>
		<clipPath
   id="SVGID_8_">
			<use
   xlink:href="#SVGID_2_"
   style="overflow:visible"
   id="use289"
   x="0"
   y="0"
   width="100%"
   height="100%" />
		</clipPath>
		<g
   class="st44"
   clip-path="url(#SVGID_8_)"
   id="g420">
			<g
   id="g418">
				<path
   class="st12"
   d="m 684.87,755.39 c -46.58,0 -93.15,-0.04 -139.73,0.09 -3.27,0.01 -3.93,-0.66 -3.93,-3.92 0.11,-83.93 0.11,-167.86 0,-251.8 0,-3.26 0.66,-3.93 3.93,-3.92 93.15,0.11 186.3,0.11 279.46,0 3.27,0 3.93,0.66 3.93,3.92 -0.11,83.93 -0.11,167.86 0,251.8 0,3.26 -0.66,3.93 -3.93,3.92 -46.58,-0.13 -93.15,-0.09 -139.73,-0.09 z M 591.73,607.56 c -1.12,0.37 -1.09,1.33 -1.15,2.24 l 0.04,-0.05 c -3.32,2.06 -4.69,5.59 -6.61,8.71 -5.12,7.51 -13.02,11.64 -20.17,16.7 -8.07,5.71 -9.91,15.45 -4.26,22.22 0.06,4.83 0.13,9.65 0.19,14.48 -3.93,0.14 -2.75,-4.36 -5.2,-5.75 0.12,7.46 -1.39,15.12 4.46,21.27 -0.64,5.54 1,9.79 6.17,12.71 5.33,3.01 10.62,6.23 15.47,9.95 11.52,8.84 24.28,15.62 37,22.42 3.65,1.95 7.96,3.24 12.45,3.23 10.92,-0.02 19.94,-5.48 29.17,-10.11 14.15,-7.1 26.56,-17.04 40.66,-24.4 20.25,-10.57 39.84,-22.43 59.53,-34.05 17.22,-10.16 35.41,-18.7 51.36,-31 5.58,-4.3 6.04,-9.36 0.26,-13.06 -3.67,-2.35 -6.85,-5.21 -10.19,-7.94 2.11,-4.88 1.82,-9.93 1.07,-15.01 0.58,-9.97 -0.56,-19.8 -1.8,-29.69 -0.75,-6.06 -2.41,-12.14 -2.21,-18.15 0.42,-12.58 -0.76,-14.89 -13.36,-19.18 -3.33,-3.4 -7.67,-4.96 -11.98,-6.58 -7.72,-5.99 -16.81,-9.55 -25.25,-14.25 -4.93,-2.74 -9.41,-2.79 -14.18,0.51 -3.56,2.46 -7.45,4.53 -11.42,6.28 -17.73,7.83 -33.61,19.09 -51.18,27.28 -13.53,6.31 -25.62,15.34 -39.06,22 -7.83,3.88 -16.02,7.59 -22.36,14.02 -3.53,2.75 -6.93,5.61 -8.51,10.01 -1.04,1.65 -2.26,3.22 -2.46,5.27 -0.71,1.1 -1.43,2.2 -2.14,3.31 -3.41,0.93 -3.31,4.17 -4.37,6.64 z"
   id="path292"
   inkscape:connector-curvature="0"
   style="fill:#fefefe" />
				<path
   class="st45"
   d="m 784.62,533.12 c 12.6,4.29 13.77,6.59 13.36,19.18 -0.2,6.01 1.45,12.09 2.21,18.15 1.23,9.88 2.37,19.72 1.8,29.69 -8.92,4.86 -18.37,8.78 -26.5,15.03 -3.49,1.28 -6.52,3.34 -9.47,5.55 -0.42,0.13 -0.55,0.4 -0.39,0.81 v -0.03 c -5.59,1.51 -9.73,5.88 -15.17,7.69 -0.67,0.39 -1.35,0.78 -2.02,1.18 -14.5,7.49 -27.93,16.83 -42.55,24.15 -8.92,4.46 -17.29,10.05 -25.78,15.34 -7.5,4.67 -16.2,7.25 -22.98,13.18 -7.1,1.01 -11.56,6.51 -17.15,10.09 -5.24,3.09 -11.02,5.09 -16.17,8.41 -5.78,3.73 -11.86,3.79 -17.8,0.02 -0.03,-0.27 -0.08,-0.54 -0.14,-0.8 5.8,-2.42 9.33,-12.33 6.28,-17.71 -0.64,-1.13 -1.85,-0.88 -2.9,-0.99 -0.47,-5.1 2.56,-8.51 5.79,-11.77 5.26,-5.33 10.55,-10.62 15.89,-15.86 2.48,-2.44 4.07,-5.13 3.37,-8.75 1.15,-2.49 2.29,-4.98 3.44,-7.46 5.77,-7.29 8.83,-16.08 13.31,-24.08 0.93,0.35 1.14,2.51 2.87,0.93 4.41,-4.02 8.93,-7.91 13.4,-11.86 0,0 -0.01,0.02 -0.01,0.02 1.22,-0.02 2.54,0.25 3.31,-1.11 l -0.03,0.01 c 2.37,0.11 4.8,0.3 4.4,-3.29 v 0.01 c 2.9,0.27 5.66,0.26 6.61,-3.33 -0.18,-3.16 3.16,-2.68 4.46,-4.3 0.34,0 0.68,0 1.02,0 1.4,-0.04 2.15,-0.77 2.26,-2.15 5.27,-1.03 10.51,-2.12 14.18,-6.58 2.86,-0.95 5.86,-1.64 7.64,-4.44 v 0.01 c 2.41,-0.13 4.91,-0.11 5.48,-3.29 v 0.01 c 5.04,-0.95 9.47,-2.86 12.06,-7.67 l -0.01,0.01 c 2.54,-0.42 4.78,-1.42 6.58,-3.31 h -0.02 c 4.04,-0.7 6.76,-3.17 8.79,-6.56 v 0 c 2.68,-0.81 6.18,0.27 7.67,-3.29 v 0.01 c 3.65,-0.67 7.55,-0.94 8.78,-5.48 l -0.01,0.01 c 5.4,-0.46 9.6,-3.79 14.14,-6.17 1.83,-0.96 4.6,-1.72 4.49,-4.79 v 0 c 3.13,0.14 5.04,-1.23 5.51,-4.42 z m -135.5,116.4 c 5.22,0.42 7.16,-5.06 11.59,-6.33 6.89,-1.98 12.39,-6.82 18.74,-9.98 1.23,-0.61 2.09,-1.36 2.08,-2.87 -0.01,-6.74 0.02,-13.49 0.02,-20.23 0,-1.97 -0.67,-2.51 -2.69,-1.72 -8.06,3.15 -15.26,7.27 -20.94,14.16 -5.77,7 -9.01,15.36 -13.68,22.93 -2.61,-0.82 -4.58,0.2 -4.89,2.74 -0.48,3.93 -0.8,8.14 3.13,10.83 2.86,1.96 4.7,1.24 5.17,-2.4 0.32,-2.41 -0.99,-5.16 1.47,-7.13 z m 21.84,-1.47 c 3.07,-1.75 7.17,-2.12 8.65,-5.99 -3.6,0.99 -7.01,2.23 -8.65,5.99 z"
   id="path294"
   inkscape:connector-curvature="0"
   style="fill:#e4af35" />
				<path
   class="st46"
   d="m 800.91,615.14 c 3.33,2.73 6.52,5.59 10.19,7.94 5.77,3.7 5.31,8.75 -0.26,13.06 -15.94,12.3 -34.14,20.84 -51.36,31 -19.69,11.62 -39.28,23.48 -59.53,34.05 -14.1,7.35 -26.51,17.3 -40.66,24.4 -9.24,4.63 -18.25,10.09 -29.17,10.11 -4.49,0.01 -8.8,-1.28 -12.45,-3.23 -12.72,-6.8 -25.48,-13.58 -37,-22.42 -4.85,-3.72 -10.14,-6.94 -15.47,-9.95 -5.17,-2.92 -6.81,-7.17 -6.17,-12.71 4.63,-0.15 5.99,5.97 10.73,5.6 5.27,2.1 9.98,5.12 14.29,8.78 6.71,5.36 14.58,8.76 21.95,13.01 8.04,6.88 9.51,6.96 19.04,2.06 2.44,-1.26 4.65,-3.65 7.91,-2.61 2.83,3.06 6.38,4.93 10.26,6.26 1.04,0.7 2.08,1.39 3.12,2.09 5.33,3.59 12.21,0.99 14.31,-5.43 2.74,-1.31 2.99,-4.31 4.46,-6.49 1.15,-0.42 1.17,-1.39 1.16,-2.38 l -0.06,0.08 c 1.53,-3.84 6.41,-6.7 3.47,-11.84 1.19,-1 1.03,-2.2 0.49,-3.44 0.04,-0.41 0.08,-0.82 0.12,-1.24 0.54,-0.57 1.07,-1.15 1.61,-1.72 3.01,-0.06 4.62,-2.68 7.05,-3.84 16.4,-7.84 30.79,-19.14 47.03,-27.31 7.87,-3.95 15.13,-9.12 22.66,-13.73 1.17,-0.23 2.37,-0.38 3.19,-1.41 0.71,0.28 1.43,0.55 2.14,0.83 2.46,2.6 4.97,5.14 8.66,5.96 1.57,2.13 4.2,2.56 6.38,3.36 2,0.74 4.95,1.06 5.55,-2.5 1.56,-0.41 3.16,-0.72 4.68,-1.25 2.48,-0.88 5.71,-7.24 4.17,-8.38 -4.95,-3.66 2.36,-1.1 1.26,-2.65 2.88,0.39 2.72,-2.28 2.98,-3.64 0.34,-1.79 1.16,-2.87 2.42,-3.88 2.12,-2.31 0.94,-4.99 0.84,-7.54 0.59,-1.41 1.18,-2.81 1.78,-4.22 2.74,-1.6 5.49,-3.19 8.23,-4.78 z"
   id="path296"
   inkscape:connector-curvature="0"
   style="fill:#a7a7a7" />
				<path
   class="st47"
   d="m 634.29,645.66 c 0.7,3.62 -0.89,6.31 -3.37,8.75 -5.34,5.24 -10.63,10.54 -15.89,15.86 -3.22,3.27 -6.26,6.67 -5.79,11.77 l 0.01,-0.01 c -1.41,0.15 -3.27,-0.36 -3.04,2.13 l -0.45,0.14 c -3.98,-2.17 -7.95,-4.33 -11.93,-6.5 -10.97,-7.55 -22.39,-14.37 -34.26,-20.42 -5.65,-6.77 -3.81,-16.51 4.26,-22.22 7.15,-5.06 15.06,-9.19 20.17,-16.7 0.55,3.51 1.54,-0.41 2.26,0.14 3.91,5.1 10.07,6.73 15.25,9.87 3.22,1.91 5.97,4.66 9.79,5.51 2.24,1.39 4.49,2.77 6.73,4.16 2.16,1.51 4.27,3.1 6.49,4.51 2.98,1.88 5.77,4.44 9.77,3.01 z"
   id="path298"
   inkscape:connector-curvature="0"
   style="fill:#eac858" />
				<path
   class="st48"
   d="m 609.18,582.39 c 6.34,-6.43 14.53,-10.14 22.36,-14.02 13.44,-6.66 25.53,-15.69 39.06,-22 17.57,-8.19 33.44,-19.45 51.18,-27.28 3.96,-1.75 7.86,-3.83 11.42,-6.28 4.78,-3.3 9.25,-3.25 14.18,-0.51 8.45,4.7 17.53,8.26 25.25,14.25 -0.77,0.01 -1.54,0.03 -2.32,0.04 -6.52,-1.27 -11.65,-5.45 -17.45,-8.24 -4.42,-2.13 -8.47,-6.87 -13.88,-4.32 -6.52,3.07 -12.97,6.37 -19.35,9.69 -19.94,10.35 -39.31,21.77 -59.33,32.03 -13.95,7.14 -27.34,15.38 -40.91,23.24 -1.09,0.63 -2.57,1.57 -2.39,3.37 -2.61,-2.87 -5.2,1.36 -7.82,0.03 z"
   id="path300"
   inkscape:connector-curvature="0"
   style="fill:#f4c12e" />
				<path
   class="st49"
   d="m 609.18,582.39 c 2.62,1.33 5.21,-2.9 7.84,-0.04 9.66,5.6 19.58,10.83 28.92,16.93 6.81,4.45 13.13,8.64 21.38,3.9 -4.47,3.95 -8.99,7.84 -13.4,11.86 -1.73,1.58 -1.94,-0.58 -2.87,-0.93 -5.88,-3.29 -11.76,-6.59 -17.64,-9.88 -7.3,-4.37 -14.59,-8.74 -21.89,-13.11 -1.16,-1.46 -2.68,-2.34 -4.47,-2.79 -2.78,0.34 -3.03,4.62 -6.37,4.08 1.58,-4.4 4.97,-7.27 8.5,-10.02 z"
   id="path302"
   inkscape:connector-curvature="0"
   style="fill:#f7bf20" />
				<path
   class="st50"
   d="m 559.58,657.38 c 11.87,6.05 23.29,12.87 34.26,20.42 -1.73,2.78 -0.18,5.64 -0.23,8.46 -1.32,0.45 -2.53,-1.44 -3.96,-0.2 0.86,1.6 2.41,2.12 3.88,2.73 0.01,1.39 0.02,2.79 0.02,4.18 -3.5,0.64 -5.54,-4.59 -9.44,-2.33 -0.22,0.04 -0.38,-0.04 -0.49,-0.24 0.46,-1.54 0.36,-2.98 -1.42,-3.47 -1.25,-0.34 -1.27,0.89 -1.47,1.73 -2.03,-0.74 -3.93,-1.71 -5.52,-3.2 -0.21,-3.18 -2.88,-4.21 -4.9,-5.96 -3.31,-2.87 -8.15,-3.6 -10.56,-7.64 -0.05,-4.83 -0.11,-9.65 -0.17,-14.48 z m 27.45,27.17 c 0.38,0.13 0.76,0.25 1.13,0.38 -0.19,-0.31 -0.39,-0.63 -0.58,-0.94 -0.47,-0.62 -1.36,-1.13 -1.73,-0.5 -0.52,0.91 0.67,0.8 1.18,1.06 z"
   id="path304"
   inkscape:connector-curvature="0"
   style="fill:#444343" />
				<path
   class="st51"
   d="m 600.67,592.4 c 3.34,0.54 3.6,-3.74 6.37,-4.08 -0.56,9.8 1.33,19.32 2.94,28.92 0.92,5.48 2.76,11.02 1.34,16.74 -3.82,-0.85 -6.57,-3.6 -9.79,-5.52 1.9,-6.09 -0.7,-11.93 -1.58,-17.72 -0.66,-4.34 1.03,-9.07 -1.75,-13.08 0.21,-2.03 1.42,-3.6 2.47,-5.26 z"
   id="path306"
   inkscape:connector-curvature="0"
   style="fill:#9f9e9d" />
				<path
   class="st52"
   d="m 598.2,597.67 c 2.78,4.02 1.09,8.74 1.75,13.08 0.88,5.79 3.47,11.63 1.58,17.72 -5.18,-3.14 -11.34,-4.77 -15.25,-9.87 1.92,-2.72 4.47,-5.13 4.35,-8.85 0,0 -0.04,0.05 -0.04,0.05 1.32,-0.27 1.24,-1.25 1.15,-2.24 0,0 -0.05,0.06 -0.05,0.06 2.52,-1.52 4.75,-3.22 4.37,-6.64 0.72,-1.11 1.43,-2.21 2.14,-3.31 z"
   id="path308"
   inkscape:connector-curvature="0"
   style="fill:#8c8b8a" />
				<path
   class="st53"
   d="m 800.91,615.14 c -2.74,1.59 -5.49,3.18 -8.23,4.77 -4.72,-5.25 -10.43,-6.93 -17.2,-4.75 8.13,-6.25 17.58,-10.17 26.5,-15.03 0.75,5.09 1.04,10.13 -1.07,15.01 z"
   id="path310"
   inkscape:connector-curvature="0"
   style="fill:#3f3e3d" />
				<path
   class="st54"
   d="m 559.77,671.86 c 2.41,4.05 7.25,4.77 10.56,7.64 2.02,1.76 4.69,2.78 4.9,5.96 -4.09,-3.31 -5.32,-1.73 -5.9,2.89 -0.22,1.76 0.85,3.07 0.43,4.63 -4.74,0.37 -6.1,-5.74 -10.73,-5.6 -5.84,-6.15 -4.34,-13.82 -4.46,-21.27 2.44,1.39 1.27,5.88 5.2,5.75 z m 5.46,11.88 c -0.79,-2.61 -3.43,-3.25 -5.61,-4.39 -1.09,-0.57 -1.94,0.08 -1.76,1.11 0.5,2.95 3.12,3.76 5.42,4.75 0.96,0.41 1.73,-0.07 1.95,-1.47 z"
   id="path312"
   inkscape:connector-curvature="0"
   style="fill:#4f5155" />
				<path
   class="st49"
   d="m 770.32,526.59 c 0.77,-0.01 1.54,-0.03 2.32,-0.04 4.31,1.62 8.65,3.17 11.98,6.58 -0.46,3.19 -2.37,4.56 -5.52,4.39 3.7,-2.88 0.59,-4.45 -1.31,-5.99 -2.31,-1.89 -5.79,-2.05 -7.47,-4.94 z"
   id="path314"
   inkscape:connector-curvature="0"
   style="fill:#f7bf20" />
				<path
   class="st45"
   d="m 590.63,609.75 c 0.12,3.72 -2.43,6.13 -4.35,8.85 -0.72,-0.55 -1.72,3.37 -2.26,-0.14 1.91,-3.12 3.28,-6.66 6.61,-8.71 z"
   id="path316"
   inkscape:connector-curvature="0"
   style="fill:#e4af35" />
				<path
   class="st45"
   d="m 596.06,600.98 c 0.38,3.42 -1.85,5.13 -4.37,6.64 1.06,-2.48 0.96,-5.71 4.37,-6.64 z"
   id="path318"
   inkscape:connector-curvature="0"
   style="fill:#e4af35" />
				<path
   class="st45"
   d="m 591.73,607.56 c 0.1,0.99 0.17,1.97 -1.15,2.24 0.07,-0.91 0.04,-1.87 1.15,-2.24 z"
   id="path320"
   inkscape:connector-curvature="0"
   style="fill:#e4af35" />
				<path
   class="st55"
   d="m 770.32,526.59 c 1.68,2.89 5.16,3.05 7.48,4.92 1.9,1.54 5.01,3.11 1.31,5.99 0,0 0,0 0,0 -6.72,2.8 -12.94,6.43 -18.63,10.96 0,0 0.01,-0.01 0.01,-0.01 -3.78,0.46 -6.04,3.36 -8.78,5.48 0,0 0,-0.01 0,-0.01 -3.03,0.01 -5.5,1.31 -7.67,3.29 0,0 0,0 0,0 -3.43,1.51 -7.19,2.59 -8.79,6.56 0,0 0.02,0 0.02,0 -2.58,0.33 -5.46,0.07 -6.58,3.31 0,0 0.01,-0.01 0.01,-0.01 -4.34,2.06 -9.44,2.93 -12.06,7.67 0,0 0,-0.01 0,-0.01 -2.73,-0.4 -3.89,1.8 -5.48,3.29 0,0 0,-0.01 0,-0.01 -2.88,-0.38 -5.44,0.35 -7.64,2.26 -4.73,2.92 -9.45,5.84 -14.18,8.76 -0.12,1.39 -0.87,2.11 -2.26,2.15 -0.31,-0.58 -0.65,-1.09 -1.44,-0.71 0.14,0.24 0.28,0.48 0.42,0.72 -1.3,1.63 -4.64,1.14 -4.46,4.3 -2.72,0.08 -5.11,0.83 -6.6,3.33 0,0 0,-0.01 0,-0.01 -2.34,-0.07 -4.17,0.54 -4.4,3.29 0,0 0.03,-0.01 0.03,-0.01 -1.23,0.01 -2.54,-0.23 -3.31,1.11 0,0 0.01,-0.02 0.01,-0.02 -8.25,4.74 -14.57,0.55 -21.38,-3.9 -9.34,-6.1 -19.25,-11.33 -28.92,-16.93 -0.18,-1.8 1.29,-2.74 2.39,-3.37 13.57,-7.87 26.96,-16.1 40.91,-23.24 20.02,-10.26 39.39,-21.68 59.33,-32.03 6.38,-3.31 12.83,-6.62 19.35,-9.69 5.41,-2.55 9.46,2.19 13.88,4.32 5.78,2.8 10.91,6.98 17.43,8.25 z"
   id="path322"
   inkscape:connector-curvature="0"
   style="fill:#fec75b" />
				<path
   class="st53"
   d="m 748.64,645.23 c -7.53,4.62 -14.79,9.78 -22.66,13.73 -16.25,8.17 -30.63,19.47 -47.03,27.31 -2.43,1.16 -4.04,3.79 -7.05,3.84 -2.92,-6.54 -8.76,-7 -14.78,-7.1 6.78,-5.92 15.47,-8.51 22.98,-13.18 8.49,-5.28 16.86,-10.88 25.78,-15.34 14.63,-7.31 28.06,-16.66 42.55,-24.15 0.07,4.97 0.14,9.93 0.21,14.89 z"
   id="path324"
   inkscape:connector-curvature="0"
   style="fill:#3f3e3d" />
				<path
   class="st51"
   d="m 611.51,591.12 c 7.3,4.37 14.59,8.74 21.89,13.11 1.44,11.32 2.89,22.64 4.33,33.96 -1.15,2.49 -2.29,4.98 -3.44,7.46 -4,1.43 -6.79,-1.12 -9.75,-3 -2.22,-1.41 -4.33,-3 -6.49,-4.51 -0.96,-5.89 -2.19,-11.75 -2.8,-17.67 -1.02,-9.82 -4.45,-19.32 -3.74,-29.35 z"
   id="path326"
   inkscape:connector-curvature="0"
   style="fill:#9f9e9d" />
				<path
   class="st52"
   d="m 644.25,645.48 c 4.67,-7.57 7.9,-15.93 13.68,-22.93 5.68,-6.89 12.88,-11 20.94,-14.16 2.02,-0.79 2.69,-0.25 2.69,1.72 -0.01,6.74 -0.04,13.49 -0.02,20.23 0,1.51 -0.86,2.26 -2.08,2.87 -6.34,3.16 -11.84,8 -18.74,9.98 -4.43,1.27 -6.38,6.75 -11.59,6.34 -1.63,-1.35 -3.25,-2.7 -4.88,-4.05 z"
   id="path328"
   inkscape:connector-curvature="0"
   style="fill:#8c8b8a" />
				<path
   class="st53"
   d="m 632.95,714.21 c -3.26,-1.05 -5.46,1.35 -7.91,2.61 -9.53,4.9 -11,4.82 -19.04,-2.06 0,-4.41 0,-8.82 0,-13.23 5.94,3.76 12.02,3.7 17.8,-0.02 5.15,-3.32 10.93,-5.33 16.17,-8.41 -0.52,2.25 -0.41,4.98 -1.69,6.65 -2.8,3.64 -3.98,7.5 -3.81,11.94 -0.51,0.84 -1.02,1.68 -1.52,2.52 z"
   id="path330"
   inkscape:connector-curvature="0"
   style="fill:#3f3e3d" />
				<path
   class="st52"
   d="m 637.73,638.19 c -1.44,-11.32 -2.89,-22.64 -4.33,-33.96 5.88,3.29 11.76,6.59 17.64,9.88 -4.48,8.01 -7.54,16.79 -13.31,24.08 z"
   id="path332"
   inkscape:connector-curvature="0"
   style="fill:#8c8b8a" />
				<path
   class="st54"
   d="m 606,701.54 c 0,4.41 0,8.82 0,13.23 -7.37,-4.25 -15.25,-7.64 -21.95,-13.01 3.62,-3.41 3.64,-6.51 0.07,-11.12 3.9,-2.26 5.94,2.97 9.44,2.33 3.45,3.41 7.89,5.25 12.05,7.53 l 0.25,0.24 c 0.06,0.26 0.11,0.53 0.14,0.8 z m -9.99,-0.57 c -1.28,-0.02 -1.98,0.62 -1.68,1.63 0.9,2.94 3.57,3.83 6.09,4.76 0.97,0.36 1.27,-0.62 1.18,-1.29 -0.48,-3.27 -3.58,-3.68 -5.59,-5.1 z"
   id="path334"
   inkscape:connector-curvature="0"
   style="fill:#4f5155" />
				<path
   class="st56"
   d="m 634.46,711.69 c -0.17,-4.44 1.02,-8.3 3.81,-11.94 1.28,-1.67 1.17,-4.4 1.69,-6.65 5.59,-3.58 10.05,-9.08 17.15,-10.09 6.02,0.09 11.86,0.56 14.78,7.1 -0.54,0.57 -1.07,1.15 -1.61,1.72 -0.95,0.01 -1.91,0.02 -2.86,0.04 -0.4,0 -0.79,0.01 -1.19,0.01 l 0.03,0.02 c -2.99,-5.59 -9.74,-6.07 -15.95,-0.93 -5.31,4.4 -8.57,10.23 -10.61,16.71 -0.86,2.73 -2.01,4.58 -5.24,4.01 z"
   id="path336"
   inkscape:connector-curvature="0"
   style="fill:#494b50" />
				<path
   class="st56"
   d="m 775.48,615.16 c 6.78,-2.18 12.48,-0.5 17.2,4.75 -0.59,1.41 -1.18,2.81 -1.77,4.22 -0.66,-0.26 -1.46,-0.36 -1.96,-0.8 -5.43,-4.7 -8.48,-4.84 -14.71,-1.29 -5.57,3.18 -7.97,8.49 -10.52,13.89 -1.1,2.33 -1.15,6.13 -5.4,5.58 -0.52,-4.13 1.08,-7.59 2.9,-11.22 1.47,-2.93 4.53,-5.11 4.42,-8.81 0,0 0,0.03 0.01,0.04 0.28,-0.04 0.55,-0.08 0.83,-0.12 -0.15,-0.23 -0.3,-0.46 -0.45,-0.69 2.93,-2.2 5.96,-4.27 9.45,-5.55 z"
   id="path338"
   inkscape:connector-curvature="0"
   style="fill:#494b50" />
				<path
   class="st53"
   d="m 765.62,621.48 c 0.11,3.7 -2.96,5.88 -4.42,8.81 -1.82,3.63 -3.41,7.09 -2.9,11.22 -1.93,0.37 -3.92,0.66 -4.33,3.13 -0.71,-0.28 -1.43,-0.55 -2.14,-0.83 -2.62,-4.68 -0.43,-9.81 -1.38,-14.64 5.44,-1.8 9.58,-6.18 15.17,-7.69 z"
   id="path340"
   inkscape:connector-curvature="0"
   style="fill:#3f3e3d" />
				<path
   class="st54"
   d="m 644.25,645.48 c 1.63,1.35 3.25,2.7 4.87,4.05 -2.46,1.96 -1.15,4.71 -1.46,7.12 -0.47,3.64 -2.31,4.36 -5.17,2.4 -3.93,-2.69 -3.61,-6.89 -3.13,-10.83 0.31,-2.54 2.28,-3.56 4.89,-2.74 z"
   id="path342"
   inkscape:connector-curvature="0"
   style="fill:#4f5155" />
				<path
   class="st48"
   d="m 609.24,682.04 c 1.04,0.11 2.26,-0.14 2.9,0.99 3.05,5.38 -0.48,15.3 -6.28,17.71 0,0 -0.25,-0.24 -0.25,-0.24 0.05,-5.4 0.11,-10.8 0.16,-16.2 0,0 0.45,-0.14 0.45,-0.14 1.5,-0.01 2.47,-0.78 3.04,-2.13 z"
   id="path344"
   inkscape:connector-curvature="0"
   style="fill:#f4c12e" />
				<path
   class="st49"
   d="m 760.47,548.47 c 5.69,-4.53 11.92,-8.17 18.63,-10.96 0.11,3.07 -2.66,3.83 -4.49,4.79 -4.54,2.38 -8.74,5.71 -14.14,6.17 z"
   id="path346"
   inkscape:connector-curvature="0"
   style="fill:#f7bf20" />
				<path
   class="st48"
   d="m 689.33,589.03 c 4.73,-2.92 9.45,-5.84 14.18,-8.76 0,0.73 0,1.46 0,2.18 -3.67,4.46 -8.91,5.55 -14.18,6.58 z"
   id="path348"
   inkscape:connector-curvature="0"
   style="fill:#f4c12e" />
				<path
   class="st56"
   d="m 750.45,629.17 c 0.95,4.83 -1.24,9.96 1.38,14.64 -0.81,1.03 -2.02,1.17 -3.19,1.41 -0.07,-4.96 -0.14,-9.92 -0.22,-14.87 0.68,-0.39 1.35,-0.78 2.03,-1.18 z"
   id="path350"
   inkscape:connector-curvature="0"
   style="fill:#494b50" />
				<path
   class="st49"
   d="m 716.63,574.74 c 2.63,-4.74 7.72,-5.61 12.06,-7.67 -2.58,4.8 -7.01,6.71 -12.06,7.67 z"
   id="path352"
   inkscape:connector-curvature="0"
   style="fill:#f7bf20" />
				<path
   class="st50"
   d="m 670.96,648.05 c 1.64,-3.76 5.05,-5 8.65,-5.99 -1.47,3.87 -5.58,4.24 -8.65,5.99 z"
   id="path354"
   inkscape:connector-curvature="0"
   style="fill:#444343" />
				<path
   class="st49"
   d="m 735.25,563.77 c 1.6,-3.96 5.36,-5.04 8.79,-6.56 -2.04,3.39 -4.75,5.86 -8.79,6.56 z"
   id="path356"
   inkscape:connector-curvature="0"
   style="fill:#f7bf20" />
				<path
   class="st49"
   d="m 751.7,553.94 c 2.74,-2.12 5,-5.02 8.78,-5.48 -1.23,4.54 -5.13,4.81 -8.78,5.48 z"
   id="path358"
   inkscape:connector-curvature="0"
   style="fill:#f7bf20" />
				<path
   class="st49"
   d="m 703.51,582.45 c 0,-0.73 0,-1.46 0,-2.18 2.21,-1.91 4.76,-2.64 7.64,-2.26 -1.77,2.8 -4.78,3.49 -7.64,4.44 z"
   id="path360"
   inkscape:connector-curvature="0"
   style="fill:#f7bf20" />
				<path
   class="st49"
   d="m 674.99,598.82 c 1.5,-2.5 3.88,-3.26 6.6,-3.33 -0.95,3.59 -3.7,3.59 -6.6,3.33 z"
   id="path362"
   inkscape:connector-curvature="0"
   style="fill:#f7bf20" />
				<path
   class="st49"
   d="m 744.03,557.22 c 2.17,-1.99 4.65,-3.29 7.67,-3.29 -1.49,3.56 -4.98,2.48 -7.67,3.29 z"
   id="path364"
   inkscape:connector-curvature="0"
   style="fill:#f7bf20" />
				<path
   class="st49"
   d="m 670.59,602.1 c 0.23,-2.75 2.06,-3.36 4.4,-3.29 0.4,3.59 -2.03,3.4 -4.4,3.29 z"
   id="path366"
   inkscape:connector-curvature="0"
   style="fill:#f7bf20" />
				<path
   class="st49"
   d="m 728.69,567.08 c 1.12,-3.24 4,-2.98 6.58,-3.31 -1.8,1.88 -4.05,2.88 -6.58,3.31 z"
   id="path368"
   inkscape:connector-curvature="0"
   style="fill:#f7bf20" />
				<path
   class="st49"
   d="m 711.15,578.02 c 1.59,-1.49 2.75,-3.7 5.48,-3.29 -0.56,3.18 -3.06,3.16 -5.48,3.29 z"
   id="path370"
   inkscape:connector-curvature="0"
   style="fill:#f7bf20" />
				<path
   class="st49"
   d="m 667.31,603.2 c 0.78,-1.35 2.08,-1.11 3.31,-1.11 -0.77,1.36 -2.09,1.09 -3.31,1.11 z"
   id="path372"
   inkscape:connector-curvature="0"
   style="fill:#f7bf20" />
				<path
   class="st48"
   d="m 686.05,591.18 c -0.14,-0.24 -0.28,-0.48 -0.42,-0.72 0.79,-0.38 1.13,0.14 1.44,0.71 -0.34,0.01 -0.68,0.01 -1.02,0.01 z"
   id="path374"
   inkscape:connector-curvature="0"
   style="fill:#f4c12e" />
				<path
   class="st53"
   d="m 766.01,620.71 c 0.15,0.23 0.3,0.46 0.45,0.69 -0.28,0.04 -0.55,0.08 -0.83,0.12 -0.17,-0.41 -0.04,-0.68 0.38,-0.81 z"
   id="path376"
   inkscape:connector-curvature="0"
   style="fill:#3f3e3d" />
				<path
   class="st57"
   d="m 665.11,710.65 c -1.47,2.17 -1.73,5.18 -4.46,6.49 -1.86,1 -3.62,2.27 -5.58,2.94 -4.01,1.37 -8.26,-1.44 -8.63,-5.46 -0.49,-5.24 5,-15.27 9.68,-17.73 2.59,-1.36 4.36,-1.13 7.11,0.82 4.4,3.12 2.58,6.98 2.99,10.65 0,0 0.06,-0.08 0.06,-0.08 -1.36,0.32 -1.12,1.41 -1.17,2.37 z"
   id="path378"
   inkscape:connector-curvature="0"
   style="fill:#acacac" />
				<path
   class="st57"
   d="m 784.67,639.19 c 1.09,1.55 -6.22,-1.02 -1.26,2.65 1.54,1.14 -1.7,7.5 -4.17,8.38 -1.52,0.54 -3.11,0.84 -4.68,1.25 -7.42,-0.22 -10.14,-5.59 -7.12,-12.52 1.94,-4.46 6.53,-6.39 8.48,-10.59 3.51,-0.28 6.78,0.04 8.84,3.46 -0.04,2.46 -0.06,4.91 -0.09,7.37 z"
   id="path380"
   inkscape:connector-curvature="0"
   style="fill:#acacac" />
				<path
   class="st50"
   d="m 666.21,708.35 c -0.42,-3.67 1.41,-7.52 -2.99,-10.65 -2.75,-1.95 -4.52,-2.18 -7.11,-0.82 -4.68,2.46 -10.18,12.49 -9.68,17.73 0.38,4.02 4.62,6.83 8.63,5.46 1.97,-0.67 3.73,-1.94 5.58,-2.94 -2.11,6.42 -8.98,9.03 -14.31,5.43 -1.04,-0.7 -2.08,-1.39 -3.12,-2.09 0,-1.81 -0.01,-3.62 0,-5.44 0.06,-13.04 10.17,-23.19 23.06,-23.15 0,0 -0.03,-0.02 -0.03,-0.02 0.4,0.98 0.8,0.73 1.19,-0.01 0.95,-0.01 1.91,-0.02 2.86,-0.04 -0.04,0.41 -0.08,0.82 -0.12,1.24 -1.66,0.93 -1.22,2.17 -0.49,3.44 2.94,5.16 -1.94,8.02 -3.47,11.86 z"
   id="path382"
   inkscape:connector-curvature="0"
   style="fill:#444343" />
				<path
   class="st58"
   d="m 666.26,691.89 c -12.89,-0.04 -23,10.11 -23.06,23.15 -0.01,1.81 0,3.62 0,5.44 -3.88,-1.33 -7.43,-3.21 -10.26,-6.26 0.5,-0.84 1.01,-1.68 1.52,-2.53 3.23,0.58 4.38,-1.28 5.24,-4.01 2.04,-6.48 5.3,-12.31 10.61,-16.71 6.21,-5.15 12.97,-4.67 15.95,0.92 z"
   id="path384"
   inkscape:connector-curvature="0"
   style="fill:#1d1d1e" />
				<path
   class="st50"
   d="m 784.67,639.19 c 0.03,-2.46 0.05,-4.91 0.08,-7.37 1.91,-2.61 -0.27,-3.98 -1.91,-4.96 -2.55,-1.52 -4.96,-0.61 -6.93,1.5 -1.94,4.2 -6.53,6.14 -8.48,10.59 -3.02,6.93 -0.3,12.3 7.12,12.52 -0.6,3.56 -3.55,3.24 -5.55,2.5 -2.18,-0.81 -4.8,-1.24 -6.38,-3.37 -0.79,-9.22 3.6,-16.62 9.31,-22.95 8.17,-9.05 13.75,-7.63 17.72,3.67 0.05,0.15 0.27,0.23 0.42,0.34 -1.26,1.01 -2.08,2.09 -2.42,3.88 -0.26,1.37 -0.1,4.04 -2.98,3.65 z"
   id="path386"
   inkscape:connector-curvature="0"
   style="fill:#444343" />
				<path
   class="st58"
   d="m 790.07,631.67 c -0.14,-0.11 -0.37,-0.2 -0.42,-0.34 -3.96,-11.3 -9.54,-12.72 -17.72,-3.67 -5.71,6.33 -10.1,13.73 -9.31,22.95 -3.69,-0.82 -6.19,-3.36 -8.66,-5.96 0.41,-2.47 2.4,-2.75 4.33,-3.13 4.25,0.54 4.3,-3.25 5.4,-5.58 2.56,-5.4 4.95,-10.71 10.52,-13.89 6.23,-3.55 9.28,-3.41 14.71,1.29 0.51,0.44 1.3,0.54 1.96,0.8 0.13,2.55 1.31,5.22 -0.81,7.53 z"
   id="path388"
   inkscape:connector-curvature="0"
   style="fill:#1d1d1e" />
				<path
   class="st59"
   d="m 584.12,690.64 c 3.57,4.61 3.55,7.7 -0.07,11.12 -4.32,-3.65 -9.02,-6.68 -14.29,-8.78 0.42,-1.56 -0.65,-2.87 -0.43,-4.63 0.58,-4.62 1.81,-6.2 5.9,-2.89 1.59,1.5 3.49,2.47 5.52,3.2 0.64,1.11 1.8,1.37 2.88,1.74 0.11,0.2 0.27,0.28 0.49,0.24 z"
   id="path390"
   inkscape:connector-curvature="0"
   style="fill:#dcdddd" />
				<path
   class="st56"
   d="m 669.68,696.5 c -0.73,-1.28 -1.17,-2.51 0.49,-3.44 0.53,1.25 0.69,2.44 -0.49,3.44 z"
   id="path392"
   inkscape:connector-curvature="0"
   style="fill:#494b50" />
				<path
   class="st50"
   d="m 665.11,710.65 c 0.05,-0.95 -0.19,-2.05 1.16,-2.38 0.01,0.99 -0.01,1.96 -1.16,2.38 z"
   id="path394"
   inkscape:connector-curvature="0"
   style="fill:#444343" />
				<path
   class="st52"
   d="m 611.51,591.12 c -0.71,10.03 2.72,19.54 3.73,29.36 0.61,5.92 1.85,11.78 2.8,17.67 -2.24,-1.39 -4.48,-2.77 -6.73,-4.16 1.42,-5.72 -0.42,-11.26 -1.34,-16.74 -1.61,-9.6 -3.51,-19.12 -2.94,-28.92 1.8,0.45 3.32,1.33 4.48,2.79 z"
   id="path396"
   inkscape:connector-curvature="0"
   style="fill:#8c8b8a" />
				<path
   class="st12"
   d="m 605.77,684.3 c -0.05,5.4 -0.11,10.8 -0.16,16.2 -4.16,-2.28 -8.6,-4.12 -12.05,-7.53 -0.01,-1.39 -0.02,-2.79 -0.02,-4.18 0.03,-0.84 0.05,-1.68 0.08,-2.53 0.05,-2.82 -1.51,-5.69 0.23,-8.46 3.97,2.17 7.94,4.33 11.92,6.5 z"
   id="path398"
   inkscape:connector-curvature="0"
   style="fill:#fefefe" />
				<path
   class="st45"
   d="m 609.26,682.03 c -0.57,1.35 -1.54,2.12 -3.04,2.13 -0.23,-2.49 1.63,-1.98 3.04,-2.13 z"
   id="path400"
   inkscape:connector-curvature="0"
   style="fill:#e4af35" />
				<path
   class="st54"
   d="m 583.63,690.4 c -1.09,-0.37 -2.25,-0.62 -2.88,-1.74 0.19,-0.84 0.22,-2.07 1.47,-1.73 1.77,0.49 1.87,1.93 1.41,3.47 z"
   id="path402"
   inkscape:connector-curvature="0"
   style="fill:#4f5155" />
				<path
   class="st52"
   d="m 593.61,686.26 c -0.03,0.84 -0.05,1.68 -0.08,2.53 -1.47,-0.61 -3.02,-1.13 -3.88,-2.73 1.44,-1.24 2.65,0.66 3.96,0.2 z"
   id="path404"
   inkscape:connector-curvature="0"
   style="fill:#8c8b8a" />
				<path
   class="st52"
   d="m 587.03,684.55 c -0.51,-0.27 -1.7,-0.15 -1.17,-1.06 0.37,-0.64 1.26,-0.13 1.73,0.5 -0.19,0.19 -0.38,0.37 -0.56,0.56 z"
   id="path406"
   inkscape:connector-curvature="0"
   style="fill:#8c8b8a" />
				<path
   class="st52"
   d="m 587.59,683.99 c 0.19,0.31 0.39,0.63 0.58,0.94 -0.38,-0.13 -0.76,-0.25 -1.14,-0.38 0.18,-0.19 0.37,-0.37 0.56,-0.56 z"
   id="path408"
   inkscape:connector-curvature="0"
   style="fill:#8c8b8a" />
				<path
   class="st45"
   d="m 565.23,683.74 c -0.22,1.4 -0.99,1.88 -1.95,1.47 -2.3,-0.99 -4.92,-1.8 -5.42,-4.75 -0.18,-1.04 0.67,-1.69 1.76,-1.11 2.18,1.14 4.82,1.77 5.61,4.39 z"
   id="path410"
   inkscape:connector-curvature="0"
   style="fill:#e4af35" />
				<path
   class="st45"
   d="m 596.01,700.97 c 2.01,1.42 5.11,1.83 5.59,5.1 0.1,0.67 -0.21,1.64 -1.18,1.29 -2.52,-0.93 -5.19,-1.82 -6.09,-4.76 -0.3,-1.01 0.4,-1.65 1.68,-1.63 z"
   id="path412"
   inkscape:connector-curvature="0"
   style="fill:#e4af35" />
				<path
   class="st58"
   d="m 667.43,691.86 c -0.39,0.73 -0.79,0.99 -1.19,0.01 0.39,0 0.79,0 1.19,-0.01 z"
   id="path414"
   inkscape:connector-curvature="0"
   style="fill:#1d1d1e" />
				<path
   class="st59"
   d="m 775.91,628.36 c 1.97,-2.11 4.39,-3.02 6.93,-1.5 1.64,0.98 3.82,2.35 1.91,4.96 -2.06,-3.42 -5.33,-3.74 -8.84,-3.46 z"
   id="path416"
   inkscape:connector-curvature="0"
   style="fill:#dcdddd" />
			</g>
		</g>
	</g>
	<circle
   class="st60"
   cx="559.48999"
   cy="557.96002"
   r="304.23999"
   clip-path="url(#SVGID_5_)"
   id="circle424"
   style="fill:none" />
</g>
</svg>